<?xml version="1.0" standalone="no"?>
<!DOCTYPE svg PUBLIC "-//W3C//DTD SVG 1.1//EN" "http://www.w3.org/Graphics/SVG/1.1/DTD/svg11.dtd" >
<svg xmlns="http://www.w3.org/2000/svg" xmlns:xlink="http://www.w3.org/1999/xlink" version="1.1">
<metadata>
Created by FontForge 20161003 at Wed Jun 14 15:30:27 2017
 By www-data
Copyright (c) 2017 by www.fontiran.com (Moslem Ebrahimi). All rights reserved.
</metadata>
<defs>
<font id="IRANSharpWebFaNum-Light" horiz-adv-x="0" >
  <font-face 
    font-family="IRANSharpWeb(FaNum) Light"
    font-weight="300"
    font-stretch="normal"
    units-per-em="2048"
    panose-1="2 11 5 6 3 8 4 2 2 4"
    ascent="1638"
    descent="-410"
    x-height="1082"
    cap-height="1456"
    bbox="-322 -1105 3106 2212"
    underline-thickness="102"
    underline-position="-751"
    unicode-range="U+001D-FEFF"
  />
<missing-glyph horiz-adv-x="1229" 
d="M102 -362v1806h1024v-1806h-1024zM217 -248h795v1577h-795v-1577z" />
    <glyph glyph-name="uniFEFB" unicode="&#xfedf;&#xfe8e;" horiz-adv-x="1203" arabic-form="isolated" 
d="M1072 1640q2 -7 6 -57t7.5 -128.5t7.5 -177.5t6.5 -204t4 -191.5t1.5 -148.5q0 -31 -0.5 -89.5t-3.5 -123.5t-9 -92q-20 -82 -62 -154.5t-98.5 -132.5t-123 -108.5t-134.5 -83.5t-133.5 -55.5t-120.5 -26.5q-15 5 -33 12l-35 14t-43 19q-16 7 -33.5 15t-31.5 15t-24 13
t-11 9q0 3 24.5 7t66.5 12t97 20.5t116 32t122.5 46t116.5 62.5q-45 123 -113.5 252t-154 261.5t-183 267.5t-199.5 271q4 12 8 25q4 11 9 26t11 32q14 38 24.5 62t11.5 24q1 -1 20 -26.5t50 -69.5t72 -103.5t87 -129.5t94 -148t93 -157.5t85 -158t69 -150.5
q6 -15 13.5 -33.5t14 -38.5t12 -40.5t8.5 -39.5q5 -24 5.5 -40t0.5 -22q0 -20 -2 -38q25 15 57.5 54t62 88t50.5 101.5t23 95.5q1 12 1 30q0 19 -1 58t-3.5 109.5t-6.5 153t-8.5 166t-9 163t-8.5 143t-7 106.5t-4 53z" />
    <glyph glyph-name="uniFEFC" unicode="&#xfee0;&#xfe8e;" horiz-adv-x="1412" arabic-form="final" 
d="M1079 1642q3 -10 5.5 -60t4.5 -127t4 -175t4.5 -203.5t5.5 -212t7 -200.5q4 -117 27.5 -210t62.5 -157.5t92 -98.5t117 -34h13v-164h-13q-17 0 -45 3t-61 14.5t-68.5 32.5t-68 57.5t-60 89.5t-44.5 128q-33 -71 -79.5 -130.5t-100.5 -108.5t-113.5 -86.5t-119 -64.5
t-116.5 -43.5t-106 -22.5q-14 5 -32 12l-35 14t-43 19q-17 7 -34 15t-31.5 15t-24 13t-10.5 9q0 2 24 6.5t66 12.5t97.5 20.5t116 32t122 46t116.5 62.5q-45 123 -113.5 252t-153.5 261.5t-183 267.5t-200 271q4 12 8 25q4 11 9.5 26t11.5 32q14 38 24 62t11 24
q1 -1 20 -26.5t50 -69.5t72 -103.5t87 -129.5t94 -148t93.5 -157.5t85 -158t68.5 -150.5q6 -15 13.5 -33.5t14 -38.5t12 -40.5t8.5 -39.5q5 -24 5.5 -42t0.5 -26q0 -17 -1 -32q16 10 36.5 31t41.5 49t41 61.5t36 68t26 67.5t12 62q1 12 1 30q0 19 -1 58t-3.5 109.5t-6.5 153
t-8.5 166t-9 163t-8.5 143t-7 106.5t-4 53z" />
    <glyph glyph-name="uniFEF7" unicode="&#xfedf;&#xfe84;" horiz-adv-x="1203" arabic-form="isolated" 
d="M1072 1640q2 -7 6 -57t7.5 -128.5t7.5 -177.5t6.5 -204t4 -191.5t1.5 -148.5q0 -31 -0.5 -89.5t-3.5 -123.5t-9 -92q-20 -82 -62 -154.5t-98.5 -132.5t-123 -108.5t-134.5 -83.5t-133.5 -55.5t-120.5 -26.5q-15 5 -33 12l-35 14t-43 19q-16 7 -33.5 15t-31.5 15t-24 13
t-11 9q0 3 24.5 7t66.5 12t97 20.5t116 32t122.5 46t116.5 62.5q-45 123 -113.5 252t-154 261.5t-183 267.5t-199.5 271q4 12 8 25q4 11 9 26t11 32q14 38 24.5 62t11.5 24q1 -1 20 -26.5t50 -69.5t72 -103.5t87 -129.5t94 -148t93 -157.5t85 -158t69 -150.5
q6 -15 13.5 -33.5t14 -38.5t12 -40.5t8.5 -39.5q5 -24 5.5 -40t0.5 -22q0 -20 -2 -38q25 15 57.5 54t62 88t50.5 101.5t23 95.5q1 12 1 30q0 19 -1 58t-3.5 109.5t-6.5 153t-8.5 166t-9 163t-8.5 143t-7 106.5t-4 53zM141 1570q-7 4 -22.5 16t-32 31.5t-30 44.5t-15.5 55v6
q0 27 18 64t48.5 72.5t68 60t72.5 24.5q51 0 94.5 -24t79.5 -88l-26 -13q-9 5 -42 16t-90 11q-29 0 -56 -13.5t-48 -31t-34 -34.5t-13 -24q0 -8 10 -26t31 -36.5t55 -34.5t82 -20q30 4 53 8t42.5 8t36.5 8.5t35 9.5q0 -2 -5.5 -22t-21.5 -75q-9 -2 -19.5 -4t-25.5 -5
t-36.5 -7.5t-51.5 -11.5q-43 -9 -77 -19t-67.5 -23.5t-70.5 -31.5t-85 -43l27 87z" />
    <glyph glyph-name="uniFEF8" unicode="&#xfee0;&#xfe84;" horiz-adv-x="1412" arabic-form="final" 
d="M1079 1642q3 -10 5.5 -60t4.5 -127t4 -175t4.5 -203.5t5.5 -212t7 -200.5q4 -117 27.5 -210t62.5 -157.5t92 -98.5t117 -34h13v-164h-13q-17 0 -45 3t-61 14.5t-68.5 32.5t-68 57.5t-60 89.5t-44.5 128q-33 -71 -79.5 -130.5t-100.5 -108.5t-113.5 -86.5t-119 -64.5
t-116.5 -43.5t-106 -22.5q-14 5 -32 12l-35 14t-43 19q-17 7 -34 15t-31.5 15t-24 13t-10.5 9q0 2 24 6.5t66 12.5t97.5 20.5t116 32t122 46t116.5 62.5q-45 123 -113.5 252t-153.5 261.5t-183 267.5t-200 271q4 12 8 25q4 11 9.5 26t11.5 32q14 38 24 62t11 24
q1 -1 20 -26.5t50 -69.5t72 -103.5t87 -129.5t94 -148t93.5 -157.5t85 -158t68.5 -150.5q6 -15 13.5 -33.5t14 -38.5t12 -40.5t8.5 -39.5q5 -24 5.5 -42t0.5 -26q0 -17 -1 -32q16 10 36.5 31t41.5 49t41 61.5t36 68t26 67.5t12 62q1 12 1 30q0 19 -1 58t-3.5 109.5t-6.5 153
t-8.5 166t-9 163t-8.5 143t-7 106.5t-4 53zM141 1570q-7 4 -22.5 16t-32 31.5t-30 44.5t-15.5 55v6q0 27 18 64t48.5 72.5t68 60t72.5 24.5q51 0 94.5 -24t79.5 -88l-26 -13q-9 5 -42 16t-90 11q-29 0 -56 -13.5t-48 -31t-34 -34.5t-13 -24q0 -8 10 -26t31 -36.5t55 -34.5
t82 -20q30 4 53 8t42.5 8t36.5 8.5t35 9.5q0 -2 -5.5 -22t-21.5 -75q-9 -2 -19.5 -4t-25.5 -5t-36.5 -7.5t-51.5 -11.5q-43 -9 -77 -19t-67.5 -23.5t-70.5 -31.5t-85 -43l27 87z" />
    <glyph glyph-name="uniFEF9" unicode="&#xfedf;&#xfe88;" horiz-adv-x="1203" arabic-form="isolated" 
d="M1072 1640q2 -7 6 -57t7.5 -128.5t7.5 -177.5t6.5 -204t4 -191.5t1.5 -148.5q0 -31 -0.5 -89.5t-3.5 -123.5t-9 -92q-20 -82 -62 -154.5t-98.5 -132.5t-123 -108.5t-134.5 -83.5t-133.5 -55.5t-120.5 -26.5q-15 5 -33 12l-35 14t-43 19q-16 7 -33.5 15t-31.5 15t-24 13
t-11 9q0 3 24.5 7t66.5 12t97 20.5t116 32t122.5 46t116.5 62.5q-45 123 -113.5 252t-154 261.5t-183 267.5t-199.5 271q4 12 8 25q4 11 9 26t11 32q14 38 24.5 62t11.5 24q1 -1 20 -26.5t50 -69.5t72 -103.5t87 -129.5t94 -148t93 -157.5t85 -158t69 -150.5
q6 -15 13.5 -33.5t14 -38.5t12 -40.5t8.5 -39.5q5 -24 5.5 -40t0.5 -22q0 -20 -2 -38q25 15 57.5 54t62 88t50.5 101.5t23 95.5q1 12 1 30q0 19 -1 58t-3.5 109.5t-6.5 153t-8.5 166t-9 163t-8.5 143t-7 106.5t-4 53zM695 -526l116 65q-7 4 -22.5 16t-32 31.5t-30 44.5
t-15.5 55v6q0 27 18 64t48.5 72.5t68 60t72.5 24.5q51 0 94.5 -24t79.5 -88l-26 -13q-9 5 -42 16t-90 11q-29 0 -56 -13.5t-48 -31t-34 -34.5t-13 -24q0 -8 10 -26t31 -36.5t55 -34.5t82 -20q30 4 53 8t42.5 8t36.5 8.5t35 9.5q0 -2 -5.5 -22t-21.5 -75q-9 -2 -19.5 -4
t-25.5 -5t-36.5 -7.5t-51.5 -11.5q-43 -9 -77 -19t-67.5 -23.5t-70.5 -31.5t-85 -43z" />
    <glyph glyph-name="uniFEFA" unicode="&#xfee0;&#xfe88;" horiz-adv-x="1412" arabic-form="final" 
d="M1079 1642q3 -10 5.5 -60t4.5 -127t4 -175t4.5 -203.5t5.5 -212t7 -200.5q4 -117 27.5 -210t62.5 -157.5t92 -98.5t117 -34h13v-164h-13q-17 0 -45 3t-61 14.5t-68.5 32.5t-68 57.5t-60 89.5t-44.5 128q-33 -71 -79.5 -130.5t-100.5 -108.5t-113.5 -86.5t-119 -64.5
t-116.5 -43.5t-106 -22.5q-14 5 -32 12l-35 14t-43 19q-17 7 -34 15t-31.5 15t-24 13t-10.5 9q0 2 24 6.5t66 12.5t97.5 20.5t116 32t122 46t116.5 62.5q-45 123 -113.5 252t-153.5 261.5t-183 267.5t-200 271q4 12 8 25q4 11 9.5 26t11.5 32q14 38 24 62t11 24
q1 -1 20 -26.5t50 -69.5t72 -103.5t87 -129.5t94 -148t93.5 -157.5t85 -158t68.5 -150.5q6 -15 13.5 -33.5t14 -38.5t12 -40.5t8.5 -39.5q5 -24 5.5 -42t0.5 -26q0 -17 -1 -32q16 10 36.5 31t41.5 49t41 61.5t36 68t26 67.5t12 62q1 12 1 30q0 19 -1 58t-3.5 109.5t-6.5 153
t-8.5 166t-9 163t-8.5 143t-7 106.5t-4 53zM726 -526l116 65q-7 4 -22.5 16t-32 31.5t-30 44.5t-15.5 55v6q0 27 18 64t48.5 72.5t68 60t72.5 24.5q51 0 94.5 -24t79.5 -88l-26 -13q-9 5 -42 16t-90 11q-29 0 -56 -13.5t-48 -31t-34 -34.5t-13 -24q0 -8 10 -26t31 -36.5
t55 -34.5t82 -20q30 4 53 8t42.5 8t36.5 8.5t35 9.5q0 -2 -5.5 -22t-21.5 -75q-9 -2 -19.5 -4t-25.5 -5t-36.5 -7.5t-51.5 -11.5q-43 -9 -77 -19t-67.5 -23.5t-70.5 -31.5t-85 -43z" />
    <glyph glyph-name="uniFEF5" unicode="&#xfedf;&#xfe82;" horiz-adv-x="1203" arabic-form="isolated" 
d="M1072 1640q2 -7 6 -57t7.5 -128.5t7.5 -177.5t6.5 -204t4 -191.5t1.5 -148.5q0 -31 -0.5 -89.5t-3.5 -123.5t-9 -92q-20 -82 -62 -154.5t-98.5 -132.5t-123 -108.5t-134.5 -83.5t-133.5 -55.5t-120.5 -26.5q-15 5 -33 12l-35 14t-43 19q-16 7 -33.5 15t-31.5 15t-24 13
t-11 9q0 3 24.5 7t66.5 12t97 20.5t116 32t122.5 46t116.5 62.5q-45 123 -113.5 252t-154 261.5t-183 267.5t-199.5 271q4 12 8 25q4 11 9 26t11 32q14 38 24.5 62t11.5 24q1 -1 20 -26.5t50 -69.5t72 -103.5t87 -129.5t94 -148t93 -157.5t85 -158t69 -150.5
q6 -15 13.5 -33.5t14 -38.5t12 -40.5t8.5 -39.5q5 -24 5.5 -40t0.5 -22q0 -20 -2 -38q25 15 57.5 54t62 88t50.5 101.5t23 95.5q1 12 1 30q0 19 -1 58t-3.5 109.5t-6.5 153t-8.5 166t-9 163t-8.5 143t-7 106.5t-4 53zM711 1666q-12 -20 -33.5 -46t-52 -51t-68.5 -43.5
t-83 -23.5q-23 -3 -49 -3q-35 0 -71.5 3.5t-71.5 9t-66.5 12t-55.5 11.5q-43 -23 -69 -54t-44 -57l-24 16q6 29 20 62.5t33 64.5t41.5 55t44.5 34q36 -7 71.5 -14.5t73.5 -14t80.5 -10.5t94.5 -4q36 0 68.5 8.5t60.5 20.5t49 24.5t34 20.5z" />
    <glyph glyph-name="uniFEF6" unicode="&#xfee0;&#xfe82;" horiz-adv-x="1412" arabic-form="final" 
d="M1079 1642q3 -10 5.5 -60t4.5 -127t4 -175t4.5 -203.5t5.5 -212t7 -200.5q4 -117 27.5 -210t62.5 -157.5t92 -98.5t117 -34h13v-164h-13q-17 0 -45 3t-61 14.5t-68.5 32.5t-68 57.5t-60 89.5t-44.5 128q-33 -71 -79.5 -130.5t-100.5 -108.5t-113.5 -86.5t-119 -64.5
t-116.5 -43.5t-106 -22.5q-14 5 -32 12l-35 14t-43 19q-17 7 -34 15t-31.5 15t-24 13t-10.5 9q0 2 24 6.5t66 12.5t97.5 20.5t116 32t122 46t116.5 62.5q-45 123 -113.5 252t-153.5 261.5t-183 267.5t-200 271q4 12 8 25q4 11 9.5 26t11.5 32q14 38 24 62t11 24
q1 -1 20 -26.5t50 -69.5t72 -103.5t87 -129.5t94 -148t93.5 -157.5t85 -158t68.5 -150.5q6 -15 13.5 -33.5t14 -38.5t12 -40.5t8.5 -39.5q5 -24 5.5 -42t0.5 -26q0 -17 -1 -32q16 10 36.5 31t41.5 49t41 61.5t36 68t26 67.5t12 62q1 12 1 30q0 19 -1 58t-3.5 109.5t-6.5 153
t-8.5 166t-9 163t-8.5 143t-7 106.5t-4 53zM711 1666q-12 -20 -33.5 -46t-52 -51t-68.5 -43.5t-83 -23.5q-23 -3 -49 -3q-35 0 -71.5 3.5t-71.5 9t-66.5 12t-55.5 11.5q-43 -23 -69 -54t-44 -57l-24 16q6 29 20 62.5t33 64.5t41.5 55t44.5 34q36 -7 71.5 -14.5t73.5 -14
t80.5 -10.5t94.5 -4q36 0 68.5 8.5t60.5 20.5t49 24.5t34 20.5z" />
    <glyph glyph-name="uni06440671.isol" unicode="&#xfedf;&#xfb51;" horiz-adv-x="1203" 
d="M1072 1640q2 -7 6 -57t7.5 -128.5t7.5 -177.5t6.5 -204t4 -191.5t1.5 -148.5q0 -31 -0.5 -89.5t-3.5 -123.5t-9 -92q-20 -82 -62 -154.5t-98.5 -132.5t-123 -108.5t-134.5 -83.5t-133.5 -55.5t-120.5 -26.5q-15 5 -33 12l-35 14t-43 19q-16 7 -33.5 15t-31.5 15t-24 13
t-11 9q0 3 24.5 7t66.5 12t97 20.5t116 32t122.5 46t116.5 62.5q-45 123 -113.5 252t-154 261.5t-183 267.5t-199.5 271q4 12 8 25q4 11 9 26t11 32q14 38 24.5 62t11.5 24q1 -1 20 -26.5t50 -69.5t72 -103.5t87 -129.5t94 -148t93 -157.5t85 -158t69 -150.5
q6 -15 13.5 -33.5t14 -38.5t12 -40.5t8.5 -39.5q5 -24 5.5 -40t0.5 -22q0 -20 -2 -38q25 15 57.5 54t62 88t50.5 101.5t23 95.5q1 12 1 30q0 19 -1 58t-3.5 109.5t-6.5 153t-8.5 166t-9 163t-8.5 143t-7 106.5t-4 53zM556 1619q-5 -28 -25.5 -54t-45.5 -53
q-21 -14 -40.5 -20.5t-36 -9t-29.5 -2.5q-2 0 -11 0.5t-21 0.5q-33 3 -65.5 13t-61.5 21t-52 19.5t-36 8.5q-8 0 -19.5 -6t-24 -15.5t-25.5 -21t-23 -21.5l-37 30q54 66 93.5 101t59.5 36l53 -17q61 74 117 114.5t93 40.5h2q14 0 37 -14.5t44.5 -38t37.5 -53t16 -59.5z
M503 1616q-9 16 -22 30.5t-27 25t-27 15.5t-23 5h-3q-31 -3 -65 -26.5t-79 -55.5q10 -5 39.5 -12.5t54 -9.5t37.5 -2q24 0 55.5 4.5t59.5 25.5z" />
    <glyph glyph-name="uni06440671.fina" unicode="&#xfee0;&#xfb51;" horiz-adv-x="1412" 
d="M1079 1642q3 -10 5.5 -60t4.5 -127t4 -175t4.5 -203.5t5.5 -212t7 -200.5q4 -117 27.5 -210t62.5 -157.5t92 -98.5t117 -34h13v-164h-13q-17 0 -45 3t-61 14.5t-68.5 32.5t-68 57.5t-60 89.5t-44.5 128q-33 -71 -79.5 -130.5t-100.5 -108.5t-113.5 -86.5t-119 -64.5
t-116.5 -43.5t-106 -22.5q-14 5 -32 12l-35 14t-43 19q-17 7 -34 15t-31.5 15t-24 13t-10.5 9q0 2 24 6.5t66 12.5t97.5 20.5t116 32t122 46t116.5 62.5q-45 123 -113.5 252t-153.5 261.5t-183 267.5t-200 271q4 12 8 25q4 11 9.5 26t11.5 32q14 38 24 62t11 24
q1 -1 20 -26.5t50 -69.5t72 -103.5t87 -129.5t94 -148t93.5 -157.5t85 -158t68.5 -150.5q6 -15 13.5 -33.5t14 -38.5t12 -40.5t8.5 -39.5q5 -24 5.5 -42t0.5 -26q0 -17 -1 -32q16 10 36.5 31t41.5 49t41 61.5t36 68t26 67.5t12 62q1 12 1 30q0 19 -1 58t-3.5 109.5t-6.5 153
t-8.5 166t-9 163t-8.5 143t-7 106.5t-4 53zM556 1619q-5 -28 -25.5 -54t-45.5 -53q-21 -14 -40.5 -20.5t-36 -9t-29.5 -2.5q-2 0 -11 0.5t-21 0.5q-33 3 -65.5 13t-61.5 21t-52 19.5t-36 8.5q-8 0 -19.5 -6t-24 -15.5t-25.5 -21t-23 -21.5l-37 30q54 66 93.5 101t59.5 36
l53 -17q61 74 117 114.5t93 40.5h2q14 0 37 -14.5t44.5 -38t37.5 -53t16 -59.5zM503 1616q-9 16 -22 30.5t-27 25t-27 15.5t-23 5h-3q-31 -3 -65 -26.5t-79 -55.5q10 -5 39.5 -12.5t54 -9.5t37.5 -2q24 0 55.5 4.5t59.5 25.5z" />
    <glyph glyph-name="uniFDF2" unicode="&#xfedf;&#xfee0;&#xfeea;" horiz-adv-x="1938" arabic-form="isolated" 
d="M1809 1500q5 -2 5 -11q0 -1 -0.5 -2.5t-0.5 -3.5q0 -8 2 -14q11 -80 23 -178.5t23.5 -204.5t22 -213.5t17.5 -205t9 -156t2 -88.5q0 -40 -2 -71q-5 -71 -19 -136t-36 -103q-43 -51 -109.5 -82t-158.5 -31q-55 0 -103.5 14t-91.5 44.5t-81 78t-72 115.5q-10 -24 -23 -52
t-31.5 -56t-43.5 -54t-59.5 -46t-79.5 -32t-103 -12q-83 0 -141 23.5t-98.5 64t-66 95t-41.5 116.5l-149 -112q-5 -1 -11 -2q-5 -1 -12.5 -1h-18.5q-38 0 -109.5 11.5t-172.5 52.5q-21 42 -27 88t-6 82q0 16 2 49.5t13.5 74t26.5 54.5q31 29 81.5 61t109.5 65t120 65.5
t113 63.5l-8 97l141 121q9 -182 18 -334q4 -65 7.5 -129.5t7.5 -120t7 -96.5t5 -59q5 -42 24 -72t47 -49.5t63 -28.5t72 -9q28 0 67.5 8.5t78.5 28t72 51t49 77.5q3 11 4.5 57.5t1.5 116.5t-1.5 157.5t-3.5 180.5t-4 185t-3 172q34 35 61 63l23 23l20 20t15 14.5t7 5.5h1
q5 -2 5.5 -13t0.5 -18l15 -902q8 -37 33.5 -78.5t63.5 -76t86 -57t102 -22.5q63 0 107 19t86 51q5 9 5 54q0 8 -0.5 42t-7 126.5t-17.5 208.5t-25.5 238.5t-31.5 243t-35 221.5q37 37 67 66q13 12 25 24l21.5 21.5t16 15t7.5 5.5h1zM550 334l-35 392q-87 -38 -156.5 -67.5
t-120.5 -53.5t-83.5 -45t-44.5 -42q3 -55 18 -90.5t56 -56.5t115 -29t195 -8h56zM1445 1905q3 0 13.5 -28t21.5 -68.5t17.5 -81t6.5 -70.5v-16q-11 -32 -24 -60.5t-29.5 -49.5t-38 -34t-49.5 -15h-10q-32 0 -61.5 15t-45.5 50q-9 -18 -21 -34t-28.5 -28.5t-40 -19.5
t-55.5 -7h-8t-9 1q-47 6 -72.5 27t-36.5 49t-11 59q0 2 0.5 20.5t7 50.5t15.5 58t15 40l35 -15q0 -1 -1 -4t-2 -7l-2 -10q-6 -32 -6 -60t8 -49.5t23.5 -36t40.5 -18.5q33 3 55 22.5t37 47.5t24 61.5t16 66.5l47 5q0 -13 -0.5 -24.5t-2 -24.5t-3.5 -28.5t-5 -37.5
q8 -26 28 -43t53 -17h3q7 0 23 1t33.5 6t32.5 15t20 28q0 22 -9.5 50t-21.5 54.5t-24 46.5t-16 25q14 25 25 44q10 17 19 30.5t13 13.5zM1255 2206q2 0 3 -7q0 -1 4.5 -24.5t8.5 -57.5t4 -73t-9 -70q-3 -13 -11.5 -23t-17.5 -17.5t-16.5 -11.5t-8.5 -4q2 25 2 48
q0 46 -10 93.5t-22 89.5q8 7 19 17t22 19t19.5 15t12.5 6z" />
    <glyph glyph-name="uniFDFC" unicode="&#x631;&#xfbfe;&#xfe8e;&#x644;" horiz-adv-x="3154" arabic-form="isolated" 
d="M2938 622q9 -7 24.5 -38.5t33.5 -78t36.5 -104.5t34 -117t26 -115t12.5 -100q1 -14 1 -28q0 -100 -35 -190t-95.5 -166t-133.5 -132.5t-140 -93.5t-117.5 -55.5t-65.5 -18.5l-6 2q-10 6 -17 10t-14.5 8t-18.5 10t-29 16l-93 49q-8 6 -8 11q0 1 3 4t7 4q71 20 147.5 52
t149.5 73t138.5 91.5t115.5 107.5t80 121t32 132q-17 39 -34.5 79.5t-38.5 87t-46.5 100.5t-57.5 120q17 27 34 55t32 51.5t26 38t17 14.5zM2367 879q5 0 21 -30t35 -83.5t36 -126.5t22 -137t5 -107q0 -47 -5.5 -119.5t-36.5 -170.5q-30 -27 -85 -47t-129.5 -32.5t-164 -19
t-187.5 -6.5h-59v164h55q112 0 204.5 5.5t159 13.5t104.5 17t42 16q1 13 1 26q0 58 -12 126t-31.5 136.5t-41.5 124.5t-37 88q34 56 54 88t30.5 48t14 20.5t5.5 5.5zM2141 -555l-142 142l142 142l142 -142zM1781 -555l-142 142l142 142l142 -142zM1525 1649l1 -1q5 -4 6 -13
t2 -16q7 -166 12 -298.5t9.5 -241.5t7.5 -198.5t6 -169t5.5 -154t5.5 -153.5q1 -30 3 -58t3.5 -52t3.5 -42l3 -27q16 -15 47 -26.5t64 -19t62 -11.5t43 -4h38v-164h-33q-96 0 -160 22t-104 64t-59 101.5t-25 134.5q-14 186 -25 344t-20 299t-17 271.5t-17 263.5
q10 10 31 34.5t43.5 50t40.5 45t23 19.5zM1206 1646q2 0 3 -1q3 -2 4 -12.5t2 -27t1 -36v-39.5q0 -5 -0.5 -62t-1 -149t-1 -211t-2 -248t-3.5 -259t-4 -245t-5 -206t-6 -142q-2 -147 -34.5 -256t-104.5 -180.5t-188.5 -107t-286.5 -35.5q-111 3 -200.5 31t-153.5 82.5
t-98.5 136.5t-34.5 194t36.5 252t115.5 315l67 -42q-27 -67 -52 -138.5t-42 -142.5q-28 -114 -28 -201q0 -14 3 -68t48.5 -116.5t135.5 -92.5t230 -30q129 0 220 23t148.5 83t81.5 159.5t24 240.5v34q-1 49 -2.5 127.5t-3.5 175.5t-4 206t-4 217.5t-4 210.5t-3 184.5
t-2 140.5t-1 78z" />
    <glyph glyph-name="uni0621" unicode="&#x621;" horiz-adv-x="973" arabic-form="isolated" 
d="M574 209q47 7 83.5 14t67.5 14t59.5 14.5t58.5 15.5l-27 -151q-8 -2 -19 -4t-21 -4q-99 -19 -183 -38t-166.5 -46t-169 -65.5t-191.5 -97.5l45 138l219 123q-23 12 -53 37t-58 59.5t-48.5 75.5t-24.5 86v8q0 30 14 69.5t40.5 83t62.5 85t77 74t84 52t84 19.5q43 0 83 -10
t77 -33t71.5 -61.5t67.5 -96.5l-55 -23q-8 4 -26.5 15.5t-46.5 23t-61.5 18.5t-69.5 7h-18q-50 -2 -94 -27.5t-77 -57.5t-52 -61.5t-19 -39.5q0 -13 17.5 -44.5t53.5 -66.5t89.5 -65t125.5 -40z" />
    <glyph glyph-name="uni0627" unicode="&#x627;" horiz-adv-x="505" arabic-form="isolated" 
d="M327 1649q2 -2 3 -5q4 -6 5 -31q1 -50 1.5 -115.5t0.5 -135v-136.5v-119q0 -59 -1 -133.5t-2.5 -157t-3.5 -169.5t-5.5 -171.5t-7.5 -163t-9 -143.5q-18 -46 -33 -85q-6 -17 -12.5 -33t-12.5 -30t-10.5 -24t-6.5 -14q-8 -9 -10 -9q-1 0 -3 1.5t-2 6.5q-3 121 -6 251
t-5.5 259.5t-5 254t-4.5 236.5q-4 262 -8 515q37 42 67 75q13 14 25 28t21.5 24.5t16 17t7.5 6.5h1z" />
    <glyph glyph-name="uniFE8E" unicode="&#x627;" horiz-adv-x="596" arabic-form="final" 
d="M284 1649l1 -1q5 -4 6 -13t2 -16q7 -166 12 -298.5t9.5 -241.5t7.5 -198.5t6 -169t5.5 -154t5.5 -153.5q1 -30 3 -58t3.5 -52t3.5 -42l3 -27q16 -15 47 -26.5t64 -19t62 -11.5t43 -4h38v-164h-33q-96 0 -160 22t-104 64t-59 101.5t-25 134.5q-14 186 -25 344t-20 299
t-17 271.5t-17 263.5q10 10 31 34.5t43.5 50t40.5 45t23 19.5z" />
    <glyph glyph-name="uni062D" unicode="&#x62d;" horiz-adv-x="1505" arabic-form="isolated" 
d="M473 916q34 0 79.5 -14t104 -37t130.5 -51.5t158 -58.5t187.5 -57.5t218.5 -47.5l-81 -164q-256 -30 -439.5 -88t-307.5 -133.5t-193.5 -163.5t-96.5 -178q16 -90 52.5 -159.5t87.5 -121.5t114.5 -87.5t134.5 -57.5t147 -31.5t152 -9.5q69 0 136.5 7t128.5 18.5t114 27
t95 32.5v-2q-6 -15 -15 -41l-18 -52q-11 -30 -21 -63q-88 -45 -196.5 -68t-226.5 -23q-94 0 -188 15.5t-180 48.5t-160.5 83t-129 118.5t-85 155t-30.5 191.5v7q0 41 13 100t48.5 125.5t98 136t162.5 130t242.5 107.5t337.5 70q-56 12 -120.5 30t-130 38.5t-127.5 41.5
t-113 37.5t-86.5 27.5t-48.5 11h-1q-19 0 -42.5 -23t-46 -53.5t-41 -62t-28.5 -47.5l-70 45q39 67 70 121t62 91.5t66 58t83 20.5z" />
    <glyph glyph-name="uniFEA3" unicode="&#x62d;" horiz-adv-x="1443" arabic-form="initial" 
d="M449 861q30 0 85 -18.5t127.5 -47.5t158 -64t176.5 -68.5t183.5 -61t178.5 -41.5l-82 -161q-45 -14 -117 -49t-165.5 -79.5t-206.5 -92t-239.5 -87.5t-263.5 -65.5t-279 -25.5h-25v165h25q166 0 319.5 30.5t290 77t254 103t212.5 109.5q-69 17 -139.5 40.5t-138.5 47.5
t-131 47.5t-116.5 42t-95.5 30t-67 11.5h-3q-15 -1 -35 -18.5t-41 -43t-42.5 -56t-39.5 -56.5l-69 34q39 67 70 121.5t62 93t66 60t83 22.5h5z" />
    <glyph glyph-name="uniFEA4" unicode="&#x62d;" horiz-adv-x="1443" arabic-form="medial" 
d="M449 861q30 0 85 -18.5t127.5 -47.5t158 -64t176.5 -68.5t183.5 -61t178.5 -41.5l-78 -153l-147 -69q1 -52 23.5 -85.5t61.5 -53t93 -27.5t119 -8h23v-164h-23q-77 0 -147.5 13t-125.5 46t-88 89t-35 141q-94 -45 -210.5 -96t-248.5 -93.5t-276 -71t-294 -28.5h-25v165
h25q166 0 319.5 30.5t290 77t254 103t212.5 109.5q-69 17 -139.5 40.5t-138.5 47.5t-131 47.5t-116.5 42t-95.5 30t-67 11.5h-3q-15 -1 -35 -18.5t-41 -43t-42.5 -56t-39.5 -56.5l-69 34q39 67 70 121.5t62 93t66 60t83 22.5h5z" />
    <glyph glyph-name="uniFEA2" unicode="&#x62d;" horiz-adv-x="1492" arabic-form="final" 
d="M473 916q34 0 79.5 -14t104 -37t130.5 -51.5t158 -58.5t187.5 -57.5t218.5 -47.5l-81 -164q-21 -3 -41.5 -5.5t-36.5 -4.5t-26.5 -3.5t-13.5 -2.5q0 -67 16.5 -123t50.5 -96.5t87 -63.5t127 -23h69v-164h-69q-116 0 -188.5 37t-114 99.5t-58 144.5t-19.5 171
q-198 -38 -341.5 -95.5t-242 -127t-155.5 -148t-81 -158.5q16 -90 52.5 -159.5t87.5 -121.5t114.5 -87.5t134.5 -57.5t147 -31.5t152 -9.5q69 0 136.5 7t128.5 18.5t114 27t95 32.5v-2q-6 -15 -15 -41l-18 -52q-11 -30 -21 -63q-88 -45 -196.5 -68t-226.5 -23
q-94 0 -188 15.5t-180 48.5t-160.5 83t-129 118.5t-85 155t-30.5 191.5v7q0 41 13 100t48.5 125.5t98 136t162.5 130t242.5 107.5t337.5 70q-56 12 -120.5 30t-130 38.5t-127.5 41.5t-113 37.5t-86.5 27.5t-48.5 11h-1q-19 0 -42.5 -23t-46 -53.5t-41 -62t-28.5 -47.5
l-70 45q39 67 70 121t62 91.5t66 58t83 20.5z" />
    <glyph glyph-name="uni062F" unicode="&#x62f;" horiz-adv-x="973" arabic-form="isolated" 
d="M436 1061q3 0 32.5 -24t73 -66t95 -98.5t99.5 -121.5t86.5 -136t55.5 -141q3 -12 6.5 -47t3.5 -72q0 -13 -1 -47.5t-10.5 -95t-33.5 -113.5q-4 -9 -23.5 -26t-60 -34t-104 -30t-155.5 -13q-71 0 -134.5 7t-112 17t-77.5 19t-31 14q-13 25 -20 54.5t-9.5 50.5t-2.5 33
q0 8 1.5 20.5t6.5 12.5h1q13 -8 40 -19t70.5 -20.5t105.5 -16.5t145 -7q55 1 104 3t91 11t75.5 28t56.5 54q-2 51 -26.5 111t-63.5 123t-88.5 125.5t-101 119.5t-101.5 105t-90 82q7 12 22 35l30 46t28 40t17 17z" />
    <glyph glyph-name="uni0631" unicode="&#x631;" horiz-adv-x="744" arabic-form="isolated" 
d="M480 622q9 -7 24.5 -38.5t33.5 -78t36.5 -104.5t34 -117t26 -115t12.5 -100q1 -14 1 -28q0 -100 -35 -190t-95.5 -166t-133.5 -132.5t-140 -93.5t-117.5 -55.5t-65.5 -18.5l-6 2q-10 6 -17 10t-14.5 8t-18.5 10t-29 16l-93 49q-8 6 -8 11q0 1 3 4t7 4q71 20 147.5 52
t149.5 73t138.5 91.5t115.5 107.5t80 121t32 132q-17 39 -34.5 79.5t-38.5 87t-46.5 100.5t-57.5 120q17 27 34 55t32 51.5t26 38t17 14.5z" />
    <glyph glyph-name="uniFEAE" unicode="&#x631;" horiz-adv-x="789" arabic-form="final" 
d="M497 617q18 -47 37 -98.5t39.5 -102t44.5 -96t50.5 -80.5t57.5 -55.5t67 -20.5h6v-164h-9q-15 0 -35 3.5t-40.5 11.5t-40 20.5t-35.5 31.5q3 -28 3 -55q0 -50 -13.5 -109.5t-47.5 -122.5t-81 -116.5t-98.5 -97.5t-104.5 -77t-99.5 -56t-81.5 -34.5t-51 -11.5q-7 0 -9 1
q-13 6 -37 18.5t-50 26.5t-49.5 26.5t-35.5 19.5q-8 7 -8 11q0 2 3 4.5t6 3.5q138 42 258 101.5t208.5 134t139 162.5t50.5 187q-21 55 -36.5 96t-31 81.5t-34 88t-44.5 115.5z" />
    <glyph glyph-name="uni0633" unicode="&#x633;" horiz-adv-x="2495" arabic-form="isolated" 
d="M2292 822q4 0 18.5 -40.5t31 -109.5t28.5 -157.5t12 -183.5v-15q-17 -70 -45 -128t-67 -100t-88 -65t-108 -23h-10q-47 0 -88 16t-74 43.5t-56 63.5t-33 77q-19 -41 -41 -77.5t-53.5 -63.5t-74.5 -43t-103 -16q-46 0 -91 11.5t-73 40.5q0 -150 -44 -273.5t-130 -211.5
t-213 -136.5t-293 -48.5q-120 0 -218.5 29t-170 88.5t-112 150.5t-43 159.5t-2.5 82.5q0 112 34 259.5t116 338.5l67 -39q-38 -106 -68.5 -212.5t-40 -180t-9.5 -119.5q0 -45 9.5 -109t58 -127t138 -100t232.5 -39h15q147 0 251.5 36t172 94t102 132t42.5 150
q-19 63 -34 110t-30.5 94t-34 101.5t-43.5 131.5l113 163q41 -114 66 -192.5t53.5 -127t71.5 -70t121 -21.5q45 0 77 18.5t54.5 49.5t36.5 71t23.5 83t15.5 85.5t12 79.5l93 30l-3.5 -56t-3 -47.5t-4.5 -49t-8 -60.5q5 -32 25 -68t50 -66t68 -50t78 -20q48 0 83.5 8.5
t61.5 26.5t43.5 46.5t29.5 69.5q-9 54 -21 102t-25 91.5t-26.5 83t-24.5 77.5q25 43 46 76l18 28t16.5 24.5t13.5 17t9 6.5z" />
    <glyph glyph-name="uniFEB3" unicode="&#x633;" horiz-adv-x="1505" arabic-form="initial" 
d="M1323 822q4 0 17 -40.5t26.5 -109.5t24 -157t10.5 -182v-17q-23 -72 -53 -130.5t-68.5 -100t-86 -63.5t-106.5 -22h-10q-57 0 -96.5 16t-67 43.5t-44 63.5t-26.5 77q-19 -41 -47 -77t-64 -63t-79 -43t-92 -16h-6q-50 0 -88.5 15.5t-65 43t-41.5 65t-18 81.5
q-32 -75 -75 -116.5t-91 -61.5t-98.5 -24t-97.5 -4v165h41q81 0 137 31.5t94.5 84.5t64 122.5t46.5 145.5l94 33q-13 -46 -22.5 -83.5t-19.5 -77.5q-4 -17 -5.5 -34.5t-1.5 -27.5q0 -17 3 -40t13.5 -51.5t30.5 -51.5t51.5 -37t76.5 -14t80 19t62.5 50t48.5 71.5t37 83.5
t28.5 85t22.5 78l93 30q-8 -32 -13.5 -59t-11.5 -53.5t-13.5 -55t-17.5 -62.5q5 -32 19 -65t37 -60t54.5 -44.5t71.5 -17.5q96 0 148 35t76 116q-18 108 -40 193t-45 161q25 43 46 76l18 28t16.5 24.5t13.5 17t9 6.5z" />
    <glyph glyph-name="uniFEB4" unicode="&#x633;" horiz-adv-x="1598" arabic-form="medial" 
d="M465 582q-13 -46 -22.5 -83.5t-19.5 -77.5q-4 -17 -8.5 -43t-5 -41t-0.5 -17q0 -26 6 -53.5t22 -50.5t45 -37t74 -14t80.5 19t63.5 50t49.5 71.5t38 83.5t29 85t22.5 78l93 30q-7 -32 -13.5 -59t-13 -53.5t-14.5 -55t-19 -62.5q5 -32 18.5 -65t36 -60t54 -44.5
t71.5 -17.5q73 0 118.5 38t71.5 96t37 125.5t16 126.5l89 31q-1 -34 -3.5 -63t-6 -57t-9 -56t-12.5 -59q9 -42 35 -76t62 -58t77.5 -36.5t80.5 -12.5v-164q-69 1 -121 17.5t-89 44t-59.5 64t-31.5 78.5q-46 -103 -111.5 -153t-145.5 -50q-57 0 -96.5 16t-66.5 43t-44 63
t-27 77q-19 -41 -47 -77t-64 -63t-79 -43t-92 -16h-6q-50 0 -85.5 15.5t-58.5 43t-35 65t-15 81.5q-32 -75 -70.5 -116.5t-80.5 -61.5t-85.5 -24t-86.5 -4h-31v164h49q82 0 137.5 31.5t94 85t64 123t46.5 145.5z" />
    <glyph glyph-name="uniFEB2" unicode="&#x633;" horiz-adv-x="2609" arabic-form="final" 
d="M1364 50q0 -150 -43.5 -273t-129 -211t-212 -136t-292.5 -48q-180 0 -310 66t-182 184.5t-52 259.5q0 49 13 180.5t136 417.5l66 -39q-38 -106 -68.5 -212.5t-39.5 -179.5t-9 -118q0 -47 9.5 -111t57.5 -127t137.5 -100t232.5 -39h16q147 0 250.5 36t171 94t101.5 132
t42 150q-18 63 -33 110l-30 94t-33 101.5t-43 131.5q7 13 23.5 39.5t34 53.5t32 48t18.5 22q3 0 4 -1v1q28 -76 47.5 -136t37 -105.5t36.5 -78t44.5 -52.5t61.5 -29.5t88 -9.5q72 0 118.5 34.5t78 89.5t53.5 124.5t44 138.5l94 31q-10 -51 -25 -105.5t-34 -123.5
q7 -32 19 -65.5t32.5 -61t52 -45t76.5 -17.5q76 0 120 35.5t68 92t34 125t18 134.5l89 31v-18q0 -17 -2 -43.5t-6 -56.5t-10 -61t-13 -57q5 -45 29 -79t58.5 -57.5t76.5 -35t84 -11.5h17v-164h-15q-68 0 -119 15.5t-87.5 43t-58.5 64.5t-31 79q-52 -101 -110.5 -150
t-143.5 -51q-55 1 -92 16.5t-63 41.5t-44.5 62t-36.5 79q-21 -41 -46.5 -77t-58.5 -63.5t-75 -43.5t-95 -16q-23 0 -48.5 2.5t-50 8t-45.5 15t-35 24.5z" />
    <glyph glyph-name="uni0635" unicode="&#x635;" horiz-adv-x="2590" arabic-form="isolated" 
d="M1840 151q70 0 144 7t146 24.5t138.5 46t121.5 71.5q20 55 20 109q0 5 -1 37t-30 78.5t-87.5 75.5t-149.5 29q-16 0 -32 -1t-33 -3q-67 -7 -129.5 -33t-120 -63t-109 -81.5t-95.5 -89t-80 -85.5t-62 -70q11 -8 43.5 -17t80 -17t108 -13t127.5 -5zM2157 815
q69 0 130 -17.5t109.5 -57t82.5 -103t48 -155.5q-10 -33 -23.5 -72.5t-28.5 -79t-31 -77t-31 -66.5q-38 -43 -99.5 -79.5t-137.5 -63.5t-163.5 -42t-178.5 -15q-76 0 -147 5.5t-132 17.5t-108.5 31t-75.5 46q2 -33 2 -66q0 -59 -9 -132.5t-41 -152t-85.5 -143.5t-131 -112
t-180.5 -73t-233 -26q-180 0 -310 66t-182 184.5t-52 259.5q0 49 13 180.5t136 417.5l66 -39q-38 -106 -68.5 -213t-39.5 -179.5t-9 -117.5q0 -47 9.5 -111t57.5 -127t137.5 -100t232.5 -39h16q147 0 250 36t169.5 94t100 132t41.5 150q-17 63 -33 122.5t-31.5 119.5
t-32.5 122t-35 130l113 161q12 -42 28.5 -101t37.5 -116.5t44.5 -105t48.5 -68.5q29 35 75 91t104.5 120t127 129t143 117t152 85t154.5 33z" />
    <glyph glyph-name="uniFEBB" unicode="&#x635;" horiz-adv-x="1691" arabic-form="initial" 
d="M957 141q69 0 142.5 7t145.5 25t139 48.5t123 77.5q11 48 11 94q0 17 -3.5 55.5t-32.5 85t-83.5 74.5t-138.5 28q-17 0 -34 -1t-37 -3q-70 -9 -134 -38.5t-121.5 -71t-106.5 -90t-89.5 -96t-70.5 -89.5t-49 -70q13 -4 44 -10t76 -12t101 -10t118 -4zM1297 814
q61 0 107.5 -16t80.5 -42t57.5 -59t38.5 -68q36 -85 38 -201q-20 -66 -45 -136.5t-55 -128.5q-38 -43 -100 -77t-138 -58t-162 -36.5t-173 -12.5q-142 0 -242 14.5t-164.5 48t-97.5 88.5t-42 136q-29 -69 -67.5 -119t-87.5 -82.5t-110 -48t-136 -16.5h-18l-1 165h19
q75 0 131.5 21t98 56t70.5 80t50.5 93t38 95.5t32.5 87.5l91 31q-13 -34 -23 -75t-14 -79t-4 -72q0 -7 0.5 -31t9 -58.5t24 -60.5t40.5 -37q22 33 62.5 89t95 121t120.5 131.5t139.5 121.5t151.5 92t156 42q8 0 14.5 0.5t13.5 0.5z" />
    <glyph glyph-name="uniFEBC" unicode="&#x635;" horiz-adv-x="1756" arabic-form="medial" 
d="M961 141q69 0 142.5 7t145.5 25t139 48.5t123 77.5q11 48 11 94q0 17 -3.5 55.5t-32.5 85t-83.5 74.5t-138.5 28q-74 0 -145 -24.5t-136 -64t-122.5 -89.5t-104 -101t-81.5 -98.5t-54 -81.5q13 -4 44.5 -10t76 -12t100.5 -10t119 -4zM1301 814q63 0 112 -17.5t85 -46.5
t60 -68t38.5 -82t20.5 -87.5t6 -84.5q-20 -66 -44.5 -136t-54.5 -128h242v-164h-317q-24 1 -56 2t-63.5 2t-58 3t-38.5 6q-67 -17 -139 -25.5t-144 -8.5q-142 0 -242 14.5t-164.5 48t-97.5 88.5t-42 136q-29 -69 -67.5 -119t-88 -82.5t-110.5 -48t-136 -16.5h-22v164h22
q75 0 131.5 21t98 56t71 80.5t51 93.5t38 95.5t32.5 87.5l91 31q-14 -34 -23.5 -75t-13.5 -79t-4 -72q0 -7 0.5 -31t9 -58.5t24 -60.5t40.5 -37q22 35 64 93.5t99 125t126 134t145 122t157 89t162 34.5z" />
    <glyph glyph-name="uniFEBA" unicode="&#x635;" horiz-adv-x="2663" arabic-form="final" 
d="M1850 148q69 0 141.5 7.5t143 25t135.5 46.5t118 73q20 55 20 109q0 5 -1 37t-30 78.5t-87.5 75.5t-149.5 29q-15 0 -31 -1t-33 -3q-67 -7 -129.5 -33t-120 -63t-109 -81.5t-95.5 -89t-79.5 -85.5t-60.5 -70q11 -8 44.5 -17.5t82.5 -18t110.5 -14t130.5 -5.5zM2156 815
q68 0 129.5 -17.5t110 -57t82.5 -103t48 -155.5q-10 -32 -23 -70t-27.5 -76.5t-30 -75t-30.5 -65.5q8 -7 31.5 -12.5t55 -9.5t67 -6.5t67.5 -2.5h37v-164h-37q-44 0 -101.5 2.5t-112.5 10.5t-100.5 23t-65.5 41q-88 -42 -197.5 -67t-226.5 -25q-76 0 -147 5.5t-131.5 18
t-108 32t-75.5 46.5q3 -36 3 -70q0 -58 -9.5 -130t-41.5 -150.5t-85.5 -143.5t-131 -112t-180.5 -73t-233 -26q-180 0 -310 66t-182 184.5t-52 259.5q0 49 13 180.5t136 417.5l66 -39q-38 -106 -68.5 -213t-39.5 -179.5t-9 -117.5q0 -47 9.5 -111t57.5 -127t137.5 -100
t232.5 -39h16q147 0 250 36t169.5 94t100 132t41.5 150q-17 63 -33 122.5t-31.5 119.5t-32.5 122t-35 130l113 161q11 -42 28 -101t37.5 -116.5t44 -105t48.5 -68.5q29 35 75 91t104.5 120t127.5 129t143.5 117t152 85t154.5 33z" />
    <glyph glyph-name="uni0637" unicode="&#x637;" horiz-adv-x="1604" arabic-form="isolated" 
d="M640 1642q2 0 4 -6t4 -29q1 -12 1.5 -46t0.5 -83v-109.5t-0.5 -126t-1 -132.5t-1.5 -129t-2 -115.5t-2 -92.5q0 -18 -0.5 -53t-3 -80t-8.5 -97t-16 -104q55 65 122.5 132t143 121t157.5 88t166 34q95 0 157 -36.5t98 -93t50.5 -124.5t16.5 -132q-20 -66 -45 -136.5
t-55 -128.5q-35 -33 -88 -58t-117.5 -43.5t-136 -31t-144.5 -20.5t-143.5 -11.5t-131.5 -4.5q-121 4 -211 9.5t-167 15.5q-29 19 -64.5 47t-66 55t-50 47t-19.5 27v1q3 8 7 8.5t6 0.5q5 0 11 -2q32 -5 71.5 -11t80 -11t79.5 -9.5t70 -6.5q6 9 17 25t24.5 34.5t26.5 37
t22 31.5q12 29 18 73.5t8 86.5q2 25 2 51q0 25 -1 52q-1 76 -3 169.5t-4 191t-4.5 192t-5.5 173.5t-5.5 135.5t-4.5 78.5q10 11 31 35.5t42.5 49t40 43t24.5 18.5zM665 165q30 0 86.5 0.5t126 4.5t147 11.5t151 22.5t136 37.5t102.5 55.5q11 50 11 98q0 16 -3 55.5
t-31.5 87.5t-82 77t-135.5 29q-70 0 -139.5 -25t-134.5 -66t-123.5 -92.5t-108 -104.5t-88.5 -103.5t-63 -87.5h149z" />
    <glyph glyph-name="uniFEC3" unicode="&#x637;" horiz-adv-x="1354" arabic-form="initial" 
d="M404 164q30 0 86.5 0.5t126 4.5t147 12t151 23t136 37.5t102.5 55.5q11 50 11 98q0 16 -3 55.5t-31.5 87.5t-82 77t-135.5 29q-70 0 -139.5 -25t-134.5 -66t-124 -93t-109 -105t-89 -103.5t-63 -87.5h151zM379 1642q2 0 4 -6t4 -29q1 -16 1.5 -70t0.5 -129
q0 -76 -0.5 -165t-1.5 -176.5t-2.5 -165t-2.5 -128.5q0 -18 -0.5 -53t-3 -80t-8.5 -97t-16 -104q55 65 122.5 132t143 121t157.5 88t166 34q95 0 157 -36.5t98.5 -93t51.5 -125t15 -131.5q-20 -66 -45 -136.5t-55 -128.5q-35 -33 -88 -57.5t-117.5 -42.5t-136 -30
t-144.5 -19t-143.5 -10t-131.5 -4h-424v164h168q6 9 17.5 25t25.5 35t27.5 37.5t22.5 31.5q12 29 18 73.5t8 86.5q2 25 2 51q0 25 -1 52q-1 76 -3 169.5t-4 191t-4.5 192t-5.5 173.5t-5.5 135.5t-4.5 78.5q10 11 30.5 35.5t42.5 49t40 43t24 18.5h1z" />
    <glyph glyph-name="uniFEC4" unicode="&#x637;" horiz-adv-x="1395" arabic-form="medial" 
d="M381 1642q2 0 4 -6t4 -29q1 -12 1.5 -46t0.5 -83v-109.5t-0.5 -126t-1 -132.5t-1.5 -129t-2 -115.5t-2 -92.5q0 -18 -0.5 -53t-3 -80t-8.5 -97t-16 -104q55 65 122.5 132t143 121t157.5 88t166 34q61 0 107.5 -15.5t80.5 -41.5t57.5 -59.5t38.5 -68.5q36 -85 38 -201
q-20 -66 -45 -136t-54 -128h237v-164h-96h-78.5t-49.5 1q-15 0 -46 1t-69.5 2.5t-80.5 4t-79 6t-65 7t-39 8.5q-103 -16 -206 -22t-190 -8h-426v164h170q6 9 17.5 25t25.5 35t27.5 37.5t22.5 31.5q12 29 18 73.5t8 86.5q2 25 2 51q0 25 -1 52q-1 76 -3 169.5t-4 191
t-4.5 192t-5.5 173.5t-5.5 135.5t-4.5 78.5q10 11 31 35.5t42.5 49t40 43t23.5 18.5h1zM406 164q30 0 86.5 0.5t126 4.5t147 12t151 23t136 37.5t102.5 55.5q11 50 11 98q0 16 -3 55.5t-31.5 87.5t-82 77t-135.5 29q-70 0 -139.5 -25t-134.5 -66t-124 -93t-109 -105
t-89 -103.5t-63 -87.5h151z" />
    <glyph glyph-name="uniFEC2" unicode="&#x637;" horiz-adv-x="1670" arabic-form="final" 
d="M645 1642q2 0 4 -6t5 -29q1 -16 1.5 -56.5t0.5 -72.5q0 -33 -0.5 -89.5t-1 -145.5t-1 -176.5t-2 -165t-2.5 -128.5q0 -18 -0.5 -53t-3 -80t-8.5 -97t-16 -104q55 65 122.5 132t143 121t157.5 88t166 34q61 0 107.5 -15.5t80.5 -41.5t57 -59.5t38 -68.5q19 -44 28 -94
t11 -107q-20 -66 -45 -136t-55 -128h248v-164l-234 1q-15 0 -44 1t-65.5 2.5t-76.5 3.5t-76.5 5t-66 6.5t-44.5 7.5q-103 -17 -208.5 -24t-193.5 -9q-121 4 -211 9.5t-167 15.5q-29 19 -64.5 47t-66 55t-50.5 47t-20 27v1q2 8 6.5 8.5t5.5 0.5q6 0 12 -2q34 -6 74 -12
t80.5 -11t78.5 -9t69 -6q6 9 17 25t24.5 34.5t26.5 37t22 31.5q11 29 17 73.5t9 86.5q2 25 2 51q0 25 -1 52q-1 76 -3 169.5t-4.5 191t-5 192t-5 173.5t-5.5 135.5t-5 78.5q10 11 31 35.5t42.5 49t40 43t24.5 18.5zM670 165q30 0 86.5 0.5t126.5 4.5t147.5 11.5t150.5 22.5
t135.5 37.5t102.5 55.5q11 50 11 98q0 16 -3 55.5t-31.5 87.5t-82 77t-135.5 29q-70 0 -139 -25t-134 -66t-123.5 -92.5t-108 -105t-88.5 -103.5t-63 -87h148z" />
    <glyph glyph-name="uni0639" unicode="&#x639;" horiz-adv-x="1264" arabic-form="isolated" 
d="M818 -549q88 0 162 9.5t132.5 23.5t101 29.5t68.5 26.5l-62 -154q-111 -51 -217.5 -75.5t-207.5 -24.5q-140 0 -260 36.5t-207.5 103t-137 159.5t-49.5 205q0 57 18 115.5t49 114.5t73 107t89.5 94t98.5 75t101 49q-55 18 -100.5 51t-78.5 72t-51.5 78t-18.5 68
q0 37 16.5 83t45.5 94t67.5 93.5t82 81t89.5 57t91 21.5q47 0 92 -10.5t86.5 -35.5t79.5 -65.5t72 -101.5l-49 -25q-11 8 -31.5 22t-51.5 28t-72.5 24t-94.5 10q-39 0 -75.5 -14.5t-68 -37t-58 -49.5t-45 -52.5t-29 -46t-10.5 -28.5q0 -14 21 -47.5t64.5 -70.5t110 -69
t156.5 -42q88 26 167.5 44.5t148.5 35.5l-47 -156q-77 -16 -169.5 -42.5t-186.5 -63.5t-182.5 -84t-158 -104t-112.5 -124t-45 -144q16 -64 56.5 -125.5t111 -110t175 -78.5t250.5 -30z" />
    <glyph glyph-name="uniFECB" unicode="&#x639;" horiz-adv-x="1078" arabic-form="initial" 
d="M-20 164h27q70 1 127 3t99 4t67 3.5t31 1.5q-42 26 -74.5 61t-55 72t-34 71.5t-11.5 60.5q0 37 15.5 83.5t43 94.5t65.5 93.5t83.5 81t96 57t103.5 21.5q39 0 80 -10.5t82 -35t80 -65t73 -100.5l-49 -26q-33 27 -74 46q-35 17 -76.5 27.5t-82.5 10.5q-16 0 -33 -1
q-38 -3 -72.5 -18.5t-64.5 -38t-54.5 -48.5t-42 -50.5t-27 -44t-9.5 -27.5q0 -15 22.5 -54.5t66.5 -83.5t109 -81.5t151 -48.5q104 8 181 31.5t141 56.5q-2 -10 -8 -33t-14 -48q-9 -29 -19 -63q-94 -50 -211.5 -82.5t-240.5 -51t-243.5 -26t-221.5 -7.5h-26v164z" />
    <glyph glyph-name="uniFECC" unicode="&#x639;" horiz-adv-x="1165" arabic-form="medial" 
d="M-20 164h89q112 0 183.5 5t118 13.5t76 19.5t56.5 24l-362 351l42 166q9 9 46 29.5t95 41.5t125.5 34t132.5 13q18 0 37 -1q50 -2 102 -9t99 -17.5t85.5 -23t62.5 -25.5l33 -154q-12 -41 -35 -91t-56 -103t-75 -106.5t-92 -101.5q34 -17 83 -29t102 -20t104 -12t90 -4h53
v-164h-53q-84 0 -152 8.5t-126.5 25t-111 42t-106.5 60.5q-56 -37 -117 -62.5t-129 -42t-144.5 -24t-162.5 -7.5h-93v164zM630 298q19 14 43.5 39t50 57t50.5 68t47 72.5t39.5 71.5t26.5 64q-28 12 -72 20.5t-90 12t-88 3.5q-16 0 -54 -1t-98.5 -8t-117.5 -20.5t-105 -34.5z
" />
    <glyph glyph-name="uniFECA" unicode="&#x639;" horiz-adv-x="1321" arabic-form="final" 
d="M721 233q-117 -44 -209 -98.5t-155.5 -110t-98.5 -106t-39 -85.5q12 -41 35 -85.5t58.5 -87.5t85 -81.5t114 -67.5t145.5 -46t181 -17q88 0 157 8.5t122 20.5t91.5 26t64.5 25l-54 -143q-47 -25 -100.5 -43.5t-108.5 -30.5t-109.5 -17.5t-105.5 -5.5q-139 0 -258 39
t-206.5 108t-138 162.5t-51.5 202.5q1 32 8.5 73.5t26.5 89t52 97.5t85.5 99t126 93.5t173.5 81.5l-300 271q10 38 19 71q8 28 14 54.5t6 37.5q9 9 47 30t97 42.5t130.5 36t146.5 14.5h20q51 -2 106.5 -12t107 -28t94 -44t66.5 -60q0 -61 -3 -107.5t-13.5 -84.5t-30 -69.5
t-53 -61.5t-83 -61.5t-119.5 -68.5q41 -37 97 -65q48 -24 118 -44t163 -20q14 -1 32.5 -1h55.5v-164h-57q-100 0 -175.5 16.5t-138.5 46.5t-119.5 73t-119.5 97zM751 394q61 25 121.5 55.5t107 65.5t69.5 71.5t23 72.5q0 10 -1 20q-38 20 -104 39.5t-119.5 23t-77.5 3.5
q-64 0 -148.5 -13t-185.5 -61z" />
    <glyph glyph-name="uniFEDB" unicode="&#x643;" horiz-adv-x="1083" arabic-form="initial" 
d="M-20 164h55q74 0 161 10.5t168.5 33t149 58t102.5 85.5q-15 109 -67 212t-127 198t-165.5 180.5t-181.5 159.5l35 138q60 26 146.5 64t183.5 80t197.5 85.5t189.5 81t158.5 66t105.5 40.5l-29 -153l-794 -350q52 -54 110 -114.5t112.5 -128.5t101 -145t75.5 -164
t33 -146.5t4 -80.5q0 -80 -20 -168q-106 -105 -268 -155t-386 -51h-50v164z" />
    <glyph glyph-name="uniFEDC" unicode="&#x643;" horiz-adv-x="1171" arabic-form="medial" 
d="M1181 164v-164h-23q-55 0 -105.5 16.5t-96.5 44t-87 63t-76.5 73t-65 74.5t-51.5 68q-2 -17 -5.5 -37t-7.5 -41.5t-8.5 -42.5t-8.5 -39q-53 -53 -115.5 -87.5t-138 -54.5t-164 -28.5t-192.5 -8.5h-56v164h56q96 0 185 7.5t164 26.5t131.5 51t86.5 82q-5 55 -29.5 120
t-63 134.5t-88.5 141t-106.5 138.5t-117 127.5t-120.5 108.5l35 144q45 19 105 45t128.5 55.5t142.5 61.5t147.5 63.5t143 60.5t128.5 53.5t105 42t72 26.5l-27 -151l-783 -349q46 -49 93 -102.5t92.5 -111.5t87.5 -119.5t78 -126.5q78 -141 155 -241.5t146.5 -164
t129 -93.5t101.5 -30h23z" />
    <glyph glyph-name="uni0643" unicode="&#x643;" horiz-adv-x="1904" arabic-form="isolated" 
d="M1760 1646q5 -7 5.5 -13.5t2.5 -22.5q1 -50 1.5 -115t0.5 -133.5v-135v-118.5q0 -59 -0.5 -134t-2 -158.5t-3.5 -171t-5.5 -173t-8.5 -164t-11 -143.5q-29 -32 -82.5 -58.5t-122 -48t-146.5 -37.5t-157 -26.5t-153.5 -16t-135.5 -5.5q-59 0 -135 2.5t-156.5 13t-160 32
t-147.5 60t-118 97t-67.5 126t-17.5 129.5q0 39 9.5 116.5t68.5 223.5l73 -37q-40 -106 -45.5 -160t-5.5 -78q0 -51 14.5 -103t53.5 -95.5t93.5 -72.5t120.5 -46.5t138 -26t146 -11t143 -2.5q40 0 95 3.5t117.5 10.5t129 17.5t130.5 25t122.5 32.5t104.5 41
q-3 111 -5.5 222.5t-4.5 218.5t-4 206.5t-4 186.5q-4 204 -8 391q37 42 67 75q13 14 25 28t21.5 24.5t16 17t7.5 6.5h1zM999 976q25 0 47 -5t43 -17.5t40 -34t38 -54.5l-26 -10q-5 2 -15 7.5t-25 11.5t-35 10.5t-44 4.5h-11q-29 -2 -55.5 -17.5t-47 -34.5t-33 -37t-12.5 -24
q0 -8 11.5 -26.5t33.5 -38.5t54.5 -37.5t73.5 -23.5q55 8 93 15.5t73 17.5l-24 -85q-5 -1 -12.5 -1.5t-12.5 -2.5q-57 -11 -105.5 -22.5t-95.5 -27.5t-96.5 -37.5t-108.5 -52.5l24 74l129 72q-15 7 -33 22t-34.5 35t-28.5 44t-14 50v5q0 27 18.5 64t49 72t68.5 59.5t73 24.5
z" />
    <glyph glyph-name="uniFEDA" unicode="&#x643;" horiz-adv-x="1992" arabic-form="final" 
d="M1772 1641q5 -2 5.5 -13t0.5 -18q1 -59 1 -114.5v-109.5q0 -51 -0.5 -126t-1 -162.5t-1.5 -182t-2 -183t-1.5 -166t-0.5 -131.5v-73v-54.5t0.5 -40.5t2.5 -32q7 -9 29.5 -21.5t52 -23.5t62.5 -18.5t62 -7.5h21v-164h-13q-119 0 -190.5 37t-97.5 93q-39 -26 -95 -48
t-121.5 -39.5t-137.5 -31t-143 -22t-137.5 -13t-121.5 -4.5q-59 0 -135 2.5t-156.5 13t-160.5 32t-147.5 60t-118 97t-68 126t-17.5 129.5q0 39 9.5 116.5t68.5 223.5l73 -37q-40 -106 -45.5 -160t-5.5 -78q0 -51 14.5 -103t53.5 -95.5t93.5 -72.5t121 -46.5t138 -26
t145.5 -11t143 -2.5q40 0 94.5 4.5t117 12.5t129 20t131.5 27.5t124 34t106 40.5q0 19 -1 68.5t-2.5 120t-3.5 157.5t-4.5 181t-5 190.5t-4.5 187t-3.5 170t-2.5 138.5q39 41 71 74q13 14 26 27.5t23.5 24l17 17t7.5 6.5h1zM1003 976q25 0 47.5 -5t43.5 -17.5t40 -34
t38 -54.5l-27 -10q-5 2 -15 7.5t-25 11.5t-35 10.5t-44 4.5h-10q-29 -2 -55.5 -17.5t-47.5 -34.5t-33.5 -37t-12.5 -24q0 -8 11.5 -26.5t34 -38.5t55 -37.5t73.5 -23.5q55 8 93 15.5t73 17.5l-24 -85q-5 -1 -12.5 -1.5t-13.5 -2.5q-57 -11 -105.5 -22.5t-95.5 -27.5
t-96.5 -37.5t-107.5 -52.5l24 74l128 72q-15 7 -33 22t-34 35t-28 44t-14 50v4q0 18 8 40.5t23 47.5t36 49t44.5 42.5t48.5 30t48 11.5z" />
    <glyph glyph-name="uni0644" unicode="&#x644;" horiz-adv-x="1345" arabic-form="isolated" 
d="M1231 1646q2 0 3 -1q3 -2 4 -12.5t2 -27t1 -36v-39.5q0 -5 -0.5 -62t-1 -149t-1 -211t-2 -248t-3.5 -259t-4 -245t-5 -206t-6 -142q-2 -147 -34.5 -256t-104.5 -180.5t-188.5 -107t-286.5 -35.5q-111 3 -200.5 31t-153.5 82.5t-98.5 136.5t-34.5 194t36.5 252t115.5 315
l67 -42q-27 -67 -52 -138.5t-42 -142.5q-28 -114 -28 -201q0 -14 3 -68t48.5 -116.5t135.5 -92.5t230 -30q129 0 220 23t148.5 83t81.5 159.5t24 240.5v34q-1 49 -2.5 127.5t-3.5 175.5t-4 206t-4 217.5t-4 210.5t-3 184.5t-2 140.5t-1 78z" />
    <glyph glyph-name="uniFEDF" unicode="&#x644;" horiz-adv-x="563" arabic-form="initial" 
d="M472 1641q5 -2 5.5 -13t0.5 -18q1 -85 1.5 -163t0.5 -151q0 -48 -0.5 -121.5t-2 -160.5t-3 -181.5t-3 -183.5t-3 -166.5t-2.5 -130.5q-2 -72 -32 -136t-79.5 -111.5t-114.5 -75.5t-137 -28l-61 -1h-62v164h84q28 0 64.5 3.5t73.5 10.5t69.5 18.5t53.5 27.5q8 16 12 49
t5.5 66.5t1.5 61.5q0 10 -0.5 33t-0.5 47q-5 249 -8.5 502t-8.5 510q39 41 71 74q13 14 26 27l23.5 23.5l17 17t7.5 6.5h1z" />
    <glyph glyph-name="uniFEE0" unicode="&#x644;" horiz-adv-x="652" arabic-form="medial" 
d="M473 1641q5 -2 5.5 -13t0.5 -18q1 -59 1 -114.5v-109.5q0 -61 -1 -145t-2 -179.5t-2.5 -197.5t-3 -198t-2.5 -181.5t-2 -147.5q1 -36 14 -67.5t35.5 -55t52.5 -37t66 -13.5h27v-164h-37q-36 0 -71.5 11.5t-68 31t-60 45.5t-46.5 54q-18 -33 -50 -59t-69.5 -44t-75.5 -28
t-69 -10l-72 -1h-63v164h85q28 0 65 3.5t74 10.5t70 18.5t54 27.5q5 17 8 58.5t5 86.5q2 52 3 112q-3 122 -5.5 250.5t-4.5 258t-3.5 256.5t-3.5 246q39 41 71 74q13 14 26 27.5t23.5 24l17 17t7.5 6.5h1z" />
    <glyph glyph-name="uniFEDE" unicode="&#x644;" horiz-adv-x="1448" arabic-form="final" 
d="M1257 1646q2 0 3 -1q3 -2 4 -12.5t2 -27t1 -36v-39.5v-39.5t-0.5 -95t-1 -139t-1 -171.5t-1.5 -192t-2 -200.5t-2.5 -197.5t-3.5 -183q3 -47 24 -76t50 -45t61.5 -21.5t57.5 -5.5h10v-164h-10q-33 0 -64.5 5.5t-58 16t-47 25t-30.5 32.5v-21q0 -143 -26.5 -261t-97 -202
t-186 -125t-277.5 -41h-31q-111 3 -200.5 31t-153.5 82.5t-98.5 136.5t-34.5 194t36.5 252t115.5 315l67 -42q-27 -67 -52 -138.5t-42 -142.5q-28 -114 -28 -201q0 -14 3 -68t48.5 -116.5t135.5 -92.5t230 -30q129 0 220 23t148.5 83t81.5 159.5t24 240.5v34
q-1 49 -2.5 127.5t-3 175.5t-3.5 206t-4.5 217.5t-4 210.5t-3 184.5t-2.5 140.5t-1 78z" />
    <glyph glyph-name="uni0645" unicode="&#x645;" horiz-adv-x="1242" arabic-form="isolated" 
d="M990 106q20 0 25 7q3 25 3 51q0 31 -6 75.5t-22.5 96.5t-40 97.5t-49.5 79t-53 52.5t-50 19q-35 0 -71 -29t-71.5 -74t-69.5 -100.5t-65 -108.5q21 -16 58 -34t81.5 -36.5t93.5 -35.5t94 -30.5t83 -21.5t60 -8zM801 718q38 0 78.5 -21.5t79 -60.5t71.5 -93.5t56 -120
t31 -124t8 -101.5q0 -34 -4 -69l-148 -171q-7 -7 -29 -7q-25 0 -67 8.5t-95 24t-113.5 38t-124 49.5t-127 59t-120.5 67q31 -266 55 -479q10 -91 19.5 -179t16.5 -158.5t10 -108t3 -51.5q0 -7 -1 -10q-27 -43 -48 -77l-48 -78v1q-1 18 -7.5 72t-17.5 131t-24.5 169.5
t-27.5 187t-28 184t-25 160t-18 115.5t-8 50q3 22 16.5 57t38.5 68t60.5 57t82.5 24q28 0 61 -11q40 65 85.5 135t95 128.5t103 96.5t110.5 38z" />
    <glyph glyph-name="uniFEE3" unicode="&#x645;" horiz-adv-x="1094" arabic-form="initial" 
d="M877 138q18 0 23 6q3 26 3 53q0 31 -5.5 75t-21.5 97.5t-38.5 100t-48 81t-52 54.5t-49.5 20q-35 0 -69 -29t-67 -74t-65 -100.5t-63 -108.5q15 -16 48.5 -35.5t76.5 -39t91.5 -37.5t93.5 -32t83 -22.5t60 -8.5zM692 759q38 0 78.5 -22.5t78 -62.5t69.5 -96t54.5 -123
t30 -125t7.5 -101q0 -35 -4 -71l-148 -171q-8 -6 -28 -6q-24 0 -61 8t-81.5 21.5t-93.5 32.5t-95.5 41.5t-88.5 46.5t-72 49q-34 -61 -74 -96.5t-83 -54t-88 -24t-90 -5.5h-23v164h80q23 0 46 1.5t32 3.5q28 6 57 34.5t59 71t62 95t65.5 106.5t69.5 105t75 90.5t80 63.5
t86 24z" />
    <glyph glyph-name="uniFEE4" unicode="&#x645;" horiz-adv-x="1269" arabic-form="medial" 
d="M914 150q19 0 23 6q-10 45 -25.5 97t-35 104.5t-42 100.5t-46.5 85.5t-49.5 59.5t-50.5 22q-41 0 -74.5 -28t-64.5 -73t-61 -100t-65 -109q16 -14 52 -32t83 -36t99.5 -35.5t102 -31t90.5 -22t64 -8.5zM692 759q48 0 87.5 -25t73 -69.5t63 -104.5t57.5 -130
q22 -54 37 -95t29.5 -70.5t31.5 -49t42.5 -31t62 -16t90.5 -4.5h13v-164h-13q-109 0 -183.5 31t-114.5 87l-92 -116q-8 -7 -36 -7q-26 0 -65.5 7t-85.5 19.5t-96 29.5t-97 37.5t-88.5 43.5t-69.5 48q-35 -63 -74 -98.5t-81 -53t-86 -22.5t-88 -6h-29v164h80q23 0 46 1.5
t32 3.5q28 6 57 34.5t59 71t62 95t65.5 106.5t69.5 105t75 90.5t80 63.5t86 24z" />
    <glyph glyph-name="uniFEE2" unicode="&#x645;" horiz-adv-x="1362" arabic-form="final" 
d="M1007 150q16 0 19 6q-10 45 -25.5 97t-35 104.5t-42 100.5t-46.5 85.5t-49.5 59.5t-50.5 22q-36 0 -70.5 -28.5t-68 -73.5t-65.5 -100t-61 -108q18 -10 55.5 -26t85.5 -34.5t101 -37t102 -33.5t89 -24.5t62 -9.5zM781 759q48 0 87.5 -25t73 -69.5t63 -104.5t57.5 -130
q22 -54 37 -95t29.5 -70.5t31.5 -49t42.5 -31t62 -16t90.5 -4.5h17v-164h-17q-109 0 -183.5 31t-114.5 87l-92 -116q-5 -4 -22 -4q-26 0 -75.5 11.5t-111 31t-130 44t-133.5 51t-120 53t-90 48.5q31 -266 55 -479q10 -91 19.5 -179t16.5 -158.5t10 -108t3 -51.5q0 -7 -1 -10
q-27 -43 -48 -77l-48 -78v1q-1 18 -8 72t-18 131t-24.5 169.5t-27.5 187t-27.5 184t-24.5 160t-18 115.5t-8 50q3 22 16.5 57t38.5 68t60.5 57t82.5 24q26 0 61 -11q42 65 85.5 135t91 128.5t100 96.5t111.5 38z" />
    <glyph glyph-name="uni0647" unicode="&#x647;" horiz-adv-x="878" arabic-form="isolated" 
d="M447 134q73 0 124.5 13.5t86.5 36.5t57.5 53t38.5 63q-1 37 -22 78.5t-54.5 82.5t-75 79.5t-83.5 69.5t-79.5 52.5t-63.5 28.5q-41 -67 -72 -134t-48 -129t-17.5 -89.5t-0.5 -28.5q0 -52 21.5 -91t67 -62t120.5 -23zM388 871q6 0 40.5 -16t81.5 -47t100.5 -75.5
t98.5 -102.5t74.5 -127.5t29.5 -149.5q-21 -184 -115 -276t-258 -92q-70 0 -129.5 23.5t-100 69t-54.5 98.5t-14 99q0 33 5 70q7 45 23 97.5t37 106t45.5 105t49 95t46.5 75.5t39 46q0 1 1 1z" />
    <glyph glyph-name="uniFEEB" unicode="&#x647;" horiz-adv-x="1335" arabic-form="initial" 
d="M1007 170q49 0 87 13t55 48q7 19 7 38q0 21 -12 53t-45.5 73.5t-78.5 80.5t-89 71t-82 56l-57 36q29 -72 31.5 -113.5t2.5 -52.5q0 -59 -21 -109q-14 -32 -31 -57.5t-32 -42.5q-18 -21 -36 -36q29 -8 65.5 -18t76.5 -19t81 -15t78 -6zM527 285q5 1 26 11t46.5 26.5
t49.5 38t35 45.5q16 35 16 78q0 1 -0.5 24t-12.5 67t-32.5 84.5t-42.5 68.5q-5 1 -14 1q-44 0 -89 -16t-84 -43t-68 -63.5t-41 -77.5q-1 -8 -1 -17q0 -29 12.5 -59.5t40.5 -61t68.5 -57.5t90.5 -49zM403 1019q249 -122 440 -239q81 -50 157.5 -103.5t134 -106t85 -95.5
t27.5 -76q0 -9 -2 -18q-17 -85 -39 -167.5t-57 -165.5q-33 -22 -75.5 -31t-90.5 -9q-45 0 -93 7t-94 17.5t-88 23t-75.5 24t-57 20.5t-31.5 12q-38 -22 -94 -42.5t-121 -36t-135.5 -24.5t-138.5 -9h-75v164h85q80 0 134 6.5t87 14.5q39 10 61 22q-54 40 -81.5 92t-34 94
t-6.5 72q0 24 5 62.5t20 80.5q13 36 35.5 68t48 57.5t51.5 44t46 27.5l-109 48z" />
    <glyph glyph-name="uniFEEC" unicode="&#x647;" horiz-adv-x="985" arabic-form="medial" 
d="M293 176q57 0 107 16t89.5 43.5t66.5 64t38 77.5q-9 68 -26 130q-14 54 -39 110t-64 94q-48 -66 -86 -149q-16 -35 -31.5 -77.5t-27.5 -91.5t-19.5 -103.5t-7.5 -113.5zM470 897q17 -8 51 -41.5t68 -93.5t60 -147t28 -203q-29 -88 -61 -156.5t-75 -117.5t-101 -78.5
t-140 -39.5q16 -71 48.5 -134.5t70.5 -113.5t76.5 -84.5t67.5 -47.5q-9 29 -13 61q-4 27 -4.5 44.5t-0.5 19.5q0 32 8 63q13 55 46.5 114.5t84 109t116 81t142.5 31.5h53v-164h-53q-62 0 -112 -17.5t-88.5 -47t-66.5 -68t-46 -81.5q0 -35 4.5 -69.5t20 -66.5t46.5 -61.5
t85 -54.5l-77 -137q-107 41 -194.5 102.5t-153 140t-108 172.5t-58.5 200l-68 -6q-29 -2 -62.5 -4t-59.5 -2h-24v164h24q16 0 38.5 1t48 2.5t51 3.5t48.5 4q6 94 21 175t35.5 149.5t45 124.5t49.5 100q58 104 129 173z" />
    <glyph glyph-name="uniFEEA" unicode="&#x647;" horiz-adv-x="1045" arabic-form="final" 
d="M653 763q-71 -39 -143.5 -78t-133.5 -75t-104 -66t-55 -51q2 -31 27.5 -57.5t84 -47t154.5 -34t239 -18.5zM806 737q6 -54 12 -111t12.5 -111t12 -102t9.5 -83q10 -85 54 -125.5t136 -40.5h13v-164h-35q-84 4 -136.5 31t-84 69t-46.5 96t-23 111l-124 -126q-5 -1 -10 -1
h-28q-27 0 -69.5 2.5t-94 11t-110 24.5t-117.5 43q-12 35 -22.5 81t-13.5 79.5t-3 55.5q0 18 2.5 44t17.5 40q21 19 55 45t76 56t89.5 61.5t93.5 61.5t89 57.5t77 48.5l-11 114l136 121z" />
    <glyph glyph-name="uni0648" unicode="&#x648;" horiz-adv-x="1024" arabic-form="isolated" 
d="M506 755q73 -5 127 -45.5t92 -103t61.5 -139t36.5 -153.5t16 -134.5t3 -94.5q0 -20 -1 -38q-4 -90 -31.5 -166t-70 -140t-96.5 -116t-111 -92t-113 -69.5t-103.5 -48t-80.5 -26.5t-48 -8h-3q-6 0 -7 1q-37 23 -68 43.5t-71 49.5q-6 5 -6 8q0 2 3.5 4.5t5.5 3.5
q151 43 274 108.5t211.5 138t140 144t60.5 127.5q-64 -13 -108 -16t-67 -3q-41 0 -90.5 6.5t-102.5 28t-92.5 60.5t-62.5 97t-24 139v6q0 28 8.5 69.5t27 90t45.5 96.5t63.5 86t81 62t98.5 24h2zM256 325q14 -51 48 -85t79 -53.5t94.5 -27t94.5 -7.5q3 0 29 0.5t67 8
t66 17.5q0 24 -6 64.5t-19 86.5t-34 93t-50 85t-68 62t-88 24h-2q-39 0 -70 -17.5t-55 -44.5t-41 -59t-28 -62t-14.5 -49t-3.5 -28q0 -5 1 -8z" />
    <glyph glyph-name="uniFEEE" unicode="&#x648;" horiz-adv-x="941" arabic-form="final" 
d="M951 164v-164h-112q-8 -108 -54 -196.5t-112.5 -157t-143 -118.5t-146 -82.5t-120.5 -47t-70 -14.5h-2q-6 0 -7 1q-41 24 -79 48.5t-67 44.5q-6 5 -6 8q0 2 3.5 4.5t5.5 3.5q151 43 271.5 102.5t207 126.5t138.5 138.5t67 138.5h-89q-101 0 -183.5 15.5t-141.5 52.5
t-92 99t-35 155q0 30 9 73.5t27 92t45.5 96.5t63.5 86t81 62t99 24q57 0 104 -28t83.5 -75t64 -107.5t45.5 -126.5t27.5 -132t10.5 -123h107zM736 164q0 34 -6 79t-19 93t-33.5 94t-49.5 82.5t-68 59t-88 22.5q-37 0 -66.5 -16t-53 -41.5t-41 -56t-29 -59.5t-17 -53
t-6.5 -36q3 -25 23.5 -54t61 -54.5t102.5 -42.5t149 -17h141z" />
    <glyph glyph-name="uni0649" unicode="&#x649;" horiz-adv-x="1729" arabic-form="isolated" 
d="M1470 840q69 0 146 -18l-53 -158q-21 4 -41.5 5.5t-40.5 1.5q-96 0 -175 -35.5t-141.5 -93t-108 -130.5t-74.5 -147q40 -26 95.5 -53t116 -53t120.5 -51.5t108 -49t79.5 -45t34.5 -39.5q7 -41 8 -62t1 -30q0 -21 -3 -45t-10.5 -50.5t-19.5 -54.5q-38 -64 -102 -122
t-152.5 -104.5t-200 -78t-244.5 -42.5q-39 -3 -79 -3q-99 0 -191.5 17.5t-168.5 59.5t-130.5 112t-73 155t-18.5 165q0 47 9 144.5t69 284.5q7 21 18.5 53.5t24 66.5t24.5 66t21 53l68 -39q-14 -38 -29.5 -86t-34.5 -117q-12 -50 -24.5 -110t-19.5 -119.5t-7 -115.5
q0 -8 0.5 -44t14.5 -95t44.5 -110.5t83 -89.5t129 -60t183.5 -22q40 0 87 3q152 12 261.5 46.5t184.5 79t120.5 93t69.5 87.5q-32 22 -88.5 46t-122.5 49.5t-133.5 52.5t-121.5 55.5t-84.5 56.5t-30.5 54v7q19 145 71 266.5t130 208.5t180 135.5t221 48.5z" />
    <glyph glyph-name="uniFEF0" unicode="&#x649;" horiz-adv-x="1596" arabic-form="final" 
d="M374 532q-12 -37 -29.5 -88t-33.5 -109q-14 -49 -27 -108t-19 -115.5t-6 -106.5q0 -14 1 -53t16.5 -98.5t48.5 -111.5t88 -91t135.5 -61t191.5 -22q41 0 86 3q86 6 156 20t126.5 32.5t99.5 40t75 42.5q75 50 113 109q-11 10 -38.5 27.5t-66 39t-86.5 46.5t-100.5 50.5
t-108.5 51t-110 47.5l65 128q105 -14 194 -22.5t168 -12.5t151 -5t142 -1v-164q-75 0 -125 2.5t-89.5 8t-75.5 15t-82 23.5q100 -45 158 -85t77 -58l-12 -168q-15 -43 -66.5 -98.5t-133 -106t-191 -88t-240.5 -44.5q-20 -1 -39 -1.5t-39 -0.5q-103 0 -199 18t-174.5 60
t-134.5 112t-76 157t-20 172q0 45 8.5 140.5t67.5 282.5q6 18 16 46.5t21.5 60.5t24 64t23.5 56z" />
    <glyph glyph-name="uni066E.init" unicode="&#x66e;" horiz-adv-x="624" 
d="M424 879q5 0 21 -30t35 -83.5t36 -126.5t22 -137t5 -107q0 -47 -5.5 -119.5t-36.5 -170.5q-30 -27 -81.5 -47t-115 -32.5t-133.5 -19t-136 -6.5h-61v164h57q76 0 148 5.5t129 13.5t93 17t40 16q1 13 1 26q0 58 -12 126t-31.5 136.5t-41.5 124.5t-37 88q34 56 54 88
t30.5 48t14 20.5t5.5 5.5z" />
    <glyph glyph-name="uni066E.medi" unicode="&#x66e;" horiz-adv-x="781" 
d="M471 698l4 -19q4 -19 9 -51t11 -74.5t10.5 -89t6 -83t1.5 -59.5t-1 -45q14 -14 31.5 -27t39.5 -25q18 -10 40.5 -21t47.5 -20t53 -14.5t58 -5.5h9v-164h-9q-44 0 -93 12t-95.5 33.5t-85.5 51.5t-63 66q-27 -33 -73 -62.5t-101.5 -52t-117.5 -35.5t-120 -13h-53v164h30
q67 0 132.5 9t118.5 24t89 35t45 43q1 14 1 30q0 20 -2 50.5t-7 72.5t-12 84.5t-13 80.5z" />
    <glyph glyph-name="uni066E.fina" unicode="&#x66e;" horiz-adv-x="1966" 
d="M293 739q-45 -131 -45 -226q0 -8 2 -61t44.5 -119t116 -103.5t163 -56t188 -23t190.5 -4.5q128 0 242.5 13t209.5 42.5t167.5 77.5t117.5 118q19 30 31 55t21 49.5t17 51t18 59.5l61 -18q-8 -37 -13 -60t-10.5 -44.5t-11.5 -47.5t-15 -68q1 -62 16 -102.5t39.5 -64.5
t58.5 -33.5t75 -9.5v-164h-10q-73 0 -121.5 18t-79.5 49.5t-47 75t-23 94.5q-63 -74 -144 -123.5t-174 -80.5t-195 -44t-207 -13q-65 0 -144.5 2.5t-163 13t-165.5 32t-151.5 60t-120.5 97t-68.5 126.5t-17.5 131q0 38 9 115t68 223z" />
    <glyph glyph-name="uni066F.init" unicode="&#x66f;" horiz-adv-x="892" 
d="M784 536q9 -67 9 -125q0 -41 -8 -102t-44 -120.5t-97 -96.5t-145 -57.5t-191.5 -27.5t-237.5 -7h-89v82q0 31 -0.5 47.5t-0.5 22.5q0 11 1 12h88q151 0 268 4.5t195.5 27.5t115 69t36.5 123v16q-29 -11 -66 -17q-32 -5 -62 -7t-46 -2q-33 0 -71 4q-72 7 -127 25.5
t-92.5 51t-57.5 80.5t-21 115q1 13 7 46.5t19 76t35 89t55.5 85t80 64t108.5 26.5q54 0 99 -23.5t80.5 -63.5t62.5 -91.5t46.5 -107.5t31.5 -113t18 -106zM459 528q50 -4 87 -4q8 0 32 0.5t50 5.5q31 4 50 13q-3 12 -10 43.5t-19.5 71t-32.5 82.5t-47.5 79t-64 59t-82.5 23
q-32 0 -58 -11t-46.5 -28.5t-36 -40t-26.5 -45.5q-27 -55 -40 -125q14 -29 46 -55q27 -22 74 -42t124 -26z" />
    <glyph glyph-name="uni066F.medi" unicode="&#x66f;" horiz-adv-x="935" 
d="M654 182q20 -5 59 -9q33 -4 89 -6.5t143 -2.5v-164h-72q-111 0 -186 10.5t-123 23.5q-55 15 -89 34q-41 -19 -96 -34q-48 -13 -115 -23.5t-154 -10.5h-130v164q88 0 147.5 2.5t96.5 6.5q43 4 69 10q-28 23 -51 58q-20 30 -38.5 76.5t-25.5 112.5q0 40 8 84.5t24.5 89
t41 85t58 71t76 49t93.5 18.5q71 0 123.5 -39.5t87.5 -99t53.5 -129t21.5 -129.5q-3 -65 -20.5 -112t-37.5 -77q-24 -36 -53 -59zM477 241q34 13 69 31t64.5 42t49 53t24.5 63q-3 41 -21 85t-46 81t-64 60.5t-76 23.5q-46 0 -85 -24.5t-67.5 -62t-45.5 -81.5t-19 -82
q6 -35 27 -64.5t51.5 -53.5t66.5 -41.5t72 -29.5z" />
    <glyph glyph-name="uni066F.fina" unicode="&#x66f;" horiz-adv-x="1457" 
d="M1253 164q0 24 -6 65.5t-19 89t-33.5 96.5t-49.5 88.5t-68 64.5t-88 25h-2q-39 0 -70 -17.5t-55 -44.5t-41 -59t-28 -62t-14.5 -49t-3.5 -28q0 -5 1 -8q13 -48 43.5 -79.5t71 -49.5t87.5 -25t94 -7h181zM1025 755q59 0 106 -27t83 -73t62.5 -106t44.5 -126t29 -133
t16 -126h101v-164h-95q-5 -143 -50.5 -257t-130.5 -194t-209 -123t-285 -43q-120 0 -218.5 29t-169.5 88.5t-112 150.5t-43 158.5t-2 80.5q0 114 33.5 262t115.5 339l67 -39q-38 -106 -68.5 -213t-39.5 -180.5t-9 -118.5q0 -47 9.5 -111.5t57.5 -128t137.5 -99.5t232.5 -36
q114 0 201 17.5t151.5 48t108 72.5t69.5 90t37.5 101t11.5 106h-193q-74 0 -140.5 16t-117.5 53.5t-82 99t-34 152.5v6q0 28 8.5 69.5t27 90t46 96.5t63.5 86t81 62t99 24z" />
    <glyph glyph-name="uniFBA8" unicode="&#x6c1;" horiz-adv-x="664" arabic-form="initial" 
d="M411 -625q-18 7 -38.5 17.5t-39 23.5t-32.5 27.5t-20 28.5q1 91 43 187t114 193l63 -58l-36 -52t-31.5 -51.5t-22 -50t-8.5 -46.5q23 -29 58 -47.5t86 -35.5q-12 -29 -31.5 -53.5t-39.5 -42.5t-38 -28.5t-27 -11.5zM514 879q5 0 21 -30t35 -83.5t36 -126.5t22 -137
t5 -107q0 -47 -5.5 -119.5t-36.5 -170.5q-20 -18 -57.5 -33t-86 -26.5t-104.5 -20t-112.5 -14t-110.5 -8.5t-98 -3h-42v164h38q50 0 107 2.5t113 6.5t108 9.5t92 11.5t65 11.5t28 10.5q1 13 1 26q0 58 -12 126t-31.5 136.5t-41.5 124.5t-37 88q34 56 54 88t30.5 48t14 20.5
t5.5 5.5z" />
    <glyph glyph-name="uniFBA9" unicode="&#x6c1;" horiz-adv-x="1116" arabic-form="medial" 
d="M1030 -206q-18 -26 -39.5 -56.5t-39.5 -62t-30 -60.5t-12 -51q23 -29 58 -47.5t86 -34.5q-12 -29 -28 -49t-31.5 -32.5t-30 -18.5t-23.5 -7q-18 7 -38.5 17.5t-39 23.5t-32.5 27.5t-20 28.5q1 91 43 187t114 193zM410 293l-61 -153q6 -62 25 -131t50 -138.5t73.5 -135
t94.5 -118.5q3 21 8.5 55t12 73t14 80.5t15 76.5t14 61t12.5 35q22 34 51.5 64t62.5 49q31 17 74 27.5t90 16t94 7.5t86 2v-164h-133q-42 0 -77 -0.5t-52 -2.5q-15 -2 -27.5 -4t-23.5 -5t-23 -8t-27 -13l-52 -422l-178 -102q-38 29 -84 78.5t-90.5 121.5t-83 168.5
t-61.5 221.5q-8 -4 -25 -9.5t-45 -11t-68.5 -9t-95.5 -3.5v164h187q11 0 24 8.5t25.5 22.5t25.5 32t24 37q26 44 53 100z" />
    <glyph glyph-name="uni06BE" unicode="&#x6be;" horiz-adv-x="1651" arabic-form="isolated" 
d="M1281 140q49 0 87 13t55 48q7 19 7 38q0 21 -12 53t-45.5 73.5t-78.5 80.5t-89 71t-82 56l-57 36q29 -72 31.5 -113.5t2.5 -52.5q0 -59 -21 -109q-14 -32 -30.5 -57.5t-31.5 -42.5q-18 -21 -36 -36q28 -8 65 -18t76.5 -19t80.5 -15t78 -6zM801 255q5 1 26 11t46.5 26.5
t49.5 38t35 45.5q16 35 16 78q0 1 -0.5 24t-12.5 67t-32.5 84.5t-42.5 68.5q-4 1 -14 1q-44 0 -89 -16t-84 -43t-68 -63.5t-40 -77.5q-1 -10 -1 -20q0 -27 12 -57t40 -60.5t68.5 -57.5t90.5 -49zM733 962q233 -115 412 -226q76 -47 147.5 -98.5t125 -101.5t78.5 -92t25 -73
q0 -10 -2 -20q-17 -85 -39 -167.5t-57 -165.5q-34 -23 -78 -32.5t-92 -9.5q-65 0 -133 13.5t-126 30.5t-99.5 32.5t-54.5 20.5q-38 -23 -99.5 -38.5t-140.5 -15.5q-78 0 -168 20t-190 71l-50 184q61 -39 117.5 -62.5t105 -36.5t88 -17t66.5 -4h21.5t16.5 1q8 1 14 2
q-54 40 -81.5 92t-34 94t-6.5 72q0 24 5 62.5t20 80.5q13 36 35.5 68t48 57.5t51.5 44t46 27.5l-108 47z" />
    <glyph glyph-name="uni06D2" unicode="&#x6d2;" horiz-adv-x="2205" arabic-form="isolated" 
d="M928 734q-54 -102 -100.5 -170t-78.5 -97q-16 -14 -56.5 -33.5t-94.5 -42t-114 -46t-114 -46.5t-96.5 -44t-60.5 -37q91 -46 316 -67t576 -21q97 0 199.5 6t202.5 15.5t193 21.5t170 24t134 23.5t85 19.5q-7 -23 -14 -45t-14 -42q-6 -17 -10.5 -28t-8 -18.5t-7.5 -13
t-10 -11.5q-12 -5 -59.5 -14.5t-120 -20.5t-164.5 -22t-192 -20t-202.5 -15t-196.5 -6q-177 0 -322.5 5t-264.5 17.5t-213.5 34.5t-169.5 56q0 4 3 21t8 39.5t11 48.5t12.5 48.5t11.5 38.5t9 20q20 20 76.5 45.5t133 56t164 67t169.5 78.5q20 18 36 38.5t30.5 42.5
t28.5 45.5t31 46.5z" />
    <glyph glyph-name="uniFBAF" unicode="&#x6d2;" horiz-adv-x="1652" arabic-form="final" 
d="M1662 0q-57 0 -106.5 0.5t-102.5 0.5q-134 0 -257.5 -2.5t-239 -13t-225 -31t-214.5 -55.5q-38 -12 -79 -31t-81 -41t-77 -46.5t-66 -47.5q31 -14 80.5 -24.5t109 -19t126 -14t133 -9.5t129.5 -5.5t115 -1.5q97 0 183 2.5t164.5 8.5t153.5 17t151 28q-8 -17 -23.5 -38
t-34.5 -42.5t-39 -42t-36 -35.5q-18 -5 -51.5 -10t-76 -10t-91.5 -9.5t-99 -7.5t-98 -5t-87 -2q-219 0 -376 12.5t-258 29t-148.5 32t-47.5 22.5q0 5 4 21.5t10.5 38.5t14 46.5t14.5 46.5t12.5 37.5t7.5 19.5q91 87 202 152t244 103q70 20 167 36.5t227 28.5t295 18.5
t371 6.5v-164z" />
    <glyph glyph-name="uni06A9" unicode="&#x6a9;" horiz-adv-x="2117" arabic-form="isolated" 
d="M2087 1504l-793 -350q52 -54 110 -114.5t112.5 -128.5t101 -145t75.5 -164t32.5 -146t3.5 -78q0 -81 -20 -171q-35 -35 -89 -66.5t-120.5 -58.5t-143 -48.5t-156.5 -36t-152 -20.5t-131 -6h-34q-68 1 -145 6.5t-153 20t-147.5 40.5t-130 67.5t-99.5 100.5t-52 119.5
t-11 106.5q0 47 11 125.5t65 212.5l73 -37q-36 -97 -38 -141t-2 -55q0 -64 19 -119.5t60 -99t94 -74.5t115 -50.5t124.5 -30.5t121.5 -15t107 -4q71 1 148.5 7.5t154 18.5t147.5 29.5t130.5 40.5t102.5 51t63 61q-14 109 -66.5 212t-127.5 198t-165.5 180.5t-180.5 159.5
l34 138q60 26 146.5 64t183.5 80t197.5 85.5t189.5 81t158.5 66t105.5 40.5z" />
    <glyph glyph-name="uniFB8F" unicode="&#x6a9;" horiz-adv-x="2171" arabic-form="final" 
d="M2181 164v-164h-30q-55 0 -105.5 16.5t-96.5 44t-87 63t-76.5 73t-64.5 74.5t-51 68q-2 -17 -5.5 -37t-8 -41.5t-9 -42.5t-8.5 -39q-53 -53 -133.5 -90.5t-179.5 -60.5t-206.5 -33t-212.5 -10h-20q-69 1 -145.5 6.5t-153.5 20t-148.5 40.5t-130.5 67.5t-100.5 100.5
t-52.5 119.5t-11 106.5q0 47 11 125.5t65 212.5l72 -36q-36 -98 -38.5 -144t-2.5 -60q0 -59 17 -113.5t56.5 -99t92 -75.5t114 -50.5t124.5 -31t124.5 -15.5t113.5 -4q72 0 146.5 4.5t146 13.5t137.5 23.5t120 34t93.5 44.5t58.5 56q-5 55 -29.5 120t-63 134.5t-88.5 141
t-106.5 138.5t-117 127.5t-120.5 108.5l36 144q60 26 145.5 63t181.5 78.5t196 84t188 79t156.5 64t103.5 39.5l-26 -151l-784 -349q46 -49 93 -102.5t92.5 -111.5t87.5 -119.5t78 -126.5q78 -141 155 -241.5t146.5 -164t129 -93.5t101.5 -30h30z" />
    <glyph glyph-name="uni06AF" unicode="&#x6af;" horiz-adv-x="2117" arabic-form="isolated" 
d="M2087 1504l-793 -350q52 -54 110 -114.5t112.5 -128.5t101 -145t75.5 -164t32.5 -146t3.5 -78q0 -81 -20 -171q-35 -35 -89 -66.5t-120.5 -58.5t-143 -48.5t-156.5 -36t-152 -20.5t-131 -6h-34q-68 1 -145 6.5t-153 20t-147.5 40.5t-130 67.5t-99.5 100.5t-52 119.5
t-11 106.5q0 47 11 125.5t65 212.5l73 -37q-36 -97 -38 -141t-2 -55q0 -64 19 -119.5t60 -99t94 -74.5t115 -50.5t124.5 -30.5t121.5 -15t107 -4q71 1 148.5 7.5t154 18.5t147.5 29.5t130.5 40.5t102.5 51t63 61q-14 109 -66.5 212t-127.5 198t-165.5 180.5t-180.5 159.5
l34 138q60 26 146.5 64t183.5 80t197.5 85.5t189.5 81t158.5 66t105.5 40.5zM2020 1833l-852 -369l42 141l838 362z" />
    <glyph glyph-name="uniFB94" unicode="&#x6af;" horiz-adv-x="1083" arabic-form="initial" 
d="M-20 164h55q74 0 161 10.5t168.5 33t149 58t102.5 85.5q-15 109 -67 212t-127 198t-165.5 180.5t-181.5 159.5l35 138q60 26 146.5 64t183.5 80t197.5 85.5t189.5 81t158.5 66t105.5 40.5l-29 -153l-794 -350q52 -54 110 -114.5t112.5 -128.5t101 -145t75.5 -164
t33 -146.5t4 -80.5q0 -80 -20 -168q-106 -105 -268 -155t-386 -51h-50v164zM1006 1834l-852 -369l42 141l838 362z" />
    <glyph glyph-name="uniFB95" unicode="&#x6af;" horiz-adv-x="1170" arabic-form="medial" 
d="M1181 164v-164h-23q-55 0 -105.5 16.5t-96.5 44t-87 63t-76.5 73t-65 74.5t-51.5 68q-2 -17 -5.5 -37t-7.5 -41.5t-8.5 -42.5t-8.5 -39q-53 -53 -115.5 -87.5t-138 -54.5t-164 -28.5t-192.5 -8.5h-56v164h56q96 0 185 7.5t164 26.5t131.5 51t86.5 82q-5 55 -29.5 120
t-63 134.5t-88.5 141t-106.5 138.5t-117 127.5t-120.5 108.5l35 144q45 19 105 45t128.5 55.5t142.5 61.5t147.5 63.5t143 60.5t128.5 53.5t105 42t72 26.5l-27 -151l-783 -349q46 -49 93 -102.5t92.5 -111.5t87.5 -119.5t78 -126.5q78 -141 155 -241.5t146.5 -164
t129 -93.5t101.5 -30h23zM1014 1829l-852 -369l42 141l838 362z" />
    <glyph glyph-name="uniFB93" unicode="&#x6af;" horiz-adv-x="2172" arabic-form="final" 
d="M2181 164v-164h-30q-55 0 -105.5 16.5t-96.5 44t-87 63t-76.5 73t-64.5 74.5t-51 68q-2 -17 -5.5 -37t-8 -41.5t-9 -42.5t-8.5 -39q-53 -53 -133.5 -90.5t-179.5 -60.5t-206.5 -33t-212.5 -10h-20q-69 1 -145.5 6.5t-153.5 20t-148.5 40.5t-130.5 67.5t-100.5 100.5
t-52.5 119.5t-11 106.5q0 47 11 125.5t65 212.5l72 -36q-36 -98 -38.5 -144t-2.5 -60q0 -59 17 -113.5t56.5 -99t92 -75.5t114 -50.5t124.5 -31t124.5 -15.5t113.5 -4q72 0 146.5 4.5t146 13.5t137.5 23.5t120 34t93.5 44.5t58.5 56q-5 55 -29.5 120t-63 134.5t-88.5 141
t-106.5 138.5t-117 127.5t-120.5 108.5l36 144q60 26 145.5 63t181.5 78.5t196 84t188 79t156.5 64t103.5 39.5l-26 -151l-784 -349q46 -49 93 -102.5t92.5 -111.5t87.5 -119.5t78 -126.5q78 -141 155 -241.5t146.5 -164t129 -93.5t101.5 -30h30zM2004 1831l-852 -369
l42 141l838 362z" />
    <glyph glyph-name="uni06BA" unicode="&#x6ba;" horiz-adv-x="1446" arabic-form="isolated" 
d="M1244 625q8 -12 20 -45t26 -79.5t27.5 -104t24.5 -119.5t18 -125.5t7 -121.5q0 -150 -43 -270t-128 -204t-211 -129t-292 -45q-180 0 -310 66t-182 184.5t-52 259.5q0 49 13 180.5t136 417.5l66 -39q-38 -106 -68.5 -213t-39.5 -179.5t-9 -117.5q0 -47 9.5 -111
t57.5 -127t137.5 -100t232.5 -39h16q147 0 250 36t169.5 94t100 132t41.5 150q-16 62 -31 120t-30.5 116.5t-32 120.5t-34.5 133z" />
    <glyph glyph-name="uniFB9F" unicode="&#x6ba;" horiz-adv-x="1622" arabic-form="final" 
d="M1243 621q21 -62 38 -120t36.5 -109t44 -93t59.5 -72t84 -46.5t117 -16.5h10v-164h-10q-59 0 -101.5 9t-72.5 25t-50.5 36t-35.5 43q0 -8 0.5 -19t1 -22.5t0.5 -23v-18.5q0 -150 -43 -270t-128 -204t-211 -129t-292 -45q-180 0 -310 66t-182 184.5t-52 259.5
q0 49 13 180.5t136 417.5l66 -39q-38 -106 -68.5 -213t-39.5 -179.5t-9 -117.5q0 -47 9.5 -111t57.5 -127t137.5 -100t232.5 -39h16q147 0 250 36t169.5 94t100 132t41.5 150q-17 63 -32 120.5t-30.5 115.5t-31.5 118t-34 128z" />
    <glyph glyph-name="uniFEAA" unicode="&#x62f;" horiz-adv-x="1078" arabic-form="final" 
d="M678 1067q3 -1 17.5 -48t37.5 -127t53.5 -186t65.5 -225q14 -49 31 -104.5t42 -103t61 -78.5t90 -31h12v-164h-17q-43 1 -81 15t-69.5 35.5t-56 48t-40.5 53.5q-10 -14 -30.5 -41t-58 -54t-94 -47t-138.5 -20q-71 0 -131.5 7.5t-105 18t-70.5 20.5t-28 15
q-13 24 -22 57.5t-12.5 61.5t-3.5 47q0 5 0.5 18t8.5 13q1 0 5 -2q28 -21 59 -37t71 -27t91.5 -17t119.5 -6q45 0 88.5 2t82 11.5t70 29.5t51.5 56q-28 84 -52 154.5t-48.5 143t-51.5 154t-62 186.5q12 20 27 46t31 50.5t31 45t26 29.5z" />
    <glyph glyph-name="uniFBA7" unicode="&#x6c1;" horiz-adv-x="913" arabic-form="final" 
d="M913 0q-60 0 -116 22.5t-106.5 56t-93.5 73t-78.5 73t-62.5 56t-43 22.5q-13 0 -33.5 -10.5t-52 -41.5t-76 -88t-105.5 -150l-76 45q122 202 214.5 299t170.5 97q29 0 62 -21.5t69.5 -53.5t76 -70t80.5 -70t84 -53.5t86 -21.5h10v-164h-10z" />
    <glyph glyph-name="uni0686" unicode="&#x686;" horiz-adv-x="1505" arabic-form="isolated" 
d="M1008 -241l-134 -134l-134 134l134 134zM1183 42l-134 -134l-134 134l134 134zM833 42l-134 -134l-134 134l134 134zM473 916q34 0 79.5 -14t104 -37t130.5 -51.5t158 -58.5t187.5 -57.5t218.5 -47.5l-81 -164q-256 -30 -439.5 -88t-307.5 -133.5t-193.5 -163.5
t-96.5 -178q16 -90 52.5 -159.5t87.5 -121.5t114.5 -87.5t134.5 -57.5t147 -31.5t152 -9.5q69 0 136.5 7t128.5 18.5t114 27t95 32.5v-2q-6 -15 -15 -41l-18 -52q-11 -30 -21 -63q-88 -45 -196.5 -68t-226.5 -23q-94 0 -188 15.5t-180 48.5t-160.5 83t-129 118.5t-85 155
t-30.5 191.5v7q0 41 13 100t48.5 125.5t98 136t162.5 130t242.5 107.5t337.5 70q-56 12 -120.5 30t-130 38.5t-127.5 41.5t-113 37.5t-86.5 27.5t-48.5 11h-1q-19 0 -42.5 -23t-46 -53.5t-41 -62t-28.5 -47.5l-70 45q39 67 70 121t62 91.5t66 58t83 20.5z" />
    <glyph glyph-name="uniFB7B" unicode="&#x686;" horiz-adv-x="1478" arabic-form="final" 
d="M908.236 -267.818l-127.236 -127.383l-127.236 127.383l127.236 127.384zM1074.4 1.20801l-127.236 -127.383l-127.236 127.383l127.236 127.384zM742.069 1.20801l-127.236 -127.383l-127.236 127.383l127.236 127.384zM460 916q34 0 79.5 -14t104 -37t130.5 -51.5
t158 -58.5t187.5 -57.5t218.5 -47.5l-81 -164q-21 -3 -41.5 -5.5t-36.5 -4.5t-26.5 -3.5t-13.5 -2.5q0 -67 16.5 -123t50.5 -96.5t87 -63.5t127 -23h69v-164h-69q-116 0 -188.5 37t-114 99.5t-58 144.5t-19.5 171q-198 -38 -341.5 -95.5t-242 -127t-155.5 -148t-81 -158.5
q16 -90 52.5 -159.5t87.5 -121.5t114.5 -87.5t134.5 -57.5t147 -31.5t152 -9.5q69 0 136.5 7t128.5 18.5t114 27t95 32.5v-2q-6 -15 -15 -41l-18 -52q-11 -30 -21 -63q-88 -45 -196.5 -68t-226.5 -23q-94 0 -188 15.5t-180 48.5t-160.5 83t-129 118.5t-85 155t-30.5 191.5v7
q0 41 13 100t48.5 125.5t98 136t162.5 130t242.5 107.5t337.5 70q-56 12 -120.5 30t-130 38.5t-127.5 41.5t-113 37.5t-86.5 27.5t-48.5 11h-1q-19 0 -42.5 -23t-46 -53.5t-41 -62t-28.5 -47.5l-70 45q39 67 70 121t62 91.5t66 58t83 20.5z" />
    <glyph glyph-name="uni0623" unicode="&#x623;" horiz-adv-x="571" arabic-form="isolated" 
d="M357 1542q5 0 6 -13.5t2 -22.5q4 -77 4 -152q0 -23 -1 -82.5t-1 -164.5q0 -59 -1 -133.5t-2.5 -157t-3.5 -169.5t-5.5 -171.5t-7.5 -163t-9 -143.5q-18 -46 -33 -85q-6 -17 -12.5 -33t-12.5 -30t-10.5 -24t-6.5 -14q-8 -9 -10 -9q-1 0 -3 1.5t-2 6.5q-3 121 -6 246.5
t-5.5 247t-5 236.5t-4.5 217q-4 238 -8 462q37 42 67 75q13 14 25 28t21.5 24.5t16 17t7.5 6.5h1zM205 1704q-7 4 -22.5 16t-32 31.5t-30 44.5t-15.5 55v6q0 27 18 64t48.5 72.5t68 60t72.5 24.5q51 0 94.5 -24t79.5 -88l-26 -13q-9 5 -42 16t-90 11q-29 0 -56 -13.5
t-48 -31t-34 -34.5t-13 -24q0 -8 10 -26t31 -36.5t55 -34.5t82 -20q30 4 53 8t42.5 8t36.5 8.5t35 9.5q0 -2 -5.5 -22t-21.5 -75q-9 -2 -19.5 -4t-25.5 -5t-36.5 -7.5t-51.5 -11.5q-43 -9 -77 -19t-67.5 -23.5t-70.5 -31.5t-85 -43l27 87z" />
    <glyph glyph-name="uniFE84" unicode="&#x623;" horiz-adv-x="596" arabic-form="final" 
d="M284 1538q3 0 4.5 -4t2.5 -9t1.5 -10t0.5 -7q7 -166 12 -290.5t9.5 -221t7.5 -171.5t6 -142.5t5.5 -133.5t5.5 -145q1 -30 3 -58t3.5 -52t3.5 -42l3 -27q16 -15 47 -26.5t64 -19t62 -11.5t43 -4h38v-164h-33q-96 0 -160 22t-104 64t-59 101.5t-25 134.5q-9 124 -17 227
t-15 192t-13 168t-11.5 156.5t-11 156t-11.5 167.5q10 10 31 34.5t43.5 50t40.5 45t23 19.5zM205 1704q-7 4 -22.5 16t-32 31.5t-30 44.5t-15.5 55v6q0 27 18 64t48.5 72.5t68 60t72.5 24.5q51 0 94.5 -24t79.5 -88l-26 -13q-9 5 -42 16t-90 11q-29 0 -56 -13.5t-48 -31
t-34 -34.5t-13 -24q0 -8 10 -26t31 -36.5t55 -34.5t82 -20q30 4 53 8t42.5 8t36.5 8.5t35 9.5q0 -2 -5.5 -22t-21.5 -75q-9 -2 -19.5 -4t-25.5 -5t-36.5 -7.5t-51.5 -11.5q-43 -9 -77 -19t-67.5 -23.5t-70.5 -31.5t-85 -43l27 87z" />
    <glyph glyph-name="uni0625" unicode="&#x625;" horiz-adv-x="505" arabic-form="isolated" 
d="M327 1649q2 -2 3 -5q4 -6 5 -31q1 -50 1.5 -115.5t0.5 -135v-136.5v-119q0 -59 -1 -133.5t-2.5 -157t-3.5 -169.5t-5.5 -171.5t-7.5 -163t-9 -143.5q-18 -46 -33 -85q-6 -17 -12.5 -33t-12.5 -30t-10.5 -24t-6.5 -14q-8 -9 -10 -9q-1 0 -3 1.5t-2 6.5q-3 121 -6 251
t-5.5 259.5t-5 254t-4.5 236.5q-4 262 -8 515q37 42 67 75q13 14 25 28t21.5 24.5t16 17t7.5 6.5h1zM45 -560l116 65q-7 4 -22.5 16t-32 31.5t-30 44.5t-15.5 55v6q0 27 18 64t48.5 72.5t68 60t72.5 24.5q51 0 94.5 -24t79.5 -88l-26 -13q-9 5 -42 16t-90 11
q-29 0 -56 -13.5t-48 -31t-34 -34.5t-13 -24q0 -8 10 -26t31 -36.5t55 -34.5t82 -20q30 4 53 8t42.5 8t36.5 8.5t35 9.5q0 -2 -5.5 -22t-21.5 -75q-9 -2 -19.5 -4t-25.5 -5t-36.5 -7.5t-51.5 -11.5q-43 -9 -77 -19t-67.5 -23.5t-70.5 -31.5t-85 -43z" />
    <glyph glyph-name="uniFE88" unicode="&#x625;" horiz-adv-x="596" arabic-form="final" 
d="M284 1649l1 -1q5 -4 6 -13t2 -16q7 -166 12 -298.5t9.5 -241.5t7.5 -198.5t6 -169t5.5 -154t5.5 -153.5q1 -30 3 -58t3.5 -52t3.5 -42l3 -27q16 -15 47 -26.5t64 -19t62 -11.5t43 -4h38v-164h-33q-96 0 -160 22t-104 64t-59 101.5t-25 134.5q-14 186 -25 344t-20 299
t-17 271.5t-17 263.5q10 10 31 34.5t43.5 50t40.5 45t23 19.5zM141 -560l116 65q-7 4 -22.5 16t-32 31.5t-30 44.5t-15.5 55v6q0 27 18 64t48.5 72.5t68 60t72.5 24.5q51 0 94.5 -24t79.5 -88l-26 -13q-9 5 -42 16t-90 11q-29 0 -56 -13.5t-48 -31t-34 -34.5t-13 -24
q0 -8 10 -26t31 -36.5t55 -34.5t82 -20q30 4 53 8t42.5 8t36.5 8.5t35 9.5q0 -2 -5.5 -22t-21.5 -75q-9 -2 -19.5 -4t-25.5 -5t-36.5 -7.5t-51.5 -11.5q-43 -9 -77 -19t-67.5 -23.5t-70.5 -31.5t-85 -43z" />
    <glyph glyph-name="uni0622" unicode="&#x622;" horiz-adv-x="571" arabic-form="isolated" 
d="M357 1542q5 0 6 -13.5t2 -22.5q4 -77 4 -152q0 -23 -1 -82.5t-1 -164.5q0 -59 -1 -133.5t-2.5 -157t-3.5 -169.5t-5.5 -171.5t-7.5 -163t-9 -143.5q-18 -46 -33 -85q-6 -17 -12.5 -33t-12.5 -30t-10.5 -24t-6.5 -14q-8 -9 -10 -9q-1 0 -3 1.5t-2 6.5q-3 121 -6 246.5
t-5.5 247t-5 236.5t-4.5 217q-4 238 -8 462q37 42 67 75q13 14 25 28t21.5 24.5t16 17t7.5 6.5h1zM648 1797q-12 -20 -33.5 -46t-52 -51t-68.5 -43.5t-83 -23.5q-23 -3 -49 -3q-35 0 -71.5 3.5t-71.5 9t-66.5 12t-55.5 11.5q-43 -23 -69 -54t-44 -57l-24 16q6 29 20 62.5
t33 64.5t41.5 55t44.5 34q36 -7 71.5 -14.5t73.5 -14t80.5 -10.5t94.5 -4q36 0 68.5 8.5t60.5 20.5t49 24.5t34 20.5z" />
    <glyph glyph-name="uniFE82" unicode="&#x622;" horiz-adv-x="596" arabic-form="final" 
d="M284 1538q3 0 4.5 -4t2.5 -9t1.5 -10t0.5 -7q7 -166 12 -290.5t9.5 -221t7.5 -171.5t6 -142.5t5.5 -133.5t5.5 -145q1 -30 3 -58t3.5 -52t3.5 -42l3 -27q16 -15 47 -26.5t64 -19t62 -11.5t43 -4h38v-164h-33q-96 0 -160 22t-104 64t-59 101.5t-25 134.5q-9 124 -17 227
t-15 192t-13 168t-11.5 156.5t-11 156t-11.5 167.5q10 10 31 34.5t43.5 50t40.5 45t23 19.5zM648 1797q-12 -20 -33.5 -46t-52 -51t-68.5 -43.5t-83 -23.5q-23 -3 -49 -3q-35 0 -71.5 3.5t-71.5 9t-66.5 12t-55.5 11.5q-43 -23 -69 -54t-44 -57l-24 16q6 29 20 62.5t33 64.5
t41.5 55t44.5 34q36 -7 71.5 -14.5t73.5 -14t80.5 -10.5t94.5 -4q36 0 68.5 8.5t60.5 20.5t49 24.5t34 20.5z" />
    <glyph glyph-name="uni0671" unicode="&#x671;" horiz-adv-x="571" arabic-form="isolated" 
d="M357 1542q5 0 6 -13.5t2 -22.5q4 -77 4 -152q0 -23 -1 -82.5t-1 -164.5q0 -59 -1 -133.5t-2.5 -157t-3.5 -169.5t-5.5 -171.5t-7.5 -163t-9 -143.5q-18 -46 -33 -85q-6 -17 -12.5 -33t-12.5 -30t-10.5 -24t-6.5 -14q-8 -9 -10 -9q-1 0 -3 1.5t-2 6.5q-3 121 -6 246.5
t-5.5 247t-5 236.5t-4.5 217q-4 238 -8 462q37 42 67 75q13 14 25 28t21.5 24.5t16 17t7.5 6.5h1zM566 1778q-5 -28 -25.5 -54t-45.5 -53q-21 -14 -40.5 -20.5t-36 -9t-29.5 -2.5q-2 0 -11 0.5t-21 0.5q-33 3 -65.5 13t-61.5 21t-52 19.5t-36 8.5q-8 0 -19.5 -6t-24 -15.5
t-25.5 -21t-23 -21.5l-37 30q54 66 93.5 101t59.5 36l53 -17q61 74 117 114.5t93 40.5h2q14 0 37 -14.5t44.5 -38t37.5 -53t16 -59.5zM513 1775q-9 16 -22 30.5t-27 25t-27 15.5t-23 5h-3q-31 -3 -65 -26.5t-79 -55.5q10 -5 39.5 -12.5t54 -9.5t37.5 -2q24 0 55.5 4.5
t59.5 25.5z" />
    <glyph glyph-name="uniFB51" unicode="&#x671;" horiz-adv-x="596" arabic-form="final" 
d="M284 1538q3 0 4.5 -4t2.5 -9t1.5 -10t0.5 -7q7 -166 12 -290.5t9.5 -221t7.5 -171.5t6 -142.5t5.5 -133.5t5.5 -145q1 -30 3 -58t3.5 -52t3.5 -42l3 -27q16 -15 47 -26.5t64 -19t62 -11.5t43 -4h38v-164h-33q-96 0 -160 22t-104 64t-59 101.5t-25 134.5q-9 124 -17 227
t-15 192t-13 168t-11.5 156.5t-11 156t-11.5 167.5q10 10 31 34.5t43.5 50t40.5 45t23 19.5zM566 1778q-5 -28 -25.5 -54t-45.5 -53q-21 -14 -40.5 -20.5t-36 -9t-29.5 -2.5q-2 0 -11 0.5t-21 0.5q-33 3 -65.5 13t-61.5 21t-52 19.5t-36 8.5q-8 0 -19.5 -6t-24 -15.5
t-25.5 -21t-23 -21.5l-37 30q54 66 93.5 101t59.5 36l53 -17q61 74 117 114.5t93 40.5h2q14 0 37 -14.5t44.5 -38t37.5 -53t16 -59.5zM513 1775q-9 16 -22 30.5t-27 25t-27 15.5t-23 5h-3q-31 -3 -65 -26.5t-79 -55.5q10 -5 39.5 -12.5t54 -9.5t37.5 -2q24 0 55.5 4.5
t59.5 25.5z" />
    <glyph glyph-name="uni0628" unicode="&#x628;" horiz-adv-x="1949" arabic-form="isolated" 
d="M1755 878q5 0 20.5 -26t34 -73t35 -113t21 -123t4.5 -94q0 -48 -6.5 -120t-37.5 -170q-42 -31 -107.5 -57t-142.5 -47t-161.5 -36.5t-164.5 -26t-151 -15.5t-122 -5q-65 0 -145 2.5t-163.5 13t-165.5 32t-151.5 60t-120.5 97t-68.5 126.5t-17.5 131q0 38 9 115t68 223
l73 -37q-40 -106 -45.5 -160t-5.5 -78q0 -51 14.5 -103t53.5 -95.5t93.5 -72.5t120.5 -46.5t138 -26t146 -11t143 -2.5q43 0 109.5 3.5t144.5 10t161 17.5t159.5 26.5t139 35t100.5 44.5q2 10 2 23q0 12 -2.5 36t-11 63.5t-21 83.5t-26.5 87t-28.5 81.5t-27.5 66.5z
M999 -511l-150 150l150 150l150 -150z" />
    <glyph glyph-name="uniFE91" unicode="&#x628;" horiz-adv-x="624" arabic-form="initial" 
d="M424 879q5 0 21 -30t35 -83.5t36 -126.5t22 -137t5 -107q0 -47 -5.5 -119.5t-36.5 -170.5q-30 -27 -81.5 -47t-115 -32.5t-133.5 -19t-136 -6.5h-61v164h57q76 0 148 5.5t129 13.5t93 17t40 16q1 13 1 26q0 58 -12 126t-31.5 136.5t-41.5 124.5t-37 88q34 56 54 88
t30.5 48t14 20.5t5.5 5.5zM309 -511l-150 150l150 150l150 -150z" />
    <glyph glyph-name="uniFE92" unicode="&#x628;" horiz-adv-x="781" arabic-form="medial" 
d="M471 698l4 -19q4 -19 9 -51t11 -74.5t10.5 -89t6 -83t1.5 -59.5t-1 -45q14 -14 31.5 -27t39.5 -25q18 -10 40.5 -21t47.5 -20t53 -14.5t58 -5.5h9v-164h-9q-44 0 -93 12t-95.5 33.5t-85.5 51.5t-63 66q-27 -33 -73 -62.5t-101.5 -52t-117.5 -35.5t-120 -13h-53v164h30
q67 0 132.5 9t118.5 24t89 35t45 43q1 14 1 30q0 20 -2 50.5t-7 72.5t-12 84.5t-13 80.5zM309 -511l-150 150l150 150l150 -150z" />
    <glyph glyph-name="uniFE90" unicode="&#x628;" horiz-adv-x="1966" arabic-form="final" 
d="M293 739q-45 -131 -45 -226q0 -8 2 -61t44.5 -119t116 -103.5t163 -56t188 -23t190.5 -4.5q128 0 242.5 13t209.5 42.5t167.5 77.5t117.5 118q19 30 31 55t21 49.5t17 51t18 59.5l61 -18q-8 -37 -13 -60t-10.5 -44.5t-11.5 -47.5t-15 -68q1 -62 16 -102.5t39.5 -64.5
t58.5 -33.5t75 -9.5v-164h-10q-73 0 -121.5 18t-79.5 49.5t-47 75t-23 94.5q-63 -74 -144 -123.5t-174 -80.5t-195 -44t-207 -13q-65 0 -144.5 2.5t-163 13t-165.5 32t-151.5 60t-120.5 97t-68.5 126.5t-17.5 131q0 38 9 115t68 223zM928 -511l-150 150l150 150l150 -150z
" />
    <glyph glyph-name="uni067E" unicode="&#x67e;" horiz-adv-x="1949" arabic-form="isolated" 
d="M1755 878q5 0 20.5 -26t34 -73t35 -113t21 -123t4.5 -94q0 -48 -6.5 -120t-37.5 -170q-42 -31 -107.5 -57t-142.5 -47t-161.5 -36.5t-164.5 -26t-151 -15.5t-122 -5q-65 0 -145 2.5t-163.5 13t-165.5 32t-151.5 60t-120.5 97t-68.5 126.5t-17.5 131q0 38 9 115t68 223
l73 -37q-40 -106 -45.5 -160t-5.5 -78q0 -51 14.5 -103t53.5 -95.5t93.5 -72.5t120.5 -46.5t138 -26t146 -11t143 -2.5q43 0 109.5 3.5t144.5 10t161 17.5t159.5 26.5t139 35t100.5 44.5q2 10 2 23q0 12 -2.5 36t-11 63.5t-21 83.5t-26.5 87t-28.5 81.5t-27.5 66.5z
M1155 -591l-134 -134l-134 134l134 134zM1330 -308l-134 -134l-134 134l134 134zM980 -308l-134 -134l-134 134l134 134z" />
    <glyph glyph-name="uniFB57" unicode="&#x67e;" horiz-adv-x="1966" arabic-form="final" 
d="M293 739q-45 -131 -45 -226q0 -8 2 -61t44.5 -119t116 -103.5t163 -56t188 -23t190.5 -4.5q128 0 242.5 13t209.5 42.5t167.5 77.5t117.5 118q19 30 31 55t21 49.5t17 51t18 59.5l61 -18q-8 -37 -13 -60t-10.5 -44.5t-11.5 -47.5t-15 -68q1 -62 16 -102.5t39.5 -64.5
t58.5 -33.5t75 -9.5v-164h-10q-73 0 -121.5 18t-79.5 49.5t-47 75t-23 94.5q-63 -74 -144 -123.5t-174 -80.5t-195 -44t-207 -13q-65 0 -144.5 2.5t-163 13t-165.5 32t-151.5 60t-120.5 97t-68.5 126.5t-17.5 131q0 38 9 115t68 223zM1107 -591l-134 -134l-134 134l134 134z
M1282 -308l-134 -134l-134 134l134 134zM932 -308l-134 -134l-134 134l134 134z" />
    <glyph glyph-name="uniFB58" unicode="&#x67e;" horiz-adv-x="755" arabic-form="initial" 
d="M528 879q5 0 21 -30t35 -83.5t36 -126.5t22 -137t5 -107q0 -47 -5.5 -119.5t-36.5 -170.5q-30 -27 -85 -47t-129.5 -32.5t-164 -19t-187.5 -6.5h-59v164h55q112 0 204.5 5.5t159 13.5t104.5 17t42 16q1 13 1 26q0 58 -12 126t-31.5 136.5t-41.5 124.5t-37 88q34 56 54 88
t30.5 48t14 20.5t5.5 5.5zM475 -591l-134 -134l-134 134l134 134zM650 -308l-134 -134l-134 134l134 134zM300 -308l-134 -134l-134 134l134 134z" />
    <glyph glyph-name="uniFB59" unicode="&#x67e;" horiz-adv-x="897" arabic-form="medial" 
d="M531 698l4 -19q4 -19 9 -51t11 -74.5t10.5 -89t6 -83t1.5 -59.5t-1 -45q28 -26 64.5 -46.5t78.5 -35.5t87.5 -23t92.5 -8h12v-164h-12q-133 0 -230 43.5t-160 119.5q-27 -33 -76.5 -62.5t-113.5 -52t-138 -35.5t-150 -13h-47v164h24q76 0 153 9t140.5 24t106 35t51.5 43
q1 14 1 30q0 20 -2 50.5t-7 72.5t-12 84.5t-13 80.5zM498 -591l-134 -134l-134 134l134 134zM673 -308l-134 -134l-134 134l134 134zM323 -308l-134 -134l-134 134l134 134z" />
    <glyph glyph-name="uni062A" unicode="&#x62a;" horiz-adv-x="1949" arabic-form="isolated" 
d="M1755 878q5 0 20.5 -26t34 -73t35 -113t21 -123t4.5 -94q0 -48 -6.5 -120t-37.5 -170q-42 -31 -107.5 -57t-142.5 -47t-161.5 -36.5t-164.5 -26t-151 -15.5t-122 -5q-65 0 -145 2.5t-163.5 13t-165.5 32t-151.5 60t-120.5 97t-68.5 126.5t-17.5 131q0 38 9 115t68 223
l73 -37q-40 -106 -45.5 -160t-5.5 -78q0 -51 14.5 -103t53.5 -95.5t93.5 -72.5t120.5 -46.5t138 -26t146 -11t143 -2.5q43 0 109.5 3.5t144.5 10t161 17.5t159.5 26.5t139 35t100.5 44.5q2 10 2 23q0 12 -2.5 36t-11 63.5t-21 83.5t-26.5 87t-28.5 81.5t-27.5 66.5z
M1192 651l-142 142l142 142l142 -142zM832 651l-142 142l142 142l142 -142z" />
    <glyph glyph-name="uniFE97" unicode="&#x62a;" horiz-adv-x="755" arabic-form="initial" 
d="M528 879q5 0 21 -30t35 -83.5t36 -126.5t22 -137t5 -107q0 -47 -5.5 -119.5t-36.5 -170.5q-30 -27 -85 -47t-129.5 -32.5t-164 -19t-187.5 -6.5h-59v164h55q112 0 204.5 5.5t159 13.5t104.5 17t42 16q1 13 1 26q0 58 -12 126t-31.5 136.5t-41.5 124.5t-37 88q34 56 54 88
t30.5 48t14 20.5t5.5 5.5zM566 991l-142 142l142 142l142 -142zM206 991l-142 142l142 142l142 -142z" />
    <glyph glyph-name="uniFE98" unicode="&#x62a;" horiz-adv-x="897" arabic-form="medial" 
d="M531 698l4 -19q4 -19 9 -51t11 -74.5t10.5 -89t6 -83t1.5 -59.5t-1 -45q28 -26 64.5 -46.5t78.5 -35.5t87.5 -23t92.5 -8h12v-164h-12q-133 0 -230 43.5t-160 119.5q-27 -33 -76.5 -62.5t-113.5 -52t-138 -35.5t-150 -13h-47v164h24q76 0 153 9t140.5 24t106 35t51.5 43
q1 14 1 30q0 20 -2 50.5t-7 72.5t-12 84.5t-13 80.5zM578 858l-142 142l142 142l142 -142zM218 858l-142 142l142 142l142 -142z" />
    <glyph glyph-name="uniFE96" unicode="&#x62a;" horiz-adv-x="1966" arabic-form="final" 
d="M293 739q-45 -131 -45 -226q0 -8 2 -61t44.5 -119t116 -103.5t163 -56t188 -23t190.5 -4.5q128 0 242.5 13t209.5 42.5t167.5 77.5t117.5 118q19 30 31 55t21 49.5t17 51t18 59.5l61 -18q-8 -37 -13 -60t-10.5 -44.5t-11.5 -47.5t-15 -68q1 -62 16 -102.5t39.5 -64.5
t58.5 -33.5t75 -9.5v-164h-10q-73 0 -121.5 18t-79.5 49.5t-47 75t-23 94.5q-63 -74 -144 -123.5t-174 -80.5t-195 -44t-207 -13q-65 0 -144.5 2.5t-163 13t-165.5 32t-151.5 60t-120.5 97t-68.5 126.5t-17.5 131q0 38 9 115t68 223zM1177 651l-142 142l142 142l142 -142z
M817 651l-142 142l142 142l142 -142z" />
    <glyph glyph-name="uni062B" unicode="&#x62b;" horiz-adv-x="1949" arabic-form="isolated" 
d="M1755 878q5 0 20.5 -26t34 -73t35 -113t21 -123t4.5 -94q0 -48 -6.5 -120t-37.5 -170q-42 -31 -107.5 -57t-142.5 -47t-161.5 -36.5t-164.5 -26t-151 -15.5t-122 -5q-65 0 -145 2.5t-163.5 13t-165.5 32t-151.5 60t-120.5 97t-68.5 126.5t-17.5 131q0 38 9 115t68 223
l73 -37q-40 -106 -45.5 -160t-5.5 -78q0 -51 14.5 -103t53.5 -95.5t93.5 -72.5t120.5 -46.5t138 -26t146 -11t143 -2.5q43 0 109.5 3.5t144.5 10t161 17.5t159.5 26.5t139 35t100.5 44.5q2 10 2 23q0 12 -2.5 36t-11 63.5t-21 83.5t-26.5 87t-28.5 81.5t-27.5 66.5z
M1031 902l-134 134l134 134l134 -134zM1206 619l-134 134l134 134l134 -134zM856 619l-134 134l134 134l134 -134z" />
    <glyph glyph-name="uniFE9B" unicode="&#x62b;" horiz-adv-x="755" arabic-form="initial" 
d="M528 879q5 0 21 -30t35 -83.5t36 -126.5t22 -137t5 -107q0 -47 -5.5 -119.5t-36.5 -170.5q-30 -27 -85 -47t-129.5 -32.5t-164 -19t-187.5 -6.5h-59v164h55q112 0 204.5 5.5t159 13.5t104.5 17t42 16q1 13 1 26q0 58 -12 126t-31.5 136.5t-41.5 124.5t-37 88q34 56 54 88
t30.5 48t14 20.5t5.5 5.5zM417 1243l-134 134l134 134l134 -134zM592 960l-134 134l134 134l134 -134zM242 960l-134 134l134 134l134 -134z" />
    <glyph glyph-name="uniFE9C" unicode="&#x62b;" horiz-adv-x="897" arabic-form="medial" 
d="M531 698l4 -19q4 -19 9 -51t11 -74.5t10.5 -89t6 -83t1.5 -59.5t-1 -45q28 -26 64.5 -46.5t78.5 -35.5t87.5 -23t92.5 -8h12v-164h-12q-133 0 -230 43.5t-160 119.5q-27 -33 -76.5 -62.5t-113.5 -52t-138 -35.5t-150 -13h-47v164h24q76 0 153 9t140.5 24t106 35t51.5 43
q1 14 1 30q0 20 -2 50.5t-7 72.5t-12 84.5t-13 80.5zM398 1114l-134 134l134 134l134 -134zM573 831l-134 134l134 134l134 -134zM223 831l-134 134l134 134l134 -134z" />
    <glyph glyph-name="uniFE9A" unicode="&#x62b;" horiz-adv-x="1966" arabic-form="final" 
d="M293 739q-45 -131 -45 -226q0 -8 2 -61t44.5 -119t116 -103.5t163 -56t188 -23t190.5 -4.5q128 0 242.5 13t209.5 42.5t167.5 77.5t117.5 118q19 30 31 55t21 49.5t17 51t18 59.5l61 -18q-8 -37 -13 -60t-10.5 -44.5t-11.5 -47.5t-15 -68q1 -62 16 -102.5t39.5 -64.5
t58.5 -33.5t75 -9.5v-164h-10q-73 0 -121.5 18t-79.5 49.5t-47 75t-23 94.5q-63 -74 -144 -123.5t-174 -80.5t-195 -44t-207 -13q-65 0 -144.5 2.5t-163 13t-165.5 32t-151.5 60t-120.5 97t-68.5 126.5t-17.5 131q0 38 9 115t68 223zM987 902l-134 134l134 134l134 -134z
M1162 619l-134 134l134 134l134 -134zM812 619l-134 134l134 134l134 -134z" />
    <glyph glyph-name="uni0679" unicode="&#x679;" horiz-adv-x="1949" arabic-form="isolated" 
d="M1755 878q5 0 20.5 -26t34 -73t35 -113t21 -123t4.5 -94q0 -48 -6.5 -120t-37.5 -170q-42 -31 -107.5 -57t-142.5 -47t-161.5 -36.5t-164.5 -26t-151 -15.5t-122 -5q-65 0 -145 2.5t-163.5 13t-165.5 32t-151.5 60t-120.5 97t-68.5 126.5t-17.5 131q0 38 9 115t68 223
l73 -37q-40 -106 -45.5 -160t-5.5 -78q0 -51 14.5 -103t53.5 -95.5t93.5 -72.5t120.5 -46.5t138 -26t146 -11t143 -2.5q43 0 109.5 3.5t144.5 10t161 17.5t159.5 26.5t139 35t100.5 44.5q2 10 2 23q0 12 -2.5 36t-11 63.5t-21 83.5t-26.5 87t-28.5 81.5t-27.5 66.5zM672 699
q17 -3 37.5 -6.5t41 -6t39.5 -4.5t33 -2l35 62q8 14 12.5 35t6.5 41q3 22 3 47q-1 55 -3 116t-4.5 116.5t-4.5 101t-4 68.5l15 15t20.5 19.5t19.5 16.5t11 7t2.5 -3t1.5 -14q1 -12 2.5 -52.5t2.5 -92t1 -104.5q0 -54 -1 -91q0 -9 -0.5 -27t-3.5 -40.5t-8.5 -46.5t-15.5 -43
q29 37 67 78t79.5 75t83 56.5t77.5 22.5q41 0 68.5 -14t44.5 -36t25 -49t9.5 -47t1.5 -32t-1.5 -29t-4.5 -29l-21 -51q-9 -21 -18 -39t-17 -35q-12 -14 -37 -29t-60.5 -27t-81 -20t-99.5 -9q-26 0 -62.5 0.5t-74.5 2t-73.5 4t-59.5 6.5q-15 8 -32 23t-31 29q-17 17 -33 35z
M1304 765q3 9 6.5 27.5t4 30.5t0.5 14q0 20 -4 41t-16 39t-32 28.5t-50 10.5h-6q-40 -1 -78 -18.5t-72 -44t-63.5 -58.5t-53 -62.5t-41 -56.5t-27.5 -39q26 -1 54 -2t47 -1q25 0 54 1q44 0 86 5t79 15.5t66 28t46 41.5z" />
    <glyph glyph-name="uniFB68" unicode="&#x679;" horiz-adv-x="755" arabic-form="initial" 
d="M528 879q5 0 21 -30t35 -83.5t36 -126.5t22 -137t5 -107q0 -47 -5.5 -119.5t-36.5 -170.5q-30 -27 -85 -47t-129.5 -32.5t-164 -19t-187.5 -6.5h-59v164h55q112 0 204.5 5.5t159 13.5t104.5 17t42 16q1 13 1 26q0 58 -12 126t-31.5 136.5t-41.5 124.5t-37 88q34 56 54 88
t30.5 48t14 20.5t5.5 5.5zM25 1092q17 -3 37.5 -6.5t41 -6t39.5 -4.5t33 -2l35 62q8 14 12.5 35t6.5 41q3 22 3 47q-1 55 -3 116t-4.5 116.5t-4.5 101t-4 68.5l15 15t20.5 19.5t19.5 16.5t11 7t2.5 -3t1.5 -14q1 -12 2.5 -52.5t2.5 -92t1 -104.5q0 -54 -1 -91q0 -9 -0.5 -27
t-3.5 -40.5t-8.5 -46.5t-15.5 -43q29 37 67 78t79.5 75t83 56.5t77.5 22.5q41 0 68.5 -14t44.5 -36t25 -49t9.5 -47t1.5 -32t-1.5 -29t-4.5 -29l-21 -51q-9 -21 -18 -39t-17 -35q-12 -14 -37 -29t-60.5 -27t-81 -20t-99.5 -9q-26 0 -62.5 0.5t-74.5 2t-73.5 4t-59.5 6.5
q-15 8 -32 23t-31 29q-17 17 -33 35zM657 1158q3 9 6.5 27.5t4 30.5t0.5 14q0 20 -4 41t-16 39t-32 28.5t-50 10.5h-6q-40 -1 -78 -18.5t-72 -44t-63.5 -58.5t-53 -62.5t-41 -56.5t-27.5 -39q26 -1 54 -2t47 -1q25 0 54 1q44 0 86 5t79 15.5t66 28t46 41.5z" />
    <glyph glyph-name="uniFB69" unicode="&#x679;" horiz-adv-x="897" arabic-form="medial" 
d="M531 698l4 -19q4 -19 9 -51t11 -74.5t10.5 -89t6 -83t1.5 -59.5t-1 -45q28 -26 64.5 -46.5t78.5 -35.5t87.5 -23t92.5 -8h12v-164h-12q-133 0 -230 43.5t-160 119.5q-27 -33 -76.5 -62.5t-113.5 -52t-138 -35.5t-150 -13h-47v164h24q76 0 153 9t140.5 24t106 35t51.5 43
q1 14 1 30q0 20 -2 50.5t-7 72.5t-12 84.5t-13 80.5zM54 939q17 -3 37.5 -6.5t41 -6t39.5 -4.5t33 -2l35 62q8 14 12.5 35t6.5 41q3 22 3 47q-1 55 -3 116t-4.5 116.5t-4.5 101t-4 68.5l15 15t20.5 19.5t19.5 16.5t11 7t2.5 -3t1.5 -14q1 -12 2.5 -52.5t2.5 -92t1 -104.5
q0 -54 -1 -91q0 -9 -0.5 -27t-3.5 -40.5t-8.5 -46.5t-15.5 -43q29 37 67 78t79.5 75t83 56.5t77.5 22.5q41 0 68.5 -14t44.5 -36t25 -49t9.5 -47t1.5 -32t-1.5 -29t-4.5 -29l-21 -51q-9 -21 -18 -39t-17 -35q-12 -14 -37 -29t-60.5 -27t-81 -20t-99.5 -9q-26 0 -62.5 0.5
t-74.5 2t-73.5 4t-59.5 6.5q-15 8 -32 23t-31 29q-17 17 -33 35zM686 1005q3 9 6.5 27.5t4 30.5t0.5 14q0 20 -4 41t-16 39t-32 28.5t-50 10.5h-6q-40 -1 -78 -18.5t-72 -44t-63.5 -58.5t-53 -62.5t-41 -56.5t-27.5 -39q26 -1 54 -2t47 -1q25 0 54 1q44 0 86 5t79 15.5
t66 28t46 41.5z" />
    <glyph glyph-name="uniFB67" unicode="&#x679;" horiz-adv-x="1966" arabic-form="final" 
d="M293 739q-45 -131 -45 -226q0 -8 2 -61t44.5 -119t116 -103.5t163 -56t188 -23t190.5 -4.5q128 0 242.5 13t209.5 42.5t167.5 77.5t117.5 118q19 30 31 55t21 49.5t17 51t18 59.5l61 -18q-8 -37 -13 -60t-10.5 -44.5t-11.5 -47.5t-15 -68q1 -62 16 -102.5t39.5 -64.5
t58.5 -33.5t75 -9.5v-164h-10q-73 0 -121.5 18t-79.5 49.5t-47 75t-23 94.5q-63 -74 -144 -123.5t-174 -80.5t-195 -44t-207 -13q-65 0 -144.5 2.5t-163 13t-165.5 32t-151.5 60t-120.5 97t-68.5 126.5t-17.5 131q0 38 9 115t68 223zM638 699q17 -3 37.5 -6.5t41 -6
t39.5 -4.5t33 -2l35 62q8 14 12.5 35t6.5 41q3 22 3 47q-1 55 -3 116t-4.5 116.5t-4.5 101t-4 68.5l15 15t20.5 19.5t19.5 16.5t11 7t2.5 -3t1.5 -14q1 -12 2.5 -52.5t2.5 -92t1 -104.5q0 -54 -1 -91q0 -9 -0.5 -27t-3.5 -40.5t-8.5 -46.5t-15.5 -43q29 37 67 78t79.5 75
t83 56.5t77.5 22.5q41 0 68.5 -14t44.5 -36t25 -49t9.5 -47t1.5 -32t-1.5 -29t-4.5 -29l-21 -51q-9 -21 -18 -39t-17 -35q-12 -14 -37 -29t-60.5 -27t-81 -20t-99.5 -9q-26 0 -62.5 0.5t-74.5 2t-73.5 4t-59.5 6.5q-15 8 -32 23t-31 29q-17 17 -33 35zM1270 765
q3 9 6.5 27.5t4 30.5t0.5 14q0 20 -4 41t-16 39t-32 28.5t-50 10.5h-6q-40 -1 -78 -18.5t-72 -44t-63.5 -58.5t-53 -62.5t-41 -56.5t-27.5 -39q26 -1 54 -2t47 -1q25 0 54 1q44 0 86 5t79 15.5t66 28t46 41.5z" />
    <glyph glyph-name="uni0629" unicode="&#x629;" horiz-adv-x="878" arabic-form="isolated" 
d="M447 134q73 0 124.5 13.5t86.5 36.5t57.5 53t38.5 63q-1 37 -22 78.5t-54.5 82.5t-75 79.5t-83.5 69.5t-79.5 52.5t-63.5 28.5q-41 -67 -72 -134t-48 -129t-17.5 -89.5t-0.5 -28.5q0 -52 21.5 -91t67 -62t120.5 -23zM388 871q6 0 40.5 -16t81.5 -47t100.5 -75.5
t98.5 -102.5t74.5 -127.5t29.5 -149.5q-21 -184 -115 -276t-258 -92q-70 0 -129.5 23.5t-100 69t-54.5 98.5t-14 99q0 33 5 70q7 45 23 97.5t37 106t45.5 105t49 95t46.5 75.5t39 46q0 1 1 1zM640 979l-142 142l142 142l142 -142zM280 979l-142 142l142 142l142 -142z" />
    <glyph glyph-name="uniFE94" unicode="&#x629;" horiz-adv-x="1045" arabic-form="final" 
d="M653 763q-71 -39 -143.5 -78t-133.5 -75t-104 -66t-55 -51q2 -31 27.5 -57.5t84 -47t154.5 -34t239 -18.5zM806 737q6 -54 12 -111t12.5 -111t12 -102t9.5 -83q10 -85 54 -125.5t136 -40.5h13v-164h-35q-84 4 -136.5 31t-84 69t-46.5 96t-23 111l-124 -126q-5 -1 -10 -1
h-28q-27 0 -69.5 2.5t-94 11t-110 24.5t-117.5 43q-12 35 -22.5 81t-13.5 79.5t-3 55.5q0 18 2.5 44t17.5 40q21 19 55 45t76 56t89.5 61.5t93.5 61.5t89 57.5t77 48.5l-11 114l136 121zM841 1200l-142 142l142 142l142 -142zM481 1200l-142 142l142 142l142 -142z" />
    <glyph glyph-name="uniFB7C" unicode="&#x686;" horiz-adv-x="1443" arabic-form="initial" 
d="M449 861q30 0 85 -18.5t127.5 -47.5t158 -64t176.5 -68.5t183.5 -61t178.5 -41.5l-82 -161q-45 -14 -117 -49t-165.5 -79.5t-206.5 -92t-239.5 -87.5t-263.5 -65.5t-279 -25.5h-25v165h25q166 0 319.5 30.5t290 77t254 103t212.5 109.5q-69 17 -139.5 40.5t-138.5 47.5
t-131 47.5t-116.5 42t-95.5 30t-67 11.5h-3q-15 -1 -35 -18.5t-41 -43t-42.5 -56t-39.5 -56.5l-69 34q39 67 70 121.5t62 93t66 60t83 22.5h5zM807 -591l-134 -134l-134 134l134 134zM982 -308l-134 -134l-134 134l134 134zM632 -308l-134 -134l-134 134l134 134z" />
    <glyph glyph-name="uniFB7D" unicode="&#x686;" horiz-adv-x="1443" arabic-form="medial" 
d="M449 861q30 0 85 -18.5t127.5 -47.5t158 -64t176.5 -68.5t183.5 -61t178.5 -41.5l-78 -153l-147 -69q1 -52 23.5 -85.5t61.5 -53t93 -27.5t119 -8h23v-164h-23q-77 0 -147.5 13t-125.5 46t-88 89t-35 141q-94 -45 -210.5 -96t-248.5 -93.5t-276 -71t-294 -28.5h-25v165
h25q166 0 319.5 30.5t290 77t254 103t212.5 109.5q-69 17 -139.5 40.5t-138.5 47.5t-131 47.5t-116.5 42t-95.5 30t-67 11.5h-3q-15 -1 -35 -18.5t-41 -43t-42.5 -56t-39.5 -56.5l-69 34q39 67 70 121.5t62 93t66 60t83 22.5h5zM807 -591l-134 -134l-134 134l134 134z
M982 -308l-134 -134l-134 134l134 134zM632 -308l-134 -134l-134 134l134 134z" />
    <glyph glyph-name="uni062C" unicode="&#x62c;" horiz-adv-x="1505" arabic-form="isolated" 
d="M473 916q34 0 79.5 -14t104 -37t130.5 -51.5t158 -58.5t187.5 -57.5t218.5 -47.5l-81 -164q-256 -30 -439.5 -88t-307.5 -133.5t-193.5 -163.5t-96.5 -178q16 -90 52.5 -159.5t87.5 -121.5t114.5 -87.5t134.5 -57.5t147 -31.5t152 -9.5q69 0 136.5 7t128.5 18.5t114 27
t95 32.5v-2q-6 -15 -15 -41l-18 -52q-11 -30 -21 -63q-88 -45 -196.5 -68t-226.5 -23q-94 0 -188 15.5t-180 48.5t-160.5 83t-129 118.5t-85 155t-30.5 191.5v7q0 41 13 100t48.5 125.5t98 136t162.5 130t242.5 107.5t337.5 70q-56 12 -120.5 30t-130 38.5t-127.5 41.5
t-113 37.5t-86.5 27.5t-48.5 11h-1q-19 0 -42.5 -23t-46 -53.5t-41 -62t-28.5 -47.5l-70 45q39 67 70 121t62 91.5t66 58t83 20.5zM843 -242l-150 150l150 150l150 -150z" />
    <glyph glyph-name="uniFE9F" unicode="&#x62c;" horiz-adv-x="1443" arabic-form="initial" 
d="M449 861q30 0 85 -18.5t127.5 -47.5t158 -64t176.5 -68.5t183.5 -61t178.5 -41.5l-82 -161q-45 -14 -117 -49t-165.5 -79.5t-206.5 -92t-239.5 -87.5t-263.5 -65.5t-279 -25.5h-25v165h25q166 0 319.5 30.5t290 77t254 103t212.5 109.5q-69 17 -139.5 40.5t-138.5 47.5
t-131 47.5t-116.5 42t-95.5 30t-67 11.5h-3q-15 -1 -35 -18.5t-41 -43t-42.5 -56t-39.5 -56.5l-69 34q39 67 70 121.5t62 93t66 60t83 22.5h5zM685 -453l-150 150l150 150l150 -150z" />
    <glyph glyph-name="uniFEA0" unicode="&#x62c;" horiz-adv-x="1443" arabic-form="medial" 
d="M449 861q30 0 85 -18.5t127.5 -47.5t158 -64t176.5 -68.5t183.5 -61t178.5 -41.5l-78 -153l-147 -69q1 -52 23.5 -85.5t61.5 -53t93 -27.5t119 -8h23v-164h-23q-77 0 -147.5 13t-125.5 46t-88 89t-35 141q-94 -45 -210.5 -96t-248.5 -93.5t-276 -71t-294 -28.5h-25v165
h25q166 0 319.5 30.5t290 77t254 103t212.5 109.5q-69 17 -139.5 40.5t-138.5 47.5t-131 47.5t-116.5 42t-95.5 30t-67 11.5h-3q-15 -1 -35 -18.5t-41 -43t-42.5 -56t-39.5 -56.5l-69 34q39 67 70 121.5t62 93t66 60t83 22.5h5zM699 -453l-150 150l150 150l150 -150z" />
    <glyph glyph-name="uniFE9E" unicode="&#x62c;" horiz-adv-x="1492" arabic-form="final" 
d="M473 916q34 0 79.5 -14t104 -37t130.5 -51.5t158 -58.5t187.5 -57.5t218.5 -47.5l-81 -164q-21 -3 -41.5 -5.5t-36.5 -4.5t-26.5 -3.5t-13.5 -2.5q0 -67 16.5 -123t50.5 -96.5t87 -63.5t127 -23h69v-164h-69q-116 0 -188.5 37t-114 99.5t-58 144.5t-19.5 171
q-198 -38 -341.5 -95.5t-242 -127t-155.5 -148t-81 -158.5q16 -90 52.5 -159.5t87.5 -121.5t114.5 -87.5t134.5 -57.5t147 -31.5t152 -9.5q69 0 136.5 7t128.5 18.5t114 27t95 32.5v-2q-6 -15 -15 -41l-18 -52q-11 -30 -21 -63q-88 -45 -196.5 -68t-226.5 -23
q-94 0 -188 15.5t-180 48.5t-160.5 83t-129 118.5t-85 155t-30.5 191.5v7q0 41 13 100t48.5 125.5t98 136t162.5 130t242.5 107.5t337.5 70q-56 12 -120.5 30t-130 38.5t-127.5 41.5t-113 37.5t-86.5 27.5t-48.5 11h-1q-19 0 -42.5 -23t-46 -53.5t-41 -62t-28.5 -47.5
l-70 45q39 67 70 121t62 91.5t66 58t83 20.5zM843 -242l-150 150l150 150l150 -150z" />
    <glyph glyph-name="uni062E" unicode="&#x62e;" horiz-adv-x="1421" arabic-form="isolated" 
d="M474 916q34 0 79.5 -14t104 -37t130.5 -51.5t158 -58.5t187.5 -57.5t218.5 -47.5l-81 -164q-256 -30 -439.5 -88t-307.5 -133.5t-193.5 -163.5t-96.5 -178q16 -90 52.5 -159.5t87.5 -121.5t114.5 -87.5t134.5 -57.5t147 -31.5t152 -9.5q69 0 136.5 7t128.5 18.5t114 27
t95 32.5v-2q-6 -15 -15 -41l-18 -52q-11 -30 -21 -63q-88 -45 -196.5 -68t-226.5 -23q-94 0 -188 15.5t-180 48.5t-160.5 83t-129 118.5t-85 155t-30.5 191.5v7q0 41 13 100t48.5 125.5t98 136t162.5 130t242.5 107.5t337.5 70q-56 12 -120.5 30t-130 38.5t-127.5 41.5
t-113 37.5t-86.5 27.5t-48.5 11h-1q-19 0 -42.5 -23t-46 -53.5t-41 -62t-28.5 -47.5l-70 45q39 67 70 121t62 91.5t66 58t83 20.5zM590 1098l-149 149l149 148l148 -149z" />
    <glyph glyph-name="uniFEA7" unicode="&#x62e;" horiz-adv-x="1443" arabic-form="initial" 
d="M449 861q30 0 85 -18.5t127.5 -47.5t158 -64t176.5 -68.5t183.5 -61t178.5 -41.5l-82 -161q-45 -14 -117 -49t-165.5 -79.5t-206.5 -92t-239.5 -87.5t-263.5 -65.5t-279 -25.5h-25v165h25q166 0 319.5 30.5t290 77t254 103t212.5 109.5q-69 17 -139.5 40.5t-138.5 47.5
t-131 47.5t-116.5 42t-95.5 30t-67 11.5h-3q-15 -1 -35 -18.5t-41 -43t-42.5 -56t-39.5 -56.5l-69 34q39 67 70 121.5t62 93t66 60t83 22.5h5zM589 1044l-149 149l149 148l148 -149z" />
    <glyph glyph-name="uniFEA8" unicode="&#x62e;" horiz-adv-x="1443" arabic-form="medial" 
d="M449 861q30 0 85 -18.5t127.5 -47.5t158 -64t176.5 -68.5t183.5 -61t178.5 -41.5l-78 -153l-147 -69q1 -52 23.5 -85.5t61.5 -53t93 -27.5t119 -8h23v-164h-23q-77 0 -147.5 13t-125.5 46t-88 89t-35 141q-94 -45 -210.5 -96t-248.5 -93.5t-276 -71t-294 -28.5h-25v165
h25q166 0 319.5 30.5t290 77t254 103t212.5 109.5q-69 17 -139.5 40.5t-138.5 47.5t-131 47.5t-116.5 42t-95.5 30t-67 11.5h-3q-15 -1 -35 -18.5t-41 -43t-42.5 -56t-39.5 -56.5l-69 34q39 67 70 121.5t62 93t66 60t83 22.5h5zM589 1044l-149 149l149 148l148 -149z" />
    <glyph glyph-name="uniFEA6" unicode="&#x62e;" horiz-adv-x="1492" arabic-form="final" 
d="M473 916q34 0 79.5 -14t104 -37t130.5 -51.5t158 -58.5t187.5 -57.5t218.5 -47.5l-81 -164q-21 -3 -41.5 -5.5t-36.5 -4.5t-26.5 -3.5t-13.5 -2.5q0 -67 16.5 -123t50.5 -96.5t87 -63.5t127 -23h69v-164h-69q-116 0 -188.5 37t-114 99.5t-58 144.5t-19.5 171
q-198 -38 -341.5 -95.5t-242 -127t-155.5 -148t-81 -158.5q16 -90 52.5 -159.5t87.5 -121.5t114.5 -87.5t134.5 -57.5t147 -31.5t152 -9.5q69 0 136.5 7t128.5 18.5t114 27t95 32.5v-2q-6 -15 -15 -41l-18 -52q-11 -30 -21 -63q-88 -45 -196.5 -68t-226.5 -23
q-94 0 -188 15.5t-180 48.5t-160.5 83t-129 118.5t-85 155t-30.5 191.5v7q0 41 13 100t48.5 125.5t98 136t162.5 130t242.5 107.5t337.5 70q-56 12 -120.5 30t-130 38.5t-127.5 41.5t-113 37.5t-86.5 27.5t-48.5 11h-1q-19 0 -42.5 -23t-46 -53.5t-41 -62t-28.5 -47.5
l-70 45q39 67 70 121t62 91.5t66 58t83 20.5zM589 1098l-149 149l149 148l148 -149z" />
    <glyph glyph-name="uni0630" unicode="&#x630;" horiz-adv-x="973" arabic-form="isolated" 
d="M436 1061q3 0 32.5 -24t73 -66t95 -98.5t99.5 -121.5t86.5 -136t55.5 -141q3 -12 6.5 -47t3.5 -72q0 -13 -1 -47.5t-10.5 -95t-33.5 -113.5q-4 -9 -23.5 -26t-60 -34t-104 -30t-155.5 -13q-71 0 -134.5 7t-112 17t-77.5 19t-31 14q-13 25 -20 54.5t-9.5 50.5t-2.5 33
q0 8 1.5 20.5t6.5 12.5h1q13 -8 40 -19t70.5 -20.5t105.5 -16.5t145 -7q55 1 104 3t91 11t75.5 28t56.5 54q-2 51 -26.5 111t-63.5 123t-88.5 125.5t-101 119.5t-101.5 105t-90 82q7 12 22 35l30 46t28 40t17 17zM436 1260l-149 149l149 148l148 -149z" />
    <glyph glyph-name="uniFEAC" unicode="&#x630;" horiz-adv-x="1078" arabic-form="final" 
d="M678 1067q3 -1 17.5 -48t37.5 -127t53.5 -186t65.5 -225q14 -49 31 -104.5t42 -103t61 -78.5t90 -31h12v-164h-17q-43 1 -81 15t-69.5 35.5t-56 48t-40.5 53.5q-10 -14 -30.5 -41t-58 -54t-94 -47t-138.5 -20q-71 0 -131.5 7.5t-105 18t-70.5 20.5t-28 15
q-13 24 -22 57.5t-12.5 61.5t-3.5 47q0 5 0.5 18t8.5 13q1 0 5 -2q28 -21 59 -37t71 -27t91.5 -17t119.5 -6q45 0 88.5 2t82 11.5t70 29.5t51.5 56q-28 84 -52 154.5t-48.5 143t-51.5 154t-62 186.5q12 20 27 46t31 50.5t31 45t26 29.5zM681 1264l-149 149l149 148l148 -149
z" />
    <glyph glyph-name="uni0688" unicode="&#x688;" horiz-adv-x="973" arabic-form="isolated" 
d="M436 1061q3 0 32.5 -24t73 -66t95 -98.5t99.5 -121.5t86.5 -136t55.5 -141q3 -12 6.5 -47t3.5 -72q0 -13 -1 -47.5t-10.5 -95t-33.5 -113.5q-4 -9 -23.5 -26t-60 -34t-104 -30t-155.5 -13q-71 0 -134.5 7t-112 17t-77.5 19t-31 14q-13 25 -20 54.5t-9.5 50.5t-2.5 33
q0 8 1.5 20.5t6.5 12.5h1q13 -8 40 -19t70.5 -20.5t105.5 -16.5t145 -7q55 1 104 3t91 11t75.5 28t56.5 54q-2 51 -26.5 111t-63.5 123t-88.5 125.5t-101 119.5t-101.5 105t-90 82q7 12 22 35l30 46t28 40t17 17zM100 1266q17 -3 37.5 -6.5t41 -6t39.5 -4.5t33 -2l35 62
q8 14 12.5 35t6.5 41q3 22 3 47q-1 55 -3 116t-4.5 116.5t-4.5 101t-4 68.5l15 15t20.5 19.5t19.5 16.5t11 7t2.5 -3t1.5 -14q1 -12 2.5 -52.5t2.5 -92t1 -104.5q0 -54 -1 -91q0 -9 -0.5 -27t-3.5 -40.5t-8.5 -46.5t-15.5 -43q29 37 67 78t79.5 75t83 56.5t77.5 22.5
q41 0 68.5 -14t44.5 -36t25 -49t9.5 -47t1.5 -32t-1.5 -29t-4.5 -29l-21 -51q-9 -21 -18 -39t-17 -35q-12 -14 -37 -29t-60.5 -27t-81 -20t-99.5 -9q-26 0 -62.5 0.5t-74.5 2t-73.5 4t-59.5 6.5q-15 8 -32 23t-31 29q-17 17 -33 35zM732 1332q3 9 6.5 27.5t4 30.5t0.5 14
q0 20 -4 41t-16 39t-32 28.5t-50 10.5h-6q-40 -1 -78 -18.5t-72 -44t-63.5 -58.5t-53 -62.5t-41 -56.5t-27.5 -39q26 -1 54 -2t47 -1q25 0 54 1q44 0 86 5t79 15.5t66 28t46 41.5z" />
    <glyph glyph-name="uniFB89" unicode="&#x688;" horiz-adv-x="1078" arabic-form="final" 
d="M678 1067q3 -1 17.5 -48t37.5 -127t53.5 -186t65.5 -225q14 -49 31 -104.5t42 -103t61 -78.5t90 -31h12v-164h-17q-43 1 -81 15t-69.5 35.5t-56 48t-40.5 53.5q-10 -14 -30.5 -41t-58 -54t-94 -47t-138.5 -20q-71 0 -131.5 7.5t-105 18t-70.5 20.5t-28 15
q-13 24 -22 57.5t-12.5 61.5t-3.5 47q0 5 0.5 18t8.5 13q1 0 5 -2q28 -21 59 -37t71 -27t91.5 -17t119.5 -6q45 0 88.5 2t82 11.5t70 29.5t51.5 56q-28 84 -52 154.5t-48.5 143t-51.5 154t-62 186.5q12 20 27 46t31 50.5t31 45t26 29.5zM301 1289q17 -3 37.5 -6.5t41 -6
t39.5 -4.5t33 -2l35 62q8 14 12.5 35t6.5 41q3 22 3 47q-1 55 -3 116t-4.5 116.5t-4.5 101t-4 68.5l15 15t20.5 19.5t19.5 16.5t11 7t2.5 -3t1.5 -14q1 -12 2.5 -52.5t2.5 -92t1 -104.5q0 -54 -1 -91q0 -9 -0.5 -27t-3.5 -40.5t-8.5 -46.5t-15.5 -43q29 37 67 78t79.5 75
t83 56.5t77.5 22.5q41 0 68.5 -14t44.5 -36t25 -49t9.5 -47t1.5 -32t-1.5 -29t-4.5 -29l-21 -51q-9 -21 -18 -39t-17 -35q-12 -14 -37 -29t-60.5 -27t-81 -20t-99.5 -9q-26 0 -62.5 0.5t-74.5 2t-73.5 4t-59.5 6.5q-15 8 -32 23t-31 29q-17 17 -33 35zM933 1355
q3 9 6.5 27.5t4 30.5t0.5 14q0 20 -4 41t-16 39t-32 28.5t-50 10.5h-6q-40 -1 -78 -18.5t-72 -44t-63.5 -58.5t-53 -62.5t-41 -56.5t-27.5 -39q26 -1 54 -2t47 -1q25 0 54 1q44 0 86 5t79 15.5t66 28t46 41.5z" />
    <glyph glyph-name="uni0632" unicode="&#x632;" horiz-adv-x="744" arabic-form="isolated" 
d="M480 622q9 -7 24.5 -38.5t33.5 -78t36.5 -104.5t34 -117t26 -115t12.5 -100q1 -14 1 -28q0 -100 -35 -190t-95.5 -166t-133.5 -132.5t-140 -93.5t-117.5 -55.5t-65.5 -18.5l-6 2q-10 6 -17 10t-14.5 8t-18.5 10t-29 16l-93 49q-8 6 -8 11q0 1 3 4t7 4q71 20 147.5 52
t149.5 73t138.5 91.5t115.5 107.5t80 121t32 132q-17 39 -34.5 79.5t-38.5 87t-46.5 100.5t-57.5 120q17 27 34 55t32 51.5t26 38t17 14.5zM455 894l-149 149l149 148l148 -149z" />
    <glyph glyph-name="uniFEB0" unicode="&#x632;" horiz-adv-x="789" arabic-form="final" 
d="M497 617q18 -47 37 -98.5t39.5 -102t44.5 -96t50.5 -80.5t57.5 -55.5t67 -20.5h6v-164h-9q-15 0 -35 3.5t-40.5 11.5t-40 20.5t-35.5 31.5q3 -28 3 -55q0 -50 -13.5 -109.5t-47.5 -122.5t-81 -116.5t-98.5 -97.5t-104.5 -77t-99.5 -56t-81.5 -34.5t-51 -11.5q-7 0 -9 1
q-13 6 -37 18.5t-50 26.5t-49.5 26.5t-35.5 19.5q-8 7 -8 11q0 2 3 4.5t6 3.5q138 42 258 101.5t208.5 134t139 162.5t50.5 187q-21 55 -36.5 96t-31 81.5t-34 88t-44.5 115.5zM455 894l-149 149l149 148l148 -149z" />
    <glyph glyph-name="uni0691" unicode="&#x691;" horiz-adv-x="744" arabic-form="isolated" 
d="M480 622q9 -7 24.5 -38.5t33.5 -78t36.5 -104.5t34 -117t26 -115t12.5 -100q1 -14 1 -28q0 -100 -35 -190t-95.5 -166t-133.5 -132.5t-140 -93.5t-117.5 -55.5t-65.5 -18.5l-6 2q-10 6 -17 10t-14.5 8t-18.5 10t-29 16l-93 49q-8 6 -8 11q0 1 3 4t7 4q71 20 147.5 52
t149.5 73t138.5 91.5t115.5 107.5t80 121t32 132q-17 39 -34.5 79.5t-38.5 87t-46.5 100.5t-57.5 120q17 27 34 55t32 51.5t26 38t17 14.5zM37 900q17 -3 37.5 -6.5t41 -6t39.5 -4.5t33 -2l35 62q8 14 12.5 35t6.5 41q3 22 3 47q-1 55 -3 116t-4.5 116.5t-4.5 101t-4 68.5
l15 15t20.5 19.5t19.5 16.5t11 7t2.5 -3t1.5 -14q1 -12 2.5 -52.5t2.5 -92t1 -104.5q0 -54 -1 -91q0 -9 -0.5 -27t-3.5 -40.5t-8.5 -46.5t-15.5 -43q29 37 67 78t79.5 75t83 56.5t77.5 22.5q41 0 68.5 -14t44.5 -36t25 -49t9.5 -47t1.5 -32t-1.5 -29t-4.5 -29l-21 -51
q-9 -21 -18 -39t-17 -35q-12 -14 -37 -29t-60.5 -27t-81 -20t-99.5 -9q-26 0 -62.5 0.5t-74.5 2t-73.5 4t-59.5 6.5q-15 8 -32 23t-31 29q-17 17 -33 35zM669 966q3 9 6.5 27.5t4 30.5t0.5 14q0 20 -4 41t-16 39t-32 28.5t-50 10.5h-6q-40 -1 -78 -18.5t-72 -44t-63.5 -58.5
t-53 -62.5t-41 -56.5t-27.5 -39q26 -1 54 -2t47 -1q25 0 54 1q44 0 86 5t79 15.5t66 28t46 41.5z" />
    <glyph glyph-name="uniFB8D" unicode="&#x691;" horiz-adv-x="789" arabic-form="final" 
d="M497 617q18 -47 37 -98.5t39.5 -102t44.5 -96t50.5 -80.5t57.5 -55.5t67 -20.5h6v-164h-9q-15 0 -35 3.5t-40.5 11.5t-40 20.5t-35.5 31.5q3 -28 3 -55q0 -50 -13.5 -109.5t-47.5 -122.5t-81 -116.5t-98.5 -97.5t-104.5 -77t-99.5 -56t-81.5 -34.5t-51 -11.5q-7 0 -9 1
q-13 6 -37 18.5t-50 26.5t-49.5 26.5t-35.5 19.5q-8 7 -8 11q0 2 3 4.5t6 3.5q138 42 258 101.5t208.5 134t139 162.5t50.5 187q-21 55 -36.5 96t-31 81.5t-34 88t-44.5 115.5zM68 900q17 -3 37.5 -6.5t41 -6t39.5 -4.5t33 -2l35 62q8 14 12.5 35t6.5 41q3 22 3 47
q-1 55 -3 116t-4.5 116.5t-4.5 101t-4 68.5l15 15t20.5 19.5t19.5 16.5t11 7t2.5 -3t1.5 -14q1 -12 2.5 -52.5t2.5 -92t1 -104.5q0 -54 -1 -91q0 -9 -0.5 -27t-3.5 -40.5t-8.5 -46.5t-15.5 -43q29 37 67 78t79.5 75t83 56.5t77.5 22.5q41 0 68.5 -14t44.5 -36t25 -49
t9.5 -47t1.5 -32t-1.5 -29t-4.5 -29l-21 -51q-9 -21 -18 -39t-17 -35q-12 -14 -37 -29t-60.5 -27t-81 -20t-99.5 -9q-26 0 -62.5 0.5t-74.5 2t-73.5 4t-59.5 6.5q-15 8 -32 23t-31 29q-17 17 -33 35zM700 966q3 9 6.5 27.5t4 30.5t0.5 14q0 20 -4 41t-16 39t-32 28.5
t-50 10.5h-6q-40 -1 -78 -18.5t-72 -44t-63.5 -58.5t-53 -62.5t-41 -56.5t-27.5 -39q26 -1 54 -2t47 -1q25 0 54 1q44 0 86 5t79 15.5t66 28t46 41.5z" />
    <glyph glyph-name="uni0698" unicode="&#x698;" horiz-adv-x="744" arabic-form="isolated" 
d="M480 622q9 -7 24.5 -38.5t33.5 -78t36.5 -104.5t34 -117t26 -115t12.5 -100q1 -14 1 -28q0 -100 -35 -190t-95.5 -166t-133.5 -132.5t-140 -93.5t-117.5 -55.5t-65.5 -18.5l-6 2q-10 6 -17 10t-14.5 8t-18.5 10t-29 16l-93 49q-8 6 -8 11q0 1 3 4t7 4q71 20 147.5 52
t149.5 73t138.5 91.5t115.5 107.5t80 121t32 132q-17 39 -34.5 79.5t-38.5 87t-46.5 100.5t-57.5 120q17 27 34 55t32 51.5t26 38t17 14.5zM427 1105l-134 134l134 134l134 -134zM602 822l-134 134l134 134l134 -134zM252 822l-134 134l134 134l134 -134z" />
    <glyph glyph-name="uniFB8B" unicode="&#x698;" horiz-adv-x="789" arabic-form="final" 
d="M497 617q18 -47 37 -98.5t39.5 -102t44.5 -96t50.5 -80.5t57.5 -55.5t67 -20.5h6v-164h-9q-15 0 -35 3.5t-40.5 11.5t-40 20.5t-35.5 31.5q3 -28 3 -55q0 -50 -13.5 -109.5t-47.5 -122.5t-81 -116.5t-98.5 -97.5t-104.5 -77t-99.5 -56t-81.5 -34.5t-51 -11.5q-7 0 -9 1
q-13 6 -37 18.5t-50 26.5t-49.5 26.5t-35.5 19.5q-8 7 -8 11q0 2 3 4.5t6 3.5q138 42 258 101.5t208.5 134t139 162.5t50.5 187q-21 55 -36.5 96t-31 81.5t-34 88t-44.5 115.5zM472 1105l-134 134l134 134l134 -134zM647 822l-134 134l134 134l134 -134zM297 822l-134 134
l134 134l134 -134z" />
    <glyph glyph-name="uni0634" unicode="&#x634;" horiz-adv-x="2495" arabic-form="isolated" 
d="M2292 822q4 0 18.5 -40.5t31 -109.5t28.5 -157.5t12 -183.5v-15q-17 -70 -45 -128t-67 -100t-88 -65t-108 -23h-10q-47 0 -88 16t-74 43.5t-56 63.5t-33 77q-19 -41 -41 -77.5t-53.5 -63.5t-74.5 -43t-103 -16q-46 0 -91 11.5t-73 40.5q0 -150 -44 -273.5t-130 -211.5
t-213 -136.5t-293 -48.5q-120 0 -218.5 29t-170 88.5t-112 150.5t-43 159.5t-2.5 82.5q0 112 34 259.5t116 338.5l67 -39q-38 -106 -68.5 -212.5t-40 -180t-9.5 -119.5q0 -45 9.5 -109t58 -127t138 -100t232.5 -39h15q147 0 251.5 36t172 94t102 132t42.5 150
q-19 63 -34 110t-30.5 94t-34 101.5t-43.5 131.5l113 163q41 -114 66 -192.5t53.5 -127t71.5 -70t121 -21.5q45 0 77 18.5t54.5 49.5t36.5 71t23.5 83t15.5 85.5t12 79.5l93 30l-3.5 -56t-3 -47.5t-4.5 -49t-8 -60.5q5 -32 25 -68t50 -66t68 -50t78 -20q48 0 83.5 8.5
t61.5 26.5t43.5 46.5t29.5 69.5q-9 54 -21 102t-25 91.5t-26.5 83t-24.5 77.5q25 43 46 76l18 28t16.5 24.5t13.5 17t9 6.5zM1809 1155l-134 134l134 134l134 -134zM1984 872l-134 134l134 134l134 -134zM1634 872l-134 134l134 134l134 -134z" />
    <glyph glyph-name="uniFEB7" unicode="&#x634;" horiz-adv-x="1505" arabic-form="initial" 
d="M1323 822q4 0 17 -40.5t26.5 -109.5t24 -157t10.5 -182v-17q-23 -72 -53 -130.5t-68.5 -100t-86 -63.5t-106.5 -22h-10q-57 0 -96.5 16t-67 43.5t-44 63.5t-26.5 77q-19 -41 -47 -77t-64 -63t-79 -43t-92 -16h-6q-50 0 -88.5 15.5t-65 43t-41.5 65t-18 81.5
q-32 -75 -75 -116.5t-91 -61.5t-98.5 -24t-97.5 -4v165h41q81 0 137 31.5t94.5 84.5t64 122.5t46.5 145.5l94 33q-13 -46 -22.5 -83.5t-19.5 -77.5q-4 -17 -5.5 -34.5t-1.5 -27.5q0 -17 3 -40t13.5 -51.5t30.5 -51.5t51.5 -37t76.5 -14t80 19t62.5 50t48.5 71.5t37 83.5
t28.5 85t22.5 78l93 30q-8 -32 -13.5 -59t-11.5 -53.5t-13.5 -55t-17.5 -62.5q5 -32 19 -65t37 -60t54.5 -44.5t71.5 -17.5q96 0 148 35t76 116q-18 108 -40 193t-45 161q25 43 46 76l18 28t16.5 24.5t13.5 17t9 6.5zM886 1155l-134 134l134 134l134 -134zM1061 872
l-134 134l134 134l134 -134zM711 872l-134 134l134 134l134 -134z" />
    <glyph glyph-name="uniFEB8" unicode="&#x634;" horiz-adv-x="1598" arabic-form="medial" 
d="M465 582q-13 -46 -22.5 -83.5t-19.5 -77.5q-4 -17 -8.5 -43t-5 -41t-0.5 -17q0 -26 6 -53.5t22 -50.5t45 -37t74 -14t80.5 19t63.5 50t49.5 71.5t38 83.5t29 85t22.5 78l93 30q-7 -32 -13.5 -59t-13 -53.5t-14.5 -55t-19 -62.5q5 -32 18.5 -65t36 -60t54 -44.5
t71.5 -17.5q73 0 118.5 38t71.5 96t37 125.5t16 126.5l89 31q-1 -34 -3.5 -63t-6 -57t-9 -56t-12.5 -59q9 -42 35 -76t62 -58t77.5 -36.5t80.5 -12.5v-164q-69 1 -121 17.5t-89 44t-59.5 64t-31.5 78.5q-46 -103 -111.5 -153t-145.5 -50q-57 0 -96.5 16t-66.5 43t-44 63
t-27 77q-19 -41 -47 -77t-64 -63t-79 -43t-92 -16h-6q-50 0 -85.5 15.5t-58.5 43t-35 65t-15 81.5q-32 -75 -70.5 -116.5t-80.5 -61.5t-85.5 -24t-86.5 -4h-31v164h49q82 0 137.5 31.5t94 85t64 123t46.5 145.5zM885 1125l-134 134l134 134l134 -134zM1060 842l-134 134
l134 134l134 -134zM710 842l-134 134l134 134l134 -134z" />
    <glyph glyph-name="uniFEB6" unicode="&#x634;" horiz-adv-x="2609" arabic-form="final" 
d="M1364 50q0 -150 -43.5 -273t-129 -211t-212 -136t-292.5 -48q-180 0 -310 66t-182 184.5t-52 259.5q0 49 13 180.5t136 417.5l66 -39q-38 -106 -68.5 -212.5t-39.5 -179.5t-9 -118q0 -47 9.5 -111t57.5 -127t137.5 -100t232.5 -39h16q147 0 250.5 36t171 94t101.5 132
t42 150q-18 63 -33 110l-30 94t-33 101.5t-43 131.5q7 13 23.5 39.5t34 53.5t32 48t18.5 22q3 0 4 -1v1q28 -76 47.5 -136t37 -105.5t36.5 -78t44.5 -52.5t61.5 -29.5t88 -9.5q72 0 118.5 34.5t78 89.5t53.5 124.5t44 138.5l94 31q-10 -51 -25 -105.5t-34 -123.5
q7 -32 19 -65.5t32.5 -61t52 -45t76.5 -17.5q76 0 120 35.5t68 92t34 125t18 134.5l89 31v-18q0 -17 -2 -43.5t-6 -56.5t-10 -61t-13 -57q5 -45 29 -79t58.5 -57.5t76.5 -35t84 -11.5h17v-164h-15q-68 0 -119 15.5t-87.5 43t-58.5 64.5t-31 79q-52 -101 -110.5 -150
t-143.5 -51q-55 1 -92 16.5t-63 41.5t-44.5 62t-36.5 79q-21 -41 -46.5 -77t-58.5 -63.5t-75 -43.5t-95 -16q-23 0 -48.5 2.5t-50 8t-45.5 15t-35 24.5zM1880 1125l-134 134l134 134l134 -134zM2055 842l-134 134l134 134l134 -134zM1705 842l-134 134l134 134l134 -134z
" />
    <glyph glyph-name="uni0636" unicode="&#x636;" horiz-adv-x="2590" arabic-form="isolated" 
d="M1840 151q70 0 144 7t146 24.5t138.5 46t121.5 71.5q20 55 20 109q0 5 -1 37t-30 78.5t-87.5 75.5t-149.5 29q-16 0 -32 -1t-33 -3q-67 -7 -129.5 -33t-120 -63t-109 -81.5t-95.5 -89t-80 -85.5t-62 -70q11 -8 43.5 -17t80 -17t108 -13t127.5 -5zM2157 815
q69 0 130 -17.5t109.5 -57t82.5 -103t48 -155.5q-10 -33 -23.5 -72.5t-28.5 -79t-31 -77t-31 -66.5q-38 -43 -99.5 -79.5t-137.5 -63.5t-163.5 -42t-178.5 -15q-76 0 -147 5.5t-132 17.5t-108.5 31t-75.5 46q2 -33 2 -66q0 -59 -9 -132.5t-41 -152t-85.5 -143.5t-131 -112
t-180.5 -73t-233 -26q-180 0 -310 66t-182 184.5t-52 259.5q0 49 13 180.5t136 417.5l66 -39q-38 -106 -68.5 -213t-39.5 -179.5t-9 -117.5q0 -47 9.5 -111t57.5 -127t137.5 -100t232.5 -39h16q147 0 250 36t169.5 94t100 132t41.5 150q-17 63 -33 122.5t-31.5 119.5
t-32.5 122t-35 130l113 161q12 -42 28.5 -101t37.5 -116.5t44.5 -105t48.5 -68.5q29 35 75 91t104.5 120t127 129t143 117t152 85t154.5 33zM2066 1007l-149 149l149 148l148 -149z" />
    <glyph glyph-name="uniFEBF" unicode="&#x636;" horiz-adv-x="1691" arabic-form="initial" 
d="M957 141q69 0 142.5 7t145.5 25t139 48.5t123 77.5q11 48 11 94q0 17 -3.5 55.5t-32.5 85t-83.5 74.5t-138.5 28q-17 0 -34 -1t-37 -3q-70 -9 -134 -38.5t-121.5 -71t-106.5 -90t-89.5 -96t-70.5 -89.5t-49 -70q13 -4 44 -10t76 -12t101 -10t118 -4zM1297 814
q61 0 107.5 -16t80.5 -42t57.5 -59t38.5 -68q36 -85 38 -201q-20 -66 -45 -136.5t-55 -128.5q-38 -43 -100 -77t-138 -58t-162 -36.5t-173 -12.5q-142 0 -242 14.5t-164.5 48t-97.5 88.5t-42 136q-29 -69 -67.5 -119t-87.5 -82.5t-110 -48t-136 -16.5h-18l-1 165h19
q75 0 131.5 21t98 56t70.5 80t50.5 93t38 95.5t32.5 87.5l91 31q-13 -34 -23 -75t-14 -79t-4 -72q0 -7 0.5 -31t9 -58.5t24 -60.5t40.5 -37q22 33 62.5 89t95 121t120.5 131.5t139.5 121.5t151.5 92t156 42q8 0 14.5 0.5t13.5 0.5zM1235 1007l-149 149l149 148l148 -149z
" />
    <glyph glyph-name="uniFEC0" unicode="&#x636;" horiz-adv-x="1756" arabic-form="medial" 
d="M961 141q69 0 142.5 7t145.5 25t139 48.5t123 77.5q11 48 11 94q0 17 -3.5 55.5t-32.5 85t-83.5 74.5t-138.5 28q-74 0 -145 -24.5t-136 -64t-122.5 -89.5t-104 -101t-81.5 -98.5t-54 -81.5q13 -4 44.5 -10t76 -12t100.5 -10t119 -4zM1301 814q63 0 112 -17.5t85 -46.5
t60 -68t38.5 -82t20.5 -87.5t6 -84.5q-20 -66 -44.5 -136t-54.5 -128h242v-164h-317q-24 1 -56 2t-63.5 2t-58 3t-38.5 6q-67 -17 -139 -25.5t-144 -8.5q-142 0 -242 14.5t-164.5 48t-97.5 88.5t-42 136q-29 -69 -67.5 -119t-88 -82.5t-110.5 -48t-136 -16.5h-22v164h22
q75 0 131.5 21t98 56t71 80.5t51 93.5t38 95.5t32.5 87.5l91 31q-14 -34 -23.5 -75t-13.5 -79t-4 -72q0 -7 0.5 -31t9 -58.5t24 -60.5t40.5 -37q22 35 64 93.5t99 125t126 134t145 122t157 89t162 34.5zM1242 1007l-149 149l149 148l148 -149z" />
    <glyph glyph-name="uniFEBE" unicode="&#x636;" horiz-adv-x="2663" arabic-form="final" 
d="M1850 148q69 0 141.5 7.5t143 25t135.5 46.5t118 73q20 55 20 109q0 5 -1 37t-30 78.5t-87.5 75.5t-149.5 29q-15 0 -31 -1t-33 -3q-67 -7 -129.5 -33t-120 -63t-109 -81.5t-95.5 -89t-79.5 -85.5t-60.5 -70q11 -8 44.5 -17.5t82.5 -18t110.5 -14t130.5 -5.5zM2156 815
q68 0 129.5 -17.5t110 -57t82.5 -103t48 -155.5q-10 -32 -23 -70t-27.5 -76.5t-30 -75t-30.5 -65.5q8 -7 31.5 -12.5t55 -9.5t67 -6.5t67.5 -2.5h37v-164h-37q-44 0 -101.5 2.5t-112.5 10.5t-100.5 23t-65.5 41q-88 -42 -197.5 -67t-226.5 -25q-76 0 -147 5.5t-131.5 18
t-108 32t-75.5 46.5q3 -36 3 -70q0 -58 -9.5 -130t-41.5 -150.5t-85.5 -143.5t-131 -112t-180.5 -73t-233 -26q-180 0 -310 66t-182 184.5t-52 259.5q0 49 13 180.5t136 417.5l66 -39q-38 -106 -68.5 -213t-39.5 -179.5t-9 -117.5q0 -47 9.5 -111t57.5 -127t137.5 -100
t232.5 -39h16q147 0 250 36t169.5 94t100 132t41.5 150q-17 63 -33 122.5t-31.5 119.5t-32.5 122t-35 130l113 161q11 -42 28 -101t37.5 -116.5t44 -105t48.5 -68.5q29 35 75 91t104.5 120t127.5 129t143.5 117t152 85t154.5 33zM2126 1007l-149 149l149 148l148 -149z" />
    <glyph glyph-name="uni0638" unicode="&#x638;" horiz-adv-x="1604" arabic-form="isolated" 
d="M640 1642q2 0 4 -6t4 -29q1 -12 1.5 -46t0.5 -83v-109.5t-0.5 -126t-1 -132.5t-1.5 -129t-2 -115.5t-2 -92.5q0 -18 -0.5 -53t-3 -80t-8.5 -97t-16 -104q55 65 122.5 132t143 121t157.5 88t166 34q95 0 157 -36.5t98 -93t50.5 -124.5t16.5 -132q-20 -66 -45 -136.5
t-55 -128.5q-35 -33 -88 -58t-117.5 -43.5t-136 -31t-144.5 -20.5t-143.5 -11.5t-131.5 -4.5q-121 4 -211 9.5t-167 15.5q-29 19 -64.5 47t-66 55t-50 47t-19.5 27v1q3 8 7 8.5t6 0.5q5 0 11 -2q32 -5 71.5 -11t80 -11t79.5 -9.5t70 -6.5q6 9 17 25t24.5 34.5t26.5 37
t22 31.5q12 29 18 73.5t8 86.5q2 25 2 51q0 25 -1 52q-1 76 -3 169.5t-4 191t-4.5 192t-5.5 173.5t-5.5 135.5t-4.5 78.5q10 11 31 35.5t42.5 49t40 43t24.5 18.5zM665 165q30 0 86.5 0.5t126 4.5t147 11.5t151 22.5t136 37.5t102.5 55.5q11 50 11 98q0 16 -3 55.5
t-31.5 87.5t-82 77t-135.5 29q-70 0 -139.5 -25t-134.5 -66t-123.5 -92.5t-108 -104.5t-88.5 -103.5t-63 -87.5h149zM1113 1057l-149 149l149 148l148 -149z" />
    <glyph glyph-name="uniFEC7" unicode="&#x638;" horiz-adv-x="1354" arabic-form="initial" 
d="M404 164q30 0 86.5 0.5t126 4.5t147 12t151 23t136 37.5t102.5 55.5q11 50 11 98q0 16 -3 55.5t-31.5 87.5t-82 77t-135.5 29q-70 0 -139.5 -25t-134.5 -66t-124 -93t-109 -105t-89 -103.5t-63 -87.5h151zM379 1642q2 0 4 -6t4 -29q1 -16 1.5 -70t0.5 -129
q0 -76 -0.5 -165t-1.5 -176.5t-2.5 -165t-2.5 -128.5q0 -18 -0.5 -53t-3 -80t-8.5 -97t-16 -104q55 65 122.5 132t143 121t157.5 88t166 34q95 0 157 -36.5t98.5 -93t51.5 -125t15 -131.5q-20 -66 -45 -136.5t-55 -128.5q-35 -33 -88 -57.5t-117.5 -42.5t-136 -30
t-144.5 -19t-143.5 -10t-131.5 -4h-424v164h168q6 9 17.5 25t25.5 35t27.5 37.5t22.5 31.5q12 29 18 73.5t8 86.5q2 25 2 51q0 25 -1 52q-1 76 -3 169.5t-4 191t-4.5 192t-5.5 173.5t-5.5 135.5t-4.5 78.5q10 11 30.5 35.5t42.5 49t40 43t24 18.5h1zM852 1057l-149 149
l149 148l148 -149z" />
    <glyph glyph-name="uniFEC8" unicode="&#x638;" horiz-adv-x="1395" arabic-form="medial" 
d="M381 1642q2 0 4 -6t4 -29q1 -12 1.5 -46t0.5 -83v-109.5t-0.5 -126t-1 -132.5t-1.5 -129t-2 -115.5t-2 -92.5q0 -18 -0.5 -53t-3 -80t-8.5 -97t-16 -104q55 65 122.5 132t143 121t157.5 88t166 34q61 0 107.5 -15.5t80.5 -41.5t57.5 -59.5t38.5 -68.5q36 -85 38 -201
q-20 -66 -45 -136t-54 -128h237v-164h-96h-78.5t-49.5 1q-15 0 -46 1t-69.5 2.5t-80.5 4t-79 6t-65 7t-39 8.5q-103 -16 -206 -22t-190 -8h-426v164h170q6 9 17.5 25t25.5 35t27.5 37.5t22.5 31.5q12 29 18 73.5t8 86.5q2 25 2 51q0 25 -1 52q-1 76 -3 169.5t-4 191
t-4.5 192t-5.5 173.5t-5.5 135.5t-4.5 78.5q10 11 31 35.5t42.5 49t40 43t23.5 18.5h1zM406 164q30 0 86.5 0.5t126 4.5t147 12t151 23t136 37.5t102.5 55.5q11 50 11 98q0 16 -3 55.5t-31.5 87.5t-82 77t-135.5 29q-70 0 -139.5 -25t-134.5 -66t-124 -93t-109 -105
t-89 -103.5t-63 -87.5h151zM895 1057l-149 149l149 148l148 -149z" />
    <glyph glyph-name="uniFEC6" unicode="&#x638;" horiz-adv-x="1670" arabic-form="final" 
d="M645 1642q2 0 4 -6t5 -29q1 -16 1.5 -56.5t0.5 -72.5q0 -33 -0.5 -89.5t-1 -145.5t-1 -176.5t-2 -165t-2.5 -128.5q0 -18 -0.5 -53t-3 -80t-8.5 -97t-16 -104q55 65 122.5 132t143 121t157.5 88t166 34q61 0 107.5 -15.5t80.5 -41.5t57 -59.5t38 -68.5q19 -44 28 -94
t11 -107q-20 -66 -45 -136t-55 -128h248v-164l-234 1q-15 0 -44 1t-65.5 2.5t-76.5 3.5t-76.5 5t-66 6.5t-44.5 7.5q-103 -17 -208.5 -24t-193.5 -9q-121 4 -211 9.5t-167 15.5q-29 19 -64.5 47t-66 55t-50.5 47t-20 27v1q2 8 6.5 8.5t5.5 0.5q6 0 12 -2q34 -6 74 -12
t80.5 -11t78.5 -9t69 -6q6 9 17 25t24.5 34.5t26.5 37t22 31.5q11 29 17 73.5t9 86.5q2 25 2 51q0 25 -1 52q-1 76 -3 169.5t-4.5 191t-5 192t-5 173.5t-5.5 135.5t-5 78.5q10 11 31 35.5t42.5 49t40 43t24.5 18.5zM670 165q30 0 86.5 0.5t126.5 4.5t147.5 11.5t150.5 22.5
t135.5 37.5t102.5 55.5q11 50 11 98q0 16 -3 55.5t-31.5 87.5t-82 77t-135.5 29q-70 0 -139 -25t-134 -66t-123.5 -92.5t-108 -105t-88.5 -103.5t-63 -87h148zM1123 1057l-149 149l149 148l148 -149z" />
    <glyph glyph-name="uni063A" unicode="&#x63a;" horiz-adv-x="1264" arabic-form="isolated" 
d="M818 -549q88 0 162 9.5t132.5 23.5t101 29.5t68.5 26.5l-62 -154q-111 -51 -217.5 -75.5t-207.5 -24.5q-140 0 -260 36.5t-207.5 103t-137 159.5t-49.5 205q0 57 18 115.5t49 114.5t73 107t89.5 94t98.5 75t101 49q-55 18 -100.5 51t-78.5 72t-51.5 78t-18.5 68
q0 37 16.5 83t45.5 94t67.5 93.5t82 81t89.5 57t91 21.5q47 0 92 -10.5t86.5 -35.5t79.5 -65.5t72 -101.5l-49 -25q-11 8 -31.5 22t-51.5 28t-72.5 24t-94.5 10q-39 0 -75.5 -14.5t-68 -37t-58 -49.5t-45 -52.5t-29 -46t-10.5 -28.5q0 -14 21 -47.5t64.5 -70.5t110 -69
t156.5 -42q88 26 167.5 44.5t148.5 35.5l-47 -156q-77 -16 -169.5 -42.5t-186.5 -63.5t-182.5 -84t-158 -104t-112.5 -124t-45 -144q16 -64 56.5 -125.5t111 -110t175 -78.5t250.5 -30zM692 1254l-149 149l149 148l148 -149z" />
    <glyph glyph-name="uniFECF" unicode="&#x63a;" horiz-adv-x="1078" arabic-form="initial" 
d="M-20 164h27q70 1 127 3t99 4t67 3.5t31 1.5q-42 26 -74.5 61t-55 72t-34 71.5t-11.5 60.5q0 37 15.5 83.5t43 94.5t65.5 93.5t83.5 81t96 57t103.5 21.5q39 0 80 -10.5t82 -35t80 -65t73 -100.5l-49 -26q-33 27 -74 46q-35 17 -76.5 27.5t-82.5 10.5q-16 0 -33 -1
q-38 -3 -72.5 -18.5t-64.5 -38t-54.5 -48.5t-42 -50.5t-27 -44t-9.5 -27.5q0 -15 22.5 -54.5t66.5 -83.5t109 -81.5t151 -48.5q104 8 181 31.5t141 56.5q-2 -10 -8 -33t-14 -48q-9 -29 -19 -63q-94 -50 -211.5 -82.5t-240.5 -51t-243.5 -26t-221.5 -7.5h-26v164zM548 1064
l-149 149l149 148l148 -149z" />
    <glyph glyph-name="uniFED0" unicode="&#x63a;" horiz-adv-x="1165" arabic-form="medial" 
d="M-20 164h89q112 0 183.5 5t118 13.5t76 19.5t56.5 24l-362 351l42 166q9 9 46 29.5t95 41.5t125.5 34t132.5 13q18 0 37 -1q50 -2 102 -9t99 -17.5t85.5 -23t62.5 -25.5l33 -154q-12 -41 -35 -91t-56 -103t-75 -106.5t-92 -101.5q34 -17 83 -29t102 -20t104 -12t90 -4h53
v-164h-53q-84 0 -152 8.5t-126.5 25t-111 42t-106.5 60.5q-56 -37 -117 -62.5t-129 -42t-144.5 -24t-162.5 -7.5h-93v164zM630 298q19 14 43.5 39t50 57t50.5 68t47 72.5t39.5 71.5t26.5 64q-28 12 -72 20.5t-90 12t-88 3.5q-16 0 -54 -1t-98.5 -8t-117.5 -20.5t-105 -34.5z
M611 1064l-149 149l149 148l148 -149z" />
    <glyph glyph-name="uniFECE" unicode="&#x63a;" horiz-adv-x="1321" arabic-form="final" 
d="M721 233q-117 -44 -209 -98.5t-155.5 -110t-98.5 -106t-39 -85.5q12 -41 35 -85.5t58.5 -87.5t85 -81.5t114 -67.5t145.5 -46t181 -17q88 0 157 8.5t122 20.5t91.5 26t64.5 25l-54 -143q-47 -25 -100.5 -43.5t-108.5 -30.5t-109.5 -17.5t-105.5 -5.5q-139 0 -258 39
t-206.5 108t-138 162.5t-51.5 202.5q1 32 8.5 73.5t26.5 89t52 97.5t85.5 99t126 93.5t173.5 81.5l-300 271q10 38 19 71q8 28 14 54.5t6 37.5q9 9 47 30t97 42.5t130.5 36t146.5 14.5h20q51 -2 106.5 -12t107 -28t94 -44t66.5 -60q0 -61 -3 -107.5t-13.5 -84.5t-30 -69.5
t-53 -61.5t-83 -61.5t-119.5 -68.5q41 -37 97 -65q48 -24 118 -44t163 -20q14 -1 32.5 -1h55.5v-164h-57q-100 0 -175.5 16.5t-138.5 46.5t-119.5 73t-119.5 97zM751 394q61 25 121.5 55.5t107 65.5t69.5 71.5t23 72.5q0 10 -1 20q-38 20 -104 39.5t-119.5 23t-77.5 3.5
q-64 0 -148.5 -13t-185.5 -61zM779 1094l-149 149l149 148l148 -149z" />
    <glyph glyph-name="uniFB90" unicode="&#x6a9;" horiz-adv-x="1080" arabic-form="initial" 
d="M-20 164h55q74 0 161 10.5t168.5 33t149 58t102.5 85.5q-15 109 -67 212t-127 198t-165.5 180.5t-181.5 159.5l35 138q60 26 146.5 64t183.5 80t197.5 85.5t189.5 81t158.5 66t105.5 40.5l-29 -153l-794 -350q52 -54 110 -114.5t112.5 -128.5t101 -145t75.5 -164
t33 -146.5t4 -80.5q0 -80 -20 -168q-106 -105 -268 -155t-386 -51h-50v164z" />
    <glyph glyph-name="uniFB91" unicode="&#x6a9;" horiz-adv-x="1171" arabic-form="medial" 
d="M1181 164v-164h-23q-55 0 -105.5 16.5t-96.5 44t-87 63t-76.5 73t-65 74.5t-51.5 68q-2 -17 -5.5 -37t-7.5 -41.5t-8.5 -42.5t-8.5 -39q-53 -53 -115.5 -87.5t-138 -54.5t-164 -28.5t-192.5 -8.5h-56v164h56q96 0 185 7.5t164 26.5t131.5 51t86.5 82q-5 55 -29.5 120
t-63 134.5t-88.5 141t-106.5 138.5t-117 127.5t-120.5 108.5l35 144q45 19 105 45t128.5 55.5t142.5 61.5t147.5 63.5t143 60.5t128.5 53.5t105 42t72 26.5l-27 -151l-783 -349q46 -49 93 -102.5t92.5 -111.5t87.5 -119.5t78 -126.5q78 -141 155 -241.5t146.5 -164
t129 -93.5t101.5 -30h23z" />
    <glyph glyph-name="uni0641" unicode="&#x641;" horiz-adv-x="1982" arabic-form="isolated" 
d="M1893 536q5 -43 5 -82q0 -67 -21 -138.5t-79.5 -134t-145.5 -103t-194 -64.5t-229.5 -33t-252.5 -9q-65 0 -145 2.5t-163.5 13t-165.5 32t-151.5 60t-120.5 97t-68.5 126.5t-17.5 131q0 38 9 115t68 223l73 -37q-37 -107 -41 -159t-4 -72q0 -56 15.5 -109.5t54 -97
t92 -72t119 -45.5t136.5 -25.5t144 -10.5t142 -2q101 0 203.5 3t197 13t176.5 27.5t141.5 46.5t91 69.5t31.5 92.5v10q-28 -11 -65 -17q-32 -5 -62 -7t-46 -2q-33 0 -71 4q-72 7 -127 25.5t-92.5 51t-57.5 80.5t-21 115q1 13 7 46.5t19 76t35 89t55.5 85t80 64t108.5 26.5
q54 0 98.5 -23.5t80 -63.5t62.5 -91.5t46.5 -107.5t31.5 -113t18 -106zM1568 528q50 -4 87 -4q8 0 32 0.5t50 5.5q31 4 50 13q-2 12 -9 43.5t-20 71t-32.5 82.5t-47 79t-64 59t-82.5 23q-32 0 -58 -11t-47 -28.5t-36.5 -40t-26.5 -45.5q-26 -55 -39 -125q14 -29 46 -55
q26 -22 73.5 -42t123.5 -26zM1543 1204l-149 149l149 148l148 -149z" />
    <glyph glyph-name="uniFED3" unicode="&#x641;" horiz-adv-x="892" arabic-form="initial" 
d="M784 536q9 -67 9 -125q0 -41 -8 -102t-44 -120.5t-97 -96.5t-145 -57.5t-191.5 -27.5t-237.5 -7h-89v82q0 31 -0.5 47.5t-0.5 22.5q0 11 1 12h88q151 0 268 4.5t195.5 27.5t115 69t36.5 123v16q-29 -11 -66 -17q-32 -5 -62 -7t-46 -2q-33 0 -71 4q-72 7 -127 25.5
t-92.5 51t-57.5 80.5t-21 115q1 13 7 46.5t19 76t35 89t55.5 85t80 64t108.5 26.5q54 0 99 -23.5t80.5 -63.5t62.5 -91.5t46.5 -107.5t31.5 -113t18 -106zM459 528q50 -4 87 -4q8 0 32 0.5t50 5.5q31 4 50 13q-3 12 -10 43.5t-19.5 71t-32.5 82.5t-47.5 79t-64 59t-82.5 23
q-32 0 -58 -11t-46.5 -28.5t-36 -40t-26.5 -45.5q-27 -55 -40 -125q14 -29 46 -55q27 -22 74 -42t124 -26zM428 1204l-149 149l149 148l148 -149z" />
    <glyph glyph-name="uniFED4" unicode="&#x641;" horiz-adv-x="935" arabic-form="medial" 
d="M654 182q20 -5 59 -9q33 -4 89 -6.5t143 -2.5v-164h-72q-111 0 -186 10.5t-123 23.5q-55 15 -89 34q-41 -19 -96 -34q-48 -13 -115 -23.5t-154 -10.5h-130v164q88 0 147.5 2.5t96.5 6.5q43 4 69 10q-28 23 -51 58q-20 30 -38.5 76.5t-25.5 112.5q0 40 8 84.5t24.5 89
t41 85t58 71t76 49t93.5 18.5q71 0 123.5 -39.5t87.5 -99t53.5 -129t21.5 -129.5q-3 -65 -20.5 -112t-37.5 -77q-24 -36 -53 -59zM477 241q34 13 69 31t64.5 42t49 53t24.5 63q-3 41 -21 85t-46 81t-64 60.5t-76 23.5q-46 0 -85 -24.5t-67.5 -62t-45.5 -81.5t-19 -82
q6 -35 27 -64.5t51.5 -53.5t66.5 -41.5t72 -29.5zM479 1059l-149 149l149 148l148 -149z" />
    <glyph glyph-name="uniFED2" unicode="&#x641;" horiz-adv-x="2048" arabic-form="final" 
d="M2058 164v-164h-54q-111 0 -183.5 10.5t-117.5 23.5q-52 15 -81 34q-48 -28 -134 -49q-74 -19 -198.5 -34t-312.5 -15q-65 0 -145 2.5t-163.5 13t-165.5 32t-151.5 60t-120.5 97t-68.5 126.5t-17.5 131q0 38 9 115t68 223l73 -37q-37 -107 -41 -159t-4 -72
q0 -56 15.5 -109.5t54 -97t92 -72t119 -45.5t136.5 -25.5t144 -10.5t142 -2q131 0 222 6.5t151 14.5q69 10 114 22q-28 23 -51 58q-20 30 -38.5 76.5t-25.5 112.5q0 40 8 84.5t24.5 89t41 85t58 71t76 49t93.5 18.5q71 0 123.5 -39.5t87.5 -99t53.5 -129t21.5 -129.5
q-3 -65 -20.5 -112t-37.5 -77q-24 -36 -53 -59q10 -5 35 -9q21 -4 60.5 -6.5t105.5 -2.5h56zM1624 241q34 13 69 32t64 43.5t49 53t25 60.5q-3 41 -21 85t-46 81t-64 60.5t-76 23.5q-46 0 -85 -24.5t-67.5 -62t-45.5 -81.5t-19 -82q6 -35 27 -64.5t51 -53.5t66.5 -41.5
t72.5 -29.5zM1620 1059l-149 149l149 148l148 -149z" />
    <glyph glyph-name="uniFB6A" unicode="&#x6a4;" horiz-adv-x="1982" arabic-form="isolated" 
d="M1893 536q5 -43 5 -82q0 -67 -21 -138.5t-79.5 -134t-145.5 -103t-194 -64.5t-229.5 -33t-252.5 -9q-65 0 -145 2.5t-163.5 13t-165.5 32t-151.5 60t-120.5 97t-68.5 126.5t-17.5 131q0 38 9 115t68 223l73 -37q-37 -107 -41 -159t-4 -72q0 -56 15.5 -109.5t54 -97
t92 -72t119 -45.5t136.5 -25.5t144 -10.5t142 -2q101 0 203.5 3t197 13t176.5 27.5t141.5 46.5t91 69.5t31.5 92.5v10q-28 -11 -65 -17q-32 -5 -62 -7t-46 -2q-33 0 -71 4q-72 7 -127 25.5t-92.5 51t-57.5 80.5t-21 115q1 13 7 46.5t19 76t35 89t55.5 85t80 64t108.5 26.5
q54 0 98.5 -23.5t80 -63.5t62.5 -91.5t46.5 -107.5t31.5 -113t18 -106zM1568 528q50 -4 87 -4q8 0 32 0.5t50 5.5q31 4 50 13q-2 12 -9 43.5t-20 71t-32.5 82.5t-47 79t-64 59t-82.5 23q-32 0 -58 -11t-47 -28.5t-36.5 -40t-26.5 -45.5q-26 -55 -39 -125q14 -29 46 -55
q26 -22 73.5 -42t123.5 -26zM1543 1467l-134 134l134 134l134 -134zM1718 1184l-134 134l134 134l134 -134zM1368 1184l-134 134l134 134l134 -134z" />
    <glyph glyph-name="uniFB6C" unicode="&#x6a4;" horiz-adv-x="892" arabic-form="initial" 
d="M784 536q9 -67 9 -125q0 -41 -8 -102t-44 -120.5t-97 -96.5t-145 -57.5t-191.5 -27.5t-237.5 -7h-89v82q0 31 -0.5 47.5t-0.5 22.5q0 11 1 12h88q151 0 268 4.5t195.5 27.5t115 69t36.5 123v16q-29 -11 -66 -17q-32 -5 -62 -7t-46 -2q-33 0 -71 4q-72 7 -127 25.5
t-92.5 51t-57.5 80.5t-21 115q1 13 7 46.5t19 76t35 89t55.5 85t80 64t108.5 26.5q54 0 99 -23.5t80.5 -63.5t62.5 -91.5t46.5 -107.5t31.5 -113t18 -106zM459 528q50 -4 87 -4q8 0 32 0.5t50 5.5q31 4 50 13q-3 12 -10 43.5t-19.5 71t-32.5 82.5t-47.5 79t-64 59t-82.5 23
q-32 0 -58 -11t-46.5 -28.5t-36 -40t-26.5 -45.5q-27 -55 -40 -125q14 -29 46 -55q27 -22 74 -42t124 -26zM435 1467l-134 134l134 134l134 -134zM610 1184l-134 134l134 134l134 -134zM260 1184l-134 134l134 134l134 -134z" />
    <glyph glyph-name="uniFB6D" unicode="&#x6a4;" horiz-adv-x="935" arabic-form="medial" 
d="M654 182q20 -5 59 -9q33 -4 89 -6.5t143 -2.5v-164h-72q-111 0 -186 10.5t-123 23.5q-55 15 -89 34q-41 -19 -96 -34q-48 -13 -115 -23.5t-154 -10.5h-130v164q88 0 147.5 2.5t96.5 6.5q43 4 69 10q-28 23 -51 58q-20 30 -38.5 76.5t-25.5 112.5q0 40 8 84.5t24.5 89
t41 85t58 71t76 49t93.5 18.5q71 0 123.5 -39.5t87.5 -99t53.5 -129t21.5 -129.5q-3 -65 -20.5 -112t-37.5 -77q-24 -36 -53 -59zM477 241q34 13 69 31t64.5 42t49 53t24.5 63q-3 41 -21 85t-46 81t-64 60.5t-76 23.5q-46 0 -85 -24.5t-67.5 -62t-45.5 -81.5t-19 -82
q6 -35 27 -64.5t51.5 -53.5t66.5 -41.5t72 -29.5zM479 1325l-134 134l134 134l134 -134zM654 1042l-134 134l134 134l134 -134zM304 1042l-134 134l134 134l134 -134z" />
    <glyph glyph-name="uniFB6B" unicode="&#x6a4;" horiz-adv-x="2048" arabic-form="final" 
d="M2058 164v-164h-54q-111 0 -183.5 10.5t-117.5 23.5q-52 15 -81 34q-48 -28 -134 -49q-74 -19 -198.5 -34t-312.5 -15q-65 0 -145 2.5t-163.5 13t-165.5 32t-151.5 60t-120.5 97t-68.5 126.5t-17.5 131q0 38 9 115t68 223l73 -37q-37 -107 -41 -159t-4 -72
q0 -56 15.5 -109.5t54 -97t92 -72t119 -45.5t136.5 -25.5t144 -10.5t142 -2q131 0 222 6.5t151 14.5q69 10 114 22q-28 23 -51 58q-20 30 -38.5 76.5t-25.5 112.5q0 40 8 84.5t24.5 89t41 85t58 71t76 49t93.5 18.5q71 0 123.5 -39.5t87.5 -99t53.5 -129t21.5 -129.5
q-3 -65 -20.5 -112t-37.5 -77q-24 -36 -53 -59q10 -5 35 -9q21 -4 60.5 -6.5t105.5 -2.5h56zM1624 241q34 13 69 32t64 43.5t49 53t25 60.5q-3 41 -21 85t-46 81t-64 60.5t-76 23.5q-46 0 -85 -24.5t-67.5 -62t-45.5 -81.5t-19 -82q6 -35 27 -64.5t51 -53.5t66.5 -41.5
t72.5 -29.5zM1611 1325l-134 134l134 134l134 -134zM1786 1042l-134 134l134 134l134 -134zM1436 1042l-134 134l134 134l134 -134z" />
    <glyph glyph-name="uniFED7" unicode="&#x642;" horiz-adv-x="892" arabic-form="initial" 
d="M784 536q9 -67 9 -125q0 -41 -8 -102t-44 -120.5t-97 -96.5t-145 -57.5t-191.5 -27.5t-237.5 -7h-89v82q0 31 -0.5 47.5t-0.5 22.5q0 11 1 12h88q151 0 268 4.5t195.5 27.5t115 69t36.5 123v16q-29 -11 -66 -17q-32 -5 -62 -7t-46 -2q-33 0 -71 4q-72 7 -127 25.5
t-92.5 51t-57.5 80.5t-21 115q1 13 7 46.5t19 76t35 89t55.5 85t80 64t108.5 26.5q54 0 99 -23.5t80.5 -63.5t62.5 -91.5t46.5 -107.5t31.5 -113t18 -106zM459 528q50 -4 87 -4q8 0 32 0.5t50 5.5q31 4 50 13q-3 12 -10 43.5t-19.5 71t-32.5 82.5t-47.5 79t-64 59t-82.5 23
q-32 0 -58 -11t-46.5 -28.5t-36 -40t-26.5 -45.5q-27 -55 -40 -125q14 -29 46 -55q27 -22 74 -42t124 -26zM626 1243l-142 142l142 142l142 -142zM266 1243l-142 142l142 142l142 -142z" />
    <glyph glyph-name="uniFED8" unicode="&#x642;" horiz-adv-x="935" arabic-form="medial" 
d="M654 182q20 -5 59 -9q33 -4 89 -6.5t143 -2.5v-164h-72q-111 0 -186 10.5t-123 23.5q-55 15 -89 34q-41 -19 -96 -34q-48 -13 -115 -23.5t-154 -10.5h-130v164q88 0 147.5 2.5t96.5 6.5q43 4 69 10q-28 23 -51 58q-20 30 -38.5 76.5t-25.5 112.5q0 40 8 84.5t24.5 89
t41 85t58 71t76 49t93.5 18.5q71 0 123.5 -39.5t87.5 -99t53.5 -129t21.5 -129.5q-3 -65 -20.5 -112t-37.5 -77q-24 -36 -53 -59zM477 241q34 13 69 31t64.5 42t49 53t24.5 63q-3 41 -21 85t-46 81t-64 60.5t-76 23.5q-46 0 -85 -24.5t-67.5 -62t-45.5 -81.5t-19 -82
q6 -35 27 -64.5t51.5 -53.5t66.5 -41.5t72 -29.5zM666 1058l-142 142l142 142l142 -142zM306 1058l-142 142l142 142l142 -142z" />
    <glyph glyph-name="uni0642" unicode="&#x642;" horiz-adv-x="1457" arabic-form="isolated" 
d="M1084 154q51 0 94 6.5t71 14.5q0 24 -6 64.5t-19 87t-33 94t-49.5 86t-68 63t-87.5 24.5h-2q-39 0 -70 -17.5t-55 -44.5t-41.5 -59t-28 -62t-14 -49t-3.5 -28q0 -5 1 -8q13 -51 45.5 -84t75.5 -52.5t92.5 -27.5t97.5 -8zM1022 756q72 0 125.5 -39.5t91.5 -103t63 -143
t39.5 -160t20 -154t5.5 -124.5q0 -150 -43 -270t-128 -204t-211 -129t-292 -45q-180 0 -310 66t-182 184.5t-52 259.5q0 49 13 180.5t136 417.5l66 -39q-38 -107 -68.5 -214t-39.5 -180.5t-9 -118.5q0 -47 9.5 -111.5t57.5 -127.5t137.5 -99t232.5 -36q114 0 201 18.5
t151.5 51t108 76.5t69.5 94t37.5 104t11.5 107q-45 -9 -91.5 -13.5t-91.5 -4.5q-75 0 -143.5 15.5t-121 53t-84.5 99.5t-34 155v6q0 28 8.5 69.5t27 90t46 96.5t63.5 86t81 62t99 24zM1189 938l-142 142l142 142l142 -142zM829 938l-142 142l142 142l142 -142z" />
    <glyph glyph-name="uniFED6" unicode="&#x642;" horiz-adv-x="1457" arabic-form="final" 
d="M1253 164q0 24 -6 65.5t-19 89t-33.5 96.5t-49.5 88.5t-68 64.5t-88 25h-2q-39 0 -70 -17.5t-55 -44.5t-41 -59t-28 -62t-14.5 -49t-3.5 -28q0 -5 1 -8q13 -48 43.5 -79.5t71 -49.5t87.5 -25t94 -7h181zM1025 755q59 0 106 -27t83 -73t62.5 -106t44.5 -126t29 -133
t16 -126h101v-164h-95q-5 -143 -50.5 -257t-130.5 -194t-209 -123t-285 -43q-120 0 -218.5 29t-169.5 88.5t-112 150.5t-43 158.5t-2 80.5q0 114 33.5 262t115.5 339l67 -39q-38 -106 -68.5 -213t-39.5 -180.5t-9 -118.5q0 -47 9.5 -111.5t57.5 -128t137.5 -99.5t232.5 -36
q114 0 201 17.5t151.5 48t108 72.5t69.5 90t37.5 101t11.5 106h-193q-74 0 -140.5 16t-117.5 53.5t-82 99t-34 152.5v6q0 28 8.5 69.5t27 90t46 96.5t63.5 86t81 62t99 24zM1193 938l-142 142l142 142l142 -142zM833 938l-142 142l142 142l142 -142z" />
    <glyph glyph-name="uniFEE7" unicode="&#x646;" horiz-adv-x="624" arabic-form="initial" 
d="M424 879q5 0 21 -30t35 -83.5t36 -126.5t22 -137t5 -107q0 -47 -5.5 -119.5t-36.5 -170.5q-30 -27 -81.5 -47t-115 -32.5t-133.5 -19t-136 -6.5h-61v164h57q76 0 148 5.5t129 13.5t93 17t40 16q1 13 1 26q0 58 -12 126t-31.5 136.5t-41.5 124.5t-37 88q34 56 54 88
t30.5 48t14 20.5t5.5 5.5zM334 1074l-149 149l149 148l148 -149z" />
    <glyph glyph-name="uniFEE8" unicode="&#x646;" horiz-adv-x="781" arabic-form="medial" 
d="M471 698l4 -19q4 -19 9 -51t11 -74.5t10.5 -89t6 -83t1.5 -59.5t-1 -45q14 -14 31.5 -27t39.5 -25q18 -10 40.5 -21t47.5 -20t53 -14.5t58 -5.5h9v-164h-9q-44 0 -93 12t-95.5 33.5t-85.5 51.5t-63 66q-27 -33 -73 -62.5t-101.5 -52t-117.5 -35.5t-120 -13h-53v164h30
q67 0 132.5 9t118.5 24t89 35t45 43q1 14 1 30q0 20 -2 50.5t-7 72.5t-12 84.5t-13 80.5zM310 884l-149 149l149 148l148 -149z" />
    <glyph glyph-name="uni0646" unicode="&#x646;" horiz-adv-x="1446" arabic-form="isolated" 
d="M1244 625q8 -12 20 -45t26 -79.5t27.5 -104t24.5 -119.5t18 -125.5t7 -121.5q0 -150 -43 -270t-128 -204t-211 -129t-292 -45q-180 0 -310 66t-182 184.5t-52 259.5q0 49 13 180.5t136 417.5l66 -39q-38 -106 -68.5 -213t-39.5 -179.5t-9 -117.5q0 -47 9.5 -111
t57.5 -127t137.5 -100t232.5 -39h16q147 0 250 36t169.5 94t100 132t41.5 150q-16 62 -31 120t-30.5 116.5t-32 120.5t-34.5 133zM768 445l-149 149l149 148l148 -149z" />
    <glyph glyph-name="uniFEE6" unicode="&#x646;" horiz-adv-x="1622" arabic-form="final" 
d="M1243 621q21 -62 38 -120t36.5 -109t44 -93t59.5 -72t84 -46.5t117 -16.5h10v-164h-10q-59 0 -101.5 9t-72.5 25t-50.5 36t-35.5 43q0 -8 0.5 -19t1 -22.5t0.5 -23v-18.5q0 -150 -43 -270t-128 -204t-211 -129t-292 -45q-180 0 -310 66t-182 184.5t-52 259.5
q0 49 13 180.5t136 417.5l66 -39q-38 -106 -68.5 -213t-39.5 -179.5t-9 -117.5q0 -47 9.5 -111t57.5 -127t137.5 -100t232.5 -39h16q147 0 250 36t169.5 94t100 132t41.5 150q-17 63 -32 120.5t-30.5 115.5t-31.5 118t-34 128zM768 445l-149 149l149 148l148 -149z" />
    <glyph glyph-name="uni06C0" unicode="&#x6c0;" horiz-adv-x="878" arabic-form="isolated" 
d="M447 134q73 0 124.5 13.5t86.5 36.5t57.5 53t38.5 63q-1 37 -22 78.5t-54.5 82.5t-75 79.5t-83.5 69.5t-79.5 52.5t-63.5 28.5q-41 -67 -72 -134t-48 -129t-17.5 -89.5t-0.5 -28.5q0 -52 21.5 -91t67 -62t120.5 -23zM388 871q6 0 40.5 -16t81.5 -47t100.5 -75.5
t98.5 -102.5t74.5 -127.5t29.5 -149.5q-21 -184 -115 -276t-258 -92q-70 0 -129.5 23.5t-100 69t-54.5 98.5t-14 99q0 33 5 70q7 45 23 97.5t37 106t45.5 105t49 95t46.5 75.5t39 46q0 1 1 1zM386 1087q-7 4 -22.5 16t-32 31.5t-30 44.5t-15.5 55v6q0 27 18 64t48.5 72.5
t68 60t72.5 24.5q51 0 94.5 -24t79.5 -88l-26 -13q-9 5 -42 16t-90 11q-29 0 -56 -13.5t-48 -31t-34 -34.5t-13 -24q0 -8 10 -26t31 -36.5t55 -34.5t82 -20q30 4 53 8t42.5 8t36.5 8.5t35 9.5q0 -2 -5.5 -22t-21.5 -75q-9 -2 -19.5 -4t-25.5 -5t-36.5 -7.5t-51.5 -11.5
q-43 -9 -77 -19t-67.5 -23.5t-70.5 -31.5t-85 -43l27 87z" />
    <glyph glyph-name="uniFBA5" unicode="&#x6c0;" horiz-adv-x="1045" arabic-form="final" 
d="M653 763q-71 -39 -143.5 -78t-133.5 -75t-104 -66t-55 -51q2 -31 27.5 -57.5t84 -47t154.5 -34t239 -18.5zM806 737q6 -54 12 -111t12.5 -111t12 -102t9.5 -83q10 -85 54 -125.5t136 -40.5h13v-164h-35q-84 4 -136.5 31t-84 69t-46.5 96t-23 111l-124 -126q-5 -1 -10 -1
h-28q-27 0 -69.5 2.5t-94 11t-110 24.5t-117.5 43q-12 35 -22.5 81t-13.5 79.5t-3 55.5q0 18 2.5 44t17.5 40q21 19 55 45t76 56t89.5 61.5t93.5 61.5t89 57.5t77 48.5l-11 114l136 121zM477 1264q-7 4 -22.5 16t-32 31.5t-30 44.5t-15.5 55v6q0 27 18 64t48.5 72.5t68 60
t72.5 24.5q51 0 94.5 -24t79.5 -88l-26 -13q-9 5 -42 16t-90 11q-29 0 -56 -13.5t-48 -31t-34 -34.5t-13 -24q0 -8 10 -26t31 -36.5t55 -34.5t82 -20q30 4 53 8t42.5 8t36.5 8.5t35 9.5q0 -2 -5.5 -22t-21.5 -75q-9 -2 -19.5 -4t-25.5 -5t-36.5 -7.5t-51.5 -11.5
q-43 -9 -77 -19t-67.5 -23.5t-70.5 -31.5t-85 -43l27 87z" />
    <glyph glyph-name="uni0624" unicode="&#x624;" horiz-adv-x="1024" arabic-form="isolated" 
d="M506 755q73 -5 127 -45.5t92 -103t61.5 -139t36.5 -153.5t16 -134.5t3 -94.5q0 -20 -1 -38q-4 -90 -31.5 -166t-70 -140t-96.5 -116t-111 -92t-113 -69.5t-103.5 -48t-80.5 -26.5t-48 -8h-3q-6 0 -7 1q-37 23 -68 43.5t-71 49.5q-6 5 -6 8q0 2 3.5 4.5t5.5 3.5
q151 43 274 108.5t211.5 138t140 144t60.5 127.5q-64 -13 -108 -16t-67 -3q-41 0 -90.5 6.5t-102.5 28t-92.5 60.5t-62.5 97t-24 139v6q0 28 8.5 69.5t27 90t45.5 96.5t63.5 86t81 62t98.5 24h2zM256 325q14 -51 48 -85t79 -53.5t94.5 -27t94.5 -7.5q3 0 29 0.5t67 8
t66 17.5q0 24 -6 64.5t-19 86.5t-34 93t-50 85t-68 62t-88 24h-2q-39 0 -70 -17.5t-55 -44.5t-41 -59t-28 -62t-14.5 -49t-3.5 -28q0 -5 1 -8zM410 1027q-7 4 -22.5 16t-32 31.5t-30 44.5t-15.5 55v6q0 27 18 64t48.5 72.5t68 60t72.5 24.5q51 0 94.5 -24t79.5 -88l-26 -13
q-9 5 -42 16t-90 11q-29 0 -56 -13.5t-48 -31t-34 -34.5t-13 -24q0 -8 10 -26t31 -36.5t55 -34.5t82 -20q30 4 53 8t42.5 8t36.5 8.5t35 9.5q0 -2 -5.5 -22t-21.5 -75q-9 -2 -19.5 -4t-25.5 -5t-36.5 -7.5t-51.5 -11.5q-43 -9 -77 -19t-67.5 -23.5t-70.5 -31.5t-85 -43
l27 87z" />
    <glyph glyph-name="uniFE86" unicode="&#x624;" horiz-adv-x="877" arabic-form="final" 
d="M888 164v-164h-112q-8 -108 -54 -196.5t-112.5 -157t-143 -118.5t-146 -82.5t-120.5 -47t-70 -14.5h-2q-6 0 -7 1q-41 24 -79 48.5t-67 44.5q-6 5 -6 8q0 2 3.5 4.5t5.5 3.5q151 43 271.5 102.5t207 126.5t138.5 138.5t67 138.5h-89q-101 0 -183.5 15.5t-141.5 52.5
t-92 99t-35 155q0 30 9 73.5t27 92t45.5 96.5t63.5 86t81 62t99 24q57 0 104 -28t83.5 -75t64 -107.5t45.5 -126.5t27.5 -132t10.5 -123h107zM673 164q0 34 -6 79t-19 93t-33.5 94t-49.5 82.5t-68 59t-88 22.5q-37 0 -66.5 -16t-53 -41.5t-41 -56t-29 -59.5t-17 -53
t-6.5 -36q3 -25 23.5 -54t61 -54.5t102.5 -42.5t149 -17h141zM410 1027q-7 4 -22.5 16t-32 31.5t-30 44.5t-15.5 55v6q0 27 18 64t48.5 72.5t68 60t72.5 24.5q51 0 94.5 -24t79.5 -88l-26 -13q-9 5 -42 16t-90 11q-29 0 -56 -13.5t-48 -31t-34 -34.5t-13 -24q0 -8 10 -26
t31 -36.5t55 -34.5t82 -20q30 4 53 8t42.5 8t36.5 8.5t35 9.5q0 -2 -5.5 -22t-21.5 -75q-9 -2 -19.5 -4t-25.5 -5t-36.5 -7.5t-51.5 -11.5q-43 -9 -77 -19t-67.5 -23.5t-70.5 -31.5t-85 -43l27 87z" />
    <glyph glyph-name="uniFBE8" unicode="&#x649;" horiz-adv-x="624" arabic-form="initial" 
d="M424 879q5 0 21 -30t35 -83.5t36 -126.5t22 -137t5 -107q0 -47 -5.5 -119.5t-36.5 -170.5q-30 -27 -81.5 -47t-115 -32.5t-133.5 -19t-136 -6.5h-61v164h57q76 0 148 5.5t129 13.5t93 17t40 16q1 13 1 26q0 58 -12 126t-31.5 136.5t-41.5 124.5t-37 88q34 56 54 88
t30.5 48t14 20.5t5.5 5.5z" />
    <glyph glyph-name="uniFBE9" unicode="&#x649;" horiz-adv-x="781" arabic-form="medial" 
d="M471 698l4 -19q4 -19 9 -51t11 -74.5t10.5 -89t6 -83t1.5 -59.5t-1 -45q14 -14 31.5 -27t39.5 -25q18 -10 40.5 -21t47.5 -20t53 -14.5t58 -5.5h9v-164h-9q-44 0 -93 12t-95.5 33.5t-85.5 51.5t-63 66q-27 -33 -73 -62.5t-101.5 -52t-117.5 -35.5t-120 -13h-53v164h30
q67 0 132.5 9t118.5 24t89 35t45 43q1 14 1 30q0 20 -2 50.5t-7 72.5t-12 84.5t-13 80.5z" />
    <glyph glyph-name="uniFEF3" unicode="&#x64a;" horiz-adv-x="755" arabic-form="initial" 
d="M528 879q5 0 21 -30t35 -83.5t36 -126.5t22 -137t5 -107q0 -47 -5.5 -119.5t-36.5 -170.5q-30 -27 -85 -47t-129.5 -32.5t-164 -19t-187.5 -6.5h-59v164h55q112 0 204.5 5.5t159 13.5t104.5 17t42 16q1 13 1 26q0 58 -12 126t-31.5 136.5t-41.5 124.5t-37 88q34 56 54 88
t30.5 48t14 20.5t5.5 5.5zM510 -501l-142 142l142 142l142 -142zM150 -501l-142 142l142 142l142 -142z" />
    <glyph glyph-name="uniFEF4" unicode="&#x64a;" horiz-adv-x="897" arabic-form="medial" 
d="M531 698l4 -19q4 -19 9 -51t11 -74.5t10.5 -89t6 -83t1.5 -59.5t-1 -45q28 -26 64.5 -46.5t78.5 -35.5t87.5 -23t92.5 -8h12v-164h-12q-133 0 -230 43.5t-160 119.5q-27 -33 -76.5 -62.5t-113.5 -52t-138 -35.5t-150 -13h-47v164h24q76 0 153 9t140.5 24t106 35t51.5 43
q1 14 1 30q0 20 -2 50.5t-7 72.5t-12 84.5t-13 80.5zM540 -501l-142 142l142 142l142 -142zM180 -501l-142 142l142 142l142 -142z" />
    <glyph glyph-name="uni064A" unicode="&#x64a;" horiz-adv-x="1729" arabic-form="isolated" 
d="M1470 840q69 0 146 -18l-53 -158q-21 4 -41.5 5.5t-40.5 1.5q-96 0 -175 -35.5t-141.5 -93t-108 -130.5t-74.5 -147q40 -26 95.5 -53t116 -53t120.5 -51.5t108 -49t79.5 -45t34.5 -39.5q7 -41 8 -62t1 -30q0 -21 -3 -45t-10.5 -50.5t-19.5 -54.5q-38 -64 -102 -122
t-152.5 -104.5t-200 -78t-244.5 -42.5q-39 -3 -79 -3q-99 0 -191.5 17.5t-168.5 59.5t-130.5 112t-73 155t-18.5 165q0 47 9 144.5t69 284.5q7 21 18.5 53.5t24 66.5t24.5 66t21 53l68 -39q-14 -38 -29.5 -86t-34.5 -117q-12 -50 -24.5 -110t-19.5 -119.5t-7 -115.5
q0 -8 0.5 -44t14.5 -95t44.5 -110.5t83 -89.5t129 -60t183.5 -22q40 0 87 3q152 12 261.5 46.5t184.5 79t120.5 93t69.5 87.5q-32 22 -88.5 46t-122.5 49.5t-133.5 52.5t-121.5 55.5t-84.5 56.5t-30.5 54v7q19 145 71 266.5t130 208.5t180 135.5t221 48.5zM991 -1031
l-142 142l142 142l142 -142zM631 -1031l-142 142l142 142l142 -142z" />
    <glyph glyph-name="uniFEF2" unicode="&#x64a;" horiz-adv-x="1596" arabic-form="final" 
d="M374 532q-12 -37 -29.5 -88t-33.5 -109q-14 -49 -27 -108t-19 -115.5t-6 -106.5q0 -14 1 -53t16.5 -98.5t48.5 -111.5t88 -91t135.5 -61t191.5 -22q41 0 86 3q86 6 156 20t126.5 32.5t99.5 40t75 42.5q75 50 113 109q-11 10 -38.5 27.5t-66 39t-86.5 46.5t-100.5 50.5
t-108.5 51t-110 47.5l65 128q105 -14 194 -22.5t168 -12.5t151 -5t142 -1v-164q-75 0 -125 2.5t-89.5 8t-75.5 15t-82 23.5q100 -45 158 -85t77 -58l-12 -168q-15 -43 -66.5 -98.5t-133 -106t-191 -88t-240.5 -44.5q-20 -1 -39 -1.5t-39 -0.5q-103 0 -199 18t-174.5 60
t-134.5 112t-76 157t-20 172q0 45 8.5 140.5t67.5 282.5q6 18 16 46.5t21.5 60.5t24 64t23.5 56zM991 -1031l-142 142l142 142l142 -142zM631 -1031l-142 142l142 142l142 -142z" />
    <glyph glyph-name="uni06CC" unicode="&#x6cc;" horiz-adv-x="1729" arabic-form="isolated" 
d="M1470 840q69 0 146 -18l-53 -158q-21 4 -41.5 5.5t-40.5 1.5q-96 0 -175 -35.5t-141.5 -93t-108 -130.5t-74.5 -147q40 -26 95.5 -53t116 -53t120.5 -51.5t108 -49t79.5 -45t34.5 -39.5q7 -41 8 -62t1 -30q0 -21 -3 -45t-10.5 -50.5t-19.5 -54.5q-38 -64 -102 -122
t-152.5 -104.5t-200 -78t-244.5 -42.5q-39 -3 -79 -3q-99 0 -191.5 17.5t-168.5 59.5t-130.5 112t-73 155t-18.5 165q0 47 9 144.5t69 284.5q7 21 18.5 53.5t24 66.5t24.5 66t21 53l68 -39q-14 -38 -29.5 -86t-34.5 -117q-12 -50 -24.5 -110t-19.5 -119.5t-7 -115.5
q0 -8 0.5 -44t14.5 -95t44.5 -110.5t83 -89.5t129 -60t183.5 -22q40 0 87 3q152 12 261.5 46.5t184.5 79t120.5 93t69.5 87.5q-32 22 -88.5 46t-122.5 49.5t-133.5 52.5t-121.5 55.5t-84.5 56.5t-30.5 54v7q19 145 71 266.5t130 208.5t180 135.5t221 48.5z" />
    <glyph glyph-name="uniFBFE" unicode="&#x6cc;" horiz-adv-x="755" arabic-form="initial" 
d="M528 879q5 0 21 -30t35 -83.5t36 -126.5t22 -137t5 -107q0 -47 -5.5 -119.5t-36.5 -170.5q-30 -27 -85 -47t-129.5 -32.5t-164 -19t-187.5 -6.5h-59v164h55q112 0 204.5 5.5t159 13.5t104.5 17t42 16q1 13 1 26q0 58 -12 126t-31.5 136.5t-41.5 124.5t-37 88q34 56 54 88
t30.5 48t14 20.5t5.5 5.5zM510 -501l-142 142l142 142l142 -142zM150 -501l-142 142l142 142l142 -142z" />
    <glyph glyph-name="uniFBFF" unicode="&#x6cc;" horiz-adv-x="897" arabic-form="medial" 
d="M531 698l4 -19q4 -19 9 -51t11 -74.5t10.5 -89t6 -83t1.5 -59.5t-1 -45q28 -26 64.5 -46.5t78.5 -35.5t87.5 -23t92.5 -8h12v-164h-12q-133 0 -230 43.5t-160 119.5q-27 -33 -76.5 -62.5t-113.5 -52t-138 -35.5t-150 -13h-47v164h24q76 0 153 9t140.5 24t106 35t51.5 43
q1 14 1 30q0 20 -2 50.5t-7 72.5t-12 84.5t-13 80.5zM540 -501l-142 142l142 142l142 -142zM180 -501l-142 142l142 142l142 -142z" />
    <glyph glyph-name="uniFBFD" unicode="&#x6cc;" horiz-adv-x="1596" arabic-form="final" 
d="M374 532q-12 -37 -29.5 -88t-33.5 -109q-14 -49 -27 -108t-19 -115.5t-6 -106.5q0 -14 1 -53t16.5 -98.5t48.5 -111.5t88 -91t135.5 -61t191.5 -22q41 0 86 3q86 6 156 20t126.5 32.5t99.5 40t75 42.5q75 50 113 109q-11 10 -38.5 27.5t-66 39t-86.5 46.5t-100.5 50.5
t-108.5 51t-110 47.5l65 128q105 -14 194 -22.5t168 -12.5t151 -5t142 -1v-164q-75 0 -125 2.5t-89.5 8t-75.5 15t-82 23.5q100 -45 158 -85t77 -58l-12 -168q-15 -43 -66.5 -98.5t-133 -106t-191 -88t-240.5 -44.5q-20 -1 -39 -1.5t-39 -0.5q-103 0 -199 18t-174.5 60
t-134.5 112t-76 157t-20 172q0 45 8.5 140.5t67.5 282.5q6 18 16 46.5t21.5 60.5t24 64t23.5 56z" />
    <glyph glyph-name="uni06D3" unicode="&#x6d3;" horiz-adv-x="2205" arabic-form="isolated" 
d="M928 734q-54 -102 -100.5 -170t-78.5 -97q-16 -14 -56.5 -33.5t-94.5 -42t-114 -46t-114 -46.5t-96.5 -44t-60.5 -37q91 -46 316 -67t576 -21q97 0 199.5 6t202.5 15.5t193 21.5t170 24t134 23.5t85 19.5q-7 -23 -14 -45t-14 -42q-6 -17 -10.5 -28t-8 -18.5t-7.5 -13
t-10 -11.5q-12 -5 -59.5 -14.5t-120 -20.5t-164.5 -22t-192 -20t-202.5 -15t-196.5 -6q-177 0 -322.5 5t-264.5 17.5t-213.5 34.5t-169.5 56q0 4 3 21t8 39.5t11 48.5t12.5 48.5t11.5 38.5t9 20q20 20 76.5 45.5t133 56t164 67t169.5 78.5q20 18 36 38.5t30.5 42.5
t28.5 45.5t31 46.5zM385 749q-7 4 -22.5 16t-32 31.5t-30 44.5t-15.5 55v6q0 27 18 64t48.5 72.5t68 60t72.5 24.5q51 0 94.5 -24t79.5 -88l-26 -13q-9 5 -42 16t-90 11q-29 0 -56 -13.5t-48 -31t-34 -34.5t-13 -24q0 -8 10 -26t31 -36.5t55 -34.5t82 -20q30 4 53 8t42.5 8
t36.5 8.5t35 9.5q0 -2 -5.5 -22t-21.5 -75q-9 -2 -19.5 -4t-25.5 -5t-36.5 -7.5t-51.5 -11.5q-43 -9 -77 -19t-67.5 -23.5t-70.5 -31.5t-85 -43l27 87z" />
    <glyph glyph-name="uniFBB1" unicode="&#x6d3;" horiz-adv-x="1652" arabic-form="final" 
d="M1662 0q-57 0 -106.5 0.5t-102.5 0.5q-134 0 -257.5 -2.5t-239 -13t-225 -31t-214.5 -55.5q-38 -12 -79 -31t-81 -41t-77 -46.5t-66 -47.5q31 -14 80.5 -24.5t109 -19t126 -14t133 -9.5t129.5 -5.5t115 -1.5q97 0 183 2.5t164.5 8.5t153.5 17t151 28q-8 -17 -23.5 -38
t-34.5 -42.5t-39 -42t-36 -35.5q-18 -5 -51.5 -10t-76 -10t-91.5 -9.5t-99 -7.5t-98 -5t-87 -2q-219 0 -376 12.5t-258 29t-148.5 32t-47.5 22.5q0 5 4 21.5t10.5 38.5t14 46.5t14.5 46.5t12.5 37.5t7.5 19.5q91 87 202 152t244 103q70 20 167 36.5t227 28.5t295 18.5
t371 6.5v-164zM366 327q-7 4 -22.5 16t-32 31.5t-30 44.5t-15.5 55v6q0 27 18 64t48.5 72.5t68 60t72.5 24.5q51 0 94.5 -24t79.5 -88l-26 -13q-9 5 -42 16t-90 11q-29 0 -56 -13.5t-48 -31t-34 -34.5t-13 -24q0 -8 10 -26t31 -36.5t55 -34.5t82 -20q30 4 53 8t42.5 8
t36.5 8.5t35 9.5q0 -2 -5.5 -22t-21.5 -75q-9 -2 -19.5 -4t-25.5 -5t-36.5 -7.5t-51.5 -11.5q-43 -9 -77 -19t-67.5 -23.5t-70.5 -31.5t-85 -43l27 87z" />
    <glyph glyph-name="uni0626" unicode="&#x626;" horiz-adv-x="1729" arabic-form="isolated" 
d="M1470 840q69 0 146 -18l-53 -158q-21 4 -41.5 5.5t-40.5 1.5q-96 0 -175 -35.5t-141.5 -93t-108 -130.5t-74.5 -147q40 -26 95.5 -53t116 -53t120.5 -51.5t108 -49t79.5 -45t34.5 -39.5q7 -41 8 -62t1 -30q0 -21 -3 -45t-10.5 -50.5t-19.5 -54.5q-38 -64 -102 -122
t-152.5 -104.5t-200 -78t-244.5 -42.5q-39 -3 -79 -3q-99 0 -191.5 17.5t-168.5 59.5t-130.5 112t-73 155t-18.5 165q0 47 9 144.5t69 284.5q7 21 18.5 53.5t24 66.5t24.5 66t21 53l68 -39q-14 -38 -29.5 -86t-34.5 -117q-12 -50 -24.5 -110t-19.5 -119.5t-7 -115.5
q0 -8 0.5 -44t14.5 -95t44.5 -110.5t83 -89.5t129 -60t183.5 -22q40 0 87 3q152 12 261.5 46.5t184.5 79t120.5 93t69.5 87.5q-32 22 -88.5 46t-122.5 49.5t-133.5 52.5t-121.5 55.5t-84.5 56.5t-30.5 54v7q19 145 71 266.5t130 208.5t180 135.5t221 48.5zM605 787
q-7 4 -22.5 16t-32 31.5t-30 44.5t-15.5 55v6q0 27 18 64t48.5 72.5t68 60t72.5 24.5q51 0 94.5 -24t79.5 -88l-26 -13q-9 5 -42 16t-90 11q-29 0 -56 -13.5t-48 -31t-34 -34.5t-13 -24q0 -8 10 -26t31 -36.5t55 -34.5t82 -20q30 4 53 8t42.5 8t36.5 8.5t35 9.5
q0 -2 -5.5 -22t-21.5 -75q-9 -2 -19.5 -4t-25.5 -5t-36.5 -7.5t-51.5 -11.5q-43 -9 -77 -19t-67.5 -23.5t-70.5 -31.5t-85 -43l27 87z" />
    <glyph glyph-name="uniFE8B" unicode="&#x626;" horiz-adv-x="755" arabic-form="initial" 
d="M528 879q5 0 21 -30t35 -83.5t36 -126.5t22 -137t5 -107q0 -47 -5.5 -119.5t-36.5 -170.5q-30 -27 -85 -47t-129.5 -32.5t-164 -19t-187.5 -6.5h-59v164h55q112 0 204.5 5.5t159 13.5t104.5 17t42 16q1 13 1 26q0 58 -12 126t-31.5 136.5t-41.5 124.5t-37 88q34 56 54 88
t30.5 48t14 20.5t5.5 5.5zM204 1017q-7 4 -22.5 16t-32 31.5t-30 44.5t-15.5 55v6q0 27 18 64t48.5 72.5t68 60t72.5 24.5q51 0 94.5 -24t79.5 -88l-26 -13q-9 5 -42 16t-90 11q-29 0 -56 -13.5t-48 -31t-34 -34.5t-13 -24q0 -8 10 -26t31 -36.5t55 -34.5t82 -20q30 4 53 8
t42.5 8t36.5 8.5t35 9.5q0 -2 -5.5 -22t-21.5 -75q-9 -2 -19.5 -4t-25.5 -5t-36.5 -7.5t-51.5 -11.5q-43 -9 -77 -19t-67.5 -23.5t-70.5 -31.5t-85 -43l27 87z" />
    <glyph glyph-name="uniFE8C" unicode="&#x626;" horiz-adv-x="897" arabic-form="medial" 
d="M531 698l4 -19q4 -19 9 -51t11 -74.5t10.5 -89t6 -83t1.5 -59.5t-1 -45q28 -26 64.5 -46.5t78.5 -35.5t87.5 -23t92.5 -8h12v-164h-12q-133 0 -230 43.5t-160 119.5q-27 -33 -76.5 -62.5t-113.5 -52t-138 -35.5t-150 -13h-47v164h24q76 0 153 9t140.5 24t106 35t51.5 43
q1 14 1 30q0 20 -2 50.5t-7 72.5t-12 84.5t-13 80.5zM228 927q-7 4 -22.5 16t-32 31.5t-30 44.5t-15.5 55v6q0 27 18 64t48.5 72.5t68 60t72.5 24.5q51 0 94.5 -24t79.5 -88l-26 -13q-9 5 -42 16t-90 11q-29 0 -56 -13.5t-48 -31t-34 -34.5t-13 -24q0 -8 10 -26t31 -36.5
t55 -34.5t82 -20q30 4 53 8t42.5 8t36.5 8.5t35 9.5q0 -2 -5.5 -22t-21.5 -75q-9 -2 -19.5 -4t-25.5 -5t-36.5 -7.5t-51.5 -11.5q-43 -9 -77 -19t-67.5 -23.5t-70.5 -31.5t-85 -43l27 87z" />
    <glyph glyph-name="uniFE8A" unicode="&#x626;" horiz-adv-x="1596" arabic-form="final" 
d="M374 532q-12 -37 -29.5 -88t-33.5 -109q-14 -49 -27 -108t-19 -115.5t-6 -106.5q0 -14 1 -53t16.5 -98.5t48.5 -111.5t88 -91t135.5 -61t191.5 -22q41 0 86 3q86 6 156 20t126.5 32.5t99.5 40t75 42.5q75 50 113 109q-11 10 -38.5 27.5t-66 39t-86.5 46.5t-100.5 50.5
t-108.5 51t-110 47.5l65 128q105 -14 194 -22.5t168 -12.5t151 -5t142 -1v-164q-75 0 -125 2.5t-89.5 8t-75.5 15t-82 23.5q100 -45 158 -85t77 -58l-12 -168q-15 -43 -66.5 -98.5t-133 -106t-191 -88t-240.5 -44.5q-20 -1 -39 -1.5t-39 -0.5q-103 0 -199 18t-174.5 60
t-134.5 112t-76 157t-20 172q0 45 8.5 140.5t67.5 282.5q6 18 16 46.5t21.5 60.5t24 64t23.5 56zM605 787q-7 4 -22.5 16t-32 31.5t-30 44.5t-15.5 55v6q0 27 18 64t48.5 72.5t68 60t72.5 24.5q51 0 94.5 -24t79.5 -88l-26 -13q-9 5 -42 16t-90 11q-29 0 -56 -13.5t-48 -31
t-34 -34.5t-13 -24q0 -8 10 -26t31 -36.5t55 -34.5t82 -20q30 4 53 8t42.5 8t36.5 8.5t35 9.5q0 -2 -5.5 -22t-21.5 -75q-9 -2 -19.5 -4t-25.5 -5t-36.5 -7.5t-51.5 -11.5q-43 -9 -77 -19t-67.5 -23.5t-70.5 -31.5t-85 -43l27 87z" />
    <glyph glyph-name="uni06C2.fina" unicode="&#x6c2;" horiz-adv-x="913" 
d="M913 0q-60 0 -116 22.5t-106.5 56t-93.5 73t-78.5 73t-62.5 56t-43 22.5q-13 0 -33.5 -10.5t-52 -41.5t-76 -88t-105.5 -150l-76 45q122 202 214.5 299t170.5 97q29 0 62 -21.5t69.5 -53.5t76 -70t80.5 -70t84 -53.5t86 -21.5h10v-164h-10zM348 694q-7 4 -22.5 16
t-32 31.5t-30 44.5t-15.5 55v6q0 27 18 64t48.5 72.5t68 60t72.5 24.5q51 0 94.5 -24t79.5 -88l-26 -13q-9 5 -42 16t-90 11q-29 0 -56 -13.5t-48 -31t-34 -34.5t-13 -24q0 -8 10 -26t31 -36.5t55 -34.5t82 -20q30 4 53 8t42.5 8t36.5 8.5t35 9.5q0 -2 -5.5 -22t-21.5 -75
q-9 -2 -19.5 -4t-25.5 -5t-36.5 -7.5t-51.5 -11.5q-43 -9 -77 -19t-67.5 -23.5t-70.5 -31.5t-85 -43l27 87z" />
    <glyph glyph-name="uni06C1" unicode="&#x6c1;" horiz-adv-x="878" arabic-form="isolated" 
d="M447 134q73 0 124.5 13.5t86.5 36.5t57.5 53t38.5 63q-1 37 -22 78.5t-54.5 82.5t-75 79.5t-83.5 69.5t-79.5 52.5t-63.5 28.5q-41 -67 -72 -134t-48 -129t-17.5 -89.5t-0.5 -28.5q0 -52 21.5 -91t67 -62t120.5 -23zM388 871q6 0 40.5 -16t81.5 -47t100.5 -75.5
t98.5 -102.5t74.5 -127.5t29.5 -149.5q-21 -184 -115 -276t-258 -92q-70 0 -129.5 23.5t-100 69t-54.5 98.5t-14 99q0 33 5 70q7 45 23 97.5t37 106t45.5 105t49 95t46.5 75.5t39 46q0 1 1 1z" />
    <glyph glyph-name="uni06C3.fina" unicode="&#x6c3;" horiz-adv-x="913" 
d="M913 0q-60 0 -116 22.5t-106.5 56t-93.5 73t-78.5 73t-62.5 56t-43 22.5q-13 0 -33.5 -10.5t-52 -41.5t-76 -88t-105.5 -150l-76 45q122 202 214.5 299t170.5 97q29 0 62 -21.5t69.5 -53.5t76 -70t80.5 -70t84 -53.5t86 -21.5h10v-164h-10zM623 582l-142 142l142 142
l142 -142zM263 582l-142 142l142 142l142 -142z" />
    <glyph glyph-name="uniFBAB" unicode="&#x6be;" horiz-adv-x="1069" arabic-form="final" 
d="M552 896q17 -8 51 -41.5t68 -93.5t60 -147t28 -203q-29 -88 -61 -156.5t-75 -117.5t-101 -78.5t-140 -39.5q16 -71 48.5 -134.5t70.5 -113.5t76.5 -84.5t67.5 -47.5q-9 29 -13 61q-4 27 -4.5 44.5t-0.5 19.5q0 32 8 63q13 55 46.5 115t84 109t116 81t142.5 32h55v-165
h-55q-62 0 -112 -17.5t-88.5 -47t-66.5 -68t-46 -81.5q0 -35 4.5 -69.5t20 -66.5t46.5 -61.5t85 -54.5l-77 -137q-107 41 -194.5 102.5t-153 140t-108 172.5t-58.5 200q-36 -5 -70 -16q-29 -9 -62.5 -24.5t-58.5 -38.5l-7 19q-8 19 -16.5 41.5t-15.5 42.5l-7 19
q30 35 61.5 57.5t62 36t58.5 19t51 7.5q6 94 21 175t35.5 149.5t45 124.5t49.5 100q58 104 129 173zM375 175q57 0 107 16t89.5 43.5t66.5 64t38 77.5q-9 68 -26 130q-7 27 -16.5 55t-22.5 55t-29 51.5t-35 42.5q-48 -66 -86 -149q-16 -35 -31.5 -77.5t-27.5 -91.5
t-19.5 -103.5t-7.5 -113.5z" />
    <glyph glyph-name="uniFBAC" unicode="&#x6be;" horiz-adv-x="1335" arabic-form="initial" 
d="M1007 170q49 0 87 13t55 48q7 19 7 38q0 21 -12 53t-45.5 73.5t-78.5 80.5t-89 71t-82 56l-57 36q29 -72 31.5 -113.5t2.5 -52.5q0 -59 -21 -109q-14 -32 -31 -57.5t-32 -42.5q-18 -21 -36 -36q29 -8 65.5 -18t76.5 -19t81 -15t78 -6zM527 285q5 1 26 11t46.5 26.5
t49.5 38t35 45.5q16 35 16 78q0 1 -0.5 24t-12.5 67t-32.5 84.5t-42.5 68.5q-5 1 -14 1q-44 0 -89 -16t-84 -43t-68 -63.5t-41 -77.5q-1 -8 -1 -17q0 -29 12.5 -59.5t40.5 -61t68.5 -57.5t90.5 -49zM403 1019q249 -122 440 -239q81 -50 157.5 -103.5t134 -106t85 -95.5
t27.5 -76q0 -9 -2 -18q-17 -85 -39 -167.5t-57 -165.5q-33 -22 -75.5 -31t-90.5 -9q-45 0 -93 7t-94 17.5t-88 23t-75.5 24t-57 20.5t-31.5 12q-38 -22 -94 -42.5t-121 -36t-135.5 -24.5t-138.5 -9h-75v164h85q80 0 134 6.5t87 14.5q39 10 61 22q-54 40 -81.5 92t-34 94
t-6.5 72q0 24 5 62.5t20 80.5q13 36 35.5 68t48 57.5t51.5 44t46 27.5l-109 48z" />
    <glyph glyph-name="uniFBAD" unicode="&#x6be;" horiz-adv-x="985" arabic-form="medial" 
d="M293 176q57 0 107 16t89.5 43.5t66.5 64t38 77.5q-9 68 -26 130q-14 54 -39 110t-64 94q-48 -66 -86 -149q-16 -35 -31.5 -77.5t-27.5 -91.5t-19.5 -103.5t-7.5 -113.5zM470 897q17 -8 51 -41.5t68 -93.5t60 -147t28 -203q-29 -88 -61 -156.5t-75 -117.5t-101 -78.5
t-140 -39.5q16 -71 48.5 -134.5t70.5 -113.5t76.5 -84.5t67.5 -47.5q-9 29 -13 61q-4 27 -4.5 44.5t-0.5 19.5q0 32 8 63q13 55 46.5 114.5t84 109t116 81t142.5 31.5h53v-164h-53q-62 0 -112 -17.5t-88.5 -47t-66.5 -68t-46 -81.5q0 -35 4.5 -69.5t20 -66.5t46.5 -61.5
t85 -54.5l-77 -137q-107 41 -194.5 102.5t-153 140t-108 172.5t-58.5 200l-68 -6q-29 -2 -62.5 -4t-59.5 -2h-24v164h24q16 0 38.5 1t48 2.5t51 3.5t48.5 4q6 94 21 175t35.5 149.5t45 124.5t49.5 100q58 104 129 173z" />
    <glyph glyph-name="uniFE70" unicode="&#xfe70;" arabic-form="isolated" 
d="M-44 991v102l392 155v-97zM-44 1231v102l392 154v-95z" />
    <glyph glyph-name="uniFE72" unicode="&#xfe72;" arabic-form="isolated" 
d="M359 1128l-33 4q-26 -37 -62.5 -66t-79.5 -49.5t-89.5 -31t-92.5 -10.5h-23t-11 1l-3 6q16 39 22.5 72t6.5 56q0 53 -23 53q-14 0 -50.5 -13t-79.5 -36l-5 4l17 95q15 9 34 18t37 16.5t33 12.5t23 5q19 0 32 -9.5t21 -26t11 -38t3 -45.5q0 -21 -1.5 -42t-6.5 -40h6
q18 0 44 5t57 16t61 26.5t53 34.5q-51 12 -83.5 26.5t-51.5 31.5t-26 37t-7 43q0 30 14 60t38 54.5t55.5 40t65.5 15.5q31 0 51.5 -15.5t32.5 -40.5t17 -55t5 -59q0 -20 -2 -39t-7 -36q11 -2 23 -2.5t25 -1.5zM154 1328q0 -8 5.5 -21.5t22 -28.5t47.5 -30.5t83 -27.5
q4 7 5 14t1 15q0 26 -7.5 49t-20 40t-29.5 27t-35 10q-30 0 -51 -15t-21 -32z" />
    <glyph glyph-name="uniFE74" unicode="&#xfe74;" arabic-form="isolated" 
d="M352 -523l-392 -160v102l392 155v-97zM352 -282l-392 -161v102l392 154v-95z" />
    <glyph glyph-name="uniFE76" unicode="&#xfe76;" arabic-form="isolated" 
d="M394 1187l-392 -160v102l392 155v-97z" />
    <glyph glyph-name="uniFE78" unicode="&#xfe78;" arabic-form="isolated" 
d="M110 1337q0 -34 43.5 -58.5t118.5 -38.5q3 12 3 23q0 22 -7.5 45t-20 41.5t-29 30t-33.5 11.5q-15 0 -28.5 -5t-24 -12.5t-16.5 -17.5t-6 -19zM11 976q-5 -1 -13 -1q-7 0 -22.5 1.5t-36.5 6.5t-38 11t-21 12q43 17 88.5 35.5t88 38t81 39.5t67.5 41q-78 15 -117 45
t-39 88q0 37 16 69.5t41 56.5t56.5 38t61.5 14q29 0 50 -15t34 -39t19 -54.5t6.5 -47t0.5 -19.5q0 -28 -5 -55t-14 -46q-20 -42 -55 -76t-77 -61t-87 -47t-85 -35z" />
    <glyph glyph-name="uniFE7A" unicode="&#xfe7a;" arabic-form="isolated" 
d="M392 -339l-392 -160v102l392 155v-97z" />
    <glyph glyph-name="uniFE7C" unicode="&#xfe7c;" arabic-form="isolated" 
d="M351 1413q3 0 12 -24t18.5 -58.5t15 -69.5t5.5 -59v-15q-9 -28 -20 -52t-25.5 -42t-32.5 -29.5t-42 -12.5h-8q-26 0 -52.5 11.5t-40.5 43.5q-9 -16 -19.5 -30.5t-26.5 -25t-35 -15.5t-41 -5q-7 0 -16 1q-40 5 -62.5 23t-32 42.5t-9.5 51.5q0 2 0.5 17t6 42.5t13.5 50
t13 34.5l30 -13q0 -1 -2 -9q-1 -4 -2 -9q-5 -26 -5 -48q0 -25 9.5 -55t51.5 -38q28 3 47.5 19.5t32 40.5t20.5 53t14 57l40 4q0 -11 -0.5 -21t-1.5 -21t-3 -24.5t-5 -31.5q7 -23 24.5 -37.5t43.5 -14.5h4q6 0 19.5 1t28.5 5.5t28 13t17 23.5q0 19 -8 43t-18.5 46.5t-20 39.5
t-13.5 22q11 20 21 37q8 14 16 26t11 12z" />
    <glyph glyph-name="uniFE7E" unicode="&#xfe7e;" arabic-form="isolated" 
d="M188 1414q22 0 48.5 -13t50.5 -38.5t41.5 -63.5t19.5 -89v-4q0 -36 -16.5 -66t-42 -52.5t-54 -34.5t-49.5 -12q-35 1 -63 17t-47.5 41t-30 55t-10.5 59q0 47 16.5 84.5t40 63.5t50 39.5t46.5 13.5zM183 1142q51 2 84.5 23.5t45.5 44.5v2q0 5 -8.5 20.5t-27 33.5t-46 32.5
t-61.5 14.5q-13 0 -30 -5t-32 -15.5t-25 -25.5t-10 -35q24 -90 103 -90h7z" />
    <glyph glyph-name="uniFC5E" unicode="&#xfc5e;" arabic-form="isolated" 
d="M351 1413q3 0 12 -24t18.5 -58.5t15 -69.5t5.5 -59v-15q-9 -28 -20 -52t-25.5 -42t-32.5 -29.5t-42 -12.5h-8q-26 0 -52.5 11.5t-40.5 43.5q-9 -16 -19.5 -30.5t-26.5 -25t-35 -15.5t-41 -5q-7 0 -16 1q-40 5 -62.5 23t-32 42.5t-9.5 51.5q0 2 0.5 17t6 42.5t13.5 50
t13 34.5l30 -13q0 -1 -2 -9q-1 -4 -2 -9q-5 -26 -5 -48q0 -25 9.5 -55t51.5 -38q28 3 47.5 19.5t32 40.5t20.5 53t14 57l40 4q0 -11 -0.5 -21t-1.5 -21t-3 -24.5t-5 -31.5q7 -23 24.5 -37.5t43.5 -14.5h4q6 0 19.5 1t28.5 5.5t28 13t17 23.5q0 19 -8 43t-18.5 46.5t-20 39.5
t-13.5 22q11 20 21 37q8 14 16 26t11 12zM359 1574l-33 4q-26 -37 -62.5 -66t-79.5 -49.5t-89.5 -31t-92.5 -10.5h-23t-11 1l-3 6q16 39 22.5 72t6.5 56q0 53 -23 53q-14 0 -50.5 -13t-79.5 -36l-5 4l17 95q15 9 34 18t37 16.5t33 12.5t23 5q19 0 32 -9.5t21 -26t11 -38
t3 -45.5q0 -21 -1.5 -42t-6.5 -40h6q18 0 44 5t57 16t61 26.5t53 34.5q-51 12 -83.5 26.5t-51.5 31.5t-26 37t-7 43q0 30 14 60t38 54.5t55.5 40t65.5 15.5q31 0 51.5 -15.5t32.5 -40.5t17 -55t5 -59q0 -20 -2 -39t-7 -36q11 -2 23 -2.5t25 -1.5zM154 1774q0 -8 5.5 -21.5
t22 -28.5t47.5 -30.5t83 -27.5q4 7 5 14t1 15q0 26 -7.5 49t-20 40t-29.5 27t-35 10q-30 0 -51 -15t-21 -32z" />
    <glyph glyph-name="uniFC5F" unicode="&#xfc5f;" arabic-form="isolated" 
d="M351 1413q3 0 12 -24t18.5 -58.5t15 -69.5t5.5 -59v-15q-9 -28 -20 -52t-25.5 -42t-32.5 -29.5t-42 -12.5h-8q-26 0 -52.5 11.5t-40.5 43.5q-9 -16 -19.5 -30.5t-26.5 -25t-35 -15.5t-41 -5q-7 0 -16 1q-40 5 -62.5 23t-32 42.5t-9.5 51.5q0 2 0.5 17t6 42.5t13.5 50
t13 34.5l30 -13q0 -1 -2 -9q-1 -4 -2 -9q-5 -26 -5 -48q0 -25 9.5 -55t51.5 -38q28 3 47.5 19.5t32 40.5t20.5 53t14 57l40 4q0 -11 -0.5 -21t-1.5 -21t-3 -24.5t-5 -31.5q7 -23 24.5 -37.5t43.5 -14.5h4q6 0 19.5 1t28.5 5.5t28 13t17 23.5q0 19 -8 43t-18.5 46.5t-20 39.5
t-13.5 22q11 20 21 37q8 14 16 26t11 12zM374 650l-392 -160v102l392 155v-97zM374 891l-392 -161v102l392 154v-95z" />
    <glyph glyph-name="uniFC60" unicode="&#xfc60;" arabic-form="isolated" 
d="M351 1413q3 0 12 -24t18.5 -58.5t15 -69.5t5.5 -59v-15q-9 -28 -20 -52t-25.5 -42t-32.5 -29.5t-42 -12.5h-8q-26 0 -52.5 11.5t-40.5 43.5q-9 -16 -19.5 -30.5t-26.5 -25t-35 -15.5t-41 -5q-7 0 -16 1q-40 5 -62.5 23t-32 42.5t-9.5 51.5q0 2 0.5 17t6 42.5t13.5 50
t13 34.5l30 -13q0 -1 -2 -9q-1 -4 -2 -9q-5 -26 -5 -48q0 -25 9.5 -55t51.5 -38q28 3 47.5 19.5t32 40.5t20.5 53t14 57l40 4q0 -11 -0.5 -21t-1.5 -21t-3 -24.5t-5 -31.5q7 -23 24.5 -37.5t43.5 -14.5h4q6 0 19.5 1t28.5 5.5t28 13t17 23.5q0 19 -8 43t-18.5 46.5t-20 39.5
t-13.5 22q11 20 21 37q8 14 16 26t11 12zM359 1563l-392 -160v102l392 155v-97z" />
    <glyph glyph-name="uniFC61" unicode="&#xfc61;" arabic-form="isolated" 
d="M351 1413q3 0 12 -24t18.5 -58.5t15 -69.5t5.5 -59v-15q-9 -28 -20 -52t-25.5 -42t-32.5 -29.5t-42 -12.5h-8q-26 0 -52.5 11.5t-40.5 43.5q-9 -16 -19.5 -30.5t-26.5 -25t-35 -15.5t-41 -5q-7 0 -16 1q-40 5 -62.5 23t-32 42.5t-9.5 51.5q0 2 0.5 17t6 42.5t13.5 50
t13 34.5l30 -13q0 -1 -2 -9q-1 -4 -2 -9q-5 -26 -5 -48q0 -25 9.5 -55t51.5 -38q28 3 47.5 19.5t32 40.5t20.5 53t14 57l40 4q0 -11 -0.5 -21t-1.5 -21t-3 -24.5t-5 -31.5q7 -23 24.5 -37.5t43.5 -14.5h4q6 0 19.5 1t28.5 5.5t28 13t17 23.5q0 19 -8 43t-18.5 46.5t-20 39.5
t-13.5 22q11 20 21 37q8 14 16 26t11 12zM134 1736q0 -34 43.5 -58.5t118.5 -38.5q3 12 3 23q0 22 -7.5 45t-20 41.5t-29 30t-33.5 11.5q-15 0 -28.5 -5t-24 -12.5t-16.5 -17.5t-6 -19zM35 1375q-5 -1 -13 -1q-7 0 -22.5 1.5t-36.5 6.5t-38 11t-21 12q43 17 88.5 35.5t88 38
t81 39.5t67.5 41q-78 15 -117 45t-39 88q0 37 16 69.5t41 56.5t56.5 38t61.5 14q29 0 50 -15t34 -39t19 -54.5t6.5 -47t0.5 -19.5q0 -28 -5 -55t-14 -46q-20 -42 -55 -76t-77 -61t-87 -47t-85 -35z" />
    <glyph glyph-name="uniFC62" unicode="&#xfc62;" arabic-form="isolated" 
d="M351 1413q3 0 12 -24t18.5 -58.5t15 -69.5t5.5 -59v-15q-9 -28 -20 -52t-25.5 -42t-32.5 -29.5t-42 -12.5h-8q-26 0 -52.5 11.5t-40.5 43.5q-9 -16 -19.5 -30.5t-26.5 -25t-35 -15.5t-41 -5q-7 0 -16 1q-40 5 -62.5 23t-32 42.5t-9.5 51.5q0 2 0.5 17t6 42.5t13.5 50
t13 34.5l30 -13q0 -1 -2 -9q-1 -4 -2 -9q-5 -26 -5 -48q0 -25 9.5 -55t51.5 -38q28 3 47.5 19.5t32 40.5t20.5 53t14 57l40 4q0 -11 -0.5 -21t-1.5 -21t-3 -24.5t-5 -31.5q7 -23 24.5 -37.5t43.5 -14.5h4q6 0 19.5 1t28.5 5.5t28 13t17 23.5q0 19 -8 43t-18.5 46.5t-20 39.5
t-13.5 22q11 20 21 37q8 14 16 26t11 12zM372 903l-392 -160v102l392 155v-97z" />
    <glyph glyph-name="uniFC63" unicode="&#xfc63;" arabic-form="isolated" 
d="M351 1413q3 0 12 -24t18.5 -58.5t15 -69.5t5.5 -59v-15q-9 -28 -20 -52t-25.5 -42t-32.5 -29.5t-42 -12.5h-8q-26 0 -52.5 11.5t-40.5 43.5q-9 -16 -19.5 -30.5t-26.5 -25t-35 -15.5t-41 -5q-7 0 -16 1q-40 5 -62.5 23t-32 42.5t-9.5 51.5q0 2 0.5 17t6 42.5t13.5 50
t13 34.5l30 -13q0 -1 -2 -9q-1 -4 -2 -9q-5 -26 -5 -48q0 -25 9.5 -55t51.5 -38q28 3 47.5 19.5t32 40.5t20.5 53t14 57l40 4q0 -11 -0.5 -21t-1.5 -21t-3 -24.5t-5 -31.5q7 -23 24.5 -37.5t43.5 -14.5h4q6 0 19.5 1t28.5 5.5t28 13t17 23.5q0 19 -8 43t-18.5 46.5t-20 39.5
t-13.5 22q11 20 21 37q8 14 16 26t11 12zM145 1397q-1 37 -3.5 81.5t-6.5 90.5t-7.5 91t-7.5 82t-6.5 64t-3.5 37q7 4 23.5 13.5t34 19t32 17t18.5 7.5q2 0 3 -7q0 -4 1 -7q0 -12 -0.5 -39.5t-1.5 -64t-2.5 -78t-3.5 -81.5t-4.5 -76t-5.5 -60q-3 -13 -12.5 -29t-20 -29.5
t-26.5 -31.5z" />
    <glyph glyph-name=".notdef" horiz-adv-x="1229" 
d="M102 -362v1806h1024v-1806h-1024zM217 -248h795v1577h-795v-1577z" />
    <glyph glyph-name=".null" unicode="&#xfeff;" 
 />
    <glyph glyph-name=".null" 
 />
    <glyph glyph-name="nonmarkingreturn" horiz-adv-x="602" 
 />
    <glyph glyph-name="space" unicode=" " horiz-adv-x="696" 
 />
    <glyph glyph-name="space" unicode="&#xa0;" horiz-adv-x="696" 
 />
    <glyph glyph-name="uni0640" unicode="&#x640;" horiz-adv-x="671" 
d="M681 164v-164h-701v164h701z" />
    <glyph glyph-name="uni066E" unicode="&#x66e;" horiz-adv-x="1949" 
d="M1755 878q5 0 20.5 -26t34 -73t35 -113t21 -123t4.5 -94q0 -48 -6.5 -120t-37.5 -170q-42 -31 -107.5 -57t-142.5 -47t-161.5 -36.5t-164.5 -26t-151 -15.5t-122 -5q-65 0 -145 2.5t-163.5 13t-165.5 32t-151.5 60t-120.5 97t-68.5 126.5t-17.5 131q0 38 9 115t68 223
l73 -37q-40 -106 -45.5 -160t-5.5 -78q0 -51 14.5 -103t53.5 -95.5t93.5 -72.5t120.5 -46.5t138 -26t146 -11t143 -2.5q43 0 109.5 3.5t144.5 10t161 17.5t159.5 26.5t139 35t100.5 44.5q2 10 2 23q0 12 -2.5 36t-11 63.5t-21 83.5t-26.5 87t-28.5 81.5t-27.5 66.5z" />
    <glyph glyph-name="feh_dotless.isol" horiz-adv-x="1982" 
d="M1893 536q5 -43 5 -82q0 -67 -21 -138.5t-79.5 -134t-145.5 -103t-194 -64.5t-229.5 -33t-252.5 -9q-65 0 -145 2.5t-163.5 13t-165.5 32t-151.5 60t-120.5 97t-68.5 126.5t-17.5 131q0 38 9 115t68 223l73 -37q-37 -107 -41 -159t-4 -72q0 -56 15.5 -109.5t54 -97
t92 -72t119 -45.5t136.5 -25.5t144 -10.5t142 -2q101 0 203.5 3t197 13t176.5 27.5t141.5 46.5t91 69.5t31.5 92.5v10q-28 -11 -65 -17q-32 -5 -62 -7t-46 -2q-33 0 -71 4q-72 7 -127 25.5t-92.5 51t-57.5 80.5t-21 115q1 13 7 46.5t19 76t35 89t55.5 85t80 64t108.5 26.5
q54 0 98.5 -23.5t80 -63.5t62.5 -91.5t46.5 -107.5t31.5 -113t18 -106zM1568 528q50 -4 87 -4q8 0 32 0.5t50 5.5q31 4 50 13q-2 12 -9 43.5t-20 71t-32.5 82.5t-47 79t-64 59t-82.5 23q-32 0 -58 -11t-47 -28.5t-36.5 -40t-26.5 -45.5q-26 -55 -39 -125q14 -29 46 -55
q26 -22 73.5 -42t123.5 -26z" />
    <glyph glyph-name="uni06A1.fina" horiz-adv-x="2048" 
d="M2058 164v-164h-54q-111 0 -183.5 10.5t-117.5 23.5q-52 15 -81 34q-48 -28 -134 -49q-74 -19 -198.5 -34t-312.5 -15q-65 0 -145 2.5t-163.5 13t-165.5 32t-151.5 60t-120.5 97t-68.5 126.5t-17.5 131q0 38 9 115t68 223l73 -37q-37 -107 -41 -159t-4 -72
q0 -56 15.5 -109.5t54 -97t92 -72t119 -45.5t136.5 -25.5t144 -10.5t142 -2q131 0 222 6.5t151 14.5q69 10 114 22q-28 23 -51 58q-20 30 -38.5 76.5t-25.5 112.5q0 40 8 84.5t24.5 89t41 85t58 71t76 49t93.5 18.5q71 0 123.5 -39.5t87.5 -99t53.5 -129t21.5 -129.5
q-3 -65 -20.5 -112t-37.5 -77q-24 -36 -53 -59q10 -5 35 -9q21 -4 60.5 -6.5t105.5 -2.5h56zM1624 241q34 13 69 32t64 43.5t49 53t25 60.5q-3 41 -21 85t-46 81t-64 60.5t-76 23.5q-46 0 -85 -24.5t-67.5 -62t-45.5 -81.5t-19 -82q6 -35 27 -64.5t51 -53.5t66.5 -41.5
t72.5 -29.5z" />
    <glyph glyph-name="uni066F" unicode="&#x66f;" horiz-adv-x="1457" 
d="M1084 154q51 0 94 6.5t71 14.5q0 24 -6 64.5t-19 87t-33 94t-49.5 86t-68 63t-87.5 24.5h-2q-39 0 -70 -17.5t-55 -44.5t-41.5 -59t-28 -62t-14 -49t-3.5 -28q0 -5 1 -8q13 -51 45.5 -84t75.5 -52.5t92.5 -27.5t97.5 -8zM1022 756q72 0 125.5 -39.5t91.5 -103t63 -143
t39.5 -160t20 -154t5.5 -124.5q0 -150 -43 -270t-128 -204t-211 -129t-292 -45q-180 0 -310 66t-182 184.5t-52 259.5q0 49 13 180.5t136 417.5l66 -39q-38 -107 -68.5 -214t-39.5 -180.5t-9 -118.5q0 -47 9.5 -111.5t57.5 -127.5t137.5 -99t232.5 -36q114 0 201 18.5
t151.5 51t108 76.5t69.5 94t37.5 104t11.5 107q-45 -9 -91.5 -13.5t-91.5 -4.5q-75 0 -143.5 15.5t-121 53t-84.5 99.5t-34 155v6q0 28 8.5 69.5t27 90t46 96.5t63.5 86t81 62t99 24z" />
    <glyph glyph-name="onedot.above" 
d="M0 789l-149 149l149 148l148 -149z" />
    <glyph glyph-name="twodots.above" 
d="M180 790l-142 142l142 142l142 -142zM-180 790l-142 142l142 142l142 -142z" />
    <glyph glyph-name="threedots.above" 
d="M0 1419l-134 134l134 134l134 -134zM175 1136l-134 134l134 134l134 -134zM-175 1136l-134 134l134 134l134 -134z" />
    <glyph glyph-name="threedots.below" 
d="M134 -591l-134 -134l-134 134l134 134zM309 -308l-134 -134l-134 134l134 134zM-41 -308l-134 -134l-134 134l134 134z" />
    <glyph glyph-name="uni0660" unicode="&#x660;" horiz-adv-x="861" 
d="M430 259q-54 0 -101.5 20.5t-83.5 56.5t-56.5 83.5t-20.5 101.5t20.5 101.5t56.5 83.5t83.5 56.5t101.5 20.5t101.5 -20.5t83.5 -56.5t56.5 -83.5t20.5 -101.5t-20.5 -101.5t-56.5 -83.5t-83.5 -56.5t-101.5 -20.5zM430 677q-32 0 -60.5 -12.5t-49.5 -33.5t-33.5 -49.5
t-12.5 -60.5t12.5 -60.5t33.5 -49.5t49.5 -33.5t60.5 -12.5t60.5 12.5t49.5 33.5t33.5 49.5t12.5 60.5t-12.5 60.5t-33.5 49.5t-49.5 33.5t-60.5 12.5z" />
    <glyph glyph-name="uni0661" unicode="&#x661;" horiz-adv-x="762" 
d="M476 -22q-2 157 -23 325.5t-64.5 339.5t-111.5 341.5t-162 332.5l137 151q2 -1 25 -42t56.5 -113.5t72 -172.5t71.5 -218t55 -250t22 -269q0 -89 -5.5 -164t-12.5 -129q-8 -64 -17 -115z" />
    <glyph glyph-name="uni0662" unicode="&#x662;" horiz-adv-x="1149" 
d="M1042 1447q4 -41 4 -84q0 -29 -3 -80t-19 -119.5t-43.5 -129.5t-68.5 -107t-96 -72.5t-125 -26.5h-17q-40 0 -85 8t-87 27q26 -106 43 -220t17 -232q0 -89 -5.5 -164t-12.5 -129q-8 -64 -18 -115l-42 -17q-2 157 -23.5 325.5t-65 339.5t-111 341.5t-162.5 332.5l138 151
q2 -1 28 -48t64 -131q30 -62 64 -118t76 -97.5t92 -64.5t110 -23h10q76 0 127.5 39t83 101t44.5 138t13 150z" />
    <glyph glyph-name="uni0663" unicode="&#x663;" horiz-adv-x="1439" 
d="M1328 1437q9 -68 10.5 -113.5t1.5 -63.5q0 -53 -6.5 -113.5t-25.5 -121.5t-52 -107t-81.5 -73t-115.5 -27q-27 0 -55 10.5t-52.5 30t-45 46.5t-33.5 61q-35 -67 -90 -107.5t-134 -40.5h-19q-13 0 -29 1t-34 5.5t-36 12t-39 16.5q26 -106 42.5 -220t16.5 -232
q0 -89 -5.5 -164t-12.5 -129q-8 -64 -17 -115l-43 -17q-2 157 -23 325.5t-64.5 339.5t-111 341.5t-162.5 332.5l137 151q2 -1 29.5 -50t66.5 -137q28 -61 54.5 -114.5t60 -93.5t79 -63.5t110.5 -23.5q72 0 114.5 39t64.5 101t28 138t6 150l71 25q9 -69 9 -141q0 -19 -2 -75
t-23 -139q11 -20 24.5 -37.5t30.5 -31t38.5 -21.5t48.5 -8q72 0 113 37t61 97t22.5 119t2.5 102q0 36 -1 73z" />
    <glyph glyph-name="uni0664" unicode="&#x664;" horiz-adv-x="1346" 
d="M837 1490q40 0 81.5 -10t81.5 -34t76.5 -62.5t68.5 -95.5l-40 -27q-25 19 -58 34q-29 13 -71.5 24t-99.5 11q-5 0 -10.5 -0.5t-10.5 -0.5q-33 -1 -79 -22t-93 -60t-88.5 -96t-66.5 -129q10 -24 47.5 -54t88.5 -56t110 -44t112 -18q92 0 151 9.5t95 22.5t54.5 26.5
t29.5 21.5l-26 -159q-22 -11 -52 -24.5t-67.5 -26t-83.5 -22.5t-101 -13q-106 0 -198 29.5t-176 84.5q21 -95 33.5 -195t12.5 -203q0 -89 -5.5 -164t-12.5 -129q-8 -64 -17 -115l-43 -16q-2 157 -23 325.5t-64.5 339.5t-111.5 341.5t-162 332.5l137 151q1 -1 16 -26.5
t38 -72t52 -112t58 -145.5q18 40 44 83.5t58 85t69 79t75.5 66t77.5 46t76 19.5h17z" />
    <glyph glyph-name="uni0665" unicode="&#x665;" horiz-adv-x="1320" 
d="M546 1571q2 -2 29.5 -26.5t71.5 -67.5t100 -103t115.5 -133t117.5 -158t105.5 -177t80.5 -190.5t42 -198.5q-5 -125 -15.5 -225t-41 -171t-89.5 -109t-160 -38q-20 0 -51.5 7.5t-64.5 29.5t-62.5 61.5t-46.5 104.5q-26 -65 -60 -105t-71.5 -62t-76 -29t-74.5 -7
q-99 0 -159.5 46t-90.5 122t-31.5 130t-1.5 66q0 85 16 174q28 126 68 240.5t87.5 219.5t99.5 202t106 189l-38 27q7 15 22 45.5t30.5 60.5t28 52.5t14.5 22.5zM392 140q63 0 107.5 29.5t75.5 75.5t51 100t34 104l92 -8q-2 -38 -10 -71.5t-17 -67.5q12 -38 31.5 -68
t44.5 -51t54 -32.5t61 -11.5q46 0 82.5 15.5t64.5 44.5t46.5 70t27.5 92q-8 85 -41.5 176t-82.5 182t-108 177t-117.5 159t-111.5 130t-90 90q-58 -90 -121.5 -191t-120 -207t-98.5 -214t-57 -212q0 -23 2 -55t8.5 -66.5t19.5 -68.5t35.5 -61t56 -43.5t81.5 -16.5z" />
    <glyph glyph-name="uni0666" unicode="&#x666;" horiz-adv-x="1069" 
d="M572 1512q33 0 65 -6.5t64.5 -23.5t65.5 -45.5t68 -73.5l-34 -40q-7 3 -20 8t-33 10t-47 9t-60 4q-69 0 -126.5 -20.5t-103.5 -58t-79 -90.5t-52 -119q5 -25 29.5 -58.5t66.5 -63.5t101.5 -50.5t133.5 -20.5q32 0 67.5 4.5t73.5 15.5q25 12 62.5 28.5t75.5 33t71.5 30
t51.5 19.5l-37 -201q-159 -53 -318 -159q-67 -48 -140 -111t-145.5 -145.5t-143 -186t-131.5 -232.5l-35 31q23 122 63 227.5t93 195t116.5 164t134.5 136.5q-40 6 -89 27.5t-94 56.5t-80.5 82.5t-48.5 104.5q1 56 16.5 116t43 117.5t65 109.5t83 90.5t97.5 61.5t109 23z
" />
    <glyph glyph-name="uni0667" unicode="&#x667;" horiz-adv-x="1313" 
d="M1227 1336q-137 -177 -235 -356.5t-162 -351t-96.5 -330t-38.5 -294.5v-3h-79q-6 136 -38.5 295t-96 330.5t-162 351.5t-236.5 358l117 166q1 -1 32 -39t77 -108.5t101 -170t105.5 -224.5t88.5 -272t51 -312q13 165 51.5 312t88.5 272t105.5 224.5t101.5 170t77 108.5
t32 39z" />
    <glyph glyph-name="uni0668" unicode="&#x668;" horiz-adv-x="1313" 
d="M696 1491q6 -136 38.5 -295t96.5 -331t162 -352t236 -358l-116 -165q-1 1 -32 39t-77 108.5t-101.5 170t-105.5 224.5t-88.5 272t-51.5 312q-13 -165 -51.5 -312t-88.5 -272t-105.5 -224.5t-101.5 -170t-77 -108.5t-32 -39l-116 165q137 178 235 357.5t162 351t97 330
t39 294.5l-1 3h79z" />
    <glyph glyph-name="uni0669" unicode="&#x669;" horiz-adv-x="1089" 
d="M455 877q53 0 91.5 4t64.5 9q30 6 51 14q-3 17 -10 54.5t-20 83t-32.5 94t-48 89t-66 66t-86.5 25.5q-38 0 -70 -19t-57 -48.5t-43.5 -64.5t-30 -67t-16 -53.5t-4.5 -30.5q0 -4 1 -6q5 -24 26 -50t54.5 -48t79.5 -36.5t100 -15.5h16zM438 1494q71 -5 122.5 -43.5t87 -98
t58 -133.5t35.5 -149.5t19 -146t9 -123.5q10 -121 32 -217.5t51.5 -170t63.5 -126t68 -85.5l-60 -218q-62 70 -108 161.5t-76.5 191.5t-46.5 201t-19 190q-27 -9 -59 -15q-27 -6 -63 -10.5t-78 -4.5h-17t-18 1q-36 2 -75.5 11.5t-77.5 28t-71 46t-55.5 65t-29.5 74t-7 63.5
q0 28 5 60q2 24 10.5 66.5t24.5 92.5t40.5 101.5t58 93t77.5 68t99 26.5z" />
    <glyph glyph-name="uni06F4" unicode="&#x6f4;" horiz-adv-x="1346" 
d="M837 1490q40 0 81.5 -10t81.5 -34t76.5 -62.5t68.5 -95.5l-40 -27q-25 19 -58 34q-29 13 -71.5 24t-99.5 11q-5 0 -10.5 -0.5t-10.5 -0.5q-33 -1 -79 -22t-93 -60t-88.5 -96t-66.5 -129q10 -24 47.5 -54t88.5 -56t110 -44t112 -18q92 0 151 9.5t95 22.5t54.5 26.5
t29.5 21.5l-26 -159q-22 -11 -52 -24.5t-67.5 -26t-83.5 -22.5t-101 -13q-106 0 -198 29.5t-176 84.5q21 -95 33.5 -195t12.5 -203q0 -89 -5.5 -164t-12.5 -129q-8 -64 -17 -115l-43 -16q-2 157 -23 325.5t-64.5 339.5t-111.5 341.5t-162 332.5l137 151q1 -1 16 -26.5
t38 -72t52 -112t58 -145.5q18 40 44 83.5t58 85t69 79t75.5 66t77.5 46t76 19.5h17z" />
    <glyph glyph-name="uni06F5" unicode="&#x6f5;" horiz-adv-x="1320" 
d="M546 1571q2 -2 29.5 -26.5t71.5 -67.5t100 -103t115.5 -133t117.5 -158t105.5 -177t80.5 -190.5t42 -198.5q-5 -125 -15.5 -225t-41 -171t-89.5 -109t-160 -38q-20 0 -51.5 7.5t-64.5 29.5t-62.5 61.5t-46.5 104.5q-26 -65 -60 -105t-71.5 -62t-76 -29t-74.5 -7
q-99 0 -159.5 46t-90.5 122t-31.5 130t-1.5 66q0 85 16 174q28 126 68 240.5t87.5 219.5t99.5 202t106 189l-38 27q7 15 22 45.5t30.5 60.5t28 52.5t14.5 22.5zM392 140q63 0 107.5 29.5t75.5 75.5t51 100t34 104l92 -8q-2 -38 -10 -71.5t-17 -67.5q12 -38 31.5 -68
t44.5 -51t54 -32.5t61 -11.5q46 0 82.5 15.5t64.5 44.5t46.5 70t27.5 92q-8 85 -41.5 176t-82.5 182t-108 177t-117.5 159t-111.5 130t-90 90q-58 -90 -121.5 -191t-120 -207t-98.5 -214t-57 -212q0 -23 2 -55t8.5 -66.5t19.5 -68.5t35.5 -61t56 -43.5t81.5 -16.5z" />
    <glyph glyph-name="uni06F6" unicode="&#x6f6;" horiz-adv-x="1069" 
d="M572 1512q33 0 65 -6.5t64.5 -23.5t65.5 -45.5t68 -73.5l-34 -40q-7 3 -20 8t-33 10t-47 9t-60 4q-69 0 -126.5 -20.5t-103.5 -58t-79 -90.5t-52 -119q5 -25 29.5 -58.5t66.5 -63.5t101.5 -50.5t133.5 -20.5q32 0 67.5 4.5t73.5 15.5q25 12 62.5 28.5t75.5 33t71.5 30
t51.5 19.5l-37 -201q-159 -53 -318 -159q-67 -48 -140 -111t-145.5 -145.5t-143 -186t-131.5 -232.5l-35 31q23 122 63 227.5t93 195t116.5 164t134.5 136.5q-40 6 -89 27.5t-94 56.5t-80.5 82.5t-48.5 104.5q1 56 16.5 116t43 117.5t65 109.5t83 90.5t97.5 61.5t109 23z
" />
    <glyph glyph-name="uni066A" unicode="&#x66a;" horiz-adv-x="1042" 
d="M936 198l-172 -172l-175 173l173 174zM462 1111l-172 -172l-175 173l173 174zM801 1340q7 -20 12.5 -42t11.5 -44t12 -42.5t14 -36.5l-605 -1219l-67 140q165 343 318 656t304 588z" />
    <glyph glyph-name="uni061F" unicode="&#x61f;" horiz-adv-x="944" 
d="M743 133l-133 -133l-134 134l133 133zM528 1566q77 0 135 -22t98 -56.5t63 -77t29 -82.5l-79 -42q-2 7 -5.5 18t-9 24.5t-13 28t-16.5 27.5q-12 17 -29 34t-40.5 30.5t-55.5 22t-74 8.5q-66 0 -112.5 -24.5t-72.5 -84.5q-33 -75 -33 -197q0 -18 13 -41t35.5 -50t53.5 -58
l66 -66l38 -38q22 -22 39 -39.5t29 -33t20.5 -30.5t13.5 -33q6 -19 8.5 -42.5t4 -55t1.5 -72.5v-96q-1 -25 -1 -57.5v-62.5h-49q-1 78 -13 131.5t-34.5 95t-56 76t-77.5 74.5q-11 11 -23 21.5t-24 21.5q-71 64 -116 108t-70.5 82.5t-35.5 79t-10 99.5q0 76 29.5 143.5
t86.5 119.5q57 51 130.5 83.5t156.5 32.5z" />
    <glyph glyph-name="uni060C" unicode="&#x60c;" horiz-adv-x="580" 
d="M418 511q-60 -48 -106 -113.5t-57 -143.5q25 10 38 13t32 3q30 0 56.5 -12t47 -32t32 -47t11.5 -57q0 -36 -11.5 -62t-31.5 -43t-46.5 -25.5t-57.5 -8.5h-2q-42 0 -76 17t-57.5 45.5t-34 63t-10.5 69.5v12q3 52 21 103t47 97.5t66 87t79 70.5z" />
    <glyph glyph-name="uni061B" unicode="&#x61b;" horiz-adv-x="574" 
d="M311 269q30 0 56.5 -11.5t46 -31t31 -46t11.5 -56.5t-11.5 -56.5t-31.5 -46t-46 -30.5t-56 -11t-56.5 11t-46 30.5t-30.5 46t-11 56.5t11 56t30.5 46t46 31.5t56.5 11.5zM418 1061q-60 -48 -106 -113.5t-57 -143.5q25 10 38 13t32 3q30 0 56.5 -12t47 -32t32 -47
t11.5 -57q0 -36 -11.5 -62t-31.5 -43t-46.5 -25.5t-57.5 -8.5h-2q-42 0 -76 17t-57.5 45.5t-34 63t-10.5 69.5v12q3 52 21 103t47 97.5t66 87t79 70.5z" />
    <glyph glyph-name="uni066B" unicode="&#x66b;" horiz-adv-x="777" 
d="M222 -85h-123l473 1084h122z" />
    <glyph glyph-name="uni066C" unicode="&#x66c;" horiz-adv-x="519" 
d="M220 -281h-92l94 480h159z" />
    <glyph glyph-name="uni066D" unicode="&#x66d;" horiz-adv-x="965" 
d="M571 762l345 18l-291 -190l121 -323l-268 217l-266 -217l121 323l-287 190l343 -18l91 334z" />
    <glyph glyph-name="uni064B" unicode="&#x64b;" 
d="M-44 991v102l392 155v-97zM-44 1231v102l392 154v-95z" />
    <glyph glyph-name="uni064D" unicode="&#x64d;" 
d="M352 -523l-392 -160v102l392 155v-97zM352 -282l-392 -161v102l392 154v-95z" />
    <glyph glyph-name="uni064E" unicode="&#x64e;" 
d="M394 1187l-392 -160v102l392 155v-97z" />
    <glyph glyph-name="uni064F" unicode="&#x64f;" 
d="M110 1337q0 -34 43.5 -58.5t118.5 -38.5q3 12 3 23q0 22 -7.5 45t-20 41.5t-29 30t-33.5 11.5q-15 0 -28.5 -5t-24 -12.5t-16.5 -17.5t-6 -19zM11 976q-5 -1 -13 -1q-7 0 -22.5 1.5t-36.5 6.5t-38 11t-21 12q43 17 88.5 35.5t88 38t81 39.5t67.5 41q-78 15 -117 45
t-39 88q0 37 16 69.5t41 56.5t56.5 38t61.5 14q29 0 50 -15t34 -39t19 -54.5t6.5 -47t0.5 -19.5q0 -28 -5 -55t-14 -46q-20 -42 -55 -76t-77 -61t-87 -47t-85 -35z" />
    <glyph glyph-name="uni064C" unicode="&#x64c;" 
d="M359 1128l-33 4q-26 -37 -62.5 -66t-79.5 -49.5t-89.5 -31t-92.5 -10.5h-23t-11 1l-3 6q16 39 22.5 72t6.5 56q0 53 -23 53q-14 0 -50.5 -13t-79.5 -36l-5 4l17 95q15 9 34 18t37 16.5t33 12.5t23 5q19 0 32 -9.5t21 -26t11 -38t3 -45.5q0 -21 -1.5 -42t-6.5 -40h6
q18 0 44 5t57 16t61 26.5t53 34.5q-51 12 -83.5 26.5t-51.5 31.5t-26 37t-7 43q0 30 14 60t38 54.5t55.5 40t65.5 15.5q31 0 51.5 -15.5t32.5 -40.5t17 -55t5 -59q0 -20 -2 -39t-7 -36q11 -2 23 -2.5t25 -1.5zM154 1328q0 -8 5.5 -21.5t22 -28.5t47.5 -30.5t83 -27.5
q4 7 5 14t1 15q0 26 -7.5 49t-20 40t-29.5 27t-35 10q-30 0 -51 -15t-21 -32z" />
    <glyph glyph-name="uni0650" unicode="&#x650;" 
d="M392 -339l-392 -160v102l392 155v-97z" />
    <glyph glyph-name="uni0651" unicode="&#x651;" 
d="M351 1413q3 0 12 -24t18.5 -58.5t15 -69.5t5.5 -59v-15q-9 -28 -20 -52t-25.5 -42t-32.5 -29.5t-42 -12.5h-8q-26 0 -52.5 11.5t-40.5 43.5q-9 -16 -19.5 -30.5t-26.5 -25t-35 -15.5t-41 -5q-7 0 -16 1q-40 5 -62.5 23t-32 42.5t-9.5 51.5q0 2 0.5 17t6 42.5t13.5 50
t13 34.5l30 -13q0 -1 -2 -9q-1 -4 -2 -9q-5 -26 -5 -48q0 -25 9.5 -55t51.5 -38q28 3 47.5 19.5t32 40.5t20.5 53t14 57l40 4q0 -11 -0.5 -21t-1.5 -21t-3 -24.5t-5 -31.5q7 -23 24.5 -37.5t43.5 -14.5h4q6 0 19.5 1t28.5 5.5t28 13t17 23.5q0 19 -8 43t-18.5 46.5t-20 39.5
t-13.5 22q11 20 21 37q8 14 16 26t11 12z" />
    <glyph glyph-name="uni0652" unicode="&#x652;" 
d="M188 1414q22 0 48.5 -13t50.5 -38.5t41.5 -63.5t19.5 -89v-4q0 -36 -16.5 -66t-42 -52.5t-54 -34.5t-49.5 -12q-35 1 -63 17t-47.5 41t-30 55t-10.5 59q0 47 16.5 84.5t40 63.5t50 39.5t46.5 13.5zM183 1142q51 2 84.5 23.5t45.5 44.5v2q0 5 -8.5 20.5t-27 33.5t-46 32.5
t-61.5 14.5q-13 0 -30 -5t-32 -15.5t-25 -25.5t-10 -35q24 -90 103 -90h7z" />
    <glyph glyph-name="uni0653" unicode="&#x653;" 
d="M497 1495q-12 -20 -33.5 -46t-52 -51t-68.5 -43.5t-83 -23.5q-23 -3 -49 -3q-35 0 -71.5 3.5t-71.5 9t-66.5 12t-55.5 11.5q-43 -23 -69 -54t-44 -57l-24 16q6 29 20 62.5t33 64.5t41.5 55t44.5 34q36 -7 71.5 -14.5t73.5 -14t80.5 -10.5t94.5 -4q36 0 68.5 8.5
t60.5 20.5t49 24.5t34 20.5z" />
    <glyph glyph-name="uni0654" unicode="&#x654;" 
d="M70 1281q-7 4 -22.5 16t-32 31.5t-30 44.5t-15.5 55v6q0 27 18 64t48.5 72.5t68 60t72.5 24.5q51 0 94.5 -24t79.5 -88l-26 -13q-9 5 -42 16t-90 11q-29 0 -56 -13.5t-48 -31t-34 -34.5t-13 -24q0 -8 10 -26t31 -36.5t55 -34.5t82 -20q30 4 53 8t42.5 8t36.5 8.5t35 9.5
q0 -2 -5.5 -22t-21.5 -75q-9 -2 -19.5 -4t-25.5 -5t-36.5 -7.5t-51.5 -11.5q-43 -9 -77 -19t-67.5 -23.5t-70.5 -31.5t-85 -43l27 87z" />
    <glyph glyph-name="uni0655" unicode="&#x655;" 
d="M36 -560l116 65q-7 4 -22.5 16t-32 31.5t-30 44.5t-15.5 55v6q0 27 18 64t48.5 72.5t68 60t72.5 24.5q51 0 94.5 -24t79.5 -88l-26 -13q-9 5 -42 16t-90 11q-29 0 -56 -13.5t-48 -31t-34 -34.5t-13 -24q0 -8 10 -26t31 -36.5t55 -34.5t82 -20q30 4 53 8t42.5 8t36.5 8.5
t35 9.5q0 -2 -5.5 -22t-21.5 -75q-9 -2 -19.5 -4t-25.5 -5t-36.5 -7.5t-51.5 -11.5q-43 -9 -77 -19t-67.5 -23.5t-70.5 -31.5t-85 -43z" />
    <glyph glyph-name="uni0670" unicode="&#x670;" 
d="M25 1003q-1 37 -3.5 81.5t-6.5 90.5t-7.5 91t-7.5 82t-6.5 64t-3.5 37q7 4 23.5 13.5t34 19t32 17t18.5 7.5q2 0 3 -7q0 -4 1 -7q0 -12 -0.5 -39.5t-1.5 -64t-2.5 -78t-3.5 -81.5t-4.5 -76t-5.5 -60q-3 -13 -12.5 -29t-20 -29.5t-26.5 -31.5z" />
    <glyph glyph-name="uni0656" unicode="&#x656;" 
d="M11 -708q-1 37 -3.5 81.5t-6.5 90.5t-7.5 91t-7.5 82t-6.5 64t-3.5 37q7 4 23.5 13.5t34 19t32 17t18.5 7.5q2 0 3 -7q0 -4 1 -7q0 -12 -0.5 -39.5t-1.5 -64t-2.5 -78t-3.5 -81.5t-4.5 -76t-5.5 -60q-3 -13 -12.5 -29t-20 -29.5t-26.5 -31.5z" />
    <glyph glyph-name="uni0615" unicode="&#x615;" 
d="M-249 832q17 -3 37.5 -6.5t41 -6t39.5 -4.5t33 -2l35 62q8 14 12.5 35t6.5 41q3 22 3 47q-1 55 -3 116t-4.5 116.5t-4.5 101t-4 68.5l15 15t20.5 19.5t19.5 16.5t11 7t2.5 -3t1.5 -14q1 -12 2.5 -52.5t2.5 -92t1 -104.5q0 -54 -1 -91q0 -9 -0.5 -27t-3.5 -40.5
t-8.5 -46.5t-15.5 -43q29 37 67 78t79.5 75t83 56.5t77.5 22.5q41 0 68.5 -14t44.5 -36t25 -49t9.5 -47t1.5 -32t-1.5 -29t-4.5 -29l-21 -51q-9 -21 -18 -39t-17 -35q-12 -14 -37 -29t-60.5 -27t-81 -20t-99.5 -9q-26 0 -62.5 0.5t-74.5 2t-73.5 4t-59.5 6.5q-15 8 -32 23
t-31 29q-17 17 -33 35zM383 898q3 9 6.5 27.5t4 30.5t0.5 14q0 20 -4 41t-16 39t-32 28.5t-50 10.5h-6q-40 -1 -78 -18.5t-72 -44t-63.5 -58.5t-53 -62.5t-41 -56.5t-27.5 -39q26 -1 54 -2t47 -1q25 0 54 1q44 0 86 5t79 15.5t66 28t46 41.5z" />
    <glyph glyph-name="wasla" 
d="M354 1399q-5 -28 -25.5 -54t-45.5 -53q-21 -14 -40.5 -20.5t-36 -9t-29.5 -2.5q-2 0 -11 0.5t-21 0.5q-33 3 -65.5 13t-61.5 21t-52 19.5t-36 8.5q-8 0 -19.5 -6t-24 -15.5t-25.5 -21t-23 -21.5l-37 30q54 66 93.5 101t59.5 36l53 -17q61 74 117 114.5t93 40.5h2
q14 0 37 -14.5t44.5 -38t37.5 -53t16 -59.5zM301 1396q-9 16 -22 30.5t-27 25t-27 15.5t-23 5h-3q-31 -3 -65 -26.5t-79 -55.5q10 -5 39.5 -12.5t54 -9.5t37.5 -2q24 0 55.5 4.5t59.5 25.5z" />
    <glyph glyph-name="beh_dotless_alt.init" horiz-adv-x="755" 
d="M528 879q5 0 21 -30t35 -83.5t36 -126.5t22 -137t5 -107q0 -47 -5.5 -119.5t-36.5 -170.5q-30 -27 -85 -47t-129.5 -32.5t-164 -19t-187.5 -6.5h-59v164h55q112 0 204.5 5.5t159 13.5t104.5 17t42 16q1 13 1 26q0 58 -12 126t-31.5 136.5t-41.5 124.5t-37 88q34 56 54 88
t30.5 48t14 20.5t5.5 5.5z" />
    <glyph glyph-name="beh_dotless_alt.medi" horiz-adv-x="897" 
d="M531 698l4 -19q4 -19 9 -51t11 -74.5t10.5 -89t6 -83t1.5 -59.5t-1 -45q28 -26 64.5 -46.5t78.5 -35.5t87.5 -23t92.5 -8h12v-164h-12q-133 0 -230 43.5t-160 119.5q-27 -33 -76.5 -62.5t-113.5 -52t-138 -35.5t-150 -13h-47v164h24q76 0 153 9t140.5 24t106 35t51.5 43
q1 14 1 30q0 20 -2 50.5t-7 72.5t-12 84.5t-13 80.5z" />
    <glyph glyph-name="onedot.below" 
d="M0 -511l-150 150l150 150l150 -150z" />
    <glyph glyph-name="twodots.below" 
d="M180 -469l-142 142l142 142l142 -142zM-180 -469l-142 142l142 142l142 -142z" />
    <glyph glyph-name="alef_alt.isol" horiz-adv-x="571" 
d="M357 1542q5 0 6 -13.5t2 -22.5q4 -77 4 -152q0 -23 -1 -82.5t-1 -164.5q0 -59 -1 -133.5t-2.5 -157t-3.5 -169.5t-5.5 -171.5t-7.5 -163t-9 -143.5q-18 -46 -33 -85q-6 -17 -12.5 -33t-12.5 -30t-10.5 -24t-6.5 -14q-8 -9 -10 -9q-1 0 -3 1.5t-2 6.5q-3 121 -6 246.5
t-5.5 247t-5 236.5t-4.5 217q-4 238 -8 462q37 42 67 75q13 14 25 28t21.5 24.5t16 17t7.5 6.5h1z" />
    <glyph glyph-name="alef_alt.fina" horiz-adv-x="596" 
d="M284 1538q3 0 4.5 -4t2.5 -9t1.5 -10t0.5 -7q7 -166 12 -290.5t9.5 -221t7.5 -171.5t6 -142.5t5.5 -133.5t5.5 -145q1 -30 3 -58t3.5 -52t3.5 -42l3 -27q16 -15 47 -26.5t64 -19t62 -11.5t43 -4h38v-164h-33q-96 0 -160 22t-104 64t-59 101.5t-25 134.5q-9 124 -17 227
t-15 192t-13 168t-11.5 156.5t-11 156t-11.5 167.5q10 10 31 34.5t43.5 50t40.5 45t23 19.5z" />
    <glyph glyph-name="uni06D5" unicode="&#x6d5;" horiz-adv-x="878" 
d="M447 134q73 0 124.5 13.5t86.5 36.5t57.5 53t38.5 63q-1 37 -22 78.5t-54.5 82.5t-75 79.5t-83.5 69.5t-79.5 52.5t-63.5 28.5q-41 -67 -72 -134t-48 -129t-17.5 -89.5t-0.5 -28.5q0 -52 21.5 -91t67 -62t120.5 -23zM388 871q6 0 40.5 -16t81.5 -47t100.5 -75.5
t98.5 -102.5t74.5 -127.5t29.5 -149.5q-21 -184 -115 -276t-258 -92q-70 0 -129.5 23.5t-100 69t-54.5 98.5t-14 99q0 33 5 70q7 45 23 97.5t37 106t45.5 105t49 95t46.5 75.5t39 46q0 1 1 1z" />
    <glyph glyph-name="heh_ae.fina" horiz-adv-x="1045" 
d="M653 763q-71 -39 -143.5 -78t-133.5 -75t-104 -66t-55 -51q2 -31 27.5 -57.5t84 -47t154.5 -34t239 -18.5zM806 737q6 -54 12 -111t12.5 -111t12 -102t9.5 -83q10 -85 54 -125.5t136 -40.5h13v-164h-35q-84 4 -136.5 31t-84 69t-46.5 96t-23 111l-124 -126q-5 -1 -10 -1
h-28q-27 0 -69.5 2.5t-94 11t-110 24.5t-117.5 43q-12 35 -22.5 81t-13.5 79.5t-3 55.5q0 18 2.5 44t17.5 40q21 19 55 45t76 56t89.5 61.5t93.5 61.5t89 57.5t77 48.5l-11 114l136 121z" />
    <glyph glyph-name="uni06C2" unicode="&#x6c2;" horiz-adv-x="878" 
d="M447 134q73 0 124.5 13.5t86.5 36.5t57.5 53t38.5 63q-1 37 -22 78.5t-54.5 82.5t-75 79.5t-83.5 69.5t-79.5 52.5t-63.5 28.5q-41 -67 -72 -134t-48 -129t-17.5 -89.5t-0.5 -28.5q0 -52 21.5 -91t67 -62t120.5 -23zM388 871q6 0 40.5 -16t81.5 -47t100.5 -75.5
t98.5 -102.5t74.5 -127.5t29.5 -149.5q-21 -184 -115 -276t-258 -92q-70 0 -129.5 23.5t-100 69t-54.5 98.5t-14 99q0 33 5 70q7 45 23 97.5t37 106t45.5 105t49 95t46.5 75.5t39 46q0 1 1 1zM329 1075q-7 4 -22.5 16t-32 31.5t-30 44.5t-15.5 55v6q0 27 18 64t48.5 72.5
t68 60t72.5 24.5q51 0 94.5 -24t79.5 -88l-26 -13q-9 5 -42 16t-90 11q-29 0 -56 -13.5t-48 -31t-34 -34.5t-13 -24q0 -8 10 -26t31 -36.5t55 -34.5t82 -20q30 4 53 8t42.5 8t36.5 8.5t35 9.5q0 -2 -5.5 -22t-21.5 -75q-9 -2 -19.5 -4t-25.5 -5t-36.5 -7.5t-51.5 -11.5
q-43 -9 -77 -19t-67.5 -23.5t-70.5 -31.5t-85 -43l27 87z" />
    <glyph glyph-name="uni06C3" unicode="&#x6c3;" horiz-adv-x="878" 
d="M447 134q73 0 124.5 13.5t86.5 36.5t57.5 53t38.5 63q-1 37 -22 78.5t-54.5 82.5t-75 79.5t-83.5 69.5t-79.5 52.5t-63.5 28.5q-41 -67 -72 -134t-48 -129t-17.5 -89.5t-0.5 -28.5q0 -52 21.5 -91t67 -62t120.5 -23zM388 871q6 0 40.5 -16t81.5 -47t100.5 -75.5
t98.5 -102.5t74.5 -127.5t29.5 -149.5q-21 -184 -115 -276t-258 -92q-70 0 -129.5 23.5t-100 69t-54.5 98.5t-14 99q0 33 5 70q7 45 23 97.5t37 106t45.5 105t49 95t46.5 75.5t39 46q0 1 1 1zM623 969l-142 142l142 142l142 -142zM263 969l-142 142l142 142l142 -142z" />
    <glyph glyph-name="uni06F0" unicode="&#x6f0;" horiz-adv-x="861" 
d="M430 259q-54 0 -101.5 20.5t-83.5 56.5t-56.5 83.5t-20.5 101.5t20.5 101.5t56.5 83.5t83.5 56.5t101.5 20.5t101.5 -20.5t83.5 -56.5t56.5 -83.5t20.5 -101.5t-20.5 -101.5t-56.5 -83.5t-83.5 -56.5t-101.5 -20.5zM430 677q-32 0 -60.5 -12.5t-49.5 -33.5t-33.5 -49.5
t-12.5 -60.5t12.5 -60.5t33.5 -49.5t49.5 -33.5t60.5 -12.5t60.5 12.5t49.5 33.5t33.5 49.5t12.5 60.5t-12.5 60.5t-33.5 49.5t-49.5 33.5t-60.5 12.5z" />
    <glyph glyph-name="uni06F1" unicode="&#x6f1;" horiz-adv-x="762" 
d="M476 -22q-2 157 -23 325.5t-64.5 339.5t-111.5 341.5t-162 332.5l137 151q2 -1 25 -42t56.5 -113.5t72 -172.5t71.5 -218t55 -250t22 -269q0 -89 -5.5 -164t-12.5 -129q-8 -64 -17 -115z" />
    <glyph glyph-name="uni06F2" unicode="&#x6f2;" horiz-adv-x="1149" 
d="M1042 1447q4 -41 4 -84q0 -29 -3 -80t-19 -119.5t-43.5 -129.5t-68.5 -107t-96 -72.5t-125 -26.5h-17q-40 0 -85 8t-87 27q26 -106 43 -220t17 -232q0 -89 -5.5 -164t-12.5 -129q-8 -64 -18 -115l-42 -17q-2 157 -23.5 325.5t-65 339.5t-111 341.5t-162.5 332.5l138 151
q2 -1 28 -48t64 -131q30 -62 64 -118t76 -97.5t92 -64.5t110 -23h10q76 0 127.5 39t83 101t44.5 138t13 150z" />
    <glyph glyph-name="uni06F3" unicode="&#x6f3;" horiz-adv-x="1439" 
d="M1328 1437q9 -68 10.5 -113.5t1.5 -63.5q0 -53 -6.5 -113.5t-25.5 -121.5t-52 -107t-81.5 -73t-115.5 -27q-27 0 -55 10.5t-52.5 30t-45 46.5t-33.5 61q-35 -67 -90 -107.5t-134 -40.5h-19q-13 0 -29 1t-34 5.5t-36 12t-39 16.5q26 -106 42.5 -220t16.5 -232
q0 -89 -5.5 -164t-12.5 -129q-8 -64 -17 -115l-43 -17q-2 157 -23 325.5t-64.5 339.5t-111 341.5t-162.5 332.5l137 151q2 -1 29.5 -50t66.5 -137q28 -61 54.5 -114.5t60 -93.5t79 -63.5t110.5 -23.5q72 0 114.5 39t64.5 101t28 138t6 150l71 25q9 -69 9 -141q0 -19 -2 -75
t-23 -139q11 -20 24.5 -37.5t30.5 -31t38.5 -21.5t48.5 -8q72 0 113 37t61 97t22.5 119t2.5 102q0 36 -1 73z" />
    <glyph glyph-name="uni06F9" unicode="&#x6f9;" horiz-adv-x="1089" 
d="M455 877q53 0 91.5 4t64.5 9q30 6 51 14q-3 17 -10 54.5t-20 83t-32.5 94t-48 89t-66 66t-86.5 25.5q-38 0 -70 -19t-57 -48.5t-43.5 -64.5t-30 -67t-16 -53.5t-4.5 -30.5q0 -4 1 -6q5 -24 26 -50t54.5 -48t79.5 -36.5t100 -15.5h16zM438 1494q71 -5 122.5 -43.5t87 -98
t58 -133.5t35.5 -149.5t19 -146t9 -123.5q10 -121 32 -217.5t51.5 -170t63.5 -126t68 -85.5l-60 -218q-62 70 -108 161.5t-76.5 191.5t-46.5 201t-19 190q-27 -9 -59 -15q-27 -6 -63 -10.5t-78 -4.5h-17t-18 1q-36 2 -75.5 11.5t-77.5 28t-71 46t-55.5 65t-29.5 74t-7 63.5
q0 28 5 60q2 24 10.5 66.5t24.5 92.5t40.5 101.5t58 93t77.5 68t99 26.5z" />
    <glyph glyph-name="uni06F7" unicode="&#x6f7;" horiz-adv-x="1313" 
d="M1227 1336q-137 -177 -235 -356.5t-162 -351t-96.5 -330t-38.5 -294.5v-3h-79q-6 136 -38.5 295t-96 330.5t-162 351.5t-236.5 358l117 166q1 -1 32 -39t77 -108.5t101 -170t105.5 -224.5t88.5 -272t51 -312q13 165 51.5 312t88.5 272t105.5 224.5t101.5 170t77 108.5
t32 39z" />
    <glyph glyph-name="uni06F8" unicode="&#x6f8;" horiz-adv-x="1313" 
d="M696 1491q6 -136 38.5 -295t96.5 -331t162 -352t236 -358l-116 -165q-1 1 -32 39t-77 108.5t-101.5 170t-105.5 224.5t-88.5 272t-51.5 312q-13 -165 -51.5 -312t-88.5 -272t-105.5 -224.5t-101.5 -170t-77 -108.5t-32 -39l-116 165q137 178 235 357.5t162 351t97 330
t39 294.5l-1 3h79z" />
    <glyph glyph-name="uni06F4.urdu" horiz-adv-x="1171" 
d="M990 1168q-15 -20 -45.5 -59t-66 -89t-70 -109t-56.5 -119l-96 -43q-2 33 -14.5 76t-31.5 90t-44.5 94.5t-53.5 89.5t-58.5 75t-59.5 50l-95 -277q44 -74 83.5 -161.5t73.5 -179.5t62 -183t49 -171.5t33.5 -145.5t16.5 -105l-87 -20q-7 53 -27.5 128t-50 161.5
t-65.5 179.5t-74.5 182.5t-77 169.5t-72.5 141q0 1 6 17.5t16 42.5l22.5 58.5t25.5 66.5q31 79 69 180q45 17 95 26t95 20q30 -21 63.5 -66.5t64 -100t55 -112t38.5 -102.5q12 26 33 63.5t48 79.5t57.5 85t60.5 82t58 69.5t49 46.5z" />
    <glyph glyph-name="uni06F7.urdu" horiz-adv-x="1018" 
d="M814 1337q6 0 7 -21t1 -40q0 -12 -0.5 -37t-4.5 -62.5t-10 -61.5q-55 -67 -105 -129q-21 -26 -44 -54t-44.5 -54t-40.5 -49t-33 -40q-104 -124 -170.5 -232.5t-105 -189.5t-51 -125t-12.5 -50v-1q68 -15 167.5 -24t216.5 -9q80 0 163.5 4.5t168.5 14.5q-11 -24 -25 -50
t-28.5 -49.5t-28 -41t-22.5 -23.5q-6 -4 -23.5 -6.5t-43 -4t-59 -2.5t-70.5 -1q-72 0 -152 2.5t-150 6.5t-119.5 9t-59.5 10q-17 81 -17 157q0 70 21.5 172.5t95.5 237.5q14 26 46 72t75 103t93 121t100.5 127t97.5 121t83.5 102t58.5 70t23 26q0 1 1 1z" />
    <glyph glyph-name="Ghunna_above" 
d="M294.873 1392.06q3.72266 -5.58887 9.30664 -20.9561q5.58398 -15.3682 12.0986 -37.0234t12.7969 -48.4326t11.4004 -55.6514q5.11816 -28.873 8.37598 -58.4443q3.25781 -29.5723 3.25781 -56.583q0 -69.8545 -20.0098 -125.738t-59.5625 -95.002
q-39.5527 -39.1191 -98.1855 -60.0752q-58.6309 -20.957 -135.877 -20.957q-83.7598 0 -144.252 30.7363q-60.4941 30.7363 -84.6914 85.9209q-24.1973 55.1855 -24.1973 120.85q0 22.8184 6.0498 84.0576t63.2852 194.43l30.7119 -18.1621
q-17.6826 -49.3643 -31.875 -99.1943q-14.1934 -49.8291 -18.3809 -83.5928q-4.1875 -33.7627 -4.1875 -54.7197q0 -21.8877 4.41992 -51.6924q4.4209 -29.8047 26.7568 -59.1436t63.9834 -46.5693q41.6465 -17.2314 108.189 -18.1631h7.44531q68.4043 0 116.333 16.7656
t78.874 43.7754q30.9443 27.0107 46.5332 61.4727q15.5879 34.4609 19.3105 69.8545q-7.44531 28.873 -14.4248 55.8838t-14.1924 54.2539t-14.8906 56.1162q-7.67773 28.874 -16.0547 61.9385zM44 1150q-1 37 -3.5 81.5t-6.5 90.5t-7.5 91t-7.5 82t-6.5 64t-3.5 37
q7 4 23.5 13.5t34 19t32 17t18.5 7.5q2 0 3 -7q0 -4 1 -7q0 -12 -0.5 -39.5t-1.5 -64t-2.5 -78t-3.5 -81.5t-4.5 -76t-5.5 -60q-3 -13 -12.5 -29t-20 -29.5t-26.5 -31.5z" />
    <glyph glyph-name="uni0651064B" 
d="M351 1413q3 0 12 -24t18.5 -58.5t15 -69.5t5.5 -59v-15q-9 -28 -20 -52t-25.5 -42t-32.5 -29.5t-42 -12.5h-8q-26 0 -52.5 11.5t-40.5 43.5q-9 -16 -19.5 -30.5t-26.5 -25t-35 -15.5t-41 -5q-7 0 -16 1q-40 5 -62.5 23t-32 42.5t-9.5 51.5q0 2 0.5 17t6 42.5t13.5 50
t13 34.5l30 -13q0 -1 -2 -9q-1 -4 -2 -9q-5 -26 -5 -48q0 -25 9.5 -55t51.5 -38q28 3 47.5 19.5t32 40.5t20.5 53t14 57l40 4q0 -11 -0.5 -21t-1.5 -21t-3 -24.5t-5 -31.5q7 -23 24.5 -37.5t43.5 -14.5h4q6 0 19.5 1t28.5 5.5t28 13t17 23.5q0 19 -8 43t-18.5 46.5t-20 39.5
t-13.5 22q11 20 21 37q8 14 16 26t11 12zM-32 1404v102l392 155v-97zM-32 1644v102l392 154v-95z" />
    <glyph glyph-name="uni0654064B" 
d="M-81 1664v102l392 155v-97zM-81 1904v102l392 154v-95zM70 1281q-7 4 -22.5 16t-32 31.5t-30 44.5t-15.5 55v6q0 27 18 64t48.5 72.5t68 60t72.5 24.5q51 0 94.5 -24t79.5 -88l-26 -13q-9 5 -42 16t-90 11q-29 0 -56 -13.5t-48 -31t-34 -34.5t-13 -24q0 -8 10 -26
t31 -36.5t55 -34.5t82 -20q30 4 53 8t42.5 8t36.5 8.5t35 9.5q0 -2 -5.5 -22t-21.5 -75q-9 -2 -19.5 -4t-25.5 -5t-36.5 -7.5t-51.5 -11.5q-43 -9 -77 -19t-67.5 -23.5t-70.5 -31.5t-85 -43l27 87z" />
    <glyph glyph-name="uni0654064E" 
d="M322 1823l-392 -160v102l392 155v-97zM70 1281q-7 4 -22.5 16t-32 31.5t-30 44.5t-15.5 55v6q0 27 18 64t48.5 72.5t68 60t72.5 24.5q51 0 94.5 -24t79.5 -88l-26 -13q-9 5 -42 16t-90 11q-29 0 -56 -13.5t-48 -31t-34 -34.5t-13 -24q0 -8 10 -26t31 -36.5t55 -34.5
t82 -20q30 4 53 8t42.5 8t36.5 8.5t35 9.5q0 -2 -5.5 -22t-21.5 -75q-9 -2 -19.5 -4t-25.5 -5t-36.5 -7.5t-51.5 -11.5q-43 -9 -77 -19t-67.5 -23.5t-70.5 -31.5t-85 -43l27 87z" />
    <glyph glyph-name="uni0654064C" 
d="M357 1878l-33 4q-26 -37 -62.5 -66t-79.5 -49.5t-89.5 -31t-92.5 -10.5h-23t-11 1l-3 6q16 39 22.5 72t6.5 56q0 53 -23 53q-14 0 -50.5 -13t-79.5 -36l-5 4l17 95q15 9 34 18t37 16.5t33 12.5t23 5q19 0 32 -9.5t21 -26t11 -38t3 -45.5q0 -21 -1.5 -42t-6.5 -40h6
q18 0 44 5t57 16t61 26.5t53 34.5q-51 12 -83.5 26.5t-51.5 31.5t-26 37t-7 43q0 30 14 60t38 54.5t55.5 40t65.5 15.5q31 0 51.5 -15.5t32.5 -40.5t17 -55t5 -59q0 -20 -2 -39t-7 -36q11 -2 23 -2.5t25 -1.5zM152 2078q0 -8 5.5 -21.5t22 -28.5t47.5 -30.5t83 -27.5
q4 7 5 14t1 15q0 26 -7.5 49t-20 40t-29.5 27t-35 10q-30 0 -51 -15t-21 -32zM70 1281q-7 4 -22.5 16t-32 31.5t-30 44.5t-15.5 55v6q0 27 18 64t48.5 72.5t68 60t72.5 24.5q51 0 94.5 -24t79.5 -88l-26 -13q-9 5 -42 16t-90 11q-29 0 -56 -13.5t-48 -31t-34 -34.5t-13 -24
q0 -8 10 -26t31 -36.5t55 -34.5t82 -20q30 4 53 8t42.5 8t36.5 8.5t35 9.5q0 -2 -5.5 -22t-21.5 -75q-9 -2 -19.5 -4t-25.5 -5t-36.5 -7.5t-51.5 -11.5q-43 -9 -77 -19t-67.5 -23.5t-70.5 -31.5t-85 -43l27 87z" />
    <glyph glyph-name="uni0654064F" 
d="M115 2078q0 -34 43.5 -58.5t118.5 -38.5q3 12 3 23q0 22 -7.5 45t-20 41.5t-29 30t-33.5 11.5q-15 0 -28.5 -5t-24 -12.5t-16.5 -17.5t-6 -19zM16 1717q-5 -1 -13 -1q-7 0 -22.5 1.5t-36.5 6.5t-38 11t-21 12q43 17 88.5 35.5t88 38t81 39.5t67.5 41q-78 15 -117 45
t-39 88q0 37 16 69.5t41 56.5t56.5 38t61.5 14q29 0 50 -15t34 -39t19 -54.5t6.5 -47t0.5 -19.5q0 -28 -5 -55t-14 -46q-20 -42 -55 -76t-77 -61t-87 -47t-85 -35zM70 1281q-7 4 -22.5 16t-32 31.5t-30 44.5t-15.5 55v6q0 27 18 64t48.5 72.5t68 60t72.5 24.5q51 0 94.5 -24
t79.5 -88l-26 -13q-9 5 -42 16t-90 11q-29 0 -56 -13.5t-48 -31t-34 -34.5t-13 -24q0 -8 10 -26t31 -36.5t55 -34.5t82 -20q30 4 53 8t42.5 8t36.5 8.5t35 9.5q0 -2 -5.5 -22t-21.5 -75q-9 -2 -19.5 -4t-25.5 -5t-36.5 -7.5t-51.5 -11.5q-43 -9 -77 -19t-67.5 -23.5
t-70.5 -31.5t-85 -43l27 87z" />
    <glyph glyph-name="uni06540652" 
d="M159 2114q22 0 48.5 -13t50.5 -38.5t41.5 -63.5t19.5 -89v-4q0 -36 -16.5 -66t-42 -52.5t-54 -34.5t-49.5 -12q-35 1 -63 17t-47.5 41t-30 55t-10.5 59q0 47 16.5 84.5t40 63.5t50 39.5t46.5 13.5zM154 1842q51 2 84.5 23.5t45.5 44.5v2q0 5 -8.5 20.5t-27 33.5t-46 32.5
t-61.5 14.5q-13 0 -30 -5t-32 -15.5t-25 -25.5t-10 -35q24 -90 103 -90h7zM70 1281q-7 4 -22.5 16t-32 31.5t-30 44.5t-15.5 55v6q0 27 18 64t48.5 72.5t68 60t72.5 24.5q51 0 94.5 -24t79.5 -88l-26 -13q-9 5 -42 16t-90 11q-29 0 -56 -13.5t-48 -31t-34 -34.5t-13 -24
q0 -8 10 -26t31 -36.5t55 -34.5t82 -20q30 4 53 8t42.5 8t36.5 8.5t35 9.5q0 -2 -5.5 -22t-21.5 -75q-9 -2 -19.5 -4t-25.5 -5t-36.5 -7.5t-51.5 -11.5q-43 -9 -77 -19t-67.5 -23.5t-70.5 -31.5t-85 -43l27 87z" />
    <glyph glyph-name="uni0655064D" 
d="M415 -945l-392 -160v102l392 155v-97zM415 -704l-392 -161v102l392 154v-95zM36 -560l116 65q-7 4 -22.5 16t-32 31.5t-30 44.5t-15.5 55v6q0 27 18 64t48.5 72.5t68 60t72.5 24.5q51 0 94.5 -24t79.5 -88l-26 -13q-9 5 -42 16t-90 11q-29 0 -56 -13.5t-48 -31t-34 -34.5
t-13 -24q0 -8 10 -26t31 -36.5t55 -34.5t82 -20q30 4 53 8t42.5 8t36.5 8.5t35 9.5q0 -2 -5.5 -22t-21.5 -75q-9 -2 -19.5 -4t-25.5 -5t-36.5 -7.5t-51.5 -11.5q-43 -9 -77 -19t-67.5 -23.5t-70.5 -31.5t-85 -43z" />
    <glyph glyph-name="uni06550650" 
d="M421 -719l-392 -160v102l392 155v-97zM36 -560l116 65q-7 4 -22.5 16t-32 31.5t-30 44.5t-15.5 55v6q0 27 18 64t48.5 72.5t68 60t72.5 24.5q51 0 94.5 -24t79.5 -88l-26 -13q-9 5 -42 16t-90 11q-29 0 -56 -13.5t-48 -31t-34 -34.5t-13 -24q0 -8 10 -26t31 -36.5
t55 -34.5t82 -20q30 4 53 8t42.5 8t36.5 8.5t35 9.5q0 -2 -5.5 -22t-21.5 -75q-9 -2 -19.5 -4t-25.5 -5t-36.5 -7.5t-51.5 -11.5q-43 -9 -77 -19t-67.5 -23.5t-70.5 -31.5t-85 -43z" />
    <glyph glyph-name="uni060D" unicode="&#x60d;" horiz-adv-x="662" 
d="M546 209q-143 -142 -241.5 -286.5t-142.5 -307.5q-21 22 -33 40q-13 17 -23 33.5t-11 27.5q12 53 44 125.5t83 156t121.5 175t159.5 181.5z" />
    <glyph glyph-name="uniFD3E" unicode="&#xfd3e;" horiz-adv-x="616" 
d="M82 561q0 266 77 496t224 405h149q-141 -194 -213 -424t-72 -475q0 -237 72 -468q74 -232 211 -419h-147q-148 171 -224.5 396.5t-76.5 488.5z" />
    <glyph glyph-name="uniFD3F" unicode="&#xfd3f;" horiz-adv-x="616" 
d="M532 561q0 -263 -76.5 -488.5t-224.5 -396.5h-147q137 187 211 419q72 231 72 468q0 245 -72 475t-213 424h149q147 -175 224 -405t77 -496z" />
    <glyph glyph-name="hah_alt.isol" horiz-adv-x="1506" 
d="M473 916q34 0 79.5 -14t104 -37t130.5 -51.5t158 -58.5t187.5 -57.5t218.5 -47.5l-81 -164q-256 -30 -439.5 -88t-307.5 -133.5t-193.5 -163.5t-96.5 -178q16 -90 52.5 -159.5t87.5 -121.5t114.5 -87.5t134.5 -57.5t147 -31.5t152 -9.5q69 0 136.5 7t128.5 18.5t114 27
t95 32.5v-2q-6 -15 -15 -41l-18 -52q-11 -30 -21 -63q-88 -45 -196.5 -68t-226.5 -23q-94 0 -188 15.5t-180 48.5t-160.5 83t-129 118.5t-85 155t-30.5 191.5v7q0 41 13 100t48.5 125.5t98 136t162.5 130t242.5 107.5t337.5 70q-56 12 -120.5 30t-130 38.5t-127.5 41.5
t-113 37.5t-86.5 27.5t-48.5 11h-1q-19 0 -42.5 -23t-46 -53.5t-41 -62t-28.5 -47.5l-70 45q39 67 70 121t62 91.5t66 58t83 20.5z" />
    <glyph glyph-name="hah_alt.fina" horiz-adv-x="1494" 
d="M473 916q34 0 79.5 -14t104 -37t130.5 -51.5t158 -58.5t187.5 -57.5t218.5 -47.5l-81 -164q-21 -3 -41.5 -5.5t-36.5 -4.5t-26.5 -3.5t-13.5 -2.5q0 -67 16.5 -123t50.5 -96.5t87 -63.5t127 -23h69v-164h-69q-116 0 -188.5 37t-114 99.5t-58 144.5t-19.5 171
q-198 -38 -341.5 -95.5t-242 -127t-155.5 -148t-81 -158.5q16 -90 52.5 -159.5t87.5 -121.5t114.5 -87.5t134.5 -57.5t147 -31.5t152 -9.5q69 0 136.5 7t128.5 18.5t114 27t95 32.5v-2q-6 -15 -15 -41l-18 -52q-11 -30 -21 -63q-88 -45 -196.5 -68t-226.5 -23
q-94 0 -188 15.5t-180 48.5t-160.5 83t-129 118.5t-85 155t-30.5 191.5v7q0 41 13 100t48.5 125.5t98 136t162.5 130t242.5 107.5t337.5 70q-56 12 -120.5 30t-130 38.5t-127.5 41.5t-113 37.5t-86.5 27.5t-48.5 11h-1q-19 0 -42.5 -23t-46 -53.5t-41 -62t-28.5 -47.5
l-70 45q39 67 70 121t62 91.5t66 58t83 20.5z" />
    <glyph glyph-name="diagonal" horiz-adv-x="1013" 
d="M930 1614l-852 -369l42 141l838 362z" />
    <glyph glyph-name="uni200B" unicode="&#x200b;" 
 />
    <glyph glyph-name="exclam" unicode="!" horiz-adv-x="549" 
d="M344 1005q-6 -34 -13 -87t-14 -113.5t-14 -125t-13 -121.5t-10 -103.5t-6 -71.5h-51q-1 22 -5 65.5t-9.5 99t-12.5 119t-14 125t-14 117t-12 96.5v532h188v-532zM383 130l-133 -132l-134 133l133 134z" />
    <glyph glyph-name="quotedbl" unicode="&#x22;" horiz-adv-x="588" 
d="M243 1396l-20 -313h-80l3 453h97v-140zM479 1396l-20 -313h-81l4 453h97v-140z" />
    <glyph glyph-name="numbersign" unicode="#" horiz-adv-x="1191" 
d="M753 410h-314l-77 -410h-99l77 410h-255v93h272l83 441h-279v96h297l79 416h99l-79 -416h315l79 416h100l-79 -416h229v-96h-247l-83 -441h255v-93h-273l-77 -410h-100zM456 503h315l83 441h-315z" />
    <glyph glyph-name="dollar" unicode="$" horiz-adv-x="1135" 
d="M901 359q0 111 -72 181.5t-254 133.5q-226 71 -317 168.5t-91 252.5q0 163 100 264.5t272 115.5v202h102v-202q176 -16 272.5 -132t96.5 -315h-119q0 157 -81.5 249.5t-222.5 92.5q-142 0 -221.5 -74.5t-79.5 -198.5q0 -120 73 -187.5t248.5 -127t255 -114t119 -129
t39.5 -178.5q0 -164 -102.5 -264.5t-281.5 -114.5v-190h-101v189q-201 13 -311 126.5t-110 310.5h120q0 -156 91 -244.5t254 -88.5q142 0 231.5 76t89.5 198z" />
    <glyph glyph-name="percent" unicode="%" horiz-adv-x="1513" 
d="M109 1176q0 130 80.5 215.5t204.5 85.5t204.5 -85.5t80.5 -221.5v-71q0 -128 -79.5 -213.5t-203.5 -85.5q-123 0 -205 84t-82 222v70zM206 1099q0 -93 51.5 -153t138.5 -60q85 0 135.5 60.5t50.5 156.5v73q0 93 -52 153.5t-136 60.5q-83 0 -135.5 -60t-52.5 -160v-71z
M842 357q0 130 80.5 215t203.5 85t204.5 -84.5t81.5 -222.5v-71q0 -130 -80.5 -215t-203.5 -85t-204.5 84.5t-81.5 220.5v73zM938 279q0 -94 51.5 -154t138.5 -60q86 0 136.5 60.5t50.5 158.5v73q0 96 -51.5 154.5t-137.5 58.5q-84 0 -136 -59t-52 -158v-74zM434 121l-75 48
l711 1138l75 -48z" />
    <glyph glyph-name="ampersand" unicode="&#x26;" horiz-adv-x="1260" 
d="M404 794q-87 105 -126.5 187.5t-39.5 163.5q0 153 91 242t244 89q139 0 225 -80.5t86 -204.5q0 -144 -166 -283l-160 -124l400 -466q91 147 91 333h111q0 -248 -128 -419l199 -232h-144l-126 146q-79 -78 -182.5 -122t-218.5 -44q-208 0 -330 106.5t-122 284.5
q0 106 62.5 200.5t219.5 212.5zM560 81q91 0 176.5 38.5t153.5 109.5l-407 472l-14 15l-46 -35q-196 -160 -196 -310q0 -131 90 -210.5t243 -79.5zM358 1149q0 -122 135 -288l131 100q64 46 105 101t41 129q0 78 -54 130.5t-144 52.5q-98 0 -156 -63t-58 -162z" />
    <glyph glyph-name="quotesingle" unicode="'" horiz-adv-x="348" 
d="M226 1395l-17 -305h-90q5 296 5 446h102v-141z" />
    <glyph glyph-name="parenleft" unicode="(" horiz-adv-x="722" 
d="M140 588q0 218 56 423.5t164 376t232 244.5l29 -81q-66 -47 -131 -137t-116 -214t-82.5 -278.5t-31.5 -350.5q0 -209 47.5 -402t130.5 -340.5t183 -221.5l-29 -77q-127 76 -235 245.5t-162.5 373t-54.5 439.5z" />
    <glyph glyph-name="parenright" unicode=")" horiz-adv-x="722" 
d="M614 573q0 -220 -54.5 -423.5t-161.5 -372.5t-236 -247l-29 77q98 70 181.5 217t131.5 342.5t48 424.5q0 207 -48 399.5t-132.5 344t-180.5 220.5l29 77q126 -77 233 -246t163 -375t56 -438z" />
    <glyph glyph-name="asterisk" unicode="*" horiz-adv-x="869" 
d="M361 1000l-332 108l32 101l332 -123l-4 370h104l-8 -373l324 127l33 -101l-333 -115l223 -294l-85 -63l-214 305l-204 -303l-85 61z" />
    <glyph glyph-name="plus" unicode="+" horiz-adv-x="1156" 
d="M630 740h443v-112h-443v-482h-121v482h-434v112h434v466h121v-466z" />
    <glyph glyph-name="comma" unicode="," horiz-adv-x="392" 
d="M131 -272l-71 52q91 122 94 253v155h117v-125q0 -208 -140 -335z" />
    <glyph glyph-name="hyphen" unicode="-" horiz-adv-x="586" 
d="M528 592h-479v101h479v-101z" />
    <glyph glyph-name="period" unicode="." horiz-adv-x="583" 
d="M184 97q0 48 28.5 80t85.5 32t86.5 -32t29.5 -80q0 -46 -29.5 -77t-86.5 -31t-85.5 31t-28.5 77z" />
    <glyph glyph-name="slash" unicode="/" horiz-adv-x="813" 
d="M139 -125h-109l608 1581h108z" />
    <glyph glyph-name="zero" unicode="0" horiz-adv-x="861" 
d="M430 259q-54 0 -101.5 20.5t-83.5 56.5t-56.5 83.5t-20.5 101.5t20.5 101.5t56.5 83.5t83.5 56.5t101.5 20.5t101.5 -20.5t83.5 -56.5t56.5 -83.5t20.5 -101.5t-20.5 -101.5t-56.5 -83.5t-83.5 -56.5t-101.5 -20.5zM430 677q-32 0 -60.5 -12.5t-49.5 -33.5t-33.5 -49.5
t-12.5 -60.5t12.5 -60.5t33.5 -49.5t49.5 -33.5t60.5 -12.5t60.5 12.5t49.5 33.5t33.5 49.5t12.5 60.5t-12.5 60.5t-33.5 49.5t-49.5 33.5t-60.5 12.5z" />
    <glyph glyph-name="one" unicode="1" horiz-adv-x="762" 
d="M476 -22q-2 157 -23 325.5t-64.5 339.5t-111.5 341.5t-162 332.5l137 151q2 -1 25 -42t56.5 -113.5t72 -172.5t71.5 -218t55 -250t22 -269q0 -89 -5.5 -164t-12.5 -129q-8 -64 -17 -115z" />
    <glyph glyph-name="two" unicode="2" horiz-adv-x="1149" 
d="M1042 1447q4 -41 4 -84q0 -29 -3 -80t-19 -119.5t-43.5 -129.5t-68.5 -107t-96 -72.5t-125 -26.5h-17q-40 0 -85 8t-87 27q26 -106 43 -220t17 -232q0 -89 -5.5 -164t-12.5 -129q-8 -64 -18 -115l-42 -17q-2 157 -23.5 325.5t-65 339.5t-111 341.5t-162.5 332.5l138 151
q2 -1 28 -48t64 -131q30 -62 64 -118t76 -97.5t92 -64.5t110 -23h10q76 0 127.5 39t83 101t44.5 138t13 150z" />
    <glyph glyph-name="three" unicode="3" horiz-adv-x="1439" 
d="M1328 1437q9 -68 10.5 -113.5t1.5 -63.5q0 -53 -6.5 -113.5t-25.5 -121.5t-52 -107t-81.5 -73t-115.5 -27q-27 0 -55 10.5t-52.5 30t-45 46.5t-33.5 61q-35 -67 -90 -107.5t-134 -40.5h-19q-13 0 -29 1t-34 5.5t-36 12t-39 16.5q26 -106 42.5 -220t16.5 -232
q0 -89 -5.5 -164t-12.5 -129q-8 -64 -17 -115l-43 -17q-2 157 -23 325.5t-64.5 339.5t-111 341.5t-162.5 332.5l137 151q2 -1 29.5 -50t66.5 -137q28 -61 54.5 -114.5t60 -93.5t79 -63.5t110.5 -23.5q72 0 114.5 39t64.5 101t28 138t6 150l71 25q9 -69 9 -141q0 -19 -2 -75
t-23 -139q11 -20 24.5 -37.5t30.5 -31t38.5 -21.5t48.5 -8q72 0 113 37t61 97t22.5 119t2.5 102q0 36 -1 73z" />
    <glyph glyph-name="four" unicode="4" horiz-adv-x="1346" 
d="M837 1490q40 0 81.5 -10t81.5 -34t76.5 -62.5t68.5 -95.5l-40 -27q-25 19 -58 34q-29 13 -71.5 24t-99.5 11q-5 0 -10.5 -0.5t-10.5 -0.5q-33 -1 -79 -22t-93 -60t-88.5 -96t-66.5 -129q10 -24 47.5 -54t88.5 -56t110 -44t112 -18q92 0 151 9.5t95 22.5t54.5 26.5
t29.5 21.5l-26 -159q-22 -11 -52 -24.5t-67.5 -26t-83.5 -22.5t-101 -13q-106 0 -198 29.5t-176 84.5q21 -95 33.5 -195t12.5 -203q0 -89 -5.5 -164t-12.5 -129q-8 -64 -17 -115l-43 -16q-2 157 -23 325.5t-64.5 339.5t-111.5 341.5t-162 332.5l137 151q1 -1 16 -26.5
t38 -72t52 -112t58 -145.5q18 40 44 83.5t58 85t69 79t75.5 66t77.5 46t76 19.5h17z" />
    <glyph glyph-name="five" unicode="5" horiz-adv-x="1320" 
d="M546 1571q2 -2 29.5 -26.5t71.5 -67.5t100 -103t115.5 -133t117.5 -158t105.5 -177t80.5 -190.5t42 -198.5q-5 -125 -15.5 -225t-41 -171t-89.5 -109t-160 -38q-20 0 -51.5 7.5t-64.5 29.5t-62.5 61.5t-46.5 104.5q-26 -65 -60 -105t-71.5 -62t-76 -29t-74.5 -7
q-99 0 -159.5 46t-90.5 122t-31.5 130t-1.5 66q0 85 16 174q28 126 68 240.5t87.5 219.5t99.5 202t106 189l-38 27q7 15 22 45.5t30.5 60.5t28 52.5t14.5 22.5zM392 140q63 0 107.5 29.5t75.5 75.5t51 100t34 104l92 -8q-2 -38 -10 -71.5t-17 -67.5q12 -38 31.5 -68
t44.5 -51t54 -32.5t61 -11.5q46 0 82.5 15.5t64.5 44.5t46.5 70t27.5 92q-8 85 -41.5 176t-82.5 182t-108 177t-117.5 159t-111.5 130t-90 90q-58 -90 -121.5 -191t-120 -207t-98.5 -214t-57 -212q0 -23 2 -55t8.5 -66.5t19.5 -68.5t35.5 -61t56 -43.5t81.5 -16.5z" />
    <glyph glyph-name="six" unicode="6" horiz-adv-x="1069" 
d="M572 1512q33 0 65 -6.5t64.5 -23.5t65.5 -45.5t68 -73.5l-34 -40q-7 3 -20 8t-33 10t-47 9t-60 4q-69 0 -126.5 -20.5t-103.5 -58t-79 -90.5t-52 -119q5 -25 29.5 -58.5t66.5 -63.5t101.5 -50.5t133.5 -20.5q32 0 67.5 4.5t73.5 15.5q25 12 62.5 28.5t75.5 33t71.5 30
t51.5 19.5l-37 -201q-159 -53 -318 -159q-67 -48 -140 -111t-145.5 -145.5t-143 -186t-131.5 -232.5l-35 31q23 122 63 227.5t93 195t116.5 164t134.5 136.5q-40 6 -89 27.5t-94 56.5t-80.5 82.5t-48.5 104.5q1 56 16.5 116t43 117.5t65 109.5t83 90.5t97.5 61.5t109 23z
" />
    <glyph glyph-name="seven" unicode="7" horiz-adv-x="1313" 
d="M1227 1336q-137 -177 -235 -356.5t-162 -351t-96.5 -330t-38.5 -294.5v-3h-79q-6 136 -38.5 295t-96 330.5t-162 351.5t-236.5 358l117 166q1 -1 32 -39t77 -108.5t101 -170t105.5 -224.5t88.5 -272t51 -312q13 165 51.5 312t88.5 272t105.5 224.5t101.5 170t77 108.5
t32 39z" />
    <glyph glyph-name="eight" unicode="8" horiz-adv-x="1313" 
d="M696 1491q6 -136 38.5 -295t96.5 -331t162 -352t236 -358l-116 -165q-1 1 -32 39t-77 108.5t-101.5 170t-105.5 224.5t-88.5 272t-51.5 312q-13 -165 -51.5 -312t-88.5 -272t-105.5 -224.5t-101.5 -170t-77 -108.5t-32 -39l-116 165q137 178 235 357.5t162 351t97 330
t39 294.5l-1 3h79z" />
    <glyph glyph-name="nine" unicode="9" horiz-adv-x="1089" 
d="M455 877q53 0 91.5 4t64.5 9q30 6 51 14q-3 17 -10 54.5t-20 83t-32.5 94t-48 89t-66 66t-86.5 25.5q-38 0 -70 -19t-57 -48.5t-43.5 -64.5t-30 -67t-16 -53.5t-4.5 -30.5q0 -4 1 -6q5 -24 26 -50t54.5 -48t79.5 -36.5t100 -15.5h16zM438 1494q71 -5 122.5 -43.5t87 -98
t58 -133.5t35.5 -149.5t19 -146t9 -123.5q10 -121 32 -217.5t51.5 -170t63.5 -126t68 -85.5l-60 -218q-62 70 -108 161.5t-76.5 191.5t-46.5 201t-19 190q-27 -9 -59 -15q-27 -6 -63 -10.5t-78 -4.5h-17t-18 1q-36 2 -75.5 11.5t-77.5 28t-71 46t-55.5 65t-29.5 74t-7 63.5
q0 28 5 60q2 24 10.5 66.5t24.5 92.5t40.5 101.5t58 93t77.5 68t99 26.5z" />
    </font>
</defs>
</svg>
