<?xml version="1.0" standalone="no"?>
<!DOCTYPE svg PUBLIC "-//W3C//DTD SVG 1.1//EN" "http://www.w3.org/Graphics/SVG/1.1/DTD/svg11.dtd" >
<svg xmlns="http://www.w3.org/2000/svg" xmlns:xlink="http://www.w3.org/1999/xlink" version="1.1">
<metadata>
Created by FontForge 20161003 at Wed Jun 14 15:30:43 2017
 By www-data
Copyright (c) 2017 by www.fontiran.com (Moslem Ebrahimi). All rights reserved.
</metadata>
<defs>
<font id="IRANSharp-Bold" horiz-adv-x="0" >
  <font-face 
    font-family="IRANSharp"
    font-weight="700"
    font-stretch="normal"
    units-per-em="2048"
    panose-1="2 11 5 6 3 8 4 2 2 4"
    ascent="1638"
    descent="-410"
    x-height="1082"
    cap-height="1456"
    bbox="-780 -1106 3106 2218"
    underline-thickness="102"
    underline-position="-751"
    unicode-range="U+001D-FEFF"
  />
<missing-glyph horiz-adv-x="1229" 
d="M102 -362v1806h1024v-1806h-1024zM217 -248h795v1577h-795v-1577z" />
    <glyph glyph-name="uniFEFB" unicode="&#xfedf;&#xfe8e;" horiz-adv-x="1203" arabic-form="isolated" 
d="M420 -131q-2 0 -21 9t-49.5 25t-66.5 36t-67.5 39t-53.5 35t-25 24q1 4 28.5 7t73.5 7.5t105.5 12.5t123.5 23t129 37.5t122 56.5q-72 156 -157 297.5t-170.5 264t-166 222t-143.5 171.5q6 19 14.5 46t18.5 56t20 57t19 50.5t16 35.5t10 13h1q1 0 22.5 -27.5t56.5 -75.5
t81 -114.5t96.5 -145t102.5 -166t99.5 -179t87 -183t65.5 -177.5q6 -20 6.5 -35.5t0.5 -23.5q0 -17 -1 -34q21 18 46.5 50.5t47.5 71.5t37.5 80t17.5 76v13q0 23 -2.5 68.5t-9 115t-15.5 151t-18.5 164.5t-18.5 161.5t-17 141.5t-13 105.5t-6 52.5q18 18 49.5 43t66 49
t64.5 42.5t45 23.5q3 -28 6.5 -88.5t7.5 -141.5t8 -177t6.5 -194.5t3.5 -175.5t1 -129q0 -34 -0.5 -90.5t-3.5 -116.5t-10 -88q-22 -95 -68.5 -172.5t-107 -139.5t-129.5 -108.5t-136.5 -78.5t-127.5 -50t-102 -23z" />
    <glyph glyph-name="uniFEFC" unicode="&#xfee0;&#xfe8e;" horiz-adv-x="1412" arabic-form="final" 
d="M1055 325q-33 -71 -79.5 -130.5t-100.5 -108.5t-113.5 -86.5t-119 -64.5t-116.5 -43.5t-106 -22.5q-2 0 -21 9t-49.5 25t-66.5 36t-67.5 39t-53.5 35t-25 24q1 4 29 7t73.5 7.5t105 12.5t124 23t129.5 37.5t122 56.5q-72 156 -157 297.5t-171 264t-166.5 222
t-143.5 171.5q5 15 12.5 39.5t17 53t19.5 57.5t19.5 52.5t17.5 39t14 16.5q1 0 22.5 -27t56.5 -75t80.5 -114.5t96.5 -145t103 -166.5t99.5 -179.5t87 -183t65.5 -177.5q6 -20 6.5 -35.5t0.5 -23.5q0 -17 -1 -34q21 18 46.5 50.5t47.5 71.5t37.5 80t17.5 76v13
q0 23 -2.5 68.5t-9 115t-15.5 151t-18.5 164.5t-19 161.5t-17.5 141.5t-13 105.5t-6 52.5q18 17 50 42t66 49t64 43t45 24q3 -10 5.5 -60t4.5 -127t4 -175t4.5 -203.5t5.5 -212t7 -200.5q4 -117 27.5 -196.5t62.5 -128t92 -69.5t117 -21h30v-249h-30q-17 0 -45 3t-61 14.5
t-68.5 32.5t-68 57.5t-60 89.5t-44.5 128z" />
    <glyph glyph-name="uniFEF7" unicode="&#xfedf;&#xfe84;" horiz-adv-x="1203" arabic-form="isolated" 
d="M420 -131q-2 0 -21 9t-49.5 25t-66.5 36t-67.5 39t-53.5 35t-25 24q1 4 28.5 7t73.5 7.5t105.5 12.5t123.5 23t129 37.5t122 56.5q-72 156 -157 297.5t-170.5 264t-166 222t-143.5 171.5q6 19 14.5 46t18.5 56t20 57t19 50.5t16 35.5t10 13h1q1 0 22.5 -27.5t56.5 -75.5
t81 -114.5t96.5 -145t102.5 -166t99.5 -179t87 -183t65.5 -177.5q6 -20 6.5 -35.5t0.5 -23.5q0 -17 -1 -34q21 18 46.5 50.5t47.5 71.5t37.5 80t17.5 76v13q0 23 -2.5 68.5t-9 115t-15.5 151t-18.5 164.5t-18.5 161.5t-17 141.5t-13 105.5t-6 52.5q18 18 49.5 43t66 49
t64.5 42.5t45 23.5q3 -28 6.5 -88.5t7.5 -141.5t8 -177t6.5 -194.5t3.5 -175.5t1 -129q0 -34 -0.5 -90.5t-3.5 -116.5t-10 -88q-22 -95 -68.5 -172.5t-107 -139.5t-129.5 -108.5t-136.5 -78.5t-127.5 -50t-102 -23zM249 1941q50 0 93.5 -24.5t81.5 -90.5l-41 -28
q-8 5 -33 14.5t-69 9.5h-16q-29 -2 -54.5 -12t-44.5 -23.5t-29.5 -26t-10.5 -18.5q0 -8 10.5 -20.5t31.5 -25.5t52.5 -24.5t72.5 -17.5q27 4 49 8t40.5 8t35 8t34.5 9l-23 -122q-5 -2 -11 -2.5t-12 -2.5q-57 -11 -105.5 -22t-95.5 -26.5t-97 -37.5t-110 -56l39 121l84 49
q-9 8 -21.5 20t-24 28.5t-20.5 36.5t-11 44v8q0 16 7 37.5t22 46.5t35.5 48.5t44 42t48 30t48.5 11.5z" />
    <glyph glyph-name="uniFEF8" unicode="&#xfee0;&#xfe84;" horiz-adv-x="1412" arabic-form="final" 
d="M1055 325q-33 -71 -79.5 -130.5t-100.5 -108.5t-113.5 -86.5t-119 -64.5t-116.5 -43.5t-106 -22.5q-2 0 -21 9t-49.5 25t-66.5 36t-67.5 39t-53.5 35t-25 24q1 4 29 7t73.5 7.5t105 12.5t124 23t129.5 37.5t122 56.5q-72 156 -157 297.5t-171 264t-166.5 222
t-143.5 171.5q5 15 12.5 39.5t17 53t19.5 57.5t19.5 52.5t17.5 39t14 16.5q1 0 22.5 -27t56.5 -75t80.5 -114.5t96.5 -145t103 -166.5t99.5 -179.5t87 -183t65.5 -177.5q6 -20 6.5 -35.5t0.5 -23.5q0 -17 -1 -34q21 18 46.5 50.5t47.5 71.5t37.5 80t17.5 76v13
q0 23 -2.5 68.5t-9 115t-15.5 151t-18.5 164.5t-19 161.5t-17.5 141.5t-13 105.5t-6 52.5q18 17 50 42t66 49t64 43t45 24q3 -10 5.5 -60t4.5 -127t4 -175t4.5 -203.5t5.5 -212t7 -200.5q4 -117 27.5 -196.5t62.5 -128t92 -69.5t117 -21h30v-249h-30q-17 0 -45 3t-61 14.5
t-68.5 32.5t-68 57.5t-60 89.5t-44.5 128zM249 1941q50 0 93.5 -24.5t81.5 -90.5l-41 -28q-8 5 -33 14.5t-69 9.5h-16q-29 -2 -54.5 -12t-44.5 -23.5t-29.5 -26t-10.5 -18.5q0 -8 10.5 -20.5t31.5 -25.5t52.5 -24.5t72.5 -17.5q27 4 49 8t40.5 8t35 8t34.5 9l-23 -122
q-5 -2 -11 -2.5t-12 -2.5q-57 -11 -105.5 -22t-95.5 -26.5t-97 -37.5t-110 -56l39 121l84 49q-9 8 -21.5 20t-24 28.5t-20.5 36.5t-11 44v8q0 16 7 37.5t22 46.5t35.5 48.5t44 42t48 30t48.5 11.5z" />
    <glyph glyph-name="uniFEF9" unicode="&#xfedf;&#xfe88;" horiz-adv-x="1203" arabic-form="isolated" 
d="M420 -131q-2 0 -21 9t-49.5 25t-66.5 36t-67.5 39t-53.5 35t-25 24q1 4 28.5 7t73.5 7.5t105.5 12.5t123.5 23t129 37.5t122 56.5q-72 156 -157 297.5t-170.5 264t-166 222t-143.5 171.5q6 19 14.5 46t18.5 56t20 57t19 50.5t16 35.5t10 13h1q1 0 22.5 -27.5t56.5 -75.5
t81 -114.5t96.5 -145t102.5 -166t99.5 -179t87 -183t65.5 -177.5q6 -20 6.5 -35.5t0.5 -23.5q0 -17 -1 -34q21 18 46.5 50.5t47.5 71.5t37.5 80t17.5 76v13q0 23 -2.5 68.5t-9 115t-15.5 151t-18.5 164.5t-18.5 161.5t-17 141.5t-13 105.5t-6 52.5q18 18 49.5 43t66 49
t64.5 42.5t45 23.5q3 -28 6.5 -88.5t7.5 -141.5t8 -177t6.5 -194.5t3.5 -175.5t1 -129q0 -34 -0.5 -90.5t-3.5 -116.5t-10 -88q-22 -95 -68.5 -172.5t-107 -139.5t-129.5 -108.5t-136.5 -78.5t-127.5 -50t-102 -23zM919 -91q50 0 93.5 -24.5t81.5 -90.5l-41 -28
q-8 5 -33 14.5t-69 9.5h-16q-29 -2 -54.5 -12t-44.5 -23.5t-29.5 -26t-10.5 -18.5q0 -8 10.5 -20.5t31.5 -25.5t52.5 -24.5t72.5 -17.5q27 4 49 8t40.5 8t35 8t34.5 9l-23 -122q-5 -2 -11 -2.5t-12 -2.5q-57 -11 -105.5 -22t-95.5 -26.5t-97 -37.5t-110 -56l39 121l84 49
q-9 8 -21.5 20t-24 28.5t-20.5 36.5t-11 44v8q0 16 7 37.5t22 46.5t35.5 48.5t44 42t48 30t48.5 11.5z" />
    <glyph glyph-name="uniFEFA" unicode="&#xfee0;&#xfe88;" horiz-adv-x="1412" arabic-form="final" 
d="M1055 325q-33 -71 -79.5 -130.5t-100.5 -108.5t-113.5 -86.5t-119 -64.5t-116.5 -43.5t-106 -22.5q-2 0 -21 9t-49.5 25t-66.5 36t-67.5 39t-53.5 35t-25 24q1 4 29 7t73.5 7.5t105 12.5t124 23t129.5 37.5t122 56.5q-72 156 -157 297.5t-171 264t-166.5 222
t-143.5 171.5q5 15 12.5 39.5t17 53t19.5 57.5t19.5 52.5t17.5 39t14 16.5q1 0 22.5 -27t56.5 -75t80.5 -114.5t96.5 -145t103 -166.5t99.5 -179.5t87 -183t65.5 -177.5q6 -20 6.5 -35.5t0.5 -23.5q0 -17 -1 -34q21 18 46.5 50.5t47.5 71.5t37.5 80t17.5 76v13
q0 23 -2.5 68.5t-9 115t-15.5 151t-18.5 164.5t-19 161.5t-17.5 141.5t-13 105.5t-6 52.5q18 17 50 42t66 49t64 43t45 24q3 -10 5.5 -60t4.5 -127t4 -175t4.5 -203.5t5.5 -212t7 -200.5q4 -117 27.5 -196.5t62.5 -128t92 -69.5t117 -21h30v-249h-30q-17 0 -45 3t-61 14.5
t-68.5 32.5t-68 57.5t-60 89.5t-44.5 128zM950 -91q50 0 93.5 -24.5t81.5 -90.5l-41 -28q-8 5 -33 14.5t-69 9.5h-16q-29 -2 -54.5 -12t-44.5 -23.5t-29.5 -26t-10.5 -18.5q0 -8 10.5 -20.5t31.5 -25.5t52.5 -24.5t72.5 -17.5q27 4 49 8t40.5 8t35 8t34.5 9l-23 -122
q-5 -2 -11 -2.5t-12 -2.5q-57 -11 -105.5 -22t-95.5 -26.5t-97 -37.5t-110 -56l39 121l84 49q-9 8 -21.5 20t-24 28.5t-20.5 36.5t-11 44v8q0 16 7 37.5t22 46.5t35.5 48.5t44 42t48 30t48.5 11.5z" />
    <glyph glyph-name="uniFEF5" unicode="&#xfedf;&#xfe82;" horiz-adv-x="1203" arabic-form="isolated" 
d="M420 -131q-2 0 -21 9t-49.5 25t-66.5 36t-67.5 39t-53.5 35t-25 24q1 4 28.5 7t73.5 7.5t105.5 12.5t123.5 23t129 37.5t122 56.5q-72 156 -157 297.5t-170.5 264t-166 222t-143.5 171.5q6 19 14.5 46t18.5 56t20 57t19 50.5t16 35.5t10 13h1q1 0 22.5 -27.5t56.5 -75.5
t81 -114.5t96.5 -145t102.5 -166t99.5 -179t87 -183t65.5 -177.5q6 -20 6.5 -35.5t0.5 -23.5q0 -17 -1 -34q21 18 46.5 50.5t47.5 71.5t37.5 80t17.5 76v13q0 23 -2.5 68.5t-9 115t-15.5 151t-18.5 164.5t-18.5 161.5t-17 141.5t-13 105.5t-6 52.5q18 18 49.5 43t66 49
t64.5 42.5t45 23.5q3 -28 6.5 -88.5t7.5 -141.5t8 -177t6.5 -194.5t3.5 -175.5t1 -129q0 -34 -0.5 -90.5t-3.5 -116.5t-10 -88q-22 -95 -68.5 -172.5t-107 -139.5t-129.5 -108.5t-136.5 -78.5t-127.5 -50t-102 -23zM714 1670q-12 -20 -34 -50.5t-52.5 -60t-69 -52
t-83.5 -27.5q-18 -2 -36 -3t-36 -1q-72 0 -137 9.5t-111 17.5q-32 -9 -58 -31t-49 -49l-24 16q6 29 18 66t29.5 72.5t40.5 64t51 40.5q38 -6 72.5 -12.5t74 -12t87 -9t112.5 -3.5q34 0 62.5 5t51.5 11.5t41.5 14.5t32.5 14z" />
    <glyph glyph-name="uniFEF6" unicode="&#xfee0;&#xfe82;" horiz-adv-x="1412" arabic-form="final" 
d="M1055 325q-33 -71 -79.5 -130.5t-100.5 -108.5t-113.5 -86.5t-119 -64.5t-116.5 -43.5t-106 -22.5q-2 0 -21 9t-49.5 25t-66.5 36t-67.5 39t-53.5 35t-25 24q1 4 29 7t73.5 7.5t105 12.5t124 23t129.5 37.5t122 56.5q-72 156 -157 297.5t-171 264t-166.5 222
t-143.5 171.5q5 15 12.5 39.5t17 53t19.5 57.5t19.5 52.5t17.5 39t14 16.5q1 0 22.5 -27t56.5 -75t80.5 -114.5t96.5 -145t103 -166.5t99.5 -179.5t87 -183t65.5 -177.5q6 -20 6.5 -35.5t0.5 -23.5q0 -17 -1 -34q21 18 46.5 50.5t47.5 71.5t37.5 80t17.5 76v13
q0 23 -2.5 68.5t-9 115t-15.5 151t-18.5 164.5t-19 161.5t-17.5 141.5t-13 105.5t-6 52.5q18 17 50 42t66 49t64 43t45 24q3 -10 5.5 -60t4.5 -127t4 -175t4.5 -203.5t5.5 -212t7 -200.5q4 -117 27.5 -196.5t62.5 -128t92 -69.5t117 -21h30v-249h-30q-17 0 -45 3t-61 14.5
t-68.5 32.5t-68 57.5t-60 89.5t-44.5 128zM714 1670q-12 -20 -34 -50.5t-52.5 -60t-69 -52t-83.5 -27.5q-18 -2 -36 -3t-36 -1q-72 0 -137 9.5t-111 17.5q-32 -9 -58 -31t-49 -49l-24 16q6 29 18 66t29.5 72.5t40.5 64t51 40.5q38 -6 72.5 -12.5t74 -12t87 -9t112.5 -3.5
q34 0 62.5 5t51.5 11.5t41.5 14.5t32.5 14z" />
    <glyph glyph-name="uni06440671.isol" unicode="&#xfedf;&#xfb51;" horiz-adv-x="1203" 
d="M420 -131q-2 0 -21 9t-49.5 25t-66.5 36t-67.5 39t-53.5 35t-25 24q1 4 28.5 7t73.5 7.5t105.5 12.5t123.5 23t129 37.5t122 56.5q-72 156 -157 297.5t-170.5 264t-166 222t-143.5 171.5q6 19 14.5 46t18.5 56t20 57t19 50.5t16 35.5t10 13h1q1 0 22.5 -27.5t56.5 -75.5
t81 -114.5t96.5 -145t102.5 -166t99.5 -179t87 -183t65.5 -177.5q6 -20 6.5 -35.5t0.5 -23.5q0 -17 -1 -34q21 18 46.5 50.5t47.5 71.5t37.5 80t17.5 76v13q0 23 -2.5 68.5t-9 115t-15.5 151t-18.5 164.5t-18.5 161.5t-17 141.5t-13 105.5t-6 52.5q18 18 49.5 43t66 49
t64.5 42.5t45 23.5q3 -28 6.5 -88.5t7.5 -141.5t8 -177t6.5 -194.5t3.5 -175.5t1 -129q0 -34 -0.5 -90.5t-3.5 -116.5t-10 -88q-22 -95 -68.5 -172.5t-107 -139.5t-129.5 -108.5t-136.5 -78.5t-127.5 -50t-102 -23zM556 1619q-5 -28 -25.5 -54t-45.5 -53
q-21 -14 -40.5 -20.5t-36 -9t-29.5 -2.5q-2 0 -11 0.5t-21 0.5q-33 3 -65.5 13t-61.5 21t-52 19.5t-36 8.5q-8 0 -19.5 -6t-24 -15.5t-25.5 -21t-23 -21.5l-37 30q54 66 93.5 101t59.5 36l53 -17q61 74 117 114.5t93 40.5h2q14 0 37 -14.5t44.5 -38t37.5 -53t16 -59.5z
M503 1616q-9 16 -22 30.5t-27 25t-27 15.5t-23 5h-3q-31 -3 -65 -26.5t-79 -55.5q10 -5 39.5 -12.5t54 -9.5t37.5 -2q24 0 55.5 4.5t59.5 25.5z" />
    <glyph glyph-name="uni06440671.fina" unicode="&#xfee0;&#xfb51;" horiz-adv-x="1412" 
d="M1055 325q-33 -71 -79.5 -130.5t-100.5 -108.5t-113.5 -86.5t-119 -64.5t-116.5 -43.5t-106 -22.5q-2 0 -21 9t-49.5 25t-66.5 36t-67.5 39t-53.5 35t-25 24q1 4 29 7t73.5 7.5t105 12.5t124 23t129.5 37.5t122 56.5q-72 156 -157 297.5t-171 264t-166.5 222
t-143.5 171.5q5 15 12.5 39.5t17 53t19.5 57.5t19.5 52.5t17.5 39t14 16.5q1 0 22.5 -27t56.5 -75t80.5 -114.5t96.5 -145t103 -166.5t99.5 -179.5t87 -183t65.5 -177.5q6 -20 6.5 -35.5t0.5 -23.5q0 -17 -1 -34q21 18 46.5 50.5t47.5 71.5t37.5 80t17.5 76v13
q0 23 -2.5 68.5t-9 115t-15.5 151t-18.5 164.5t-19 161.5t-17.5 141.5t-13 105.5t-6 52.5q18 17 50 42t66 49t64 43t45 24q3 -10 5.5 -60t4.5 -127t4 -175t4.5 -203.5t5.5 -212t7 -200.5q4 -117 27.5 -196.5t62.5 -128t92 -69.5t117 -21h30v-249h-30q-17 0 -45 3t-61 14.5
t-68.5 32.5t-68 57.5t-60 89.5t-44.5 128zM556 1619q-5 -28 -25.5 -54t-45.5 -53q-21 -14 -40.5 -20.5t-36 -9t-29.5 -2.5q-2 0 -11 0.5t-21 0.5q-33 3 -65.5 13t-61.5 21t-52 19.5t-36 8.5q-8 0 -19.5 -6t-24 -15.5t-25.5 -21t-23 -21.5l-37 30q54 66 93.5 101t59.5 36
l53 -17q61 74 117 114.5t93 40.5h2q14 0 37 -14.5t44.5 -38t37.5 -53t16 -59.5zM503 1616q-9 16 -22 30.5t-27 25t-27 15.5t-23 5h-3q-31 -3 -65 -26.5t-79 -55.5q10 -5 39.5 -12.5t54 -9.5t37.5 -2q24 0 55.5 4.5t59.5 25.5z" />
    <glyph glyph-name="uniFDF2" unicode="&#xfedf;&#xfee0;&#xfeea;" horiz-adv-x="1938" arabic-form="isolated" 
d="M1833 1502q8 -83 18 -188.5t19.5 -218.5t19 -227t16 -214t9.5 -170t3 -111v-21q-2 -69 -32.5 -132t-80.5 -111.5t-115 -78t-136 -30.5h-71q-36 0 -71.5 12t-68 31.5t-60 45t-46.5 53.5q-51 -62 -124 -101t-156 -41h-40q-81 0 -139.5 26.5t-98.5 67t-64.5 89t-38.5 93.5
l-121 -125q-23 0 -63 3.5t-89.5 11t-103 19.5t-102.5 30q-12 15 -22.5 44t-18.5 64.5t-13 74t-5.5 59t-0.5 26.5q0 27 4 51.5t15 37.5q18 21 48.5 44t68.5 46.5t80 47t84 46.5t80 45t68 42l-14 80l194 173q17 -201 32 -363q6 -69 12.5 -136t12 -121t9 -89t5.5 -41
q4 -18 18.5 -34.5t39 -30t58.5 -22t77 -9.5q28 0 58.5 1.5t60.5 6.5t56.5 14t46.5 24q2 7 2 29q0 15 -1.5 51.5t-7 115t-13 173t-15.5 189t-14.5 179.5t-9.5 144l227 160q5 -2 5.5 -14t0.5 -19v-90t-0.5 -144.5t-1 -178.5t-0.5 -192t-0.5 -155.5t-0.5 -87.5q0 -55 1 -101
q12 -31 36 -51.5t53 -32.5t59 -17t56 -5q21 0 50.5 1.5t60 6.5t59.5 14.5t49 24.5q2 4 2 17q0 11 -2 37t-8.5 81.5t-16 127t-21 152t-24 165.5t-25 168t-24 159t-21.5 139q19 15 50 38q26 20 69 50t106 72h2zM1454 1908q3 0 14 -28t22 -69t17.5 -82t6.5 -71v-16
q-8 -36 -24 -66t-36 -52t-43 -34t-46 -13q-34 0 -55.5 10t-35.5 22q-16 14 -24 33q-24 -42 -62.5 -63t-96.5 -21q-45 2 -71 22t-38 49t-12.5 48t-0.5 22q0 33 5.5 64.5t15.5 59t18 42.5l35 -15q-11 -45 -11 -75q0 -2 0.5 -18t9.5 -35.5t25.5 -27.5t37.5 -8q28 0 50 14
t37.5 38t25.5 56t15 69l54 5q1 -12 1 -24q0 -17 -2.5 -37.5t-7.5 -53.5q14 -24 34 -34t50 -10q35 0 62 6t44 27q0 19 -10 43.5t-23 49t-25.5 45.5t-18.5 33zM513 689q-62 -31 -124.5 -57t-116.5 -49t-95.5 -44.5t-61.5 -44.5q1 -29 31 -48.5t86.5 -31.5t137.5 -19t183 -12z
M1266 2218q9 -29 12 -62t3 -62q0 -9 -0.5 -32.5t-5 -58t-13.5 -56.5q-3 -9 -13.5 -17.5t-22 -15t-20.5 -10.5l-10 -5q6 42 6 77q0 34 -4.5 63t-12.5 53.5t-17 45.5q10 9 25.5 23t30.5 26.5t26.5 21.5t15.5 9z" />
    <glyph glyph-name="uniFDFC" unicode="&#x631;&#xfbfe;&#xfe8e;&#x644;" horiz-adv-x="3154" arabic-form="isolated" 
d="M2937 625q9 -7 24.5 -38.5t33.5 -79t36.5 -105t34.5 -117t26.5 -116t12.5 -100.5q1 -17 1 -33q0 -97 -28 -186.5t-77.5 -165.5t-111 -132.5t-117.5 -93.5t-99.5 -55.5t-58.5 -18.5q-10 6 -30 16.5t-53 28.5t-80.5 44t-112.5 63q-8 6 -8 10q0 2 3.5 5t6.5 4q72 20 146 48
t143.5 64t131.5 79.5t108.5 94.5t74.5 110t30 125q-21 45 -41.5 81t-43 72t-48 76.5t-55.5 94.5q15 29 38 68t46 74t41.5 59.5t24.5 24.5zM2367 879q5 0 21 -30t35 -83.5t36 -126.5t22 -137t5 -107q0 -47 -5.5 -119.5t-36.5 -170.5q-20 -18 -57 -33t-85 -26.5t-103.5 -20
t-111.5 -14t-109.5 -8.5t-97.5 -3h-61v249h57q51 0 107.5 2.5t111 6.5t105 9t89 10.5t62.5 11t27 10.5q-6 31 -26 78t-45.5 96.5t-51 94.5t-41.5 72zM2061 -573l-160 160l160 160l160 -160zM1701 -573l-160 160l160 160l160 -160zM1600 1655q6 -1 7 -12.5t2 -18.5
q9 -163 13 -297t5.5 -247.5t1.5 -212.5t0.5 -192.5t2.5 -186.5t8 -195q37 -22 75 -33t83 -11h59v-249h-54q-90 0 -154.5 22t-107 63.5t-63.5 101t-23 134.5q-2 78 -6 168t-9 185t-11.5 192t-13.5 189q-9 109 -18.5 220.5t-20.5 223.5q7 8 25.5 22.5t42 32t49 35.5t48 32.5
t38.5 24t21 9.5zM1226 1649q6 -3 6.5 -14.5t0.5 -18.5q0 -49 -0.5 -124.5t-1.5 -168.5t-2.5 -200.5t-3.5 -220t-4.5 -227t-4.5 -221.5t-4 -204t-3 -174q-2 -100 -13.5 -187t-37.5 -159t-69.5 -128t-110 -95t-159 -59t-215.5 -20q-104 0 -194 22.5t-157.5 72t-109 128.5
t-44.5 144t-3 81q0 102 31 241t113 330l90 -49q-28 -83 -53 -168t-34 -146.5t-9 -103.5q0 -30 6 -79t45 -100t113.5 -80t196.5 -29q126 0 215 18.5t145 65.5t80 125.5t24 195.5v10q0 20 -1.5 63t-3.5 99.5t-5 120.5t-5.5 126.5t-4.5 117.5t-3 93q-4 123 -8.5 224t-9 191
t-9.5 174t-9 173q16 14 33 27q14 11 30 24t29 22q19 14 40.5 29.5t40 28t33 21t19.5 8.5h1z" />
    <glyph glyph-name="uni0621" unicode="&#x621;" horiz-adv-x="973" arabic-form="isolated" 
d="M502 770q43 0 84 -10t79.5 -33t73.5 -61.5t68 -96.5l-71 -48l-22 11t-36 14t-52 12.5t-68 5.5q-7 0 -13.5 -0.5t-14.5 -0.5q-51 -3 -95 -21.5t-77 -41t-51.5 -44.5t-18.5 -32q0 -13 18.5 -35t55.5 -45t91.5 -43.5t126.5 -30.5q47 7 85 14t70 13.5t61.5 14t59.5 15.5
l-40 -212q-8 -2 -19 -4t-21 -4q-99 -19 -183 -38t-166.5 -46t-169 -65.5t-191.5 -97.5l67 210l147 86q-16 13 -37.5 34.5t-41.5 49.5t-35.5 63t-19.5 76q-1 6 -1 12q0 29 12.5 67t39 81.5t62 85t76 74t83.5 52t84 19.5z" />
    <glyph glyph-name="uni0627" unicode="&#x627;" horiz-adv-x="505" arabic-form="isolated" 
d="M356 1650q7 0 8 -11.5t1 -19.5q1 -50 1.5 -115.5t0.5 -135v-136.5v-119q0 -59 -1 -133.5t-2.5 -157t-3.5 -169.5t-5.5 -171.5t-7.5 -163t-9 -143.5l-8 -11q-8 -12 -22 -32l-31.5 -45t-33.5 -47.5t-29.5 -39.5t-18.5 -22h-1q-1 0 -2.5 1.5t-1.5 6.5q-2 147 -5.5 296
t-7.5 286.5t-9 257.5t-10 209q-2 25 -4 61.5t-5 90t-7 128t-10 175.5q7 8 25.5 22.5t42 32.5t49 36.5t48 34t38.5 25t21 9.5z" />
    <glyph glyph-name="uniFE8E" unicode="&#x627;" horiz-adv-x="596" arabic-form="final" 
d="M359 1655q6 -1 7 -12.5t2 -18.5q9 -163 13 -297t5.5 -247.5t1.5 -212.5t0.5 -192.5t2.5 -186.5t8 -195q37 -22 75 -33t83 -11h59v-249h-54q-90 0 -154.5 22t-107 63.5t-63.5 101t-23 134.5q-2 78 -6 168t-9 185t-11.5 192t-13.5 189q-9 109 -18.5 220.5t-20.5 223.5
q7 8 25.5 22.5t42 32t49 35.5t48 32.5t38.5 24t21 9.5z" />
    <glyph glyph-name="uni062D" unicode="&#x62d;" horiz-adv-x="1505" arabic-form="isolated" 
d="M475 918q43 0 97 -15.5t120 -40.5t144 -56t169.5 -62t196.5 -59t225 -46l-91 -229q-92 -16 -198 -40t-213.5 -56t-212 -72.5t-193.5 -90.5t-157.5 -110t-103.5 -131q45 -103 118 -173.5t162 -114t187.5 -63t194.5 -19.5q78 0 150.5 6t137 16.5t118.5 23t94 26.5v-2
l-82 -225q-22 -16 -67.5 -32.5t-104.5 -30t-127 -22t-135 -8.5q-92 0 -184 16t-176.5 48.5t-158 82.5t-127.5 117.5t-85 154t-31 192.5q0 47 14.5 102.5t51 114.5t98.5 118t158 113.5t229.5 101.5t311.5 82q-58 16 -123.5 34.5t-129.5 36.5t-123.5 34.5t-105.5 29.5
t-75.5 20.5t-33.5 7.5q-12 0 -29.5 -14t-37 -35.5t-39 -48.5t-35.5 -54l-94 61q35 61 66.5 116.5t65 98.5t71.5 69t86 27h7z" />
    <glyph glyph-name="uniFEA3" unicode="&#x62d;" horiz-adv-x="1443" arabic-form="initial" 
d="M453 863q43 0 98.5 -16.5t122.5 -42t145.5 -57t168.5 -61.5t191.5 -55t213.5 -38l-81 -193q-62 -26 -145.5 -65t-184 -83t-215 -88.5t-238 -80.5t-253.5 -59t-260 -24h-36v249h39q101 0 196 9t181 23.5t163 33.5t142 39q152 46 279 105q-60 18 -124.5 39t-127 41.5
t-119.5 39t-102.5 33t-76 23t-39.5 8.5q-21 0 -42 -14.5t-40.5 -37t-37 -48.5t-32.5 -48l-92 51q31 66 63.5 123.5t69 100t77 67.5t88.5 26h8z" />
    <glyph glyph-name="uniFEA4" unicode="&#x62d;" horiz-adv-x="1443" arabic-form="medial" 
d="M452 863q43 0 98.5 -16.5t122.5 -42t146 -57t169 -61.5t191 -55t214 -38l-82 -193q-34 -14 -74 -32t-86 -40q3 -27 30 -43t66.5 -24t87.5 -10t93 -2h35v-249h-35q-30 0 -69 2.5t-81.5 11t-85 26t-78.5 47t-63 73.5t-38 106q-102 -45 -219 -92.5t-244 -86t-261 -63
t-270 -24.5h-39v249h43q100 0 194.5 9t181 23.5t162.5 33.5t141 39q151 46 277 105q-60 18 -124.5 39t-127 41.5t-119.5 39t-102.5 33t-76 23t-39.5 8.5q-21 0 -41.5 -14.5t-40 -37t-37.5 -48.5t-33 -48l-92 51q31 66 64 123.5t69 100t76.5 67.5t88.5 26h8z" />
    <glyph glyph-name="uniFEA2" unicode="&#x62d;" horiz-adv-x="1492" arabic-form="final" 
d="M475 918q43 0 97 -15.5t120 -40.5t144 -56t169.5 -62t196.5 -59t225 -46l-91 -229l-147 -30q10 -30 40 -54t67 -41.5t75 -26.5t65 -9h76v-249h-76q-75 0 -144.5 18t-123 58.5t-87.5 106.5t-38 162q-171 -44 -301 -92t-225.5 -102t-158.5 -114t-100 -127
q45 -103 118 -173.5t162 -114t187.5 -63t194.5 -19.5q78 0 150.5 6t137 16.5t118.5 23t94 26.5v-2l-82 -225q-22 -16 -67.5 -32.5t-104.5 -30t-127 -22t-135 -8.5q-92 0 -184 16t-176.5 48.5t-158 82.5t-127.5 117.5t-85 154t-31 192.5q0 47 14.5 102.5t51 114.5t98.5 118
t158 113.5t229.5 101.5t311.5 82q-58 16 -123.5 34.5t-129.5 36.5t-123.5 34.5t-105.5 29.5t-75.5 20.5t-33.5 7.5q-12 0 -29.5 -14t-37 -35.5t-39 -48.5t-35.5 -54l-94 61q35 61 66.5 116.5t65 98.5t71.5 69t86 27h7z" />
    <glyph glyph-name="uni062F" unicode="&#x62f;" horiz-adv-x="973" arabic-form="isolated" 
d="M438 1061q3 0 32.5 -24t73 -66t95.5 -98.5t100 -122t86 -136.5t55 -141q9 -40 9.5 -71.5t0.5 -40.5q0 -45 -4.5 -94t-15.5 -96t-25 -73q-5 -9 -26 -26.5t-61.5 -34t-103 -29t-152.5 -12.5q-71 0 -134.5 7t-112 17t-77.5 19t-31 14q-8 14 -15 42.5t-12 60.5t-7 58t-2 42
v12q0 11 1 25.5t6 14.5h1q13 -8 40.5 -19.5t72 -22t107 -18t145.5 -7.5q37 0 79.5 1.5t84.5 9.5t80.5 24.5t66.5 46.5q-17 49 -50.5 99.5t-76 99.5t-92 96.5t-98.5 90t-95 80t-81 66.5q14 24 28 48.5t27 43.5l22.5 36t24.5 37t21.5 29t12.5 12z" />
    <glyph glyph-name="uni0631" unicode="&#x631;" horiz-adv-x="744" arabic-form="isolated" 
d="M479 625q9 -7 24.5 -38.5t33.5 -79t36.5 -105t34.5 -117t26.5 -116t12.5 -100.5q1 -17 1 -33q0 -97 -28 -186.5t-77.5 -165.5t-111 -132.5t-117.5 -93.5t-99.5 -55.5t-58.5 -18.5q-10 6 -30 16.5t-53 28.5t-80.5 44t-112.5 63q-8 6 -8 10q0 2 3.5 5t6.5 4q72 20 146 48
t143.5 64t131.5 79.5t108.5 94.5t74.5 110t30 125q-21 45 -41.5 81t-43 72t-48 76.5t-55.5 94.5q15 29 38 68t46 74t41.5 59.5t24.5 24.5z" />
    <glyph glyph-name="uniFEAE" unicode="&#x631;" horiz-adv-x="789" arabic-form="final" 
d="M500 625q1 0 4 -3q15 -32 34 -72t41 -81.5t47 -81t52.5 -70.5t58 -49.5t62.5 -18.5h10v-249h-10q-28 0 -72 11.5t-87 43.5q2 -26 2 -52q0 -77 -23.5 -156t-70 -153.5t-106 -131.5t-115.5 -96t-101.5 -59t-64.5 -20q-6 0 -8 1q-22 9 -59 28.5t-73 39.5q-11 6 -29.5 16.5
t-39 22.5t-39.5 23t-31 18q-8 7 -8 11q0 2 3 4.5t6 3.5q138 42 253 94t198.5 116t130.5 140.5t50 168.5q-21 46 -38 80.5t-34.5 70t-38 79.5t-48.5 110q5 9 16.5 28t26 42.5t30.5 48.5t30.5 45.5t25.5 33.5t15 13zM-779 -617q-1 0 -1 1z" />
    <glyph glyph-name="uni0633" unicode="&#x633;" horiz-adv-x="2495" arabic-form="isolated" 
d="M2298 822q7 -2 18 -27.5t22.5 -66t23 -93t19.5 -108t10 -93.5t2 -57q0 -32 -3 -61q-17 -69 -46 -127t-70 -100t-93 -65.5t-114 -23.5q-37 0 -73 10.5t-68 34t-59 60t-45 89.5q-36 -96 -106.5 -144.5t-169.5 -48.5v-1q-69 0 -106 15t-59 37q0 -150 -43.5 -273.5
t-129 -211.5t-211.5 -136.5t-292 -48.5q-120 0 -219 29.5t-171.5 89.5t-114.5 151.5t-45 161t-3 85.5q0 112 33 258.5t115 337.5l90 -49q-21 -62 -42 -130t-36 -135.5t-20 -116t-5 -77.5q0 -34 6 -79.5t31 -96t73 -87.5t121 -57.5t178 -20.5q124 0 217.5 19.5t162 60
t112.5 102.5t69 148q-35 112 -73.5 209.5t-72.5 195.5q13 22 31 51.5t37 58.5t36.5 54.5t30.5 39.5q8 8 11 8t6 -8q50 -111 84.5 -177t66 -101.5t65 -46.5t80.5 -11q40 0 69 15.5t50 41t35 57.5t23.5 65.5t15.5 64.5t11 54l126 45q-1 -31 -2 -54.5t-3 -47.5t-5 -51.5
t-6 -65.5q9 -27 29.5 -50t47.5 -39.5t56.5 -25.5t55.5 -9q34 0 69 5t64 17.5t49.5 33t26.5 52.5q-17 44 -31.5 76.5t-28.5 59.5t-28 52.5t-28 55.5q35 62 64 110q12 21 24.5 40.5t23.5 35.5t19 25.5t11 9.5h1z" />
    <glyph glyph-name="uniFEB3" unicode="&#x633;" horiz-adv-x="1505" arabic-form="initial" 
d="M1320 822q4 0 10 -13.5t13 -36.5t14.5 -55t15.5 -69q11 -55 17.5 -109t8.5 -95t2 -69q0 -7 -0.5 -27t-2.5 -32q-21 -69 -49.5 -127t-67 -100t-87.5 -65.5t-110 -23.5h-10q-55 1 -93.5 13.5t-65.5 36.5t-44.5 59t-30.5 81q-42 -100 -112.5 -144.5t-169.5 -44.5h-6
q-47 0 -84 17t-63.5 45.5t-41.5 65.5t-18 77q-27 -66 -65.5 -106t-83.5 -62.5t-95 -30t-101 -7.5h-20v249h60q65 0 112.5 18t82.5 55t60.5 93.5t46.5 132.5l129 44q-10 -38 -18 -79.5t-17 -86.5q-4 -21 -4 -39q0 -21 7.5 -46.5t30 -47.5t54.5 -33t67 -11q50 0 95 22t71 69
q16 28 27 51.5t20.5 47t18 49.5t19.5 61l127 41q-10 -51 -23 -109t-32 -127q17 -53 62.5 -79t98.5 -26q34 0 69 5t63.5 17.5t49 33t26.5 52.5q-17 44 -30 76.5t-25.5 60.5t-25 53.5t-27.5 55.5q34 61 63 109q12 21 25 40.5t24 35t19.5 25t13.5 9.5z" />
    <glyph glyph-name="uniFEB4" unicode="&#x633;" horiz-adv-x="1598" arabic-form="medial" 
d="M483 588q-10 -38 -20 -79.5t-21 -83.5q-8 -31 -8 -56q0 -12 3.5 -33.5t22 -43.5t47 -32.5t63.5 -10.5q50 0 94 20t70 67q16 28 27.5 51.5t21 47t18.5 49.5t20 61l127 41q-10 -51 -23 -107t-32 -125q9 -31 27 -51.5t41 -32.5t49 -17t53 -5q63 0 102 21.5t61.5 61t33.5 94
t19 120.5l122 42q-3 -45 -7 -87q-4 -37 -9.5 -77t-13.5 -71q14 -37 40 -58t59 -31t71 -12t77 -2v-249q-69 1 -122 17t-91.5 43t-62 63.5t-32.5 78.5q-86 -196 -257 -201q-55 1 -93.5 15t-65.5 39.5t-44.5 62t-30.5 82.5q-21 -42 -49.5 -78t-64 -63t-77.5 -42.5t-91 -15.5h-6
q-47 0 -82 17t-59 45.5t-37 65.5t-16 77q-33 -77 -75 -119t-88.5 -61.5t-95.5 -22.5t-97 -3l-1 249h51q66 0 116.5 17t89.5 53t67.5 91.5t49.5 131.5z" />
    <glyph glyph-name="uniFEB2" unicode="&#x633;" horiz-adv-x="2609" arabic-form="final" 
d="M1253 593q3 0 6 -8q46 -98 80.5 -162.5t66.5 -103t67 -54.5t82 -16q25 0 52.5 5t53 15.5t47 27t34.5 39.5q16 28 27.5 51.5t21 47t18.5 49.5t20 61l127 41q-10 -51 -23 -107t-32 -125q9 -31 26.5 -51.5t40.5 -32.5t49.5 -16.5t53.5 -4.5q63 0 102 21.5t61.5 60.5
t33.5 93.5t19 120.5l121 42q-3 -45 -7 -87q-4 -37 -9 -77t-13 -71q14 -37 40 -58t60 -31t72.5 -12t77.5 -2v-249q-70 0 -123.5 16t-92 43t-61.5 64t-32 79q-48 -99 -110 -150t-149 -51q-48 0 -83.5 14t-62.5 40t-47 63t-38 82q-21 -42 -46.5 -78t-59.5 -63t-77.5 -42.5
t-101.5 -15.5q-35 0 -65.5 7.5t-53 17t-35.5 17.5t-14 9q0 -150 -43.5 -273.5t-129 -211.5t-211.5 -136.5t-292 -48.5q-120 0 -219 29.5t-171.5 89.5t-114.5 151.5t-45 161t-3 85.5q0 112 33 258.5t115 337.5l90 -47q-21 -62 -42 -130t-36 -136t-19.5 -116t-4.5 -76
q0 -35 6 -81t30.5 -97t72.5 -87.5t121 -57.5t178 -21q124 0 217.5 19.5t162 60t112.5 102.5t69 148q-34 112 -72 209.5t-72 195.5q15 27 34.5 59t32.5 52q22 36 41.5 61t24.5 32q8 8 11 8z" />
    <glyph glyph-name="uni0635" unicode="&#x635;" horiz-adv-x="2590" arabic-form="isolated" 
d="M1843 220q67 0 140 7.5t146.5 26.5t143 51.5t129.5 82.5q1 10 1 19q0 78 -56.5 125.5t-170.5 47.5q-59 0 -122.5 -14.5t-125 -39t-119.5 -57t-107 -69t-86.5 -74.5t-58.5 -74q12 -4 38.5 -9.5t64 -10.5t84 -8.5t99.5 -3.5zM2181 814q57 0 102 -13.5t79.5 -36t60 -51
t43.5 -58.5q45 -75 60 -172q-10 -33 -23 -72.5t-28 -79t-31.5 -76.5t-33.5 -66q-54 -57 -124.5 -95.5t-150.5 -62.5t-164.5 -34.5t-166.5 -10.5q-78 0 -149.5 8t-129.5 22t-98.5 32.5t-56.5 38.5q1 -14 1.5 -28.5t0.5 -28.5q0 -150 -43 -270t-128 -204t-211 -129t-292 -45
q-120 0 -219 29.5t-171.5 89.5t-114.5 151.5t-45 161.5t-3 88q0 110 32.5 256t114.5 337l91 -49q-21 -62 -42 -130t-36.5 -135.5t-20 -115.5t-4.5 -76q0 -35 6 -81t31 -96.5t72.5 -87.5t121 -57.5t178.5 -20.5q123 0 217 19.5t162 60t112.5 102.5t68.5 148q-17 56 -36 113.5
t-39 114.5t-39.5 111.5t-36.5 104.5q13 22 30.5 52t36 59t36 54t30.5 38q7 8 11 8q3 0 6 -7q28 -62 52 -112.5t47.5 -91t47.5 -71t53 -51.5v1q47 55 96.5 114.5t103.5 116.5t113.5 108.5t125.5 90.5t139 62t155 23z" />
    <glyph glyph-name="uniFEBB" unicode="&#x635;" horiz-adv-x="1691" arabic-form="initial" 
d="M946 214q66 0 140 7t148.5 26t146 51.5t133.5 82.5q1 13 1 24q0 34 -12.5 66t-44 56t-77 36t-101.5 12q-61 0 -123 -15.5t-121.5 -41.5t-113.5 -60t-100 -71t-81.5 -75t-56.5 -71q12 -3 36 -8t58 -9t77 -7t91 -3zM1298 814q61 0 107.5 -16t80.5 -42t57.5 -59t38.5 -68
q36 -85 38 -201q-20 -66 -45 -136.5t-55 -128.5q-45 -51 -113 -86t-148 -56.5t-168 -31.5t-172 -10q-71 0 -135.5 6t-118 16.5t-93 25.5t-58.5 32q-46 42 -75 97.5t-38 109.5q-29 -69 -67.5 -119t-87.5 -82.5t-110 -48t-136 -16.5h-20v249h20q102 0 169 31t111 80.5
t71.5 110.5t51.5 121l122 41q-21 -51 -27.5 -95.5t-6.5 -74.5q0 -22 4.5 -57.5t26.5 -73.5t63 -53q22 34 61.5 87.5t92 112.5t116 119t135.5 108t149.5 78t158.5 30z" />
    <glyph glyph-name="uniFEBC" unicode="&#x635;" horiz-adv-x="1756" arabic-form="medial" 
d="M946 214q66 0 140 7t148.5 26t146 51.5t133.5 82.5q1 12 1 24q0 34 -13 66t-44 56t-76.5 36t-101.5 12q-61 0 -123.5 -15.5t-121.5 -41.5t-113.5 -60t-100 -71t-81 -75t-56.5 -71q11 -3 35.5 -8t58.5 -9t77 -7t91 -3zM1298 814q61 0 107.5 -16t80.5 -42t57.5 -59
t38.5 -68q36 -85 38 -201q-14 -44 -29 -89.5t-32 -89.5h217v-249h-328q-24 1 -56.5 2t-64.5 2t-58 3.5t-38 6.5q-75 -18 -155 -26.5t-158 -8.5q-70 0 -135 6t-118 16.5t-92.5 25.5t-58.5 32q-46 42 -75 97.5t-38 109.5q-29 -69 -67.5 -119t-87.5 -82.5t-110 -48t-136 -16.5
h-20v249h20q102 0 169 31t111 80.5t71.5 110.5t51.5 121l121 41q-20 -51 -26.5 -95.5t-6.5 -73.5q0 -23 4.5 -58.5t26.5 -73.5t63 -53q22 34 61.5 87.5t92 112.5t116 119t135.5 108t149.5 78t158.5 30z" />
    <glyph glyph-name="uniFEBA" unicode="&#x635;" horiz-adv-x="2663" arabic-form="final" 
d="M1843 220q67 0 140 7.5t146.5 26.5t143 51.5t128.5 82.5q1 10 1 19q0 78 -56 125.5t-171 47.5q-60 0 -123 -14.5t-124.5 -39t-119 -57t-106.5 -69t-86.5 -74.5t-58.5 -74q12 -4 38.5 -9.5t64 -10.5t84 -8.5t99.5 -3.5zM2181 814q57 0 102 -13.5t79.5 -36t60 -51
t43.5 -58.5q45 -75 60 -172q-14 -47 -33 -103t-42 -108q15 -5 38.5 -9t48.5 -7t48.5 -5t38.5 -2h58v-249h-47q-26 0 -60.5 1t-72 4t-76 8t-72.5 14t-60.5 21.5t-39.5 29.5q-50 -25 -105.5 -42.5t-113.5 -28.5t-116.5 -16t-115.5 -5q-78 0 -149.5 8t-129.5 22t-98.5 32.5
t-56.5 38.5q1 -14 1 -28.5v-28.5q0 -150 -43 -270t-128 -204t-211 -129t-292 -45q-120 0 -219 29.5t-171.5 89.5t-114.5 151.5t-45 161t-3 85.5q0 112 33 258.5t115 337.5l90 -49q-21 -62 -42 -130t-36 -135.5t-19.5 -115.5t-4.5 -76q0 -35 6 -81t30.5 -96.5t72.5 -87.5
t121 -57.5t178 -20.5q124 0 217.5 19.5t162 60t112.5 102.5t69 148q-17 56 -36 113.5t-39 114.5t-39.5 111.5t-37.5 104.5q13 22 30.5 52t36.5 59t36.5 54t30.5 38q7 8 10 8t7 -7q28 -62 52 -112.5t47.5 -91t47.5 -71t53 -51.5v1q34 38 78.5 91t99 110t117.5 113.5
t133.5 101t147 72t157.5 27.5z" />
    <glyph glyph-name="uni0637" unicode="&#x637;" horiz-adv-x="1604" arabic-form="isolated" 
d="M781 238q77 0 162.5 6t170.5 22.5t164 44t144 71.5v5q0 84 -68.5 131.5t-190.5 47.5q-31 0 -65 -3q-46 -4 -95 -22.5t-97.5 -45t-94.5 -59.5t-86 -66.5t-72.5 -66t-53.5 -58.5q38 -3 84.5 -5t97.5 -2zM665 1644q4 -2 6 -7.5t2 -28.5q0 -12 0.5 -45.5t1.5 -82t2 -108.5
t2 -125t1.5 -131.5t1 -113t0.5 -75.5q0 -28 -0.5 -68t-1.5 -79q0 -18 -0.5 -55t-4.5 -82.5t-13.5 -94.5t-28.5 -90q52 60 117 123.5t138 115.5t153.5 85t164.5 33q61 0 107.5 -15.5t80.5 -41.5t57.5 -59.5t38.5 -68.5q36 -85 38 -201q-20 -66 -45 -136.5t-55 -128.5
q-65 -55 -141 -88.5t-163.5 -52t-187.5 -25t-212 -6.5q-69 1 -133.5 4t-121 7.5t-102.5 8.5t-77 7q-21 12 -44.5 34t-46.5 49t-43.5 55.5t-36 53.5t-23 41.5t-7.5 24.5v3q3 9 14 9q2 0 10 -2q35 -6 83.5 -12t99.5 -11.5t97.5 -10t77.5 -5.5q10 14 20 29q12 35 17 99.5
t5 146.5t-5 177t-12.5 192t-16 190.5t-17 173t-15.5 139.5t-10 90q9 7 27.5 22t42 32.5t49 36t48 34t39 25t21.5 9.5h1z" />
    <glyph glyph-name="uniFEC3" unicode="&#x637;" horiz-adv-x="1354" arabic-form="initial" 
d="M498 249q79 0 167 4t176 17.5t170 40.5t150 72v5q0 84 -68.5 131.5t-190.5 47.5q-31 0 -65 -3q-46 -5 -95 -22.5t-97.5 -44t-94.5 -58.5t-86 -65.5t-72.5 -65.5t-53.5 -58q35 0 75 -0.5t85 -0.5zM404 1645q4 -2 5.5 -7.5t1.5 -28.5q0 -16 1 -69.5t2 -128.5t2.5 -163.5
t2.5 -175t1 -163.5t-1 -128q0 -18 -0.5 -55t-4.5 -82.5t-13.5 -94.5t-28.5 -90q52 60 116 123.5t136.5 115.5t154 85t170.5 33q60 0 106 -16t79.5 -42t56.5 -59t38 -68q36 -85 38 -201q-20 -66 -45 -136.5t-55 -128.5q-46 -50 -119.5 -81.5t-166 -50.5t-199.5 -26t-219 -7
h-483v249h229q5 6 10 13.5t11 15.5q12 36 17 97t5 135q0 7 -0.5 52t-5.5 139.5t-12 191.5t-16 190.5t-17.5 173t-15.5 139.5t-10 90q9 8 28 22.5t42.5 32t49 36t47.5 34t38.5 25t22.5 9.5h1z" />
    <glyph glyph-name="uniFEC4" unicode="&#x637;" horiz-adv-x="1395" arabic-form="medial" 
d="M500 249q79 0 167 4t176 17.5t170 40.5t150 72v5q0 84 -68.5 131.5t-190.5 47.5q-31 0 -65 -3q-46 -5 -95 -22.5t-97.5 -44t-94.5 -58.5t-86 -65.5t-72.5 -65.5t-53.5 -58q35 0 75 -0.5t85 -0.5zM406 1645q4 -2 5.5 -7.5t1.5 -28.5q0 -16 1 -69.5t2 -128.5t2.5 -163.5
t2.5 -175t1 -163.5t-1 -128q0 -18 -0.5 -55t-4.5 -82.5t-13.5 -94.5t-28.5 -90q52 60 117.5 123.5t139 115.5t154 85t163.5 33q61 0 107 -16t80 -42t57.5 -59t38.5 -68q36 -85 38 -201q-14 -44 -29 -90t-32 -91h207v-249l-232 1q-15 0 -41 1t-57 3t-64 4.5t-62 6t-51 7
t-31 8.5q-91 -17 -196 -24t-216 -7h-485v249h231q5 6 10 13.5t11 15.5q12 35 17 96.5t5 134.5q0 8 -0.5 52.5t-5.5 139.5t-12 192t-16 190.5t-17.5 173t-15.5 139.5t-10 90q9 8 28 22.5t42.5 32t49 36t47.5 34t38.5 25t22.5 9.5h1z" />
    <glyph glyph-name="uniFEC2" unicode="&#x637;" horiz-adv-x="1670" arabic-form="final" 
d="M786 238q77 0 162.5 6t170.5 22.5t164 44t144 71.5v5q0 84 -68.5 131.5t-190.5 47.5q-32 0 -65 -3q-46 -4 -95 -22.5t-97.5 -45t-94.5 -59.5t-86 -66.5t-72.5 -66t-53.5 -58.5q38 -3 84 -5t98 -2zM670 1644q3 -2 5 -7.5t2 -28.5q0 -16 1 -69.5t2 -128.5t2.5 -163.5
t2.5 -175t1 -163.5t-1 -128q0 -18 -0.5 -55t-4.5 -82.5t-13.5 -94.5t-28.5 -90q52 60 115 123.5t136 115.5t155 85t172 33q60 0 105.5 -16t79 -42t56.5 -59.5t38 -67.5q36 -85 38 -201q-14 -44 -29 -89.5t-33 -90.5h219v-249l-243 1h-42t-60.5 1t-70.5 2t-70.5 3t-61 4.5
t-41.5 6.5q-83 -15 -175.5 -20.5t-196.5 -5.5q-69 1 -134 4t-121 7.5t-102.5 8.5t-77.5 7q-21 12 -44.5 34t-46.5 49t-43.5 55.5t-35.5 53.5t-23 42.5t-8 24.5v2q3 9 15 9q3 0 9 -2q35 -6 84 -12t99.5 -11.5t97.5 -10t77 -5.5q5 6 10 13.5t11 15.5q12 35 17 96.5t5 134.5
q0 8 -0.5 52.5t-5.5 139.5t-12 192t-16 190.5t-17.5 173t-15.5 139.5t-10 90q9 7 28 22t42.5 32.5t49 36t47.5 34t38.5 25t21.5 9.5h2z" />
    <glyph glyph-name="uni0639" unicode="&#x639;" horiz-adv-x="1264" arabic-form="isolated" 
d="M715 1046q47 0 92 -10.5t86.5 -35.5t79.5 -65.5t72 -101.5l-72 -46l-27.5 11t-44.5 13.5t-65.5 11t-89.5 4.5q-55 0 -106.5 -20.5t-91.5 -48t-64 -54.5t-24 -40q0 -15 21.5 -42.5t65 -56.5t109 -54t154.5 -35q87 27 176 48t158 38l-77 -245q-77 -17 -167 -41.5
t-180.5 -57t-176 -74.5t-153 -94t-111.5 -115t-52 -138q35 -74 112 -132q33 -25 78.5 -48.5t105.5 -42t136.5 -30t171.5 -11.5q88 0 165.5 10t139 25t106 31.5t67.5 29.5l-100 -246q-114 -52 -218 -73.5t-207 -21.5h-2q-137 0 -254.5 39t-203 106.5t-133.5 158.5t-48 196v4
q0 93 30 179t78.5 159t111 131t127.5 96q-90 54 -128.5 122t-38.5 137q0 37 16.5 83t45.5 94t67.5 93.5t82 81t89.5 57t91 21.5z" />
    <glyph glyph-name="uniFECB" unicode="&#x639;" horiz-adv-x="1078" arabic-form="initial" 
d="M554 871q48 0 91.5 -10.5t84 -35t77.5 -65t71 -100.5l-73 -49q-12 5 -29 11.5t-43 12.5t-63.5 10.5t-90.5 4.5q-54 0 -105.5 -20t-91.5 -47t-64.5 -53.5t-24.5 -39.5q0 -15 21 -42.5t64 -57t109 -54.5t155 -34q52 4 96.5 12.5t86 19.5t80.5 26t79 33q-2 -9 -9.5 -39
t-17 -65.5t-19 -69.5t-15.5 -52q-90 -48 -198.5 -80t-229 -51.5t-251 -27.5t-264.5 -8v249q72 1 118.5 1.5t74 1t40.5 1t19 0.5q-14 13 -28 32.5t-24.5 44t-17 52.5t-6.5 58q0 37 16.5 83.5t45 94.5t67 93.5t82.5 81t92 57t95 21.5z" />
    <glyph glyph-name="uniFECC" unicode="&#x639;" horiz-adv-x="1165" arabic-form="medial" 
d="M638 354q64 36 122 98.5t96 150.5q-11 8 -36 16t-60.5 14.5t-79 10.5t-90.5 4q-68 0 -137.5 -10.5t-129.5 -36.5q58 -45 114 -89q48 -38 102.5 -80.5t98.5 -77.5zM620 860q50 -2 102 -9t99 -17.5t85.5 -23t62.5 -25.5l46 -212q-23 -42 -45.5 -79.5t-47.5 -73.5t-55 -71
t-69 -73q25 -10 71.5 -15.5t99 -8t102 -3t80.5 -0.5h34v-249q-54 0 -116 2t-130.5 15.5t-143.5 42.5t-157 82q-59 -36 -127 -62.5t-140.5 -44.5t-147.5 -26.5t-149 -8.5h-94v249h90q57 2 111.5 4t102.5 5.5t87 9.5t66 15l-307 256q6 19 14 49t16 60.5t14.5 57t9.5 37.5
q8 8 42 27t87.5 39t123 35.5t149.5 15.5h34z" />
    <glyph glyph-name="uniFECA" unicode="&#x639;" horiz-adv-x="1321" arabic-form="final" 
d="M756 425q49 18 101.5 44.5t95.5 56t71 58.5t28 51q-14 6 -38 15t-58 17t-76.5 14t-91.5 6q-60 0 -129 -11.5t-145 -40.5zM794 891q51 -2 106.5 -12.5t107 -28.5t94 -43.5t66.5 -59.5q0 -83 -3.5 -144t-23.5 -111.5t-64.5 -96t-125.5 -98.5q21 -13 61 -24q34 -9 90 -16.5
t142 -7.5h97v-249h-72q-58 0 -111 8.5t-99.5 22.5t-87 32t-73.5 37q-78 44 -139 100q-111 -35 -208 -83.5t-169 -100t-115 -100t-47 -83.5q27 -64 71 -119t117.5 -95.5t182 -63.5t266.5 -23q88 0 155 7t118 17.5t90 24t71 25.5l-87 -226q-42 -22 -90.5 -38.5t-100.5 -28
t-105.5 -17.5t-105.5 -6q-140 0 -260 38t-208.5 106t-139.5 161.5t-52 204.5q1 48 13 100.5t35 105.5t56 102.5t76 91.5q2 3 22 21t53 42.5t76 50t90 42.5l-253 225q12 48 23 97.5t20 89.5q9 9 45 29t93 41t130.5 37t156.5 16h16z" />
    <glyph glyph-name="uniFEDB" unicode="&#x643;" horiz-adv-x="1083" arabic-form="initial" 
d="M1046 1423l-722 -325q50 -54 102.5 -112.5t100 -123.5t87 -137.5t62.5 -154t25.5 -133.5t2.5 -66q0 -78 -20 -165q-106 -105 -268 -155t-386 -51h-50v249h55q103 0 195.5 4.5t168.5 20t131.5 47t84.5 85.5q-44 103 -112.5 190.5t-146 162t-157 137t-146.5 116.5l57 227
q60 26 146.5 64t183.5 80t197.5 85.5t189.5 81t158.5 66t105.5 40.5z" />
    <glyph glyph-name="uniFEDC" unicode="&#x643;" horiz-adv-x="1171" arabic-form="medial" 
d="M1085 1653q0 -12 -4 -43t-9.5 -66.5t-11.5 -69t-10 -51.5l-726 -322q46 -49 87 -94t80 -91.5t77 -98t78 -114.5q79 -125 153.5 -211.5t140 -140.5t121 -78t97.5 -24h33v-249h-33q-55 0 -105.5 17t-96 45.5t-86.5 64.5t-76 73.5t-65 73.5t-53 65q-2 -17 -5.5 -37
t-7.5 -41.5t-8.5 -42.5t-8.5 -39q-53 -53 -115.5 -87.5t-138 -54.5t-164 -28.5t-192.5 -8.5h-56v249h56q90 0 178.5 3.5t165 17t135 41.5t88.5 77q-31 80 -67 143.5t-76.5 116.5t-86 98t-96 88t-106 86t-116.5 92l58 233q45 19 105 45t128.5 55.5t142.5 61.5t147.5 63.5
t143 60.5t128.5 53.5t105 42t72 26.5z" />
    <glyph glyph-name="uni0643" unicode="&#x643;" horiz-adv-x="1904" arabic-form="isolated" 
d="M1789 1648q1 0 1 -1q5 0 6.5 -11.5t1.5 -18.5q1 -33 1 -74q0 -20 -0.5 -63.5t-1.5 -113t-2 -136.5t-1 -119q0 -59 -1 -134t-3 -158t-5 -170.5t-6.5 -172.5t-8 -164t-9.5 -144q-72 -55 -183 -98q-47 -18 -107.5 -36t-135 -31.5t-163.5 -22t-193 -8.5q-69 0 -150.5 3
t-166 14.5t-166.5 34t-151 61.5t-119 97.5t-67.5 126.5t-17.5 129q0 39 9.5 116t67.5 222l92 -46q-33 -91 -34 -128t-1 -42q0 -64 21.5 -115t63 -87.5t95 -60.5t115 -38t122.5 -20.5t118.5 -8t102.5 -1.5h42q33 0 86.5 3.5t116.5 10t131 16.5t131.5 22.5t117.5 27.5t89 33
q-5 105 -9.5 188t-8 151t-6.5 125.5t-6 112.5t-6 112t-7 124.5t-8.5 148.5t-10.5 184q7 8 25.5 22.5t42 32.5t49 36.5t48 34t38.5 25t21 9.5zM1005 974q50 0 93.5 -24.5t81.5 -90.5l-41 -28q-9 5 -33.5 14.5t-68.5 9.5h-16q-29 -2 -54.5 -12.5t-44.5 -23.5t-29.5 -25.5
t-10.5 -18.5q0 -8 10.5 -20.5t31.5 -25.5t52.5 -24.5t72.5 -17.5q55 8 96.5 16.5t76.5 17.5l-37 -123q-61 -12 -112.5 -23t-101.5 -26.5t-102 -38t-115 -58.5l39 120l84 49q-9 8 -21.5 20t-24 28.5t-20.5 36.5t-11 44v8q0 16 7 37.5t22 46.5t36 48.5t44 42t48 30t48 11.5z
" />
    <glyph glyph-name="uniFEDA" unicode="&#x643;" horiz-adv-x="1992" arabic-form="final" 
d="M1782 1655q6 -1 7.5 -12.5t1.5 -18.5q2 -142 3.5 -289t2.5 -286t2 -264t2.5 -222.5t3.5 -161t5 -79.5q19 -42 58 -57.5t95 -15.5h49v-249h-44q-38 0 -78 9t-76.5 26t-66 40.5t-45.5 52.5q-37 -23 -100 -50t-153 -50.5t-208 -39.5t-266 -16q-69 0 -150.5 3t-166 14.5
t-166.5 34t-151 61.5t-119 97.5t-67 126t-17 128.5q0 40 9.5 117t67.5 222l91 -46q-33 -91 -34 -128t-1 -42q0 -64 21.5 -115t63 -87.5t95 -60.5t115 -38t123 -20.5t119 -8t102.5 -1.5h41q34 0 87.5 3.5t117.5 10.5t133 17t134 22.5t119.5 28t89.5 33.5q-13 249 -32 534.5
t-42 620.5q7 8 25 22.5t41.5 32t49 35.5t48 32.5t39 24t21.5 9.5zM993 974q50 0 93.5 -24.5t81.5 -90.5l-41 -28q-8 5 -33 14.5t-69 9.5h-16q-29 -2 -54.5 -12.5t-44.5 -23.5t-29.5 -25.5t-10.5 -18.5q0 -8 10.5 -20.5t31.5 -25.5t52.5 -24.5t72.5 -17.5q55 8 96.5 16.5
t76.5 17.5l-37 -123q-61 -12 -112 -23t-101 -26.5t-102.5 -38t-115.5 -58.5l39 120l84 49q-9 8 -21.5 20t-24 28.5t-20.5 36.5t-11 44v8q0 16 7 37.5t22 46.5t36 48.5t44 42t48 30t48 11.5z" />
    <glyph glyph-name="uni0644" unicode="&#x644;" horiz-adv-x="1345" arabic-form="isolated" 
d="M1251 1649q6 -3 6.5 -14.5t0.5 -18.5q0 -49 -0.5 -124.5t-1.5 -168.5t-2.5 -200.5t-3.5 -220t-4.5 -227t-4.5 -221.5t-4 -204t-3 -174q-2 -100 -13.5 -187t-37.5 -159t-69.5 -128t-110 -95t-159 -59t-215.5 -20q-104 0 -194 22.5t-157.5 72t-109 128.5t-44.5 144t-3 81
q0 102 31 241t113 330l90 -49q-28 -83 -53 -168t-34 -146.5t-9 -103.5q0 -30 6 -79t45 -100t113.5 -80t196.5 -29q126 0 215 18.5t145 65.5t80 125.5t24 195.5v10q0 20 -1.5 63t-3.5 99.5t-5 120.5t-5.5 126.5t-4.5 117.5t-3 93q-4 123 -8.5 224t-9 191t-9.5 174t-9 173
q16 14 33 27q14 11 30 24t29 22q19 14 40.5 29.5t40 28t33 21t19.5 8.5h1z" />
    <glyph glyph-name="uniFEDF" unicode="&#x644;" horiz-adv-x="563" arabic-form="initial" 
d="M482 1643q6 -2 6.5 -14t0.5 -19v-37q0 -65 -3 -134.5t-3 -142.5v-54t-0.5 -87.5t-1.5 -116.5t-2 -141q-1 -152 -3.5 -285t-7.5 -260q-2 -69 -32 -132t-80 -111.5t-114.5 -77.5t-135.5 -30l-62 -1h-64v249h86q28 0 60 1.5t63 6t59 14t49 25.5q5 16 5.5 46t0.5 43
q0 39 -1.5 93t-4.5 121.5t-5 123.5q-4 123 -8.5 224t-9 190.5t-9 173t-9.5 172.5q16 14 33 28q14 11 30 24t29 22q19 14 40.5 29t40 28t33 21t19.5 8h1z" />
    <glyph glyph-name="uniFEE0" unicode="&#x644;" horiz-adv-x="652" arabic-form="medial" 
d="M482 1643q6 -3 6.5 -14.5t0.5 -18.5v-37q0 -65 -3 -134.5t-3 -142.5v-54t-0.5 -87.5t-1 -116.5t-1.5 -141q-1 -135 -3.5 -255t-6.5 -235q3 -34 15 -63t33 -50t51.5 -33t69.5 -12h33v-249h-43q-36 0 -71.5 11.5t-68 31t-60 45.5t-46.5 54q-51 -63 -125 -101t-156 -40
l-62 -1h-60v249h83q28 0 60.5 1.5t64 6t60 14t49.5 25.5q5 16 5.5 46t0.5 43q0 39 -1.5 93t-4.5 121.5t-5 123.5q-4 123 -8.5 224t-9 190.5t-9 173t-9.5 172.5q16 14 33 28q14 11 30 24t29 22q20 14 41 29t40 28t33 21t19 8h1z" />
    <glyph glyph-name="uniFEDE" unicode="&#x644;" horiz-adv-x="1448" arabic-form="final" 
d="M1251 1649q6 -3 6.5 -14.5t0.5 -18.5v-37q0 -66 -3 -136.5t-3 -142.5q0 -37 -0.5 -141.5t-3.5 -258.5q-1 -137 -3.5 -259.5t-5.5 -237.5q1 -51 16.5 -83.5t43.5 -49.5q9 -5 25.5 -8.5t35 -6.5t36.5 -4.5t30 -1.5h42v-249h-42q-31 0 -62 5.5t-57.5 15.5t-47.5 24t-31 32
v-1q0 -150 -24 -270t-90 -204t-182.5 -129t-301.5 -45q-104 0 -194.5 22.5t-158 72t-109 128.5t-44.5 144t-3 81q0 102 31 241t113 330l90 -49q-31 -95 -57 -185t-34.5 -151t-8.5 -100q0 -32 6.5 -79.5t46.5 -95t115.5 -73.5t197.5 -26q126 0 214.5 19t144.5 66.5t80 127
t24 196.5v10q0 20 -1.5 63t-3.5 99.5t-5 120.5t-5.5 126.5t-4.5 117.5t-3 93q-4 123 -8.5 224t-9 191t-9 174t-9.5 173q16 14 33 27q14 11 30 24t29 22q19 14 40.5 29.5t40 28t33 21t19.5 8.5h1z" />
    <glyph glyph-name="uni0645" unicode="&#x645;" horiz-adv-x="1242" arabic-form="isolated" 
d="M994 238q25 0 31 9q-13 78 -36.5 139t-53.5 102.5t-64.5 63.5t-68.5 22q-42 0 -70.5 -10t-52.5 -33.5t-49 -60.5t-60 -91q54 -28 116.5 -53.5t121 -45t108 -31t78.5 -11.5zM806 757q38 0 78.5 -21.5t78 -61t69.5 -94t54.5 -120t30 -123t7.5 -99.5q0 -35 -4 -71l-148 -171
q-5 -4 -20 -4q-29 0 -88.5 12.5t-139 37t-173.5 62t-191 87.5q29 -255 51 -459q9 -87 17.5 -171.5t14.5 -152t8.5 -102.5t2.5 -48q0 -9 -1 -12q-4 -10 -24.5 -32.5t-45 -47t-47.5 -46t-32 -28.5v1q-1 18 -8 71t-18 128.5t-24.5 166t-27.5 183t-28 180t-25 156.5t-18 113
t-8 49q4 14 13 41t22.5 59t33 65.5t45 61t58 45t72.5 17.5q23 0 47 -6q41 61 81.5 120.5t85 107t93.5 77t108 29.5z" />
    <glyph glyph-name="uniFEE3" unicode="&#x645;" horiz-adv-x="1094" arabic-form="initial" 
d="M895 224q15 0 19 4q-1 72 -25.5 135.5t-59 111t-73 74.5t-68.5 27q-34 0 -60.5 -11.5t-52 -35.5t-52.5 -62t-62 -92q23 -18 58.5 -36.5t77 -35t86 -31t85 -25.5t74 -17t53.5 -6zM692 759q38 0 78.5 -22.5t78 -62.5t69.5 -96t54.5 -123t30 -125t7.5 -101q0 -35 -4 -71
l-148 -171q-8 -6 -30 -6q-26 0 -66 8t-87.5 22t-98 33t-96.5 41t-83.5 46t-58.5 49q-34 -61 -75 -96.5t-86 -54t-91 -24t-91 -5.5h-15v249h108q40 0 76.5 22t71.5 58t69 81.5t68.5 93.5t70 93.5t74.5 81.5t82 58t92 22z" />
    <glyph glyph-name="uniFEE4" unicode="&#x645;" horiz-adv-x="1269" arabic-form="medial" 
d="M895 227q21 0 25 7q-21 68 -50 130t-61 109t-64.5 75t-59.5 28q-41 0 -68.5 -15.5t-50.5 -42.5t-45.5 -64t-51.5 -79q16 -14 47.5 -30.5t71.5 -33t85 -31.5t87 -27t77.5 -19t57.5 -7zM693 759q40 0 79 -25.5t76 -69.5t71 -104t63 -130q24 -57 54.5 -92.5t66.5 -55
t77.5 -26.5t86.5 -7h22v-249h-22q-59 0 -111 17t-91.5 42t-64.5 52t-31 47l-120 -163q-9 -6 -33 -6q-26 0 -65.5 7.5t-85.5 20.5t-95 31t-93.5 39.5t-80.5 45t-57 47.5q-35 -63 -74 -98.5t-81 -53t-86 -22.5t-88 -6h-30v249h81q23 0 46 1t32 3q28 6 57 31t59 61.5t62 81.5
t65.5 91t69.5 89.5t75 77t80 54t86 20.5z" />
    <glyph glyph-name="uniFEE2" unicode="&#x645;" horiz-adv-x="1362" arabic-form="final" 
d="M976 241q24 0 29 8q-21 76 -49.5 136.5t-59 103t-61 65t-55.5 22.5h-7q-37 0 -64 -11.5t-50.5 -35.5t-47.5 -60t-54 -85q31 -16 68.5 -33t77.5 -33t80.5 -30t76.5 -24.5t66 -16.5t50 -6zM784 759q40 0 79.5 -25.5t76.5 -69.5t71 -104t63 -130q23 -57 53.5 -92.5t66.5 -55
t77.5 -26.5t86.5 -7h24v-249h-24q-65 0 -116.5 17t-89 42t-61 52t-33.5 47l-119 -163q-10 -5 -27 -5q-34 0 -96 16.5t-139 44t-163 65t-167 79.5q29 -255 50 -458q9 -87 17.5 -171t14.5 -152t8.5 -103t2.5 -48q0 -9 -1 -12q-4 -9 -24.5 -31.5t-45 -47.5t-47 -47t-31.5 -29v1
q-1 18 -8 71t-18 128.5t-24.5 166t-27.5 183t-27.5 180t-24.5 156.5t-18 113t-8 49q4 13 13 39.5t23 59t34 66t46 61.5t58 45.5t71 17.5q24 0 46 -7q40 60 79.5 120t82.5 107t91 76.5t105 29.5z" />
    <glyph glyph-name="uni0647" unicode="&#x647;" horiz-adv-x="878" arabic-form="isolated" 
d="M447 207q37 0 84 2t91 11.5t80 28t52 51.5q-1 37 -26 72t-64 66.5t-87 58.5t-95 48.5t-88.5 36.5t-67.5 22q-51 -98 -63.5 -154t-12.5 -87t12.5 -68.5t60 -62.5t124.5 -25zM388 871q6 0 40.5 -16t81.5 -47t100.5 -75.5t98.5 -102.5t74.5 -127.5t29.5 -149.5
q-21 -184 -115 -276t-258 -92q-70 0 -129.5 23.5t-100 69t-54.5 98.5t-14 99q0 33 5 70q7 45 23.5 98t38 107.5t47 107t50 96t46 74.5t36.5 43z" />
    <glyph glyph-name="uniFEEB" unicode="&#x647;" horiz-adv-x="1335" arabic-form="initial" 
d="M1082 221q41 0 64 10q5 15 5 31q0 19 -11 46t-40.5 60t-69.5 63t-80 55t-75 44.5t-56 31.5q8 -39 8 -74q0 -9 -1.5 -34.5t-12 -60t-26.5 -60.5t-31 -41q27 -10 67 -22t85 -23t90.5 -18.5t83.5 -7.5zM570 351q5 1 24 7.5t40 20t39 35t20 51.5v5q0 21 -8.5 48t-25 56
t-38 56.5t-44.5 48.5q-5 0 -11 0.5t-11 0.5q-42 0 -81 -10t-71 -29.5t-55.5 -47.5t-34.5 -64q8 -36 31.5 -62.5t57.5 -47t77 -37t91 -31.5zM400 1019q4 -1 40.5 -15.5t93.5 -40.5t129 -62t148 -80.5t149 -95.5t133 -107t100 -116t49 -121q-8 -42 -17 -86.5t-20 -87.5
t-25.5 -83.5t-33.5 -75.5q-39 -23 -85.5 -32t-96.5 -9q-65 0 -130 12t-119.5 27.5t-93.5 29.5t-52 19q-20 -15 -53.5 -28t-74.5 -23.5t-86 -18.5t-88.5 -13.5t-81.5 -8.5t-65 -3h-140v249h82q48 0 89 3.5t70 8.5q34 5 62 12q-22 33 -35.5 75.5t-17.5 77t-4 57.5q0 21 3.5 54
t17.5 71q18 48 47.5 84.5t54.5 59.5l-67 29z" />
    <glyph glyph-name="uniFEEC" unicode="&#x647;" horiz-adv-x="985" arabic-form="medial" 
d="M293 261q38 3 85 6t91 13.5t78 33t45 63.5q-12 46 -30 89q-16 37 -40 77.5t-59 69.5q-16 -8 -40.5 -33.5t-49 -69.5t-46.5 -106t-34 -143zM468 897q24 -8 50 -34.5t50 -65t45.5 -86.5t36.5 -99t20.5 -93t5.5 -73q0 -17 -1 -34q-29 -88 -61 -156.5t-75 -117.5t-101 -78.5
t-140 -39.5q17 -56 46.5 -106.5t64.5 -93t72.5 -76.5t72.5 -56q-13 54 -13 106q0 18 3.5 61t26.5 105.5t62 115.5t87.5 91.5t104.5 60t115 21.5h65v-249h-65q-62 0 -112 -20.5t-89 -52t-66.5 -69.5t-45.5 -72q4 -34 14 -63t29.5 -55t51 -50.5t79.5 -48.5l-107 -200
q-107 41 -194 106.5t-152 149.5t-106.5 182.5t-57.5 204.5q-31 -3 -64 -6q-28 -2 -60 -4t-58 -2h-22v249h22q16 0 39.5 1t49.5 2.5t53 3t49 3.5q11 120 44 225.5t74.5 189.5t84 142t72.5 81z" />
    <glyph glyph-name="uniFEEA" unicode="&#x647;" horiz-adv-x="1045" arabic-form="final" 
d="M612 720l-124 -62t-115.5 -60t-94 -55.5t-60.5 -49.5q1 -29 34.5 -48t94 -31t145 -19t186.5 -12zM807 737q8 -74 16 -140t15.5 -118t13.5 -86.5t9 -46.5q4 -18 16 -35.5t33.5 -31t54 -22t78.5 -8.5h22v-249h-44q-82 0 -137 26.5t-91 67t-57 89t-35 93.5l-121 -125
q-2 0 -5 -0.5t-8 -0.5q-19 0 -60.5 3.5t-93 11.5t-108 20t-105.5 30q-12 15 -22.5 44t-18.5 64.5t-13 73.5t-5.5 58.5t-0.5 26.5q0 27 4 51.5t15 37.5q27 31 80 71.5t115 82t123.5 80.5t106.5 69l-15 79l195 173z" />
    <glyph glyph-name="uni0648" unicode="&#x648;" horiz-adv-x="1024" arabic-form="isolated" 
d="M568 236q34 0 68 3t68 10q-3 13 -9.5 37.5t-19 54t-31 61t-44 58.5t-58.5 45t-74 22q-5 0 -9.5 0.5t-9.5 0.5q-57 0 -94.5 -25.5t-59 -57.5t-30 -62t-8.5 -39q9 -24 38 -43.5t71 -34t94 -22.5t108 -8zM499 756q87 -6 149 -58t104 -137t65.5 -198t32.5 -240q2 -32 2 -63
q0 -63 -12 -133.5t-41 -140.5t-70 -126.5t-87 -100.5t-94 -76.5t-92 -54t-80 -33t-58 -13.5h-5t-4 1q-14 7 -38 19.5t-52 27.5t-58 31.5t-55 31.5t-43.5 26.5t-23.5 16.5q-6 4 -6 8q0 2 3.5 4.5t5.5 3.5q151 43 264.5 93t193.5 105.5t128.5 117t71.5 128.5q-12 -2 -24 -3.5
t-28 -2.5t-37.5 -1.5t-54.5 -0.5q-87 0 -157 20t-119.5 62.5t-75 107.5t-25.5 151v7q1 39 9.5 85t26 92.5t44 90t61.5 77.5t79 54.5t98 20.5h2z" />
    <glyph glyph-name="uniFEEE" unicode="&#x648;" horiz-adv-x="941" arabic-form="final" 
d="M703 249q-3 16 -10 42t-19.5 56t-31 60t-43.5 55.5t-58 42.5t-74 21q-5 1 -10.5 1h-10.5q-59 0 -95.5 -25t-57 -57t-29 -61.5t-9.5 -39.5q14 -46 81.5 -70.5t201.5 -24.5h165zM496 758q55 -3 100.5 -26t82 -61t64.5 -87.5t48 -105t33 -114.5t19 -115h118v-249h-116
q-7 -105 -44 -191.5t-90 -155.5t-114.5 -119.5t-118 -84.5t-101.5 -50.5t-64 -16.5h-5q-6 0 -7 1q-14 7 -38 19.5t-52 28t-57.5 32t-54.5 31t-43 26t-23 16.5q-6 4 -6 8q0 2 3.5 4.5t5.5 3.5q151 43 265.5 93.5t195.5 107t130.5 118.5t72.5 129h-92q-89 0 -167.5 14.5
t-137 52.5t-92.5 103t-34 166q0 38 9 84.5t26.5 93.5t44 91t62 78t79.5 54.5t98 20.5z" />
    <glyph glyph-name="uni0649" unicode="&#x649;" horiz-adv-x="1729" arabic-form="isolated" 
d="M1472 842q71 0 146 -18l-78 -238q-42 6 -81 6q-85 0 -155 -25.5t-128 -70t-105 -103.5t-87 -125q36 -23 89 -41.5t111.5 -34.5t118 -31.5t108.5 -33t83 -39.5t42 -50q12 -42 13.5 -70t1.5 -42q0 -27 -3.5 -60t-12.5 -69t-21 -64q-38 -64 -102 -122t-152.5 -104.5
t-200 -78.5t-244.5 -42q-39 -3 -77 -3q-103 0 -198.5 18t-173.5 60.5t-133.5 112.5t-74.5 154.5t-19 163.5q0 49 10 147.5t71 285.5q6 18 16.5 48.5t23.5 65t26 68.5t24 58l90 -48q-12 -37 -29 -88.5t-33 -109.5q-18 -64 -35 -140t-20 -122.5t-3 -63.5q0 -57 13.5 -119.5
t60 -117t131.5 -87t220 -32.5q26 0 53.5 1.5t56.5 3.5q139 12 237 33t167.5 49.5t116 63t82.5 74.5q-37 19 -93.5 35t-119.5 33.5t-126 37.5t-113 47t-78.5 60.5t-28.5 75.5v8q9 151 60 276.5t133 216t189.5 140.5t230.5 50z" />
    <glyph glyph-name="uniFEF0" unicode="&#x649;" horiz-adv-x="1596" arabic-form="final" 
d="M388 525q-12 -37 -27.5 -84.5t-31.5 -105.5q-14 -49 -25.5 -104t-16.5 -102.5t-5 -85.5q0 -19 2 -56.5t18.5 -89t48.5 -96t84.5 -77t127.5 -51t177 -18.5q41 0 88 3q96 7 170.5 17t131 22.5t97.5 25.5t69 26q66 30 86 64q-17 15 -65.5 45.5t-116 68t-148.5 77t-162 72.5
q6 15 15 33l18.5 37t25.5 47q11 20 22 37.5t19 30.5l18 27q83 -14 155 -22t138 -11.5t129.5 -4.5t131.5 -1h54v-249h-56q-58 0 -127.5 5t-145.5 28q84 -42 127 -75t57 -52l-12 -168q-15 -43 -66.5 -98.5t-133 -106t-191 -88t-240.5 -44.5q-20 -1 -39 -1.5t-38 -0.5
q-104 0 -201.5 18t-178 60.5t-138.5 112.5t-79 157t-21 174q0 43 8.5 138t70.5 282q6 18 16 47.5t22 62.5t24.5 66t23.5 57z" />
    <glyph glyph-name="uni066E.init" unicode="&#x66e;" horiz-adv-x="624" 
d="M430 879q5 0 21 -30t35 -83.5t36 -126.5t22 -137t5 -107q0 -47 -5.5 -119.5t-36.5 -170.5q-30 -27 -81.5 -47t-115 -32.5t-133.5 -19t-136 -6.5h-61v249h57q76 0 147.5 5t127 12.5t90.5 16.5t39 16q-6 31 -26 78t-45.5 96.5t-51 94.5t-41.5 72z" />
    <glyph glyph-name="uni066E.medi" unicode="&#x66e;" horiz-adv-x="781" 
d="M453 698l4 -17q3 -18 8 -47t10.5 -67.5t10 -80.5t6.5 -79.5t2 -65.5v-23q16 -19 48 -32t72 -21.5t84 -12t83 -3.5h20v-249h-20q-49 0 -102 13t-101.5 35t-88.5 52t-62 63q-27 -33 -69 -62.5t-94 -52t-110 -35.5t-116 -13h-58v249h25q53 0 111 3.5t108 12.5t86.5 26
t45.5 44q-14 61 -28.5 109t-31.5 104z" />
    <glyph glyph-name="uni066E.fina" unicode="&#x66e;" horiz-adv-x="1966" 
d="M297 732q-34 -92 -34.5 -128.5t-0.5 -39.5q0 -67 22 -118.5t65 -88t97 -61t116.5 -38t124 -20t119 -8t101.5 -1.5h35q172 0 293.5 14t205 39.5t135 61t84.5 78.5t53.5 92t40.5 102l73 -22q-8 -37 -13 -60t-10.5 -44.5t-11.5 -47.5t-15 -68q4 -45 28 -70.5t56.5 -37.5
t66.5 -14.5t58 -2.5v-249h-25q-73 0 -122.5 18t-81 49.5t-48.5 75t-24 94.5q-56 -72 -136 -122t-175 -81t-199.5 -44.5t-209.5 -13.5q-69 0 -150.5 3t-166 14t-166.5 33.5t-150.5 62t-118.5 98t-67 125.5t-17 128q0 40 9.5 117t67.5 222z" />
    <glyph glyph-name="uni066F.init" unicode="&#x66f;" horiz-adv-x="892" 
d="M532 581q32 0 56.5 1.5t41.5 3.5q19 3 33 6q-4 12 -12 34t-21 48.5t-31.5 54t-44 50t-58.5 36.5t-74 14q-65 0 -105.5 -23.5t-63 -54.5t-30.5 -60t-8 -40q9 -15 37 -28q24 -11 70.5 -22t127.5 -17q46 -3 82 -3zM446 1041q54 0 99 -23.5t80.5 -63.5t62.5 -91.5
t46.5 -107.5t31.5 -113t18 -106q9 -67 9 -125q0 -41 -8 -102t-44 -120.5t-97 -96.5t-145 -57.5t-191.5 -27.5t-237.5 -7h-89v249h91q63 0 133.5 0.5t139 4.5t131 11.5t109.5 22t71.5 35t24.5 47.5v7q-18 -5 -42 -9q-20 -3 -48.5 -5.5t-64.5 -2.5q-20 0 -42.5 1.5t-46.5 3.5
q-79 8 -138.5 32t-97 61t-50.5 78t-13 78q0 20 3 40q1 13 7 46.5t19 76t35 89t55.5 85t80 64t108.5 26.5z" />
    <glyph glyph-name="uni066F.medi" unicode="&#x66f;" horiz-adv-x="935" 
d="M477 304q16 6 44.5 17.5t57.5 29.5t52.5 44t30.5 61q-12 30 -33 61.5t-49 56.5t-63.5 41t-75.5 16q-39 0 -72 -13.5t-58 -38t-41 -60t-22 -78.5q11 -23 35.5 -44.5t56.5 -40.5t68 -32.5t69 -19.5zM482 874q48 0 86 -20.5t67.5 -54.5t51 -78t36 -91t22.5 -94t10 -87
q-5 -35 -9.5 -59.5t-11.5 -45.5t-17.5 -41t-26.5 -47q3 -1 13 -1.5t23.5 -1.5t29.5 -1.5t32 -0.5q38 -1 84 -2h83v-249h-92q-111 0 -186 9.5t-122 20.5q-55 13 -88 31q-42 -18 -97 -31q-48 -11 -115.5 -20.5t-154.5 -9.5h-120v249h116q24 0 49.5 0.5t45.5 2.5q24 2 46 4
q-15 19 -28 45q-11 22 -22.5 53t-16.5 70q0 39 9 88t26.5 99t43.5 97.5t61 84t78 59t94 22.5z" />
    <glyph glyph-name="uni066F.fina" unicode="&#x66f;" horiz-adv-x="1457" 
d="M1192 248q13 0 26 1q-2 13 -9 37.5t-19.5 54t-31 61t-44 58t-58.5 45t-74 21.5q-5 0 -9 0.5t-9 0.5q-39 0 -67.5 -12t-49.5 -30.5t-35 -40.5t-22 -42.5t-11.5 -36.5t-3.5 -22q9 -23 37 -40.5t69 -29.5t92 -18t106 -6q11 -1 26 -1h30h57zM1017 755q76 -5 132.5 -45.5
t97 -107.5t66 -157t39.5 -195h125v-250h-111q-6 -153 -55 -269t-136 -193t-209 -116t-273 -39q-120 0 -219.5 29.5t-171.5 89.5t-114.5 151t-45.5 160.5t-3 85.5q0 112 33 258.5t115 337.5l90 -49q-21 -62 -42 -129.5t-36 -135.5t-19.5 -116t-4.5 -76q0 -35 6 -81t31 -96
t73 -87t121 -57.5t178 -20.5h8q516 0 558 353h-172q-192 0 -287.5 79.5t-95.5 249.5v7q1 38 10 84t26.5 92.5t44 90.5t62 77.5t79.5 54t98 20.5h2z" />
    <glyph glyph-name="uniFBA8" unicode="&#x6c1;" horiz-adv-x="664" arabic-form="initial" 
d="M513 879q5 0 21 -30t35 -83.5t36 -126.5t22 -137t5 -107q0 -47 -5.5 -119.5t-36.5 -170.5q-20 -18 -56 -33t-82.5 -26.5t-100 -20t-107.5 -14t-106.5 -8.5t-96.5 -3h-61v249h57q51 0 106 2.5t108.5 6.5t101.5 9t85 10.5t60 11t26 10.5q-6 31 -26 78t-45.5 96.5t-51 94.5
t-41.5 72zM501 -206q-37 -51 -61.5 -93.5t-24.5 -86.5q24 -29 58.5 -47.5t85.5 -34.5q-11 -33 -32 -61t-44 -49t-43 -33.5t-29 -13.5q-18 7 -38.5 17.5t-39 23.5t-32.5 27.5t-20 28.5q1 91 43 187t114 193z" />
    <glyph glyph-name="uniFBA9" unicode="&#x6c1;" horiz-adv-x="1116" arabic-form="medial" 
d="M1116 0q-21 0 -52.5 -0.5t-67 -1.5t-73 -3.5t-70 -6t-57.5 -9t-36 -12.5l-52 -422l-194 -115q-46 37 -92.5 87.5t-88 121.5t-75 165t-54.5 218q-8 -4 -23 -8t-41 -7t-65 -5t-95 -2v249h184q26 0 52.5 18t49.5 40q26 26 51 59l109 -85l-47 -138q9 -61 21.5 -117.5t33 -110
t51 -106t74.5 -104.5q3 21 9.5 52t15.5 65.5t19 70.5t19 67t17.5 54t13.5 32q30 53 83 91.5t116.5 63t132.5 36.5t131 12h20v-249h-20zM1027 -206q-37 -51 -61.5 -93.5t-24.5 -86.5q24 -29 58.5 -47.5t85.5 -34.5q-11 -33 -32 -61t-44 -49t-43 -33.5t-29 -13.5
q-18 7 -38.5 17.5t-39 23.5t-32.5 27.5t-20 28.5q1 91 43 187t114 193z" />
    <glyph glyph-name="uni06BE" unicode="&#x6be;" horiz-adv-x="1651" arabic-form="isolated" 
d="M1396 210q41 0 64 10q5 15 5 31q0 19 -11 46t-40.5 60t-69.5 63t-80 55t-75 44.5t-56 31.5q8 -39 8 -74q0 -9 -1.5 -34.5t-12 -60t-26.5 -60.5t-31 -41q27 -10 67 -22t85 -23t90.5 -18.5t83.5 -7.5zM884 340q5 1 24 7.5t40 20t39 35t20 51.5v5q0 21 -8.5 48t-25 56
t-38 56.5t-44.5 48.5q-5 0 -11 0.5t-11 0.5q-42 0 -81 -10t-71 -29.5t-55.5 -47.5t-34.5 -64q8 -36 31.5 -62.5t57.5 -47t77 -37t91 -31.5zM714 1008q4 -1 40.5 -15.5t93.5 -40.5t129 -62t148 -80.5t149 -95.5t133 -107t100 -116t49 -121q-8 -42 -17 -86.5t-20 -87.5
t-25.5 -83.5t-33.5 -75.5q-39 -23 -85.5 -32t-96.5 -9q-65 0 -130 12t-119.5 27.5t-93.5 29.5t-52 19q-54 -41 -131.5 -60t-162.5 -19q-5 0 -52 0.5t-141.5 20.5t-179.5 58l-78 250q91 -36 173.5 -51.5t146.5 -20.5q38 -2 72 -2q35 0 67 2q-22 33 -35.5 75.5t-17.5 77
t-4 57.5q0 21 3.5 54t17.5 71q18 48 47.5 84.5t54.5 59.5l-67 29z" />
    <glyph glyph-name="uni06D2" unicode="&#x6d2;" horiz-adv-x="2205" arabic-form="isolated" 
d="M925 734q-59 -100 -102 -173t-77 -98q-32 -18 -76.5 -38.5t-93.5 -41t-99 -40t-93.5 -35.5t-75.5 -28.5t-46 -18.5q22 -9 50.5 -17.5t71 -16t103.5 -13t148.5 -10t206 -6.5t276.5 -2q99 0 203.5 4.5t205.5 12.5t195 18.5t171.5 22t134.5 24t85 24.5q-7 -23 -14 -50
t-14 -47q-6 -17 -14 -40t-17 -45t-17.5 -38.5t-14.5 -19.5q-12 -5 -56.5 -14.5t-113.5 -20.5t-158 -22t-189 -20t-207 -15t-211 -6q-159 0 -285 5.5t-224.5 15t-172 21.5t-128.5 24.5t-94 24.5t-68 22q0 4 3.5 25.5t9.5 51t13.5 63t14.5 63t13 50t10 24.5q13 13 45 29t76 34
t96 38t105.5 41t104.5 42t94 43q20 18 35.5 35.5t29.5 35.5t28.5 38t32.5 43z" />
    <glyph glyph-name="uniFBAF" unicode="&#x6d2;" horiz-adv-x="1652" arabic-form="final" 
d="M1672 0q-39 0 -100 -1t-132.5 -2.5t-147.5 -4t-146 -5t-127.5 -5t-91.5 -5.5q-119 -9 -210 -23.5t-160.5 -32t-120 -36.5t-87.5 -38t-63.5 -37t-48.5 -32q60 -18 133 -28.5t152.5 -16t162 -7t160.5 -1.5q81 0 177.5 2t195 7.5t192 14.5t169.5 23q-5 -11 -19.5 -32
t-34 -47t-42 -53t-45 -51t-42.5 -41.5t-34 -23.5q-26 -4 -77.5 -9.5t-115 -10t-132 -8t-128.5 -3.5q-201 0 -355 12.5t-258.5 28.5t-158 31.5t-53.5 22.5q0 5 5 29t13 57.5t18 71.5t18.5 71t15 56.5t8.5 27.5q91 87 196.5 155.5t236.5 110.5q43 14 120.5 25.5t174 20.5
t204.5 16t213.5 11.5t200 6.5t164.5 2v-249z" />
    <glyph glyph-name="uni06A9" unicode="&#x6a9;" horiz-adv-x="2117" arabic-form="isolated" 
d="M2070 1424l-723 -325q50 -54 102.5 -112.5t100.5 -124t87 -137.5t62.5 -153.5t26 -133.5t2.5 -66q0 -78 -20 -165q-87 -76 -184.5 -122t-194 -71.5t-188 -34t-166.5 -8.5q-69 0 -150.5 3t-166 14.5t-166.5 34t-150.5 61.5t-118.5 97.5t-67.5 126.5t-17.5 129
q0 39 9.5 116t67.5 222l91 -46q-33 -91 -34 -128t-1 -42q0 -64 21.5 -115t63.5 -87.5t95.5 -60.5t115 -38t122.5 -20.5t118.5 -8t102.5 -1.5h41q103 1 212.5 9t205.5 27.5t168 54t101 88.5q-44 103 -112 190.5t-146 162t-157.5 137t-145.5 116.5l56 227q45 20 105.5 46.5
t130 56.5t144 62.5t148.5 64.5t144.5 62t130 54.5t106 43t72.5 27.5z" />
    <glyph glyph-name="uniFB8F" unicode="&#x6a9;" horiz-adv-x="2171" arabic-form="final" 
d="M2080 1653q0 -12 -4 -43t-9.5 -66.5t-11.5 -69t-10 -51.5l-726 -322q46 -49 87 -94t80 -91.5t77 -98t78 -114.5q79 -125 153.5 -211.5t140 -140.5t121 -78t97.5 -24h38v-249h-38q-55 0 -105.5 17t-96 45.5t-86.5 64.5t-76 73.5t-65 73.5t-53 65q-2 -17 -5.5 -37
t-7.5 -41.5t-8.5 -42.5t-8.5 -39q-53 -53 -123.5 -90t-155.5 -60t-181.5 -34t-200.5 -11q-69 0 -150.5 3t-166 14t-166.5 33.5t-151 62t-119 98t-67 125.5t-17 128q0 40 9.5 117t67.5 222l91 -47q-34 -92 -34.5 -128.5t-0.5 -39.5q0 -67 22 -118.5t65 -88t97 -61t116.5 -38
t124 -20t119 -8t101.5 -1.5h35q64 0 130.5 2t131.5 8t125 16.5t110 27t87.5 40.5t57.5 57q-31 80 -67 143.5t-76.5 116.5t-86 98t-96 88t-106 86t-116.5 92l58 233q45 19 105 45t128.5 55.5t142.5 61.5t147.5 63.5t143 60.5t128.5 53.5t105 42t72 26.5z" />
    <glyph glyph-name="uni06AF" unicode="&#x6af;" horiz-adv-x="2117" arabic-form="isolated" 
d="M2070 1424l-723 -325q50 -54 102.5 -112.5t100.5 -124t87 -137.5t62.5 -153.5t26 -133.5t2.5 -66q0 -78 -20 -165q-87 -76 -184.5 -122t-194 -71.5t-188 -34t-166.5 -8.5q-69 0 -150.5 3t-166 14.5t-166.5 34t-150.5 61.5t-118.5 97.5t-67.5 126.5t-17.5 129
q0 39 9.5 116t67.5 222l91 -46q-33 -91 -34 -128t-1 -42q0 -64 21.5 -115t63.5 -87.5t95.5 -60.5t115 -38t122.5 -20.5t118.5 -8t102.5 -1.5h41q103 1 212.5 9t205.5 27.5t168 54t101 88.5q-44 103 -112 190.5t-146 162t-157.5 137t-145.5 116.5l56 227q45 20 105.5 46.5
t130 56.5t144 62.5t148.5 64.5t144.5 62t130 54.5t106 43t72.5 27.5zM2017 1806l-852 -369l45 168l838 362z" />
    <glyph glyph-name="uniFB94" unicode="&#x6af;" horiz-adv-x="1083" arabic-form="initial" 
d="M1046 1423l-722 -325q50 -54 102.5 -112.5t100 -123.5t87 -137.5t62.5 -154t25.5 -133.5t2.5 -66q0 -78 -20 -165q-106 -105 -268 -155t-386 -51h-50v249h55q103 0 195.5 4.5t168.5 20t131.5 47t84.5 85.5q-44 103 -112.5 190.5t-146 162t-157 137t-146.5 116.5l57 227
q60 26 146.5 64t183.5 80t197.5 85.5t189.5 81t158.5 66t105.5 40.5zM1003 1807l-852 -369l45 168l838 362z" />
    <glyph glyph-name="uniFB95" unicode="&#x6af;" horiz-adv-x="1170" arabic-form="medial" 
d="M1085 1653q0 -12 -4 -43t-9.5 -66.5t-11.5 -69t-10 -51.5l-726 -322q46 -49 87 -94t80 -91.5t77 -98t78 -114.5q79 -125 153.5 -211.5t140 -140.5t121 -78t97.5 -24h33v-249h-33q-55 0 -105.5 17t-96 45.5t-86.5 64.5t-76 73.5t-65 73.5t-53 65q-2 -17 -5.5 -37
t-7.5 -41.5t-8.5 -42.5t-8.5 -39q-53 -53 -115.5 -87.5t-138 -54.5t-164 -28.5t-192.5 -8.5h-56v249h56q90 0 178.5 3.5t165 17t135 41.5t88.5 77q-31 80 -67 143.5t-76.5 116.5t-86 98t-96 88t-106 86t-116.5 92l58 233q45 19 105 45t128.5 55.5t142.5 61.5t147.5 63.5
t143 60.5t128.5 53.5t105 42t72 26.5zM1011 1802l-852 -369l45 168l838 362z" />
    <glyph glyph-name="uniFB93" unicode="&#x6af;" horiz-adv-x="2172" arabic-form="final" 
d="M2080 1653q0 -12 -4 -43t-9.5 -66.5t-11.5 -69t-10 -51.5l-726 -322q46 -49 87 -94t80 -91.5t77 -98t78 -114.5q79 -125 153.5 -211.5t140 -140.5t121 -78t97.5 -24h38v-249h-38q-55 0 -105.5 17t-96 45.5t-86.5 64.5t-76 73.5t-65 73.5t-53 65q-2 -17 -5.5 -37
t-7.5 -41.5t-8.5 -42.5t-8.5 -39q-53 -53 -123.5 -90t-155.5 -60t-181.5 -34t-200.5 -11q-69 0 -150.5 3t-166 14t-166.5 33.5t-151 62t-119 98t-67 125.5t-17 128q0 40 9.5 117t67.5 222l91 -47q-34 -92 -34.5 -128.5t-0.5 -39.5q0 -67 22 -118.5t65 -88t97 -61t116.5 -38
t124 -20t119 -8t101.5 -1.5h35q64 0 130.5 2t131.5 8t125 16.5t110 27t87.5 40.5t57.5 57q-31 80 -67 143.5t-76.5 116.5t-86 98t-96 88t-106 86t-116.5 92l58 233q45 19 105 45t128.5 55.5t142.5 61.5t147.5 63.5t143 60.5t128.5 53.5t105 42t72 26.5zM2001 1804l-852 -369
l45 168l838 362z" />
    <glyph glyph-name="uni06BA" unicode="&#x6ba;" horiz-adv-x="1446" arabic-form="isolated" 
d="M1244 625q3 0 6 -7q24 -58 42.5 -120t31.5 -122.5t21.5 -116.5t13.5 -102t7 -79t2 -48q0 -150 -43 -270t-128 -204t-211 -129t-292 -45q-124 0 -226 31.5t-174.5 95.5t-112.5 161.5t-40 229.5q0 121 35 268t113 327l90 -49q-18 -54 -36.5 -112t-33.5 -117t-24 -117.5
t-9 -112.5q0 -72 19.5 -134t66.5 -108t125.5 -72.5t197.5 -26.5q123 0 217 19.5t162 60t112.5 102.5t68.5 148q-17 56 -37 112.5t-41 112t-41.5 108.5t-37.5 103q18 30 40 62.5t42.5 61t37.5 50.5t25 31q8 8 11 8z" />
    <glyph glyph-name="uniFB9F" unicode="&#x6ba;" horiz-adv-x="1622" arabic-form="final" 
d="M1234 625q3 0 6 -7q46 -98 80.5 -168t73.5 -114.5t90.5 -65.5t131.5 -21h26v-249h-26q-48 0 -89.5 7.5t-75 20.5t-57.5 29.5t-38 33.5q1 -15 1.5 -30.5t0.5 -30.5q0 -150 -43 -270t-128 -204t-211 -129t-292 -45q-124 0 -226 31.5t-174.5 95.5t-112.5 161.5t-40 229.5
q0 121 35.5 268t112.5 327l90 -49q-18 -54 -36.5 -112t-33.5 -117t-24 -117.5t-9 -112.5q0 -72 19.5 -134t66.5 -108t125.5 -72.5t197.5 -26.5q124 0 217.5 19.5t162 60t112.5 102.5t69 148q-35 112 -73 225t-73 213q12 23 30 52t37 57.5t37 53.5t29 40q8 8 11 8z" />
    <glyph glyph-name="uniFEAA" unicode="&#x62f;" horiz-adv-x="1078" arabic-form="final" 
d="M676 1067q3 -1 16 -48.5t36 -126.5t55.5 -183t76.5 -219q18 -48 39 -91.5t47 -77t57.5 -53t70.5 -19.5h24v-249h-29q-43 1 -81 15t-69.5 35.5t-56 48t-40.5 53.5q-10 -14 -30.5 -41t-58 -54t-94 -47t-138.5 -20q-71 0 -132 7.5t-106.5 18t-72 20.5t-28.5 15q-9 17 -16 49
t-12 68.5t-7.5 71t-2.5 55.5q0 39 10 39q2 0 4 -2q55 -41 138.5 -64t206.5 -23q31 0 64.5 1.5t67 10t65.5 25t60 46.5q-29 71 -52.5 126t-47.5 109.5t-51 118.5t-63 153q8 14 18 32t20.5 36.5t20 35.5t16.5 28q12 19 24 37t22.5 32t18 22.5t10.5 8.5z" />
    <glyph glyph-name="uniFBA7" unicode="&#x6c1;" horiz-adv-x="913" arabic-form="final" 
d="M439 454q28 0 61 -14.5t69.5 -36.5t76.5 -47.5t82.5 -48.5t87 -39t90.5 -19h27v-249h-20q-55 0 -110.5 17.5t-107.5 43.5t-98.5 56.5t-85.5 57.5t-68.5 45t-45.5 20q-2 0 -5.5 0.5t-7.5 0.5q-15 0 -38 -6.5t-54 -30t-71.5 -69t-90.5 -122.5l-76 45q122 202 214.5 299
t170.5 97z" />
    <glyph glyph-name="uni0686" unicode="&#x686;" horiz-adv-x="1505" arabic-form="isolated" 
d="M1079.31 -251.734l-141.312 -141.387l-141.312 141.387l141.312 141.387zM1242.01 11.5059l-141.312 -141.387l-141.312 141.387l141.312 141.387zM916.617 11.5059l-141.312 -141.387l-141.312 141.387l141.312 141.387zM475 918q43 0 97 -15.5t120 -40.5t144 -56
t169.5 -62t196.5 -59t225 -46l-91 -229q-92 -16 -198 -40t-213.5 -56t-212 -72.5t-193.5 -90.5t-157.5 -110t-103.5 -131q45 -103 118 -173.5t162 -114t187.5 -63t194.5 -19.5q78 0 150.5 6t137 16.5t118.5 23t94 26.5v-2l-82 -225q-22 -16 -67.5 -32.5t-104.5 -30t-127 -22
t-135 -8.5q-92 0 -184 16t-176.5 48.5t-158 82.5t-127.5 117.5t-85 154t-31 192.5q0 47 14.5 102.5t51 114.5t98.5 118t158 113.5t229.5 101.5t311.5 82q-58 16 -123.5 34.5t-129.5 36.5t-123.5 34.5t-105.5 29.5t-75.5 20.5t-33.5 7.5q-12 0 -29.5 -14t-37 -35.5t-39 -48.5
t-35.5 -54l-94 61q35 61 66.5 116.5t65 98.5t71.5 69t86 27h7z" />
    <glyph glyph-name="uniFB7B" unicode="&#x686;" horiz-adv-x="1478" arabic-form="final" 
d="M462 918q43 0 97 -15.5t120 -40.5t144 -56t169.5 -62t196.5 -59t225 -46l-91 -229l-147 -30q10 -30 40 -54t67 -41.5t75 -26.5t65 -9h76v-249h-76q-75 0 -144.5 18t-123 58.5t-87.5 106.5t-38 162q-171 -44 -301 -92t-225.5 -102t-158.5 -114t-100 -127
q45 -103 118 -173.5t162 -114t187.5 -63t194.5 -19.5q78 0 150.5 6t137 16.5t118.5 23t94 26.5v-2l-82 -225q-22 -16 -67.5 -32.5t-104.5 -30t-127 -22t-135 -8.5q-92 0 -184 16t-176.5 48.5t-158 82.5t-127.5 117.5t-85 154t-31 192.5q0 47 14.5 102.5t51 114.5t98.5 118
t158 113.5t229.5 101.5t311.5 82q-58 16 -123.5 34.5t-129.5 36.5t-123.5 34.5t-105.5 29.5t-75.5 20.5t-33.5 7.5q-12 0 -29.5 -14t-37 -35.5t-39 -48.5t-35.5 -54l-94 61q35 61 66.5 116.5t65 98.5t71.5 69t86 27h7zM936.264 -267.565l-135.264 -135.171l-135.264 135.171
l135.264 135.171zM1092 -15.8984l-135.264 -135.172l-135.264 135.172l135.264 135.17zM780.532 -15.8984l-135.264 -135.172l-135.264 135.172l135.264 135.17z" />
    <glyph glyph-name="uni0623" unicode="&#x623;" horiz-adv-x="571" arabic-form="isolated" 
d="M381 1542q7 0 8 -11.5t1 -19.5q4 -169 4 -333t-3 -328.5t-10 -332t-18 -342.5l-8 -11q-8 -12 -22 -32l-31.5 -45t-33.5 -47.5t-29.5 -39.5t-18.5 -22h-1q-1 0 -2.5 1.5t-1.5 6.5q-2 127 -4 230t-4.5 189.5t-5.5 161.5t-6.5 146t-7.5 142t-8.5 150.5t-10 171.5t-11.5 205
q7 8 25.5 22.5t42 32.5t49 36.5t48 34t38.5 25t21 9.5zM313 2075q50 0 93.5 -24.5t81.5 -90.5l-41 -28q-8 5 -33 14.5t-69 9.5h-16q-29 -2 -54.5 -12t-44.5 -23.5t-29.5 -26t-10.5 -18.5q0 -8 10.5 -20.5t31.5 -25.5t52.5 -24.5t72.5 -17.5q27 4 49 8t40.5 8t35 8t34.5 9
l-23 -122q-5 -2 -11 -2.5t-12 -2.5q-57 -11 -105.5 -22t-95.5 -26.5t-97 -37.5t-110 -56l39 121l84 49q-9 8 -21.5 20t-24 28.5t-20.5 36.5t-11 44v8q0 16 7 37.5t22 46.5t35.5 48.5t44 42t48 30t48.5 11.5z" />
    <glyph glyph-name="uniFE84" unicode="&#x623;" horiz-adv-x="596" arabic-form="final" 
d="M359 1551q6 -1 7 -12.5t2 -18.5q9 -163 13 -289t5.5 -228.5t1.5 -187.5t0.5 -167t2.5 -167.5t8 -187.5q37 -22 75 -33t83 -11h59v-249h-54q-90 0 -154.5 22t-107 63.5t-63.5 101t-23 134.5q-2 78 -6 151.5t-9 149t-11.5 156.5t-13.5 173q-9 109 -18.5 220.5t-20.5 223.5
q7 8 25.5 22.5t42 32t49 35.5t48 32.5t38.5 24t21 9.5zM313 2075q50 0 93.5 -24.5t81.5 -90.5l-41 -28q-8 5 -33 14.5t-69 9.5h-16q-29 -2 -54.5 -12t-44.5 -23.5t-29.5 -26t-10.5 -18.5q0 -8 10.5 -20.5t31.5 -25.5t52.5 -24.5t72.5 -17.5q27 4 49 8t40.5 8t35 8t34.5 9
l-23 -122q-5 -2 -11 -2.5t-12 -2.5q-57 -11 -105.5 -22t-95.5 -26.5t-97 -37.5t-110 -56l39 121l84 49q-9 8 -21.5 20t-24 28.5t-20.5 36.5t-11 44v8q0 16 7 37.5t22 46.5t35.5 48.5t44 42t48 30t48.5 11.5z" />
    <glyph glyph-name="uni0625" unicode="&#x625;" horiz-adv-x="505" arabic-form="isolated" 
d="M356 1650q7 0 8 -11.5t1 -19.5q1 -50 1.5 -115.5t0.5 -135v-136.5v-119q0 -59 -1 -133.5t-2.5 -157t-3.5 -169.5t-5.5 -171.5t-7.5 -163t-9 -143.5l-8 -11q-8 -12 -22 -32l-31.5 -45t-33.5 -47.5t-29.5 -39.5t-18.5 -22h-1q-1 0 -2.5 1.5t-1.5 6.5q-2 147 -5.5 296
t-7.5 286.5t-9 257.5t-10 209q-2 25 -4 61.5t-5 90t-7 128t-10 175.5q7 8 25.5 22.5t42 32.5t49 36.5t48 34t38.5 25t21 9.5zM269 -125q50 0 93.5 -24.5t81.5 -90.5l-41 -28q-8 5 -33 14.5t-69 9.5h-16q-29 -2 -54.5 -12t-44.5 -23.5t-29.5 -26t-10.5 -18.5q0 -8 10.5 -20.5
t31.5 -25.5t52.5 -24.5t72.5 -17.5q27 4 49 8t40.5 8t35 8t34.5 9l-23 -122q-5 -2 -11 -2.5t-12 -2.5q-57 -11 -105.5 -22t-95.5 -26.5t-97 -37.5t-110 -56l39 121l84 49q-9 8 -21.5 20t-24 28.5t-20.5 36.5t-11 44v8q0 16 7 37.5t22 46.5t35.5 48.5t44 42t48 30t48.5 11.5z
" />
    <glyph glyph-name="uniFE88" unicode="&#x625;" horiz-adv-x="596" arabic-form="final" 
d="M359 1655q6 -1 7 -12.5t2 -18.5q9 -163 13 -297t5.5 -247.5t1.5 -212.5t0.5 -192.5t2.5 -186.5t8 -195q37 -22 75 -33t83 -11h59v-249h-54q-90 0 -154.5 22t-107 63.5t-63.5 101t-23 134.5q-2 78 -6 168t-9 185t-11.5 192t-13.5 189q-9 109 -18.5 220.5t-20.5 223.5
q7 8 25.5 22.5t42 32t49 35.5t48 32.5t38.5 24t21 9.5zM365 -125q50 0 93.5 -24.5t81.5 -90.5l-41 -28q-8 5 -33 14.5t-69 9.5h-16q-29 -2 -54.5 -12t-44.5 -23.5t-29.5 -26t-10.5 -18.5q0 -8 10.5 -20.5t31.5 -25.5t52.5 -24.5t72.5 -17.5q27 4 49 8t40.5 8t35 8t34.5 9
l-23 -122q-5 -2 -11 -2.5t-12 -2.5q-57 -11 -105.5 -22t-95.5 -26.5t-97 -37.5t-110 -56l39 121l84 49q-9 8 -21.5 20t-24 28.5t-20.5 36.5t-11 44v8q0 16 7 37.5t22 46.5t35.5 48.5t44 42t48 30t48.5 11.5z" />
    <glyph glyph-name="uni0622" unicode="&#x622;" horiz-adv-x="571" arabic-form="isolated" 
d="M381 1542q7 0 8 -11.5t1 -19.5q4 -169 4 -333t-3 -328.5t-10 -332t-18 -342.5l-8 -11q-8 -12 -22 -32l-31.5 -45t-33.5 -47.5t-29.5 -39.5t-18.5 -22h-1q-1 0 -2.5 1.5t-1.5 6.5q-2 127 -4 230t-4.5 189.5t-5.5 161.5t-6.5 146t-7.5 142t-8.5 150.5t-10 171.5t-11.5 205
q7 8 25.5 22.5t42 32.5t49 36.5t48 34t38.5 25t21 9.5zM651 1801q-12 -20 -34 -50.5t-52.5 -60t-69 -52t-83.5 -27.5q-18 -2 -36 -3t-36 -1q-72 0 -137 9.5t-111 17.5q-32 -9 -58 -31t-49 -49l-24 16q6 29 18 66t29.5 72.5t40.5 64t51 40.5q38 -6 72.5 -12.5t74 -12t87 -9
t112.5 -3.5q34 0 62.5 5t51.5 11.5t41.5 14.5t32.5 14z" />
    <glyph glyph-name="uniFE82" unicode="&#x622;" horiz-adv-x="596" arabic-form="final" 
d="M359 1551q6 -1 7 -12.5t2 -18.5q9 -163 13 -289t5.5 -228.5t1.5 -187.5t0.5 -167t2.5 -167.5t8 -187.5q37 -22 75 -33t83 -11h59v-249h-54q-90 0 -154.5 22t-107 63.5t-63.5 101t-23 134.5q-2 78 -6 151.5t-9 149t-11.5 156.5t-13.5 173q-9 109 -18.5 220.5t-20.5 223.5
q7 8 25.5 22.5t42 32t49 35.5t48 32.5t38.5 24t21 9.5zM651 1801q-12 -20 -34 -50.5t-52.5 -60t-69 -52t-83.5 -27.5q-18 -2 -36 -3t-36 -1q-72 0 -137 9.5t-111 17.5q-32 -9 -58 -31t-49 -49l-24 16q6 29 18 66t29.5 72.5t40.5 64t51 40.5q38 -6 72.5 -12.5t74 -12t87 -9
t112.5 -3.5q34 0 62.5 5t51.5 11.5t41.5 14.5t32.5 14z" />
    <glyph glyph-name="uni0671" unicode="&#x671;" horiz-adv-x="571" arabic-form="isolated" 
d="M381 1542q7 0 8 -11.5t1 -19.5q4 -169 4 -333t-3 -328.5t-10 -332t-18 -342.5l-8 -11q-8 -12 -22 -32l-31.5 -45t-33.5 -47.5t-29.5 -39.5t-18.5 -22h-1q-1 0 -2.5 1.5t-1.5 6.5q-2 127 -4 230t-4.5 189.5t-5.5 161.5t-6.5 146t-7.5 142t-8.5 150.5t-10 171.5t-11.5 205
q7 8 25.5 22.5t42 32.5t49 36.5t48 34t38.5 25t21 9.5zM566 1778q-5 -28 -25.5 -54t-45.5 -53q-21 -14 -40.5 -20.5t-36 -9t-29.5 -2.5q-2 0 -11 0.5t-21 0.5q-33 3 -65.5 13t-61.5 21t-52 19.5t-36 8.5q-8 0 -19.5 -6t-24 -15.5t-25.5 -21t-23 -21.5l-37 30q54 66 93.5 101
t59.5 36l53 -17q61 74 117 114.5t93 40.5h2q14 0 37 -14.5t44.5 -38t37.5 -53t16 -59.5zM513 1775q-9 16 -22 30.5t-27 25t-27 15.5t-23 5h-3q-31 -3 -65 -26.5t-79 -55.5q10 -5 39.5 -12.5t54 -9.5t37.5 -2q24 0 55.5 4.5t59.5 25.5z" />
    <glyph glyph-name="uniFB51" unicode="&#x671;" horiz-adv-x="596" arabic-form="final" 
d="M359 1551q6 -1 7 -12.5t2 -18.5q9 -163 13 -289t5.5 -228.5t1.5 -187.5t0.5 -167t2.5 -167.5t8 -187.5q37 -22 75 -33t83 -11h59v-249h-54q-90 0 -154.5 22t-107 63.5t-63.5 101t-23 134.5q-2 78 -6 151.5t-9 149t-11.5 156.5t-13.5 173q-9 109 -18.5 220.5t-20.5 223.5
q7 8 25.5 22.5t42 32t49 35.5t48 32.5t38.5 24t21 9.5zM566 1778q-5 -28 -25.5 -54t-45.5 -53q-21 -14 -40.5 -20.5t-36 -9t-29.5 -2.5q-2 0 -11 0.5t-21 0.5q-33 3 -65.5 13t-61.5 21t-52 19.5t-36 8.5q-8 0 -19.5 -6t-24 -15.5t-25.5 -21t-23 -21.5l-37 30q54 66 93.5 101
t59.5 36l53 -17q61 74 117 114.5t93 40.5h2q14 0 37 -14.5t44.5 -38t37.5 -53t16 -59.5zM513 1775q-9 16 -22 30.5t-27 25t-27 15.5t-23 5h-3q-31 -3 -65 -26.5t-79 -55.5q10 -5 39.5 -12.5t54 -9.5t37.5 -2q24 0 55.5 4.5t59.5 25.5z" />
    <glyph glyph-name="uni0628" unicode="&#x628;" horiz-adv-x="1949" arabic-form="isolated" 
d="M1758 878q5 0 20.5 -26t34 -73t35 -113t21 -123t4.5 -94q0 -48 -6.5 -120t-37.5 -170q-42 -31 -107.5 -57t-142.5 -47t-161.5 -36.5t-164.5 -26t-151 -15.5t-122 -5q-69 0 -150.5 3t-166 14.5t-166.5 34t-151 61.5t-119 97.5t-67 126t-17 128.5q0 40 9.5 117t67.5 222
l91 -46q-33 -91 -34 -128t-1 -42q0 -64 21.5 -115t63 -87.5t95 -60.5t115 -38t123 -20.5t119 -8t102.5 -1.5h41q43 0 108.5 2t142 7t158 14t156 22t136 31.5t99.5 43.5q-6 18 -17 43.5t-25 54t-30 58t-30.5 56t-27.5 47t-21 31.5l85 138q12 19 23.5 36.5t20.5 31.5t15.5 23
t8.5 10zM999 -532l-172 172l172 172l172 -172z" />
    <glyph glyph-name="uniFE91" unicode="&#x628;" horiz-adv-x="624" arabic-form="initial" 
d="M430 879q5 0 21 -30t35 -83.5t36 -126.5t22 -137t5 -107q0 -47 -5.5 -119.5t-36.5 -170.5q-30 -27 -81.5 -47t-115 -32.5t-133.5 -19t-136 -6.5h-61v249h57q76 0 147.5 5t127 12.5t90.5 16.5t39 16q-6 31 -26 78t-45.5 96.5t-51 94.5t-41.5 72zM309 -532l-172 172
l172 172l172 -172z" />
    <glyph glyph-name="uniFE92" unicode="&#x628;" horiz-adv-x="781" arabic-form="medial" 
d="M453 698l4 -17q3 -18 8 -47t10.5 -67.5t10 -80.5t6.5 -79.5t2 -65.5v-23q16 -19 48 -32t72 -21.5t84 -12t83 -3.5h20v-249h-20q-49 0 -102 13t-101.5 35t-88.5 52t-62 63q-27 -33 -69 -62.5t-94 -52t-110 -35.5t-116 -13h-58v249h25q53 0 111 3.5t108 12.5t86.5 26
t45.5 44q-14 61 -28.5 109t-31.5 104zM309 -532l-172 172l172 172l172 -172z" />
    <glyph glyph-name="uniFE90" unicode="&#x628;" horiz-adv-x="1966" arabic-form="final" 
d="M297 732q-34 -92 -34.5 -128.5t-0.5 -39.5q0 -67 22 -118.5t65 -88t97 -61t116.5 -38t124 -20t119 -8t101.5 -1.5h35q172 0 293.5 14t205 39.5t135 61t84.5 78.5t53.5 92t40.5 102l73 -22q-8 -37 -13 -60t-10.5 -44.5t-11.5 -47.5t-15 -68q4 -45 28 -70.5t56.5 -37.5
t66.5 -14.5t58 -2.5v-249h-25q-73 0 -122.5 18t-81 49.5t-48.5 75t-24 94.5q-56 -72 -136 -122t-175 -81t-199.5 -44.5t-209.5 -13.5q-69 0 -150.5 3t-166 14t-166.5 33.5t-150.5 62t-118.5 98t-67 125.5t-17 128q0 40 9.5 117t67.5 222zM928 -532l-172 172l172 172
l172 -172z" />
    <glyph glyph-name="uni067E" unicode="&#x67e;" horiz-adv-x="1949" arabic-form="isolated" 
d="M1758 878q5 0 20.5 -26t34 -73t35 -113t21 -123t4.5 -94q0 -48 -6.5 -120t-37.5 -170q-42 -31 -107.5 -57t-142.5 -47t-161.5 -36.5t-164.5 -26t-151 -15.5t-122 -5q-69 0 -150.5 3t-166 14.5t-166.5 34t-151 61.5t-119 97.5t-67 126t-17 128.5q0 40 9.5 117t67.5 222
l91 -46q-33 -91 -34 -128t-1 -42q0 -64 21.5 -115t63 -87.5t95 -60.5t115 -38t123 -20.5t119 -8t102.5 -1.5h41q43 0 108.5 2t142 7t158 14t156 22t136 31.5t99.5 43.5q-6 18 -17 43.5t-25 54t-30 58t-30.5 56t-27.5 47t-21 31.5l85 138q12 19 23.5 36.5t20.5 31.5t15.5 23
t8.5 10zM1173 -591l-152 -152l-152 152l152 152zM1348 -308l-152 -152l-152 152l152 152zM998 -308l-152 -152l-152 152l152 152z" />
    <glyph glyph-name="uniFB57" unicode="&#x67e;" horiz-adv-x="1966" arabic-form="final" 
d="M297 732q-34 -92 -34.5 -128.5t-0.5 -39.5q0 -67 22 -118.5t65 -88t97 -61t116.5 -38t124 -20t119 -8t101.5 -1.5h35q172 0 293.5 14t205 39.5t135 61t84.5 78.5t53.5 92t40.5 102l73 -22q-8 -37 -13 -60t-10.5 -44.5t-11.5 -47.5t-15 -68q4 -45 28 -70.5t56.5 -37.5
t66.5 -14.5t58 -2.5v-249h-25q-73 0 -122.5 18t-81 49.5t-48.5 75t-24 94.5q-56 -72 -136 -122t-175 -81t-199.5 -44.5t-209.5 -13.5q-69 0 -150.5 3t-166 14t-166.5 33.5t-150.5 62t-118.5 98t-67 125.5t-17 128q0 40 9.5 117t67.5 222zM1125 -591l-152 -152l-152 152
l152 152zM1300 -308l-152 -152l-152 152l152 152zM950 -308l-152 -152l-152 152l152 152z" />
    <glyph glyph-name="uniFB58" unicode="&#x67e;" horiz-adv-x="755" arabic-form="initial" 
d="M528 879q5 0 21 -30t35 -83.5t36 -126.5t22 -137t5 -107q0 -47 -5.5 -119.5t-36.5 -170.5q-20 -18 -57 -33t-85 -26.5t-103.5 -20t-111.5 -14t-109.5 -8.5t-97.5 -3h-61v249h57q51 0 107.5 2.5t111 6.5t105 9t89 10.5t62.5 11t27 10.5q-6 31 -26 78t-45.5 96.5t-51 94.5
t-41.5 72zM493 -591l-152 -152l-152 152l152 152zM668 -308l-152 -152l-152 152l152 152zM318 -308l-152 -152l-152 152l152 152z" />
    <glyph glyph-name="uniFB59" unicode="&#x67e;" horiz-adv-x="897" arabic-form="medial" 
d="M539 698l4 -17q3 -18 8 -47t10.5 -67.5t10 -80.5t6.5 -79.5t2 -65.5v-23q16 -19 52.5 -32t82.5 -21.5t94.5 -12t87.5 -3.5h20v-249h-20q-49 0 -106.5 13t-112 35t-99 52t-66.5 63q-18 -22 -49.5 -42.5t-71 -38.5t-85.5 -33.5t-92.5 -26t-92 -16.5t-84.5 -6h-58v249h25
q35 0 79.5 1.5t91 5t91.5 9.5t82 15.5t62 23t31 31.5q-14 61 -28.5 109t-31.5 104zM516 -591l-152 -152l-152 152l152 152zM691 -308l-152 -152l-152 152l152 152zM341 -308l-152 -152l-152 152l152 152z" />
    <glyph glyph-name="uni062A" unicode="&#x62a;" horiz-adv-x="1949" arabic-form="isolated" 
d="M1758 878q5 0 20.5 -26t34 -73t35 -113t21 -123t4.5 -94q0 -48 -6.5 -120t-37.5 -170q-42 -31 -107.5 -57t-142.5 -47t-161.5 -36.5t-164.5 -26t-151 -15.5t-122 -5q-69 0 -150.5 3t-166 14.5t-166.5 34t-151 61.5t-119 97.5t-67 126t-17 128.5q0 40 9.5 117t67.5 222
l91 -46q-33 -91 -34 -128t-1 -42q0 -64 21.5 -115t63 -87.5t95 -60.5t115 -38t123 -20.5t119 -8t102.5 -1.5h41q43 0 108.5 2t142 7t158 14t156 22t136 31.5t99.5 43.5q-6 18 -17 43.5t-25 54t-30 58t-30.5 56t-27.5 47t-21 31.5l85 138q12 19 23.5 36.5t20.5 31.5t15.5 23
t8.5 10zM1192 633l-160 160l160 160l160 -160zM832 633l-160 160l160 160l160 -160z" />
    <glyph glyph-name="uniFE97" unicode="&#x62a;" horiz-adv-x="755" arabic-form="initial" 
d="M528 879q5 0 21 -30t35 -83.5t36 -126.5t22 -137t5 -107q0 -47 -5.5 -119.5t-36.5 -170.5q-20 -18 -57 -33t-85 -26.5t-103.5 -20t-111.5 -14t-109.5 -8.5t-97.5 -3h-61v249h57q51 0 107.5 2.5t111 6.5t105 9t89 10.5t62.5 11t27 10.5q-6 31 -26 78t-45.5 96.5t-51 94.5
t-41.5 72zM566 973l-160 160l160 160l160 -160zM206 973l-160 160l160 160l160 -160z" />
    <glyph glyph-name="uniFE98" unicode="&#x62a;" horiz-adv-x="897" arabic-form="medial" 
d="M539 698l4 -17q3 -18 8 -47t10.5 -67.5t10 -80.5t6.5 -79.5t2 -65.5v-23q16 -19 52.5 -32t82.5 -21.5t94.5 -12t87.5 -3.5h20v-249h-20q-49 0 -106.5 13t-112 35t-99 52t-66.5 63q-18 -22 -49.5 -42.5t-71 -38.5t-85.5 -33.5t-92.5 -26t-92 -16.5t-84.5 -6h-58v249h25
q35 0 79.5 1.5t91 5t91.5 9.5t82 15.5t62 23t31 31.5q-14 61 -28.5 109t-31.5 104zM578 840l-160 160l160 160l160 -160zM218 840l-160 160l160 160l160 -160z" />
    <glyph glyph-name="uniFE96" unicode="&#x62a;" horiz-adv-x="1966" arabic-form="final" 
d="M297 732q-34 -92 -34.5 -128.5t-0.5 -39.5q0 -67 22 -118.5t65 -88t97 -61t116.5 -38t124 -20t119 -8t101.5 -1.5h35q172 0 293.5 14t205 39.5t135 61t84.5 78.5t53.5 92t40.5 102l73 -22q-8 -37 -13 -60t-10.5 -44.5t-11.5 -47.5t-15 -68q4 -45 28 -70.5t56.5 -37.5
t66.5 -14.5t58 -2.5v-249h-25q-73 0 -122.5 18t-81 49.5t-48.5 75t-24 94.5q-56 -72 -136 -122t-175 -81t-199.5 -44.5t-209.5 -13.5q-69 0 -150.5 3t-166 14t-166.5 33.5t-150.5 62t-118.5 98t-67 125.5t-17 128q0 40 9.5 117t67.5 222zM1177 633l-160 160l160 160
l160 -160zM817 633l-160 160l160 160l160 -160z" />
    <glyph glyph-name="uni062B" unicode="&#x62b;" horiz-adv-x="1949" arabic-form="isolated" 
d="M1758 878q5 0 20.5 -26t34 -73t35 -113t21 -123t4.5 -94q0 -48 -6.5 -120t-37.5 -170q-42 -31 -107.5 -57t-142.5 -47t-161.5 -36.5t-164.5 -26t-151 -15.5t-122 -5q-69 0 -150.5 3t-166 14.5t-166.5 34t-151 61.5t-119 97.5t-67 126t-17 128.5q0 40 9.5 117t67.5 222
l91 -46q-33 -91 -34 -128t-1 -42q0 -64 21.5 -115t63 -87.5t95 -60.5t115 -38t123 -20.5t119 -8t102.5 -1.5h41q43 0 108.5 2t142 7t158 14t156 22t136 31.5t99.5 43.5q-6 18 -17 43.5t-25 54t-30 58t-30.5 56t-27.5 47t-21 31.5l85 138q12 19 23.5 36.5t20.5 31.5t15.5 23
t8.5 10zM1031 884l-152 152l152 152l152 -152zM1206 601l-152 152l152 152l152 -152zM856 601l-152 152l152 152l152 -152z" />
    <glyph glyph-name="uniFE9B" unicode="&#x62b;" horiz-adv-x="755" arabic-form="initial" 
d="M528 879q5 0 21 -30t35 -83.5t36 -126.5t22 -137t5 -107q0 -47 -5.5 -119.5t-36.5 -170.5q-20 -18 -57 -33t-85 -26.5t-103.5 -20t-111.5 -14t-109.5 -8.5t-97.5 -3h-61v249h57q51 0 107.5 2.5t111 6.5t105 9t89 10.5t62.5 11t27 10.5q-6 31 -26 78t-45.5 96.5t-51 94.5
t-41.5 72zM417 1225l-152 152l152 152l152 -152zM592 942l-152 152l152 152l152 -152zM242 942l-152 152l152 152l152 -152z" />
    <glyph glyph-name="uniFE9C" unicode="&#x62b;" horiz-adv-x="897" arabic-form="medial" 
d="M539 698l4 -17q3 -18 8 -47t10.5 -67.5t10 -80.5t6.5 -79.5t2 -65.5v-23q16 -19 52.5 -32t82.5 -21.5t94.5 -12t87.5 -3.5h20v-249h-20q-49 0 -106.5 13t-112 35t-99 52t-66.5 63q-18 -22 -49.5 -42.5t-71 -38.5t-85.5 -33.5t-92.5 -26t-92 -16.5t-84.5 -6h-58v249h25
q35 0 79.5 1.5t91 5t91.5 9.5t82 15.5t62 23t31 31.5q-14 61 -28.5 109t-31.5 104zM398 1096l-152 152l152 152l152 -152zM573 813l-152 152l152 152l152 -152zM223 813l-152 152l152 152l152 -152z" />
    <glyph glyph-name="uniFE9A" unicode="&#x62b;" horiz-adv-x="1966" arabic-form="final" 
d="M297 732q-34 -92 -34.5 -128.5t-0.5 -39.5q0 -67 22 -118.5t65 -88t97 -61t116.5 -38t124 -20t119 -8t101.5 -1.5h35q172 0 293.5 14t205 39.5t135 61t84.5 78.5t53.5 92t40.5 102l73 -22q-8 -37 -13 -60t-10.5 -44.5t-11.5 -47.5t-15 -68q4 -45 28 -70.5t56.5 -37.5
t66.5 -14.5t58 -2.5v-249h-25q-73 0 -122.5 18t-81 49.5t-48.5 75t-24 94.5q-56 -72 -136 -122t-175 -81t-199.5 -44.5t-209.5 -13.5q-69 0 -150.5 3t-166 14t-166.5 33.5t-150.5 62t-118.5 98t-67 125.5t-17 128q0 40 9.5 117t67.5 222zM987 884l-152 152l152 152l152 -152
zM1162 601l-152 152l152 152l152 -152zM812 601l-152 152l152 152l152 -152z" />
    <glyph glyph-name="uni0679" unicode="&#x679;" horiz-adv-x="1949" arabic-form="isolated" 
d="M1758 878q5 0 20.5 -26t34 -73t35 -113t21 -123t4.5 -94q0 -48 -6.5 -120t-37.5 -170q-42 -31 -107.5 -57t-142.5 -47t-161.5 -36.5t-164.5 -26t-151 -15.5t-122 -5q-69 0 -150.5 3t-166 14.5t-166.5 34t-151 61.5t-119 97.5t-67 126t-17 128.5q0 40 9.5 117t67.5 222
l91 -46q-33 -91 -34 -128t-1 -42q0 -64 21.5 -115t63 -87.5t95 -60.5t115 -38t123 -20.5t119 -8t102.5 -1.5h41q43 0 108.5 2t142 7t158 14t156 22t136 31.5t99.5 43.5q-6 18 -17 43.5t-25 54t-30 58t-30.5 56t-27.5 47t-21 31.5l85 138q12 19 23.5 36.5t20.5 31.5t15.5 23
t8.5 10zM662 728q1 4 6 4q2 0 5 -1q17 -3 37.5 -6.5t41.5 -6t40.5 -4.5t33.5 -2l27 29q11 25 16.5 59.5t5.5 63.5q-2 55 -6 112.5t-9 109t-9.5 93.5t-6.5 65q5 5 20.5 18.5t32.5 27t31 24t16 10.5t2.5 -3t1.5 -14q1 -12 1.5 -52.5t0.5 -91.5q0 -52 -0.5 -105.5t-1.5 -90.5
q0 -9 -1 -26t-4 -38t-9 -44t-16 -42q29 37 66.5 77t77.5 73t80.5 54t76.5 21q41 0 68.5 -14t44.5 -36t25 -49t9.5 -47t1.5 -32t-1.5 -28.5t-4.5 -29.5l-21 -51q-9 -21 -18 -39t-17 -35q-12 -14 -37 -29t-60.5 -27t-81 -20t-99.5 -9q-26 0 -62.5 0.5t-74.5 2t-73.5 4
t-59.5 6.5q-15 8 -32 28t-31 40q-17 24 -33 51zM1309 796q4 15 5 27t1 15q0 19 -9 37.5t-31 31.5t-61 13h-6q-57 -2 -108 -28t-93 -60t-73.5 -69t-48.5 -54q26 -1 49.5 -2t41.5 -1q23 0 52 1q44 0 87 5t80.5 15.5t67 27.5t46.5 41z" />
    <glyph glyph-name="uniFB68" unicode="&#x679;" horiz-adv-x="755" arabic-form="initial" 
d="M528 879q5 0 21 -30t35 -83.5t36 -126.5t22 -137t5 -107q0 -47 -5.5 -119.5t-36.5 -170.5q-20 -18 -57 -33t-85 -26.5t-103.5 -20t-111.5 -14t-109.5 -8.5t-97.5 -3h-61v249h57q51 0 107.5 2.5t111 6.5t105 9t89 10.5t62.5 11t27 10.5q-6 31 -26 78t-45.5 96.5t-51 94.5
t-41.5 72zM15 1121q1 4 6 4q2 0 5 -1q17 -3 37.5 -6.5t41.5 -6t40.5 -4.5t33.5 -2l27 29q11 25 16.5 59.5t5.5 63.5q-2 55 -6 112.5t-9 109t-9.5 93.5t-6.5 65q5 5 20.5 18.5t32.5 27t31 24t16 10.5t2.5 -3t1.5 -14q1 -12 1.5 -52.5t0.5 -91.5q0 -52 -0.5 -105.5t-1.5 -90.5
q0 -9 -1 -26t-4 -38t-9 -44t-16 -42q29 37 66.5 77t77.5 73t80.5 54t76.5 21q41 0 68.5 -14t44.5 -36t25 -49t9.5 -47t1.5 -32t-1.5 -28.5t-4.5 -29.5l-21 -51q-9 -21 -18 -39t-17 -35q-12 -14 -37 -29t-60.5 -27t-81 -20t-99.5 -9q-26 0 -62.5 0.5t-74.5 2t-73.5 4
t-59.5 6.5q-15 8 -32 28t-31 40q-17 24 -33 51zM662 1189q4 15 5 27t1 15q0 19 -9 37.5t-31 31.5t-61 13h-6q-57 -2 -108 -28t-93 -60t-73.5 -69t-48.5 -54q26 -1 49.5 -2t41.5 -1q23 0 52 1q44 0 87 5t80.5 15.5t67 27.5t46.5 41z" />
    <glyph glyph-name="uniFB69" unicode="&#x679;" horiz-adv-x="897" arabic-form="medial" 
d="M539 698l4 -17q3 -18 8 -47t10.5 -67.5t10 -80.5t6.5 -79.5t2 -65.5v-23q16 -19 52.5 -32t82.5 -21.5t94.5 -12t87.5 -3.5h20v-249h-20q-49 0 -106.5 13t-112 35t-99 52t-66.5 63q-18 -22 -49.5 -42.5t-71 -38.5t-85.5 -33.5t-92.5 -26t-92 -16.5t-84.5 -6h-58v249h25
q35 0 79.5 1.5t91 5t91.5 9.5t82 15.5t62 23t31 31.5q-14 61 -28.5 109t-31.5 104zM44 968q1 4 6 4q2 0 5 -1q17 -3 37.5 -6.5t41.5 -6t40.5 -4.5t33.5 -2l27 29q11 25 16.5 59.5t5.5 63.5q-2 55 -6 112.5t-9 109t-9.5 93.5t-6.5 65q5 5 20.5 18.5t32.5 27t31 24t16 10.5
t2.5 -3t1.5 -14q1 -12 1.5 -52.5t0.5 -91.5q0 -52 -0.5 -105.5t-1.5 -90.5q0 -9 -1 -26t-4 -38t-9 -44t-16 -42q29 37 66.5 77t77.5 73t80.5 54t76.5 21q41 0 68.5 -14t44.5 -36t25 -49t9.5 -47t1.5 -32t-1.5 -28.5t-4.5 -29.5l-21 -51q-9 -21 -18 -39t-17 -35
q-12 -14 -37 -29t-60.5 -27t-81 -20t-99.5 -9q-26 0 -62.5 0.5t-74.5 2t-73.5 4t-59.5 6.5q-15 8 -32 28t-31 40q-17 24 -33 51zM691 1036q4 15 5 27t1 15q0 19 -9 37.5t-31 31.5t-61 13h-6q-57 -2 -108 -28t-93 -60t-73.5 -69t-48.5 -54q26 -1 49.5 -2t41.5 -1q23 0 52 1
q44 0 87 5t80.5 15.5t67 27.5t46.5 41z" />
    <glyph glyph-name="uniFB67" unicode="&#x679;" horiz-adv-x="1966" arabic-form="final" 
d="M297 732q-34 -92 -34.5 -128.5t-0.5 -39.5q0 -67 22 -118.5t65 -88t97 -61t116.5 -38t124 -20t119 -8t101.5 -1.5h35q172 0 293.5 14t205 39.5t135 61t84.5 78.5t53.5 92t40.5 102l73 -22q-8 -37 -13 -60t-10.5 -44.5t-11.5 -47.5t-15 -68q4 -45 28 -70.5t56.5 -37.5
t66.5 -14.5t58 -2.5v-249h-25q-73 0 -122.5 18t-81 49.5t-48.5 75t-24 94.5q-56 -72 -136 -122t-175 -81t-199.5 -44.5t-209.5 -13.5q-69 0 -150.5 3t-166 14t-166.5 33.5t-150.5 62t-118.5 98t-67 125.5t-17 128q0 40 9.5 117t67.5 222zM628 728q1 4 6 4q2 0 5 -1
q17 -3 37.5 -6.5t41.5 -6t40.5 -4.5t33.5 -2l27 29q11 25 16.5 59.5t5.5 63.5q-2 55 -6 112.5t-9 109t-9.5 93.5t-6.5 65q5 5 20.5 18.5t32.5 27t31 24t16 10.5t2.5 -3t1.5 -14q1 -12 1.5 -52.5t0.5 -91.5q0 -52 -0.5 -105.5t-1.5 -90.5q0 -9 -1 -26t-4 -38t-9 -44t-16 -42
q29 37 66.5 77t77.5 73t80.5 54t76.5 21q41 0 68.5 -14t44.5 -36t25 -49t9.5 -47t1.5 -32t-1.5 -28.5t-4.5 -29.5l-21 -51q-9 -21 -18 -39t-17 -35q-12 -14 -37 -29t-60.5 -27t-81 -20t-99.5 -9q-26 0 -62.5 0.5t-74.5 2t-73.5 4t-59.5 6.5q-15 8 -32 28t-31 40
q-17 24 -33 51zM1275 796q4 15 5 27t1 15q0 19 -9 37.5t-31 31.5t-61 13h-6q-57 -2 -108 -28t-93 -60t-73.5 -69t-48.5 -54q26 -1 49.5 -2t41.5 -1q23 0 52 1q44 0 87 5t80.5 15.5t67 27.5t46.5 41z" />
    <glyph glyph-name="uni0629" unicode="&#x629;" horiz-adv-x="878" arabic-form="isolated" 
d="M447 207q37 0 84 2t91 11.5t80 28t52 51.5q-1 37 -26 72t-64 66.5t-87 58.5t-95 48.5t-88.5 36.5t-67.5 22q-51 -98 -63.5 -154t-12.5 -87t12.5 -68.5t60 -62.5t124.5 -25zM388 871q6 0 40.5 -16t81.5 -47t100.5 -75.5t98.5 -102.5t74.5 -127.5t29.5 -149.5
q-21 -184 -115 -276t-258 -92q-70 0 -129.5 23.5t-100 69t-54.5 98.5t-14 99q0 33 5 70q7 45 23.5 98t38 107.5t47 107t50 96t46 74.5t36.5 43zM640 961l-160 160l160 160l160 -160zM280 961l-160 160l160 160l160 -160z" />
    <glyph glyph-name="uniFE94" unicode="&#x629;" horiz-adv-x="1045" arabic-form="final" 
d="M612 720l-124 -62t-115.5 -60t-94 -55.5t-60.5 -49.5q1 -29 34.5 -48t94 -31t145 -19t186.5 -12zM807 737q8 -74 16 -140t15.5 -118t13.5 -86.5t9 -46.5q4 -18 16 -35.5t33.5 -31t54 -22t78.5 -8.5h22v-249h-44q-82 0 -137 26.5t-91 67t-57 89t-35 93.5l-121 -125
q-2 0 -5 -0.5t-8 -0.5q-19 0 -60.5 3.5t-93 11.5t-108 20t-105.5 30q-12 15 -22.5 44t-18.5 64.5t-13 73.5t-5.5 58.5t-0.5 26.5q0 27 4 51.5t15 37.5q27 31 80 71.5t115 82t123.5 80.5t106.5 69l-15 79l195 173zM841 1182l-160 160l160 160l160 -160zM481 1182l-160 160
l160 160l160 -160z" />
    <glyph glyph-name="uniFB7C" unicode="&#x686;" horiz-adv-x="1443" arabic-form="initial" 
d="M453 863q43 0 98.5 -16.5t122.5 -42t145.5 -57t168.5 -61.5t191.5 -55t213.5 -38l-81 -193q-62 -26 -145.5 -65t-184 -83t-215 -88.5t-238 -80.5t-253.5 -59t-260 -24h-36v249h39q101 0 196 9t181 23.5t163 33.5t142 39q152 46 279 105q-60 18 -124.5 39t-127 41.5
t-119.5 39t-102.5 33t-76 23t-39.5 8.5q-21 0 -42 -14.5t-40.5 -37t-37 -48.5t-32.5 -48l-92 51q31 66 63.5 123.5t69 100t77 67.5t88.5 26h8zM825 -591l-152 -152l-152 152l152 152zM1000 -308l-152 -152l-152 152l152 152zM650 -308l-152 -152l-152 152l152 152z" />
    <glyph glyph-name="uniFB7D" unicode="&#x686;" horiz-adv-x="1443" arabic-form="medial" 
d="M452 863q43 0 98.5 -16.5t122.5 -42t146 -57t169 -61.5t191 -55t214 -38l-82 -193q-34 -14 -74 -32t-86 -40q3 -27 30 -43t66.5 -24t87.5 -10t93 -2h35v-249h-35q-30 0 -69 2.5t-81.5 11t-85 26t-78.5 47t-63 73.5t-38 106q-102 -45 -219 -92.5t-244 -86t-261 -63
t-270 -24.5h-39v249h43q100 0 194.5 9t181 23.5t162.5 33.5t141 39q151 46 277 105q-60 18 -124.5 39t-127 41.5t-119.5 39t-102.5 33t-76 23t-39.5 8.5q-21 0 -41.5 -14.5t-40 -37t-37.5 -48.5t-33 -48l-92 51q31 66 64 123.5t69 100t76.5 67.5t88.5 26h8zM825 -591
l-152 -152l-152 152l152 152zM1000 -308l-152 -152l-152 152l152 152zM650 -308l-152 -152l-152 152l152 152z" />
    <glyph glyph-name="uni062C" unicode="&#x62c;" horiz-adv-x="1505" arabic-form="isolated" 
d="M475 918q43 0 97 -15.5t120 -40.5t144 -56t169.5 -62t196.5 -59t225 -46l-91 -229q-92 -16 -198 -40t-213.5 -56t-212 -72.5t-193.5 -90.5t-157.5 -110t-103.5 -131q45 -103 118 -173.5t162 -114t187.5 -63t194.5 -19.5q78 0 150.5 6t137 16.5t118.5 23t94 26.5v-2
l-82 -225q-22 -16 -67.5 -32.5t-104.5 -30t-127 -22t-135 -8.5q-92 0 -184 16t-176.5 48.5t-158 82.5t-127.5 117.5t-85 154t-31 192.5q0 47 14.5 102.5t51 114.5t98.5 118t158 113.5t229.5 101.5t311.5 82q-58 16 -123.5 34.5t-129.5 36.5t-123.5 34.5t-105.5 29.5
t-75.5 20.5t-33.5 7.5q-12 0 -29.5 -14t-37 -35.5t-39 -48.5t-35.5 -54l-94 61q35 61 66.5 116.5t65 98.5t71.5 69t86 27h7zM843 -263l-172 172l172 172l172 -172z" />
    <glyph glyph-name="uniFE9F" unicode="&#x62c;" horiz-adv-x="1443" arabic-form="initial" 
d="M453 863q43 0 98.5 -16.5t122.5 -42t145.5 -57t168.5 -61.5t191.5 -55t213.5 -38l-81 -193q-62 -26 -145.5 -65t-184 -83t-215 -88.5t-238 -80.5t-253.5 -59t-260 -24h-36v249h39q101 0 196 9t181 23.5t163 33.5t142 39q152 46 279 105q-60 18 -124.5 39t-127 41.5
t-119.5 39t-102.5 33t-76 23t-39.5 8.5q-21 0 -42 -14.5t-40.5 -37t-37 -48.5t-32.5 -48l-92 51q31 66 63.5 123.5t69 100t77 67.5t88.5 26h8zM685 -474l-172 172l172 172l172 -172z" />
    <glyph glyph-name="uniFEA0" unicode="&#x62c;" horiz-adv-x="1443" arabic-form="medial" 
d="M452 863q43 0 98.5 -16.5t122.5 -42t146 -57t169 -61.5t191 -55t214 -38l-82 -193q-34 -14 -74 -32t-86 -40q3 -27 30 -43t66.5 -24t87.5 -10t93 -2h35v-249h-35q-30 0 -69 2.5t-81.5 11t-85 26t-78.5 47t-63 73.5t-38 106q-102 -45 -219 -92.5t-244 -86t-261 -63
t-270 -24.5h-39v249h43q100 0 194.5 9t181 23.5t162.5 33.5t141 39q151 46 277 105q-60 18 -124.5 39t-127 41.5t-119.5 39t-102.5 33t-76 23t-39.5 8.5q-21 0 -41.5 -14.5t-40 -37t-37.5 -48.5t-33 -48l-92 51q31 66 64 123.5t69 100t76.5 67.5t88.5 26h8zM699 -474
l-172 172l172 172l172 -172z" />
    <glyph glyph-name="uniFE9E" unicode="&#x62c;" horiz-adv-x="1492" arabic-form="final" 
d="M475 918q43 0 97 -15.5t120 -40.5t144 -56t169.5 -62t196.5 -59t225 -46l-91 -229l-147 -30q10 -30 40 -54t67 -41.5t75 -26.5t65 -9h76v-249h-76q-75 0 -144.5 18t-123 58.5t-87.5 106.5t-38 162q-171 -44 -301 -92t-225.5 -102t-158.5 -114t-100 -127
q45 -103 118 -173.5t162 -114t187.5 -63t194.5 -19.5q78 0 150.5 6t137 16.5t118.5 23t94 26.5v-2l-82 -225q-22 -16 -67.5 -32.5t-104.5 -30t-127 -22t-135 -8.5q-92 0 -184 16t-176.5 48.5t-158 82.5t-127.5 117.5t-85 154t-31 192.5q0 47 14.5 102.5t51 114.5t98.5 118
t158 113.5t229.5 101.5t311.5 82q-58 16 -123.5 34.5t-129.5 36.5t-123.5 34.5t-105.5 29.5t-75.5 20.5t-33.5 7.5q-12 0 -29.5 -14t-37 -35.5t-39 -48.5t-35.5 -54l-94 61q35 61 66.5 116.5t65 98.5t71.5 69t86 27h7zM843 -263l-172 172l172 172l172 -172z" />
    <glyph glyph-name="uni062E" unicode="&#x62e;" horiz-adv-x="1421" arabic-form="isolated" 
d="M476 918q43 0 97 -15.5t120 -40.5t144 -56t169.5 -62t196.5 -59t225 -46l-91 -229q-92 -16 -198 -40t-213.5 -56t-212 -72.5t-193.5 -90.5t-157.5 -110t-103.5 -131q45 -103 118 -173.5t162 -114t187.5 -63t194.5 -19.5q78 0 150.5 6t137 16.5t118.5 23t94 26.5v-2
l-82 -225q-22 -16 -67.5 -32.5t-104.5 -30t-127 -22t-135 -8.5q-92 0 -184 16t-176.5 48.5t-158 82.5t-127.5 117.5t-85 154t-31 192.5q0 47 14.5 102.5t51 114.5t98.5 118t158 113.5t229.5 101.5t311.5 82q-58 16 -123.5 34.5t-129.5 36.5t-123.5 34.5t-105.5 29.5
t-75.5 20.5t-33.5 7.5q-12 0 -29.5 -14t-37 -35.5t-39 -48.5t-35.5 -54l-94 61q35 61 66.5 116.5t65 98.5t71.5 69t86 27h7zM590 1074l-172 172l172 172l172 -172z" />
    <glyph glyph-name="uniFEA7" unicode="&#x62e;" horiz-adv-x="1443" arabic-form="initial" 
d="M453 863q43 0 98.5 -16.5t122.5 -42t145.5 -57t168.5 -61.5t191.5 -55t213.5 -38l-81 -193q-62 -26 -145.5 -65t-184 -83t-215 -88.5t-238 -80.5t-253.5 -59t-260 -24h-36v249h39q101 0 196 9t181 23.5t163 33.5t142 39q152 46 279 105q-60 18 -124.5 39t-127 41.5
t-119.5 39t-102.5 33t-76 23t-39.5 8.5q-21 0 -42 -14.5t-40.5 -37t-37 -48.5t-32.5 -48l-92 51q31 66 63.5 123.5t69 100t77 67.5t88.5 26h8zM589 1020l-172 172l172 172l172 -172z" />
    <glyph glyph-name="uniFEA8" unicode="&#x62e;" horiz-adv-x="1443" arabic-form="medial" 
d="M452 863q43 0 98.5 -16.5t122.5 -42t146 -57t169 -61.5t191 -55t214 -38l-82 -193q-34 -14 -74 -32t-86 -40q3 -27 30 -43t66.5 -24t87.5 -10t93 -2h35v-249h-35q-30 0 -69 2.5t-81.5 11t-85 26t-78.5 47t-63 73.5t-38 106q-102 -45 -219 -92.5t-244 -86t-261 -63
t-270 -24.5h-39v249h43q100 0 194.5 9t181 23.5t162.5 33.5t141 39q151 46 277 105q-60 18 -124.5 39t-127 41.5t-119.5 39t-102.5 33t-76 23t-39.5 8.5q-21 0 -41.5 -14.5t-40 -37t-37.5 -48.5t-33 -48l-92 51q31 66 64 123.5t69 100t76.5 67.5t88.5 26h8zM589 1020
l-172 172l172 172l172 -172z" />
    <glyph glyph-name="uniFEA6" unicode="&#x62e;" horiz-adv-x="1492" arabic-form="final" 
d="M475 918q43 0 97 -15.5t120 -40.5t144 -56t169.5 -62t196.5 -59t225 -46l-91 -229l-147 -30q10 -30 40 -54t67 -41.5t75 -26.5t65 -9h76v-249h-76q-75 0 -144.5 18t-123 58.5t-87.5 106.5t-38 162q-171 -44 -301 -92t-225.5 -102t-158.5 -114t-100 -127
q45 -103 118 -173.5t162 -114t187.5 -63t194.5 -19.5q78 0 150.5 6t137 16.5t118.5 23t94 26.5v-2l-82 -225q-22 -16 -67.5 -32.5t-104.5 -30t-127 -22t-135 -8.5q-92 0 -184 16t-176.5 48.5t-158 82.5t-127.5 117.5t-85 154t-31 192.5q0 47 14.5 102.5t51 114.5t98.5 118
t158 113.5t229.5 101.5t311.5 82q-58 16 -123.5 34.5t-129.5 36.5t-123.5 34.5t-105.5 29.5t-75.5 20.5t-33.5 7.5q-12 0 -29.5 -14t-37 -35.5t-39 -48.5t-35.5 -54l-94 61q35 61 66.5 116.5t65 98.5t71.5 69t86 27h7zM589 1074l-172 172l172 172l172 -172z" />
    <glyph glyph-name="uni0630" unicode="&#x630;" horiz-adv-x="973" arabic-form="isolated" 
d="M438 1061q3 0 32.5 -24t73 -66t95.5 -98.5t100 -122t86 -136.5t55 -141q9 -40 9.5 -71.5t0.5 -40.5q0 -45 -4.5 -94t-15.5 -96t-25 -73q-5 -9 -26 -26.5t-61.5 -34t-103 -29t-152.5 -12.5q-71 0 -134.5 7t-112 17t-77.5 19t-31 14q-8 14 -15 42.5t-12 60.5t-7 58t-2 42
v12q0 11 1 25.5t6 14.5h1q13 -8 40.5 -19.5t72 -22t107 -18t145.5 -7.5q37 0 79.5 1.5t84.5 9.5t80.5 24.5t66.5 46.5q-17 49 -50.5 99.5t-76 99.5t-92 96.5t-98.5 90t-95 80t-81 66.5q14 24 28 48.5t27 43.5l22.5 36t24.5 37t21.5 29t12.5 12zM436 1236l-172 172l172 172
l172 -172z" />
    <glyph glyph-name="uniFEAC" unicode="&#x630;" horiz-adv-x="1078" arabic-form="final" 
d="M676 1067q3 -1 16 -48.5t36 -126.5t55.5 -183t76.5 -219q18 -48 39 -91.5t47 -77t57.5 -53t70.5 -19.5h24v-249h-29q-43 1 -81 15t-69.5 35.5t-56 48t-40.5 53.5q-10 -14 -30.5 -41t-58 -54t-94 -47t-138.5 -20q-71 0 -132 7.5t-106.5 18t-72 20.5t-28.5 15q-9 17 -16 49
t-12 68.5t-7.5 71t-2.5 55.5q0 39 10 39q2 0 4 -2q55 -41 138.5 -64t206.5 -23q31 0 64.5 1.5t67 10t65.5 25t60 46.5q-29 71 -52.5 126t-47.5 109.5t-51 118.5t-63 153q8 14 18 32t20.5 36.5t20 35.5t16.5 28q12 19 24 37t22.5 32t18 22.5t10.5 8.5zM681 1240l-172 172
l172 172l172 -172z" />
    <glyph glyph-name="uni0688" unicode="&#x688;" horiz-adv-x="973" arabic-form="isolated" 
d="M438 1061q3 0 32.5 -24t73 -66t95.5 -98.5t100 -122t86 -136.5t55 -141q9 -40 9.5 -71.5t0.5 -40.5q0 -45 -4.5 -94t-15.5 -96t-25 -73q-5 -9 -26 -26.5t-61.5 -34t-103 -29t-152.5 -12.5q-71 0 -134.5 7t-112 17t-77.5 19t-31 14q-8 14 -15 42.5t-12 60.5t-7 58t-2 42
v12q0 11 1 25.5t6 14.5h1q13 -8 40.5 -19.5t72 -22t107 -18t145.5 -7.5q37 0 79.5 1.5t84.5 9.5t80.5 24.5t66.5 46.5q-17 49 -50.5 99.5t-76 99.5t-92 96.5t-98.5 90t-95 80t-81 66.5q14 24 28 48.5t27 43.5l22.5 36t24.5 37t21.5 29t12.5 12zM90 1295q1 4 6 4q2 0 5 -1
q17 -3 37.5 -6.5t41.5 -6t40.5 -4.5t33.5 -2l27 29q11 25 16.5 59.5t5.5 63.5q-2 55 -6 112.5t-9 109t-9.5 93.5t-6.5 65q5 5 20.5 18.5t32.5 27t31 24t16 10.5t2.5 -3t1.5 -14q1 -12 1.5 -52.5t0.5 -91.5q0 -52 -0.5 -105.5t-1.5 -90.5q0 -9 -1 -26t-4 -38t-9 -44t-16 -42
q29 37 66.5 77t77.5 73t80.5 54t76.5 21q41 0 68.5 -14t44.5 -36t25 -49t9.5 -47t1.5 -32t-1.5 -28.5t-4.5 -29.5l-21 -51q-9 -21 -18 -39t-17 -35q-12 -14 -37 -29t-60.5 -27t-81 -20t-99.5 -9q-26 0 -62.5 0.5t-74.5 2t-73.5 4t-59.5 6.5q-15 8 -32 28t-31 40
q-17 24 -33 51zM737 1363q4 15 5 27t1 15q0 19 -9 37.5t-31 31.5t-61 13h-6q-57 -2 -108 -28t-93 -60t-73.5 -69t-48.5 -54q26 -1 49.5 -2t41.5 -1q23 0 52 1q44 0 87 5t80.5 15.5t67 27.5t46.5 41z" />
    <glyph glyph-name="uniFB89" unicode="&#x688;" horiz-adv-x="1078" arabic-form="final" 
d="M676 1067q3 -1 16 -48.5t36 -126.5t55.5 -183t76.5 -219q18 -48 39 -91.5t47 -77t57.5 -53t70.5 -19.5h24v-249h-29q-43 1 -81 15t-69.5 35.5t-56 48t-40.5 53.5q-10 -14 -30.5 -41t-58 -54t-94 -47t-138.5 -20q-71 0 -132 7.5t-106.5 18t-72 20.5t-28.5 15q-9 17 -16 49
t-12 68.5t-7.5 71t-2.5 55.5q0 39 10 39q2 0 4 -2q55 -41 138.5 -64t206.5 -23q31 0 64.5 1.5t67 10t65.5 25t60 46.5q-29 71 -52.5 126t-47.5 109.5t-51 118.5t-63 153q8 14 18 32t20.5 36.5t20 35.5t16.5 28q12 19 24 37t22.5 32t18 22.5t10.5 8.5zM291 1318q1 4 6 4
q2 0 5 -1q17 -3 37.5 -6.5t41.5 -6t40.5 -4.5t33.5 -2l27 29q11 25 16.5 59.5t5.5 63.5q-2 55 -6 112.5t-9 109t-9.5 93.5t-6.5 65q5 5 20.5 18.5t32.5 27t31 24t16 10.5t2.5 -3t1.5 -14q1 -12 1.5 -52.5t0.5 -91.5q0 -52 -0.5 -105.5t-1.5 -90.5q0 -9 -1 -26t-4 -38t-9 -44
t-16 -42q29 37 66.5 77t77.5 73t80.5 54t76.5 21q41 0 68.5 -14t44.5 -36t25 -49t9.5 -47t1.5 -32t-1.5 -28.5t-4.5 -29.5l-21 -51q-9 -21 -18 -39t-17 -35q-12 -14 -37 -29t-60.5 -27t-81 -20t-99.5 -9q-26 0 -62.5 0.5t-74.5 2t-73.5 4t-59.5 6.5q-15 8 -32 28t-31 40
q-17 24 -33 51zM938 1386q4 15 5 27t1 15q0 19 -9 37.5t-31 31.5t-61 13h-6q-57 -2 -108 -28t-93 -60t-73.5 -69t-48.5 -54q26 -1 49.5 -2t41.5 -1q23 0 52 1q44 0 87 5t80.5 15.5t67 27.5t46.5 41z" />
    <glyph glyph-name="uni0632" unicode="&#x632;" horiz-adv-x="744" arabic-form="isolated" 
d="M479 625q9 -7 24.5 -38.5t33.5 -79t36.5 -105t34.5 -117t26.5 -116t12.5 -100.5q1 -17 1 -33q0 -97 -28 -186.5t-77.5 -165.5t-111 -132.5t-117.5 -93.5t-99.5 -55.5t-58.5 -18.5q-10 6 -30 16.5t-53 28.5t-80.5 44t-112.5 63q-8 6 -8 10q0 2 3.5 5t6.5 4q72 20 146 48
t143.5 64t131.5 79.5t108.5 94.5t74.5 110t30 125q-21 45 -41.5 81t-43 72t-48 76.5t-55.5 94.5q15 29 38 68t46 74t41.5 59.5t24.5 24.5zM455 870l-172 172l172 172l172 -172z" />
    <glyph glyph-name="uniFEB0" unicode="&#x632;" horiz-adv-x="789" arabic-form="final" 
d="M500 625q1 0 4 -3q15 -32 34 -72t41 -81.5t47 -81t52.5 -70.5t58 -49.5t62.5 -18.5h10v-249h-10q-28 0 -72 11.5t-87 43.5q2 -26 2 -52q0 -77 -23.5 -156t-70 -153.5t-106 -131.5t-115.5 -96t-101.5 -59t-64.5 -20q-6 0 -8 1q-22 9 -59 28.5t-73 39.5q-11 6 -29.5 16.5
t-39 22.5t-39.5 23t-31 18q-8 7 -8 11q0 2 3 4.5t6 3.5q138 42 253 94t198.5 116t130.5 140.5t50 168.5q-21 46 -38 80.5t-34.5 70t-38 79.5t-48.5 110q5 9 16.5 28t26 42.5t30.5 48.5t30.5 45.5t25.5 33.5t15 13zM-779 -617q-1 0 -1 1zM455 870l-172 172l172 172l172 -172z
" />
    <glyph glyph-name="uni0691" unicode="&#x691;" horiz-adv-x="744" arabic-form="isolated" 
d="M479 625q9 -7 24.5 -38.5t33.5 -79t36.5 -105t34.5 -117t26.5 -116t12.5 -100.5q1 -17 1 -33q0 -97 -28 -186.5t-77.5 -165.5t-111 -132.5t-117.5 -93.5t-99.5 -55.5t-58.5 -18.5q-10 6 -30 16.5t-53 28.5t-80.5 44t-112.5 63q-8 6 -8 10q0 2 3.5 5t6.5 4q72 20 146 48
t143.5 64t131.5 79.5t108.5 94.5t74.5 110t30 125q-21 45 -41.5 81t-43 72t-48 76.5t-55.5 94.5q15 29 38 68t46 74t41.5 59.5t24.5 24.5zM27 929q1 4 6 4q2 0 5 -1q17 -3 37.5 -6.5t41.5 -6t40.5 -4.5t33.5 -2l27 29q11 25 16.5 59.5t5.5 63.5q-2 55 -6 112.5t-9 109
t-9.5 93.5t-6.5 65q5 5 20.5 18.5t32.5 27t31 24t16 10.5t2.5 -3t1.5 -14q1 -12 1.5 -52.5t0.5 -91.5q0 -52 -0.5 -105.5t-1.5 -90.5q0 -9 -1 -26t-4 -38t-9 -44t-16 -42q29 37 66.5 77t77.5 73t80.5 54t76.5 21q41 0 68.5 -14t44.5 -36t25 -49t9.5 -47t1.5 -32t-1.5 -28.5
t-4.5 -29.5l-21 -51q-9 -21 -18 -39t-17 -35q-12 -14 -37 -29t-60.5 -27t-81 -20t-99.5 -9q-26 0 -62.5 0.5t-74.5 2t-73.5 4t-59.5 6.5q-15 8 -32 28t-31 40q-17 24 -33 51zM674 997q4 15 5 27t1 15q0 19 -9 37.5t-31 31.5t-61 13h-6q-57 -2 -108 -28t-93 -60t-73.5 -69
t-48.5 -54q26 -1 49.5 -2t41.5 -1q23 0 52 1q44 0 87 5t80.5 15.5t67 27.5t46.5 41z" />
    <glyph glyph-name="uniFB8D" unicode="&#x691;" horiz-adv-x="789" arabic-form="final" 
d="M500 625q1 0 4 -3q15 -32 34 -72t41 -81.5t47 -81t52.5 -70.5t58 -49.5t62.5 -18.5h10v-249h-10q-28 0 -72 11.5t-87 43.5q2 -26 2 -52q0 -77 -23.5 -156t-70 -153.5t-106 -131.5t-115.5 -96t-101.5 -59t-64.5 -20q-6 0 -8 1q-22 9 -59 28.5t-73 39.5q-11 6 -29.5 16.5
t-39 22.5t-39.5 23t-31 18q-8 7 -8 11q0 2 3 4.5t6 3.5q138 42 253 94t198.5 116t130.5 140.5t50 168.5q-21 46 -38 80.5t-34.5 70t-38 79.5t-48.5 110q5 9 16.5 28t26 42.5t30.5 48.5t30.5 45.5t25.5 33.5t15 13zM-779 -617q-1 0 -1 1zM58 929q1 4 6 4q2 0 5 -1
q17 -3 37.5 -6.5t41.5 -6t40.5 -4.5t33.5 -2l27 29q11 25 16.5 59.5t5.5 63.5q-2 55 -6 112.5t-9 109t-9.5 93.5t-6.5 65q5 5 20.5 18.5t32.5 27t31 24t16 10.5t2.5 -3t1.5 -14q1 -12 1.5 -52.5t0.5 -91.5q0 -52 -0.5 -105.5t-1.5 -90.5q0 -9 -1 -26t-4 -38t-9 -44t-16 -42
q29 37 66.5 77t77.5 73t80.5 54t76.5 21q41 0 68.5 -14t44.5 -36t25 -49t9.5 -47t1.5 -32t-1.5 -28.5t-4.5 -29.5l-21 -51q-9 -21 -18 -39t-17 -35q-12 -14 -37 -29t-60.5 -27t-81 -20t-99.5 -9q-26 0 -62.5 0.5t-74.5 2t-73.5 4t-59.5 6.5q-15 8 -32 28t-31 40
q-17 24 -33 51zM705 997q4 15 5 27t1 15q0 19 -9 37.5t-31 31.5t-61 13h-6q-57 -2 -108 -28t-93 -60t-73.5 -69t-48.5 -54q26 -1 49.5 -2t41.5 -1q23 0 52 1q44 0 87 5t80.5 15.5t67 27.5t46.5 41z" />
    <glyph glyph-name="uni0698" unicode="&#x698;" horiz-adv-x="744" arabic-form="isolated" 
d="M479 625q9 -7 24.5 -38.5t33.5 -79t36.5 -105t34.5 -117t26.5 -116t12.5 -100.5q1 -17 1 -33q0 -97 -28 -186.5t-77.5 -165.5t-111 -132.5t-117.5 -93.5t-99.5 -55.5t-58.5 -18.5q-10 6 -30 16.5t-53 28.5t-80.5 44t-112.5 63q-8 6 -8 10q0 2 3.5 5t6.5 4q72 20 146 48
t143.5 64t131.5 79.5t108.5 94.5t74.5 110t30 125q-21 45 -41.5 81t-43 72t-48 76.5t-55.5 94.5q15 29 38 68t46 74t41.5 59.5t24.5 24.5zM427 1087l-152 152l152 152l152 -152zM602 804l-152 152l152 152l152 -152zM252 804l-152 152l152 152l152 -152z" />
    <glyph glyph-name="uniFB8B" unicode="&#x698;" horiz-adv-x="789" arabic-form="final" 
d="M500 625q1 0 4 -3q15 -32 34 -72t41 -81.5t47 -81t52.5 -70.5t58 -49.5t62.5 -18.5h10v-249h-10q-28 0 -72 11.5t-87 43.5q2 -26 2 -52q0 -77 -23.5 -156t-70 -153.5t-106 -131.5t-115.5 -96t-101.5 -59t-64.5 -20q-6 0 -8 1q-22 9 -59 28.5t-73 39.5q-11 6 -29.5 16.5
t-39 22.5t-39.5 23t-31 18q-8 7 -8 11q0 2 3 4.5t6 3.5q138 42 253 94t198.5 116t130.5 140.5t50 168.5q-21 46 -38 80.5t-34.5 70t-38 79.5t-48.5 110q5 9 16.5 28t26 42.5t30.5 48.5t30.5 45.5t25.5 33.5t15 13zM-779 -617q-1 0 -1 1zM472 1087l-152 152l152 152l152 -152
zM647 804l-152 152l152 152l152 -152zM297 804l-152 152l152 152l152 -152z" />
    <glyph glyph-name="uni0634" unicode="&#x634;" horiz-adv-x="2495" arabic-form="isolated" 
d="M2298 822q7 -2 18 -27.5t22.5 -66t23 -93t19.5 -108t10 -93.5t2 -57q0 -32 -3 -61q-17 -69 -46 -127t-70 -100t-93 -65.5t-114 -23.5q-37 0 -73 10.5t-68 34t-59 60t-45 89.5q-36 -96 -106.5 -144.5t-169.5 -48.5v-1q-69 0 -106 15t-59 37q0 -150 -43.5 -273.5
t-129 -211.5t-211.5 -136.5t-292 -48.5q-120 0 -219 29.5t-171.5 89.5t-114.5 151.5t-45 161t-3 85.5q0 112 33 258.5t115 337.5l90 -49q-21 -62 -42 -130t-36 -135.5t-20 -116t-5 -77.5q0 -34 6 -79.5t31 -96t73 -87.5t121 -57.5t178 -20.5q124 0 217.5 19.5t162 60
t112.5 102.5t69 148q-35 112 -73.5 209.5t-72.5 195.5q13 22 31 51.5t37 58.5t36.5 54.5t30.5 39.5q8 8 11 8t6 -8q50 -111 84.5 -177t66 -101.5t65 -46.5t80.5 -11q40 0 69 15.5t50 41t35 57.5t23.5 65.5t15.5 64.5t11 54l126 45q-1 -31 -2 -54.5t-3 -47.5t-5 -51.5
t-6 -65.5q9 -27 29.5 -50t47.5 -39.5t56.5 -25.5t55.5 -9q34 0 69 5t64 17.5t49.5 33t26.5 52.5q-17 44 -31.5 76.5t-28.5 59.5t-28 52.5t-28 55.5q35 62 64 110q12 21 24.5 40.5t23.5 35.5t19 25.5t11 9.5h1zM1809 1137l-152 152l152 152l152 -152zM1984 854l-152 152
l152 152l152 -152zM1634 854l-152 152l152 152l152 -152z" />
    <glyph glyph-name="uniFEB7" unicode="&#x634;" horiz-adv-x="1505" arabic-form="initial" 
d="M1320 822q4 0 10 -13.5t13 -36.5t14.5 -55t15.5 -69q11 -55 17.5 -109t8.5 -95t2 -69q0 -7 -0.5 -27t-2.5 -32q-21 -69 -49.5 -127t-67 -100t-87.5 -65.5t-110 -23.5h-10q-55 1 -93.5 13.5t-65.5 36.5t-44.5 59t-30.5 81q-42 -100 -112.5 -144.5t-169.5 -44.5h-6
q-47 0 -84 17t-63.5 45.5t-41.5 65.5t-18 77q-27 -66 -65.5 -106t-83.5 -62.5t-95 -30t-101 -7.5h-20v249h60q65 0 112.5 18t82.5 55t60.5 93.5t46.5 132.5l129 44q-10 -38 -18 -79.5t-17 -86.5q-4 -21 -4 -39q0 -21 7.5 -46.5t30 -47.5t54.5 -33t67 -11q50 0 95 22t71 69
q16 28 27 51.5t20.5 47t18 49.5t19.5 61l127 41q-10 -51 -23 -109t-32 -127q17 -53 62.5 -79t98.5 -26q34 0 69 5t63.5 17.5t49 33t26.5 52.5q-17 44 -30 76.5t-25.5 60.5t-25 53.5t-27.5 55.5q34 61 63 109q12 21 25 40.5t24 35t19.5 25t13.5 9.5zM886 1137l-152 152
l152 152l152 -152zM1061 854l-152 152l152 152l152 -152zM711 854l-152 152l152 152l152 -152z" />
    <glyph glyph-name="uniFEB8" unicode="&#x634;" horiz-adv-x="1598" arabic-form="medial" 
d="M483 588q-10 -38 -20 -79.5t-21 -83.5q-8 -31 -8 -56q0 -12 3.5 -33.5t22 -43.5t47 -32.5t63.5 -10.5q50 0 94 20t70 67q16 28 27.5 51.5t21 47t18.5 49.5t20 61l127 41q-10 -51 -23 -107t-32 -125q9 -31 27 -51.5t41 -32.5t49 -17t53 -5q63 0 102 21.5t61.5 61t33.5 94
t19 120.5l122 42q-3 -45 -7 -87q-4 -37 -9.5 -77t-13.5 -71q14 -37 40 -58t59 -31t71 -12t77 -2v-249q-69 1 -122 17t-91.5 43t-62 63.5t-32.5 78.5q-86 -196 -257 -201q-55 1 -93.5 15t-65.5 39.5t-44.5 62t-30.5 82.5q-21 -42 -49.5 -78t-64 -63t-77.5 -42.5t-91 -15.5h-6
q-47 0 -82 17t-59 45.5t-37 65.5t-16 77q-33 -77 -75 -119t-88.5 -61.5t-95.5 -22.5t-97 -3l-1 249h51q66 0 116.5 17t89.5 53t67.5 91.5t49.5 131.5zM885 1107l-152 152l152 152l152 -152zM1060 824l-152 152l152 152l152 -152zM710 824l-152 152l152 152l152 -152z" />
    <glyph glyph-name="uniFEB6" unicode="&#x634;" horiz-adv-x="2609" arabic-form="final" 
d="M1253 593q3 0 6 -8q46 -98 80.5 -162.5t66.5 -103t67 -54.5t82 -16q25 0 52.5 5t53 15.5t47 27t34.5 39.5q16 28 27.5 51.5t21 47t18.5 49.5t20 61l127 41q-10 -51 -23 -107t-32 -125q9 -31 26.5 -51.5t40.5 -32.5t49.5 -16.5t53.5 -4.5q63 0 102 21.5t61.5 60.5
t33.5 93.5t19 120.5l121 42q-3 -45 -7 -87q-4 -37 -9 -77t-13 -71q14 -37 40 -58t60 -31t72.5 -12t77.5 -2v-249q-70 0 -123.5 16t-92 43t-61.5 64t-32 79q-48 -99 -110 -150t-149 -51q-48 0 -83.5 14t-62.5 40t-47 63t-38 82q-21 -42 -46.5 -78t-59.5 -63t-77.5 -42.5
t-101.5 -15.5q-35 0 -65.5 7.5t-53 17t-35.5 17.5t-14 9q0 -150 -43.5 -273.5t-129 -211.5t-211.5 -136.5t-292 -48.5q-120 0 -219 29.5t-171.5 89.5t-114.5 151.5t-45 161t-3 85.5q0 112 33 258.5t115 337.5l90 -47q-21 -62 -42 -130t-36 -136t-19.5 -116t-4.5 -76
q0 -35 6 -81t30.5 -97t72.5 -87.5t121 -57.5t178 -21q124 0 217.5 19.5t162 60t112.5 102.5t69 148q-34 112 -72 209.5t-72 195.5q15 27 34.5 59t32.5 52q22 36 41.5 61t24.5 32q8 8 11 8zM1880 1107l-152 152l152 152l152 -152zM2055 824l-152 152l152 152l152 -152z
M1705 824l-152 152l152 152l152 -152z" />
    <glyph glyph-name="uni0636" unicode="&#x636;" horiz-adv-x="2590" arabic-form="isolated" 
d="M1843 220q67 0 140 7.5t146.5 26.5t143 51.5t129.5 82.5q1 10 1 19q0 78 -56.5 125.5t-170.5 47.5q-59 0 -122.5 -14.5t-125 -39t-119.5 -57t-107 -69t-86.5 -74.5t-58.5 -74q12 -4 38.5 -9.5t64 -10.5t84 -8.5t99.5 -3.5zM2181 814q57 0 102 -13.5t79.5 -36t60 -51
t43.5 -58.5q45 -75 60 -172q-10 -33 -23 -72.5t-28 -79t-31.5 -76.5t-33.5 -66q-54 -57 -124.5 -95.5t-150.5 -62.5t-164.5 -34.5t-166.5 -10.5q-78 0 -149.5 8t-129.5 22t-98.5 32.5t-56.5 38.5q1 -14 1.5 -28.5t0.5 -28.5q0 -150 -43 -270t-128 -204t-211 -129t-292 -45
q-120 0 -219 29.5t-171.5 89.5t-114.5 151.5t-45 161.5t-3 88q0 110 32.5 256t114.5 337l91 -49q-21 -62 -42 -130t-36.5 -135.5t-20 -115.5t-4.5 -76q0 -35 6 -81t31 -96.5t72.5 -87.5t121 -57.5t178.5 -20.5q123 0 217 19.5t162 60t112.5 102.5t68.5 148q-17 56 -36 113.5
t-39 114.5t-39.5 111.5t-36.5 104.5q13 22 30.5 52t36 59t36 54t30.5 38q7 8 11 8q3 0 6 -7q28 -62 52 -112.5t47.5 -91t47.5 -71t53 -51.5v1q47 55 96.5 114.5t103.5 116.5t113.5 108.5t125.5 90.5t139 62t155 23zM2066 983l-172 172l172 172l172 -172z" />
    <glyph glyph-name="uniFEBF" unicode="&#x636;" horiz-adv-x="1691" arabic-form="initial" 
d="M946 214q66 0 140 7t148.5 26t146 51.5t133.5 82.5q1 13 1 24q0 34 -12.5 66t-44 56t-77 36t-101.5 12q-61 0 -123 -15.5t-121.5 -41.5t-113.5 -60t-100 -71t-81.5 -75t-56.5 -71q12 -3 36 -8t58 -9t77 -7t91 -3zM1298 814q61 0 107.5 -16t80.5 -42t57.5 -59t38.5 -68
q36 -85 38 -201q-20 -66 -45 -136.5t-55 -128.5q-45 -51 -113 -86t-148 -56.5t-168 -31.5t-172 -10q-71 0 -135.5 6t-118 16.5t-93 25.5t-58.5 32q-46 42 -75 97.5t-38 109.5q-29 -69 -67.5 -119t-87.5 -82.5t-110 -48t-136 -16.5h-20v249h20q102 0 169 31t111 80.5
t71.5 110.5t51.5 121l122 41q-21 -51 -27.5 -95.5t-6.5 -74.5q0 -22 4.5 -57.5t26.5 -73.5t63 -53q22 34 61.5 87.5t92 112.5t116 119t135.5 108t149.5 78t158.5 30zM1235 983l-172 172l172 172l172 -172z" />
    <glyph glyph-name="uniFEC0" unicode="&#x636;" horiz-adv-x="1756" arabic-form="medial" 
d="M946 214q66 0 140 7t148.5 26t146 51.5t133.5 82.5q1 12 1 24q0 34 -13 66t-44 56t-76.5 36t-101.5 12q-61 0 -123.5 -15.5t-121.5 -41.5t-113.5 -60t-100 -71t-81 -75t-56.5 -71q11 -3 35.5 -8t58.5 -9t77 -7t91 -3zM1298 814q61 0 107.5 -16t80.5 -42t57.5 -59
t38.5 -68q36 -85 38 -201q-14 -44 -29 -89.5t-32 -89.5h217v-249h-328q-24 1 -56.5 2t-64.5 2t-58 3.5t-38 6.5q-75 -18 -155 -26.5t-158 -8.5q-70 0 -135 6t-118 16.5t-92.5 25.5t-58.5 32q-46 42 -75 97.5t-38 109.5q-29 -69 -67.5 -119t-87.5 -82.5t-110 -48t-136 -16.5
h-20v249h20q102 0 169 31t111 80.5t71.5 110.5t51.5 121l121 41q-20 -51 -26.5 -95.5t-6.5 -73.5q0 -23 4.5 -58.5t26.5 -73.5t63 -53q22 34 61.5 87.5t92 112.5t116 119t135.5 108t149.5 78t158.5 30zM1242 983l-172 172l172 172l172 -172z" />
    <glyph glyph-name="uniFEBE" unicode="&#x636;" horiz-adv-x="2663" arabic-form="final" 
d="M1843 220q67 0 140 7.5t146.5 26.5t143 51.5t128.5 82.5q1 10 1 19q0 78 -56 125.5t-171 47.5q-60 0 -123 -14.5t-124.5 -39t-119 -57t-106.5 -69t-86.5 -74.5t-58.5 -74q12 -4 38.5 -9.5t64 -10.5t84 -8.5t99.5 -3.5zM2181 814q57 0 102 -13.5t79.5 -36t60 -51
t43.5 -58.5q45 -75 60 -172q-14 -47 -33 -103t-42 -108q15 -5 38.5 -9t48.5 -7t48.5 -5t38.5 -2h58v-249h-47q-26 0 -60.5 1t-72 4t-76 8t-72.5 14t-60.5 21.5t-39.5 29.5q-50 -25 -105.5 -42.5t-113.5 -28.5t-116.5 -16t-115.5 -5q-78 0 -149.5 8t-129.5 22t-98.5 32.5
t-56.5 38.5q1 -14 1 -28.5v-28.5q0 -150 -43 -270t-128 -204t-211 -129t-292 -45q-120 0 -219 29.5t-171.5 89.5t-114.5 151.5t-45 161t-3 85.5q0 112 33 258.5t115 337.5l90 -49q-21 -62 -42 -130t-36 -135.5t-19.5 -115.5t-4.5 -76q0 -35 6 -81t30.5 -96.5t72.5 -87.5
t121 -57.5t178 -20.5q124 0 217.5 19.5t162 60t112.5 102.5t69 148q-17 56 -36 113.5t-39 114.5t-39.5 111.5t-37.5 104.5q13 22 30.5 52t36.5 59t36.5 54t30.5 38q7 8 10 8t7 -7q28 -62 52 -112.5t47.5 -91t47.5 -71t53 -51.5v1q34 38 78.5 91t99 110t117.5 113.5
t133.5 101t147 72t157.5 27.5zM2126 983l-172 172l172 172l172 -172z" />
    <glyph glyph-name="uni0638" unicode="&#x638;" horiz-adv-x="1604" arabic-form="isolated" 
d="M781 238q77 0 162.5 6t170.5 22.5t164 44t144 71.5v5q0 84 -68.5 131.5t-190.5 47.5q-31 0 -65 -3q-46 -4 -95 -22.5t-97.5 -45t-94.5 -59.5t-86 -66.5t-72.5 -66t-53.5 -58.5q38 -3 84.5 -5t97.5 -2zM665 1644q4 -2 6 -7.5t2 -28.5q0 -12 0.5 -45.5t1.5 -82t2 -108.5
t2 -125t1.5 -131.5t1 -113t0.5 -75.5q0 -28 -0.5 -68t-1.5 -79q0 -18 -0.5 -55t-4.5 -82.5t-13.5 -94.5t-28.5 -90q52 60 117 123.5t138 115.5t153.5 85t164.5 33q61 0 107.5 -15.5t80.5 -41.5t57.5 -59.5t38.5 -68.5q36 -85 38 -201q-20 -66 -45 -136.5t-55 -128.5
q-65 -55 -141 -88.5t-163.5 -52t-187.5 -25t-212 -6.5q-69 1 -133.5 4t-121 7.5t-102.5 8.5t-77 7q-21 12 -44.5 34t-46.5 49t-43.5 55.5t-36 53.5t-23 41.5t-7.5 24.5v3q3 9 14 9q2 0 10 -2q35 -6 83.5 -12t99.5 -11.5t97.5 -10t77.5 -5.5q10 14 20 29q12 35 17 99.5
t5 146.5t-5 177t-12.5 192t-16 190.5t-17 173t-15.5 139.5t-10 90q9 7 27.5 22t42 32.5t49 36t48 34t39 25t21.5 9.5h1zM1113 1033l-172 172l172 172l172 -172z" />
    <glyph glyph-name="uniFEC7" unicode="&#x638;" horiz-adv-x="1354" arabic-form="initial" 
d="M498 249q79 0 167 4t176 17.5t170 40.5t150 72v5q0 84 -68.5 131.5t-190.5 47.5q-31 0 -65 -3q-46 -5 -95 -22.5t-97.5 -44t-94.5 -58.5t-86 -65.5t-72.5 -65.5t-53.5 -58q35 0 75 -0.5t85 -0.5zM404 1645q4 -2 5.5 -7.5t1.5 -28.5q0 -16 1 -69.5t2 -128.5t2.5 -163.5
t2.5 -175t1 -163.5t-1 -128q0 -18 -0.5 -55t-4.5 -82.5t-13.5 -94.5t-28.5 -90q52 60 116 123.5t136.5 115.5t154 85t170.5 33q60 0 106 -16t79.5 -42t56.5 -59t38 -68q36 -85 38 -201q-20 -66 -45 -136.5t-55 -128.5q-46 -50 -119.5 -81.5t-166 -50.5t-199.5 -26t-219 -7
h-483v249h229q5 6 10 13.5t11 15.5q12 36 17 97t5 135q0 7 -0.5 52t-5.5 139.5t-12 191.5t-16 190.5t-17.5 173t-15.5 139.5t-10 90q9 8 28 22.5t42.5 32t49 36t47.5 34t38.5 25t22.5 9.5h1zM852 1033l-172 172l172 172l172 -172z" />
    <glyph glyph-name="uniFEC8" unicode="&#x638;" horiz-adv-x="1395" arabic-form="medial" 
d="M500 249q79 0 167 4t176 17.5t170 40.5t150 72v5q0 84 -68.5 131.5t-190.5 47.5q-31 0 -65 -3q-46 -5 -95 -22.5t-97.5 -44t-94.5 -58.5t-86 -65.5t-72.5 -65.5t-53.5 -58q35 0 75 -0.5t85 -0.5zM406 1645q4 -2 5.5 -7.5t1.5 -28.5q0 -16 1 -69.5t2 -128.5t2.5 -163.5
t2.5 -175t1 -163.5t-1 -128q0 -18 -0.5 -55t-4.5 -82.5t-13.5 -94.5t-28.5 -90q52 60 117.5 123.5t139 115.5t154 85t163.5 33q61 0 107 -16t80 -42t57.5 -59t38.5 -68q36 -85 38 -201q-14 -44 -29 -90t-32 -91h207v-249l-232 1q-15 0 -41 1t-57 3t-64 4.5t-62 6t-51 7
t-31 8.5q-91 -17 -196 -24t-216 -7h-485v249h231q5 6 10 13.5t11 15.5q12 35 17 96.5t5 134.5q0 8 -0.5 52.5t-5.5 139.5t-12 192t-16 190.5t-17.5 173t-15.5 139.5t-10 90q9 8 28 22.5t42.5 32t49 36t47.5 34t38.5 25t22.5 9.5h1zM895 1033l-172 172l172 172l172 -172z" />
    <glyph glyph-name="uniFEC6" unicode="&#x638;" horiz-adv-x="1670" arabic-form="final" 
d="M786 238q77 0 162.5 6t170.5 22.5t164 44t144 71.5v5q0 84 -68.5 131.5t-190.5 47.5q-32 0 -65 -3q-46 -4 -95 -22.5t-97.5 -45t-94.5 -59.5t-86 -66.5t-72.5 -66t-53.5 -58.5q38 -3 84 -5t98 -2zM670 1644q3 -2 5 -7.5t2 -28.5q0 -16 1 -69.5t2 -128.5t2.5 -163.5
t2.5 -175t1 -163.5t-1 -128q0 -18 -0.5 -55t-4.5 -82.5t-13.5 -94.5t-28.5 -90q52 60 115 123.5t136 115.5t155 85t172 33q60 0 105.5 -16t79 -42t56.5 -59.5t38 -67.5q36 -85 38 -201q-14 -44 -29 -89.5t-33 -90.5h219v-249l-243 1h-42t-60.5 1t-70.5 2t-70.5 3t-61 4.5
t-41.5 6.5q-83 -15 -175.5 -20.5t-196.5 -5.5q-69 1 -134 4t-121 7.5t-102.5 8.5t-77.5 7q-21 12 -44.5 34t-46.5 49t-43.5 55.5t-35.5 53.5t-23 42.5t-8 24.5v2q3 9 15 9q3 0 9 -2q35 -6 84 -12t99.5 -11.5t97.5 -10t77 -5.5q5 6 10 13.5t11 15.5q12 35 17 96.5t5 134.5
q0 8 -0.5 52.5t-5.5 139.5t-12 192t-16 190.5t-17.5 173t-15.5 139.5t-10 90q9 7 28 22t42.5 32.5t49 36t47.5 34t38.5 25t21.5 9.5h2zM1123 1033l-172 172l172 172l172 -172z" />
    <glyph glyph-name="uni063A" unicode="&#x63a;" horiz-adv-x="1264" arabic-form="isolated" 
d="M715 1046q47 0 92 -10.5t86.5 -35.5t79.5 -65.5t72 -101.5l-72 -46l-27.5 11t-44.5 13.5t-65.5 11t-89.5 4.5q-55 0 -106.5 -20.5t-91.5 -48t-64 -54.5t-24 -40q0 -15 21.5 -42.5t65 -56.5t109 -54t154.5 -35q87 27 176 48t158 38l-77 -245q-77 -17 -167 -41.5
t-180.5 -57t-176 -74.5t-153 -94t-111.5 -115t-52 -138q35 -74 112 -132q33 -25 78.5 -48.5t105.5 -42t136.5 -30t171.5 -11.5q88 0 165.5 10t139 25t106 31.5t67.5 29.5l-100 -246q-114 -52 -218 -73.5t-207 -21.5h-2q-137 0 -254.5 39t-203 106.5t-133.5 158.5t-48 196v4
q0 93 30 179t78.5 159t111 131t127.5 96q-90 54 -128.5 122t-38.5 137q0 37 16.5 83t45.5 94t67.5 93.5t82 81t89.5 57t91 21.5zM692 1230l-172 172l172 172l172 -172z" />
    <glyph glyph-name="uniFECF" unicode="&#x63a;" horiz-adv-x="1078" arabic-form="initial" 
d="M554 871q48 0 91.5 -10.5t84 -35t77.5 -65t71 -100.5l-73 -49q-12 5 -29 11.5t-43 12.5t-63.5 10.5t-90.5 4.5q-54 0 -105.5 -20t-91.5 -47t-64.5 -53.5t-24.5 -39.5q0 -15 21 -42.5t64 -57t109 -54.5t155 -34q52 4 96.5 12.5t86 19.5t80.5 26t79 33q-2 -9 -9.5 -39
t-17 -65.5t-19 -69.5t-15.5 -52q-90 -48 -198.5 -80t-229 -51.5t-251 -27.5t-264.5 -8v249q72 1 118.5 1.5t74 1t40.5 1t19 0.5q-14 13 -28 32.5t-24.5 44t-17 52.5t-6.5 58q0 37 16.5 83.5t45 94.5t67 93.5t82.5 81t92 57t95 21.5zM548 1040l-172 172l172 172l172 -172z
" />
    <glyph glyph-name="uniFED0" unicode="&#x63a;" horiz-adv-x="1165" arabic-form="medial" 
d="M638 354q64 36 122 98.5t96 150.5q-11 8 -36 16t-60.5 14.5t-79 10.5t-90.5 4q-68 0 -137.5 -10.5t-129.5 -36.5q58 -45 114 -89q48 -38 102.5 -80.5t98.5 -77.5zM620 860q50 -2 102 -9t99 -17.5t85.5 -23t62.5 -25.5l46 -212q-23 -42 -45.5 -79.5t-47.5 -73.5t-55 -71
t-69 -73q25 -10 71.5 -15.5t99 -8t102 -3t80.5 -0.5h34v-249q-54 0 -116 2t-130.5 15.5t-143.5 42.5t-157 82q-59 -36 -127 -62.5t-140.5 -44.5t-147.5 -26.5t-149 -8.5h-94v249h90q57 2 111.5 4t102.5 5.5t87 9.5t66 15l-307 256q6 19 14 49t16 60.5t14.5 57t9.5 37.5
q8 8 42 27t87.5 39t123 35.5t149.5 15.5h34zM611 1040l-172 172l172 172l172 -172z" />
    <glyph glyph-name="uniFECE" unicode="&#x63a;" horiz-adv-x="1321" arabic-form="final" 
d="M756 425q49 18 101.5 44.5t95.5 56t71 58.5t28 51q-14 6 -38 15t-58 17t-76.5 14t-91.5 6q-60 0 -129 -11.5t-145 -40.5zM794 891q51 -2 106.5 -12.5t107 -28.5t94 -43.5t66.5 -59.5q0 -83 -3.5 -144t-23.5 -111.5t-64.5 -96t-125.5 -98.5q21 -13 61 -24q34 -9 90 -16.5
t142 -7.5h97v-249h-72q-58 0 -111 8.5t-99.5 22.5t-87 32t-73.5 37q-78 44 -139 100q-111 -35 -208 -83.5t-169 -100t-115 -100t-47 -83.5q27 -64 71 -119t117.5 -95.5t182 -63.5t266.5 -23q88 0 155 7t118 17.5t90 24t71 25.5l-87 -226q-42 -22 -90.5 -38.5t-100.5 -28
t-105.5 -17.5t-105.5 -6q-140 0 -260 38t-208.5 106t-139.5 161.5t-52 204.5q1 48 13 100.5t35 105.5t56 102.5t76 91.5q2 3 22 21t53 42.5t76 50t90 42.5l-253 225q12 48 23 97.5t20 89.5q9 9 45 29t93 41t130.5 37t156.5 16h16zM779 1070l-172 172l172 172l172 -172z" />
    <glyph glyph-name="uniFB90" unicode="&#x6a9;" horiz-adv-x="1080" arabic-form="initial" 
d="M1046 1423l-722 -325q50 -54 102.5 -112.5t100 -123.5t87 -137.5t62.5 -154t25.5 -133.5t2.5 -66q0 -78 -20 -165q-106 -105 -268 -155t-386 -51h-50v249h55q103 0 195.5 4.5t168.5 20t131.5 47t84.5 85.5q-44 103 -112.5 190.5t-146 162t-157 137t-146.5 116.5l57 227
q60 26 146.5 64t183.5 80t197.5 85.5t189.5 81t158.5 66t105.5 40.5z" />
    <glyph glyph-name="uniFB91" unicode="&#x6a9;" horiz-adv-x="1171" arabic-form="medial" 
d="M1085 1653q0 -12 -4 -43t-9.5 -66.5t-11.5 -69t-10 -51.5l-726 -322q46 -49 87 -94t80 -91.5t77 -98t78 -114.5q79 -125 153.5 -211.5t140 -140.5t121 -78t97.5 -24h33v-249h-33q-55 0 -105.5 17t-96 45.5t-86.5 64.5t-76 73.5t-65 73.5t-53 65q-2 -17 -5.5 -37
t-7.5 -41.5t-8.5 -42.5t-8.5 -39q-53 -53 -115.5 -87.5t-138 -54.5t-164 -28.5t-192.5 -8.5h-56v249h56q90 0 178.5 3.5t165 17t135 41.5t88.5 77q-31 80 -67 143.5t-76.5 116.5t-86 98t-96 88t-106 86t-116.5 92l58 233q45 19 105 45t128.5 55.5t142.5 61.5t147.5 63.5
t143 60.5t128.5 53.5t105 42t72 26.5z" />
    <glyph glyph-name="uni0641" unicode="&#x641;" horiz-adv-x="1982" arabic-form="isolated" 
d="M1642 580q32 0 56.5 1.5t41.5 3.5q19 3 33 6q-4 12 -12 34t-21 48.5t-31.5 54t-44 50t-58 36.5t-73.5 14q-65 0 -105.5 -23.5t-63 -54.5t-30.5 -60t-8 -40q9 -15 37 -28q24 -11 70 -22t127 -17q46 -3 82 -3zM1557 1040q54 0 98.5 -23.5t80 -63.5t62.5 -91.5t46.5 -107.5
t31.5 -113t18 -106q5 -43 5 -82q0 -67 -21 -138.5t-79.5 -134t-145.5 -103t-193.5 -64t-229 -32.5t-252.5 -9q-12 -1 -24 -1h-25q-70 0 -150 4t-161 17.5t-157.5 38t-139.5 65t-107.5 100t-58.5 123.5t-14 118q0 43 10.5 121t66.5 216l91 -46q-33 -92 -34 -129.5t-1 -42.5
q0 -65 22.5 -116t65 -87.5t97.5 -61t117 -38t124 -20t119 -8t102 -1.5h33q63 0 147.5 3t176 10t181 18t161.5 28t118.5 40t52.5 53q-18 -5 -42 -9q-20 -3 -48.5 -5.5t-64.5 -2.5q-20 0 -42.5 1.5t-46.5 3.5q-159 17 -228.5 86t-69.5 161q0 20 3 42q1 13 7 46.5t19 76t35 89
t55.5 85t80 64t108.5 26.5zM1543 1180l-172 172l172 172l172 -172z" />
    <glyph glyph-name="uniFED3" unicode="&#x641;" horiz-adv-x="892" arabic-form="initial" 
d="M532 581q32 0 56.5 1.5t41.5 3.5q19 3 33 6q-4 12 -12 34t-21 48.5t-31.5 54t-44 50t-58.5 36.5t-74 14q-65 0 -105.5 -23.5t-63 -54.5t-30.5 -60t-8 -40q9 -15 37 -28q24 -11 70.5 -22t127.5 -17q46 -3 82 -3zM446 1041q54 0 99 -23.5t80.5 -63.5t62.5 -91.5
t46.5 -107.5t31.5 -113t18 -106q9 -67 9 -125q0 -41 -8 -102t-44 -120.5t-97 -96.5t-145 -57.5t-191.5 -27.5t-237.5 -7h-89v249h91q63 0 133.5 0.5t139 4.5t131 11.5t109.5 22t71.5 35t24.5 47.5v7q-18 -5 -42 -9q-20 -3 -48.5 -5.5t-64.5 -2.5q-20 0 -42.5 1.5t-46.5 3.5
q-79 8 -138.5 32t-97 61t-50.5 78t-13 78q0 20 3 40q1 13 7 46.5t19 76t35 89t55.5 85t80 64t108.5 26.5zM428 1180l-172 172l172 172l172 -172z" />
    <glyph glyph-name="uniFED4" unicode="&#x641;" horiz-adv-x="935" arabic-form="medial" 
d="M477 304q16 6 44.5 17.5t57.5 29.5t52.5 44t30.5 61q-12 30 -33 61.5t-49 56.5t-63.5 41t-75.5 16q-39 0 -72 -13.5t-58 -38t-41 -60t-22 -78.5q11 -23 35.5 -44.5t56.5 -40.5t68 -32.5t69 -19.5zM482 874q48 0 86 -20.5t67.5 -54.5t51 -78t36 -91t22.5 -94t10 -87
q-5 -35 -9.5 -59.5t-11.5 -45.5t-17.5 -41t-26.5 -47q3 -1 13 -1.5t23.5 -1.5t29.5 -1.5t32 -0.5q38 -1 84 -2h83v-249h-92q-111 0 -186 9.5t-122 20.5q-55 13 -88 31q-42 -18 -97 -31q-48 -11 -115.5 -20.5t-154.5 -9.5h-120v249h116q24 0 49.5 0.5t45.5 2.5q24 2 46 4
q-15 19 -28 45q-11 22 -22.5 53t-16.5 70q0 39 9 88t26.5 99t43.5 97.5t61 84t78 59t94 22.5zM479 1035l-172 172l172 172l172 -172z" />
    <glyph glyph-name="uniFED2" unicode="&#x641;" horiz-adv-x="2048" arabic-form="final" 
d="M1636 303q16 6 44.5 17.5t57.5 30t52.5 44.5t30.5 61q-12 30 -33 61.5t-49.5 56.5t-63.5 41t-75 16q-39 0 -72 -13.5t-58 -38t-41 -60t-22 -78.5q11 -23 35.5 -45t56.5 -40.5t68 -32.5t69 -20zM1641 874q47 0 85.5 -20.5t68 -54.5t51 -78t36 -91t22.5 -94t10 -87
q-5 -36 -9.5 -60.5t-11.5 -45t-17.5 -40.5t-26.5 -47q3 -1 14.5 -1.5t28 -1.5t35.5 -1.5t39 -0.5q46 -1 102 -2v-249q-111 0 -193 9.5t-138 20.5q-65 13 -111 31q-41 -24 -125 -43q-72 -17 -199 -31.5t-326 -16.5q-12 -1 -24 -1h-25q-70 0 -150 4t-161 17.5t-157.5 38
t-139.5 65t-107.5 100t-58.5 123.5t-14 118q0 43 10.5 121t66.5 216l91 -46q-33 -92 -34 -129.5t-1 -42.5q0 -65 22.5 -116t65 -87.5t97 -61t117 -38t124 -20t119 -8t101.5 -1.5h34q91 0 171 3t141 8q70 4 131 11q-16 23 -29 51q-11 24 -22 56.5t-15 72.5q0 39 9 88t26.5 99
t43.5 97.5t61 84t78 59t94 22.5zM1620 1035l-172 172l172 172l172 -172z" />
    <glyph glyph-name="uniFB6A" unicode="&#x6a4;" horiz-adv-x="1982" arabic-form="isolated" 
d="M1642 580q32 0 56.5 1.5t41.5 3.5q19 3 33 6q-4 12 -12 34t-21 48.5t-31.5 54t-44 50t-58 36.5t-73.5 14q-65 0 -105.5 -23.5t-63 -54.5t-30.5 -60t-8 -40q9 -15 37 -28q24 -11 70 -22t127 -17q46 -3 82 -3zM1557 1040q54 0 98.5 -23.5t80 -63.5t62.5 -91.5t46.5 -107.5
t31.5 -113t18 -106q5 -43 5 -82q0 -67 -21 -138.5t-79.5 -134t-145.5 -103t-193.5 -64t-229 -32.5t-252.5 -9q-12 -1 -24 -1h-25q-70 0 -150 4t-161 17.5t-157.5 38t-139.5 65t-107.5 100t-58.5 123.5t-14 118q0 43 10.5 121t66.5 216l91 -46q-33 -92 -34 -129.5t-1 -42.5
q0 -65 22.5 -116t65 -87.5t97.5 -61t117 -38t124 -20t119 -8t102 -1.5h33q63 0 147.5 3t176 10t181 18t161.5 28t118.5 40t52.5 53q-18 -5 -42 -9q-20 -3 -48.5 -5.5t-64.5 -2.5q-20 0 -42.5 1.5t-46.5 3.5q-159 17 -228.5 86t-69.5 161q0 20 3 42q1 13 7 46.5t19 76t35 89
t55.5 85t80 64t108.5 26.5zM1543 1449l-152 152l152 152l152 -152zM1718 1166l-152 152l152 152l152 -152zM1368 1166l-152 152l152 152l152 -152z" />
    <glyph glyph-name="uniFB6C" unicode="&#x6a4;" horiz-adv-x="892" arabic-form="initial" 
d="M532 581q32 0 56.5 1.5t41.5 3.5q19 3 33 6q-4 12 -12 34t-21 48.5t-31.5 54t-44 50t-58.5 36.5t-74 14q-65 0 -105.5 -23.5t-63 -54.5t-30.5 -60t-8 -40q9 -15 37 -28q24 -11 70.5 -22t127.5 -17q46 -3 82 -3zM446 1041q54 0 99 -23.5t80.5 -63.5t62.5 -91.5
t46.5 -107.5t31.5 -113t18 -106q9 -67 9 -125q0 -41 -8 -102t-44 -120.5t-97 -96.5t-145 -57.5t-191.5 -27.5t-237.5 -7h-89v249h91q63 0 133.5 0.5t139 4.5t131 11.5t109.5 22t71.5 35t24.5 47.5v7q-18 -5 -42 -9q-20 -3 -48.5 -5.5t-64.5 -2.5q-20 0 -42.5 1.5t-46.5 3.5
q-79 8 -138.5 32t-97 61t-50.5 78t-13 78q0 20 3 40q1 13 7 46.5t19 76t35 89t55.5 85t80 64t108.5 26.5zM435 1449l-152 152l152 152l152 -152zM610 1166l-152 152l152 152l152 -152zM260 1166l-152 152l152 152l152 -152z" />
    <glyph glyph-name="uniFB6D" unicode="&#x6a4;" horiz-adv-x="935" arabic-form="medial" 
d="M477 304q16 6 44.5 17.5t57.5 29.5t52.5 44t30.5 61q-12 30 -33 61.5t-49 56.5t-63.5 41t-75.5 16q-39 0 -72 -13.5t-58 -38t-41 -60t-22 -78.5q11 -23 35.5 -44.5t56.5 -40.5t68 -32.5t69 -19.5zM482 874q48 0 86 -20.5t67.5 -54.5t51 -78t36 -91t22.5 -94t10 -87
q-5 -35 -9.5 -59.5t-11.5 -45.5t-17.5 -41t-26.5 -47q3 -1 13 -1.5t23.5 -1.5t29.5 -1.5t32 -0.5q38 -1 84 -2h83v-249h-92q-111 0 -186 9.5t-122 20.5q-55 13 -88 31q-42 -18 -97 -31q-48 -11 -115.5 -20.5t-154.5 -9.5h-120v249h116q24 0 49.5 0.5t45.5 2.5q24 2 46 4
q-15 19 -28 45q-11 22 -22.5 53t-16.5 70q0 39 9 88t26.5 99t43.5 97.5t61 84t78 59t94 22.5zM479 1307l-152 152l152 152l152 -152zM654 1024l-152 152l152 152l152 -152zM304 1024l-152 152l152 152l152 -152z" />
    <glyph glyph-name="uniFB6B" unicode="&#x6a4;" horiz-adv-x="2048" arabic-form="final" 
d="M1636 303q16 6 44.5 17.5t57.5 30t52.5 44.5t30.5 61q-12 30 -33 61.5t-49.5 56.5t-63.5 41t-75 16q-39 0 -72 -13.5t-58 -38t-41 -60t-22 -78.5q11 -23 35.5 -45t56.5 -40.5t68 -32.5t69 -20zM1641 874q47 0 85.5 -20.5t68 -54.5t51 -78t36 -91t22.5 -94t10 -87
q-5 -36 -9.5 -60.5t-11.5 -45t-17.5 -40.5t-26.5 -47q3 -1 14.5 -1.5t28 -1.5t35.5 -1.5t39 -0.5q46 -1 102 -2v-249q-111 0 -193 9.5t-138 20.5q-65 13 -111 31q-41 -24 -125 -43q-72 -17 -199 -31.5t-326 -16.5q-12 -1 -24 -1h-25q-70 0 -150 4t-161 17.5t-157.5 38
t-139.5 65t-107.5 100t-58.5 123.5t-14 118q0 43 10.5 121t66.5 216l91 -46q-33 -92 -34 -129.5t-1 -42.5q0 -65 22.5 -116t65 -87.5t97 -61t117 -38t124 -20t119 -8t101.5 -1.5h34q91 0 171 3t141 8q70 4 131 11q-16 23 -29 51q-11 24 -22 56.5t-15 72.5q0 39 9 88t26.5 99
t43.5 97.5t61 84t78 59t94 22.5zM1611 1307l-152 152l152 152l152 -152zM1786 1024l-152 152l152 152l152 -152zM1436 1024l-152 152l152 152l152 -152z" />
    <glyph glyph-name="uniFED7" unicode="&#x642;" horiz-adv-x="892" arabic-form="initial" 
d="M532 581q32 0 56.5 1.5t41.5 3.5q19 3 33 6q-4 12 -12 34t-21 48.5t-31.5 54t-44 50t-58.5 36.5t-74 14q-65 0 -105.5 -23.5t-63 -54.5t-30.5 -60t-8 -40q9 -15 37 -28q24 -11 70.5 -22t127.5 -17q46 -3 82 -3zM446 1041q54 0 99 -23.5t80.5 -63.5t62.5 -91.5
t46.5 -107.5t31.5 -113t18 -106q9 -67 9 -125q0 -41 -8 -102t-44 -120.5t-97 -96.5t-145 -57.5t-191.5 -27.5t-237.5 -7h-89v249h91q63 0 133.5 0.5t139 4.5t131 11.5t109.5 22t71.5 35t24.5 47.5v7q-18 -5 -42 -9q-20 -3 -48.5 -5.5t-64.5 -2.5q-20 0 -42.5 1.5t-46.5 3.5
q-79 8 -138.5 32t-97 61t-50.5 78t-13 78q0 20 3 40q1 13 7 46.5t19 76t35 89t55.5 85t80 64t108.5 26.5zM626 1225l-160 160l160 160l160 -160zM266 1225l-160 160l160 160l160 -160z" />
    <glyph glyph-name="uniFED8" unicode="&#x642;" horiz-adv-x="935" arabic-form="medial" 
d="M477 304q16 6 44.5 17.5t57.5 29.5t52.5 44t30.5 61q-12 30 -33 61.5t-49 56.5t-63.5 41t-75.5 16q-39 0 -72 -13.5t-58 -38t-41 -60t-22 -78.5q11 -23 35.5 -44.5t56.5 -40.5t68 -32.5t69 -19.5zM482 874q48 0 86 -20.5t67.5 -54.5t51 -78t36 -91t22.5 -94t10 -87
q-5 -35 -9.5 -59.5t-11.5 -45.5t-17.5 -41t-26.5 -47q3 -1 13 -1.5t23.5 -1.5t29.5 -1.5t32 -0.5q38 -1 84 -2h83v-249h-92q-111 0 -186 9.5t-122 20.5q-55 13 -88 31q-42 -18 -97 -31q-48 -11 -115.5 -20.5t-154.5 -9.5h-120v249h116q24 0 49.5 0.5t45.5 2.5q24 2 46 4
q-15 19 -28 45q-11 22 -22.5 53t-16.5 70q0 39 9 88t26.5 99t43.5 97.5t61 84t78 59t94 22.5zM666 1040l-160 160l160 160l160 -160zM306 1040l-160 160l160 160l160 -160z" />
    <glyph glyph-name="uni0642" unicode="&#x642;" horiz-adv-x="1457" arabic-form="isolated" 
d="M1084 236q34 0 68 3t68 10q-3 13 -10 37.5t-19.5 54t-31 61t-43.5 58.5t-58 45t-74 22q-5 0 -9.5 0.5t-9.5 0.5q-57 0 -94 -25.5t-58 -57.5t-29 -62t-8 -39q9 -24 37.5 -43.5t70 -34t93 -22.5t107.5 -8zM1019 756q87 -6 148.5 -58t103 -137t64 -198t30.5 -240
q3 -42 3 -81q0 -134 -36.5 -257t-124 -215.5t-217.5 -139t-295 -46.5q-120 0 -219.5 29.5t-172 89.5t-115 151t-45.5 160.5t-3 85.5q0 112 33 258.5t115 337.5l90 -49q-28 -83 -55 -174.5t-37 -162t-10 -119.5q0 -35 6.5 -92t50 -118t128 -97t224.5 -36h8q260 0 398.5 89.5
t159.5 266.5q-24 -5 -52 -9q-24 -3 -55.5 -5.5t-65.5 -2.5h-18.5t-19.5 1q-83 5 -147.5 27.5t-108.5 64.5t-65.5 104t-21.5 144v8q0 39 9 85t27 92.5t44.5 90t62 77.5t79.5 54.5t98 20.5h2zM1189 920l-160 160l160 160l160 -160zM829 920l-160 160l160 160l160 -160z" />
    <glyph glyph-name="uniFED6" unicode="&#x642;" horiz-adv-x="1457" arabic-form="final" 
d="M1192 248q13 0 26 1q-2 13 -9 37.5t-19.5 54t-31 61t-44 58t-58.5 45t-74 21.5q-5 0 -9 0.5t-9 0.5q-39 0 -67.5 -12t-49.5 -30.5t-35 -40.5t-22 -42.5t-11.5 -36.5t-3.5 -22q9 -23 37 -40.5t69 -29.5t92 -18t106 -6q11 -1 26 -1h30h57zM1017 755q76 -5 132.5 -45.5
t97 -107.5t66 -157t39.5 -195h125v-250h-111q-6 -153 -55 -269t-136 -193t-209 -116t-273 -39q-120 0 -219.5 29.5t-171.5 89.5t-114.5 151t-45.5 160.5t-3 85.5q0 112 33 258.5t115 337.5l90 -49q-21 -62 -42 -129.5t-36 -135.5t-19.5 -116t-4.5 -76q0 -35 6 -81t31 -96
t73 -87t121 -57.5t178 -20.5h8q516 0 558 353h-172q-192 0 -287.5 79.5t-95.5 249.5v7q1 38 10 84t26.5 92.5t44 90.5t62 77.5t79.5 54t98 20.5h2zM1193 920l-160 160l160 160l160 -160zM833 920l-160 160l160 160l160 -160z" />
    <glyph glyph-name="uniFEE7" unicode="&#x646;" horiz-adv-x="624" arabic-form="initial" 
d="M430 879q5 0 21 -30t35 -83.5t36 -126.5t22 -137t5 -107q0 -47 -5.5 -119.5t-36.5 -170.5q-30 -27 -81.5 -47t-115 -32.5t-133.5 -19t-136 -6.5h-61v249h57q76 0 147.5 5t127 12.5t90.5 16.5t39 16q-6 31 -26 78t-45.5 96.5t-51 94.5t-41.5 72zM334 1050l-172 172
l172 172l172 -172z" />
    <glyph glyph-name="uniFEE8" unicode="&#x646;" horiz-adv-x="781" arabic-form="medial" 
d="M453 698l4 -17q3 -18 8 -47t10.5 -67.5t10 -80.5t6.5 -79.5t2 -65.5v-23q16 -19 48 -32t72 -21.5t84 -12t83 -3.5h20v-249h-20q-49 0 -102 13t-101.5 35t-88.5 52t-62 63q-27 -33 -69 -62.5t-94 -52t-110 -35.5t-116 -13h-58v249h25q53 0 111 3.5t108 12.5t86.5 26
t45.5 44q-14 61 -28.5 109t-31.5 104zM310 860l-172 172l172 172l172 -172z" />
    <glyph glyph-name="uni0646" unicode="&#x646;" horiz-adv-x="1446" arabic-form="isolated" 
d="M1244 625q3 0 6 -7q24 -58 42.5 -120t31.5 -122.5t21.5 -116.5t13.5 -102t7 -79t2 -48q0 -150 -43 -270t-128 -204t-211 -129t-292 -45q-124 0 -226 31.5t-174.5 95.5t-112.5 161.5t-40 229.5q0 121 35 268t113 327l90 -49q-18 -54 -36.5 -112t-33.5 -117t-24 -117.5
t-9 -112.5q0 -72 19.5 -134t66.5 -108t125.5 -72.5t197.5 -26.5q123 0 217 19.5t162 60t112.5 102.5t68.5 148q-17 56 -37 112.5t-41 112t-41.5 108.5t-37.5 103q18 30 40 62.5t42.5 61t37.5 50.5t25 31q8 8 11 8zM768 421l-172 172l172 172l172 -172z" />
    <glyph glyph-name="uniFEE6" unicode="&#x646;" horiz-adv-x="1622" arabic-form="final" 
d="M1234 625q3 0 6 -7q46 -98 80.5 -168t73.5 -114.5t90.5 -65.5t131.5 -21h26v-249h-26q-48 0 -89.5 7.5t-75 20.5t-57.5 29.5t-38 33.5q1 -15 1.5 -30.5t0.5 -30.5q0 -150 -43 -270t-128 -204t-211 -129t-292 -45q-124 0 -226 31.5t-174.5 95.5t-112.5 161.5t-40 229.5
q0 121 35.5 268t112.5 327l90 -49q-18 -54 -36.5 -112t-33.5 -117t-24 -117.5t-9 -112.5q0 -72 19.5 -134t66.5 -108t125.5 -72.5t197.5 -26.5q124 0 217.5 19.5t162 60t112.5 102.5t69 148q-35 112 -73 225t-73 213q12 23 30 52t37 57.5t37 53.5t29 40q8 8 11 8zM768 421
l-172 172l172 172l172 -172z" />
    <glyph glyph-name="uni06C0" unicode="&#x6c0;" horiz-adv-x="878" arabic-form="isolated" 
d="M447 207q37 0 84 2t91 11.5t80 28t52 51.5q-1 37 -26 72t-64 66.5t-87 58.5t-95 48.5t-88.5 36.5t-67.5 22q-51 -98 -63.5 -154t-12.5 -87t12.5 -68.5t60 -62.5t124.5 -25zM388 871q6 0 40.5 -16t81.5 -47t100.5 -75.5t98.5 -102.5t74.5 -127.5t29.5 -149.5
q-21 -184 -115 -276t-258 -92q-70 0 -129.5 23.5t-100 69t-54.5 98.5t-14 99q0 33 5 70q7 45 23.5 98t38 107.5t47 107t50 96t46 74.5t36.5 43zM494 1458q50 0 93.5 -24.5t81.5 -90.5l-41 -28q-8 5 -33 14.5t-69 9.5h-16q-29 -2 -54.5 -12t-44.5 -23.5t-29.5 -26
t-10.5 -18.5q0 -8 10.5 -20.5t31.5 -25.5t52.5 -24.5t72.5 -17.5q27 4 49 8t40.5 8t35 8t34.5 9l-23 -122q-5 -2 -11 -2.5t-12 -2.5q-57 -11 -105.5 -22t-95.5 -26.5t-97 -37.5t-110 -56l39 121l84 49q-9 8 -21.5 20t-24 28.5t-20.5 36.5t-11 44v8q0 16 7 37.5t22 46.5
t35.5 48.5t44 42t48 30t48.5 11.5z" />
    <glyph glyph-name="uniFBA5" unicode="&#x6c0;" horiz-adv-x="1045" arabic-form="final" 
d="M612 720l-124 -62t-115.5 -60t-94 -55.5t-60.5 -49.5q1 -29 34.5 -48t94 -31t145 -19t186.5 -12zM807 737q8 -74 16 -140t15.5 -118t13.5 -86.5t9 -46.5q4 -18 16 -35.5t33.5 -31t54 -22t78.5 -8.5h22v-249h-44q-82 0 -137 26.5t-91 67t-57 89t-35 93.5l-121 -125
q-2 0 -5 -0.5t-8 -0.5q-19 0 -60.5 3.5t-93 11.5t-108 20t-105.5 30q-12 15 -22.5 44t-18.5 64.5t-13 73.5t-5.5 58.5t-0.5 26.5q0 27 4 51.5t15 37.5q27 31 80 71.5t115 82t123.5 80.5t106.5 69l-15 79l195 173zM585 1635q50 0 93.5 -24.5t81.5 -90.5l-41 -28
q-8 5 -33 14.5t-69 9.5h-16q-29 -2 -54.5 -12t-44.5 -23.5t-29.5 -26t-10.5 -18.5q0 -8 10.5 -20.5t31.5 -25.5t52.5 -24.5t72.5 -17.5q27 4 49 8t40.5 8t35 8t34.5 9l-23 -122q-5 -2 -11 -2.5t-12 -2.5q-57 -11 -105.5 -22t-95.5 -26.5t-97 -37.5t-110 -56l39 121l84 49
q-9 8 -21.5 20t-24 28.5t-20.5 36.5t-11 44v8q0 16 7 37.5t22 46.5t35.5 48.5t44 42t48 30t48.5 11.5z" />
    <glyph glyph-name="uni0624" unicode="&#x624;" horiz-adv-x="1024" arabic-form="isolated" 
d="M568 236q34 0 68 3t68 10q-3 13 -9.5 37.5t-19 54t-31 61t-44 58.5t-58.5 45t-74 22q-5 0 -9.5 0.5t-9.5 0.5q-57 0 -94.5 -25.5t-59 -57.5t-30 -62t-8.5 -39q9 -24 38 -43.5t71 -34t94 -22.5t108 -8zM499 756q87 -6 149 -58t104 -137t65.5 -198t32.5 -240q2 -32 2 -63
q0 -63 -12 -133.5t-41 -140.5t-70 -126.5t-87 -100.5t-94 -76.5t-92 -54t-80 -33t-58 -13.5h-5t-4 1q-14 7 -38 19.5t-52 27.5t-58 31.5t-55 31.5t-43.5 26.5t-23.5 16.5q-6 4 -6 8q0 2 3.5 4.5t5.5 3.5q151 43 264.5 93t193.5 105.5t128.5 117t71.5 128.5q-12 -2 -24 -3.5
t-28 -2.5t-37.5 -1.5t-54.5 -0.5q-87 0 -157 20t-119.5 62.5t-75 107.5t-25.5 151v7q1 39 9.5 85t26 92.5t44 90t61.5 77.5t79 54.5t98 20.5h2zM518 1398q50 0 93.5 -24.5t81.5 -90.5l-41 -28q-8 5 -33 14.5t-69 9.5h-16q-29 -2 -54.5 -12t-44.5 -23.5t-29.5 -26
t-10.5 -18.5q0 -8 10.5 -20.5t31.5 -25.5t52.5 -24.5t72.5 -17.5q27 4 49 8t40.5 8t35 8t34.5 9l-23 -122q-5 -2 -11 -2.5t-12 -2.5q-57 -11 -105.5 -22t-95.5 -26.5t-97 -37.5t-110 -56l39 121l84 49q-9 8 -21.5 20t-24 28.5t-20.5 36.5t-11 44v8q0 16 7 37.5t22 46.5
t35.5 48.5t44 42t48 30t48.5 11.5z" />
    <glyph glyph-name="uniFE86" unicode="&#x624;" horiz-adv-x="877" arabic-form="final" 
d="M640 249q-3 16 -10 42t-19.5 56t-31 60t-43.5 55.5t-58 42.5t-74 21q-5 1 -10.5 1h-10.5q-59 0 -95.5 -25t-57 -57t-29 -61.5t-9.5 -39.5q14 -46 81.5 -70.5t201.5 -24.5h165zM433 758q55 -3 100.5 -26t82 -61t64.5 -87.5t48 -105t33 -114.5t19 -115h118v-249h-116
q-7 -105 -44 -191.5t-90 -155.5t-114.5 -119.5t-118 -84.5t-101.5 -50.5t-64 -16.5h-5q-6 0 -7 1q-14 7 -38 19.5t-52 28t-57.5 32t-54.5 31t-43 26t-23 16.5q-6 4 -6 8q0 2 3.5 4.5t5.5 3.5q151 43 265.5 93.5t195.5 107t130.5 118.5t72.5 129h-92q-89 0 -167.5 14.5
t-137 52.5t-92.5 103t-34 166q0 38 9 84.5t26.5 93.5t44 91t62 78t79.5 54.5t98 20.5zM518 1398q50 0 93.5 -24.5t81.5 -90.5l-41 -28q-8 5 -33 14.5t-69 9.5h-16q-29 -2 -54.5 -12t-44.5 -23.5t-29.5 -26t-10.5 -18.5q0 -8 10.5 -20.5t31.5 -25.5t52.5 -24.5t72.5 -17.5
q27 4 49 8t40.5 8t35 8t34.5 9l-23 -122q-5 -2 -11 -2.5t-12 -2.5q-57 -11 -105.5 -22t-95.5 -26.5t-97 -37.5t-110 -56l39 121l84 49q-9 8 -21.5 20t-24 28.5t-20.5 36.5t-11 44v8q0 16 7 37.5t22 46.5t35.5 48.5t44 42t48 30t48.5 11.5z" />
    <glyph glyph-name="uniFBE8" unicode="&#x649;" horiz-adv-x="624" arabic-form="initial" 
d="M430 879q5 0 21 -30t35 -83.5t36 -126.5t22 -137t5 -107q0 -47 -5.5 -119.5t-36.5 -170.5q-30 -27 -81.5 -47t-115 -32.5t-133.5 -19t-136 -6.5h-61v249h57q76 0 147.5 5t127 12.5t90.5 16.5t39 16q-6 31 -26 78t-45.5 96.5t-51 94.5t-41.5 72z" />
    <glyph glyph-name="uniFBE9" unicode="&#x649;" horiz-adv-x="781" arabic-form="medial" 
d="M453 698l4 -17q3 -18 8 -47t10.5 -67.5t10 -80.5t6.5 -79.5t2 -65.5v-23q16 -19 48 -32t72 -21.5t84 -12t83 -3.5h20v-249h-20q-49 0 -102 13t-101.5 35t-88.5 52t-62 63q-27 -33 -69 -62.5t-94 -52t-110 -35.5t-116 -13h-58v249h25q53 0 111 3.5t108 12.5t86.5 26
t45.5 44q-14 61 -28.5 109t-31.5 104z" />
    <glyph glyph-name="uniFEF3" unicode="&#x64a;" horiz-adv-x="755" arabic-form="initial" 
d="M528 879q5 0 21 -30t35 -83.5t36 -126.5t22 -137t5 -107q0 -47 -5.5 -119.5t-36.5 -170.5q-20 -18 -57 -33t-85 -26.5t-103.5 -20t-111.5 -14t-109.5 -8.5t-97.5 -3h-61v249h57q51 0 107.5 2.5t111 6.5t105 9t89 10.5t62.5 11t27 10.5q-6 31 -26 78t-45.5 96.5t-51 94.5
t-41.5 72zM510 -519l-160 160l160 160l160 -160zM150 -519l-160 160l160 160l160 -160z" />
    <glyph glyph-name="uniFEF4" unicode="&#x64a;" horiz-adv-x="897" arabic-form="medial" 
d="M539 698l4 -17q3 -18 8 -47t10.5 -67.5t10 -80.5t6.5 -79.5t2 -65.5v-23q16 -19 52.5 -32t82.5 -21.5t94.5 -12t87.5 -3.5h20v-249h-20q-49 0 -106.5 13t-112 35t-99 52t-66.5 63q-18 -22 -49.5 -42.5t-71 -38.5t-85.5 -33.5t-92.5 -26t-92 -16.5t-84.5 -6h-58v249h25
q35 0 79.5 1.5t91 5t91.5 9.5t82 15.5t62 23t31 31.5q-14 61 -28.5 109t-31.5 104zM540 -519l-160 160l160 160l160 -160zM180 -519l-160 160l160 160l160 -160z" />
    <glyph glyph-name="uni064A" unicode="&#x64a;" horiz-adv-x="1729" arabic-form="isolated" 
d="M1472 842q71 0 146 -18l-78 -238q-42 6 -81 6q-85 0 -155 -25.5t-128 -70t-105 -103.5t-87 -125q36 -23 89 -41.5t111.5 -34.5t118 -31.5t108.5 -33t83 -39.5t42 -50q12 -42 13.5 -70t1.5 -42q0 -27 -3.5 -60t-12.5 -69t-21 -64q-38 -64 -102 -122t-152.5 -104.5
t-200 -78.5t-244.5 -42q-39 -3 -77 -3q-103 0 -198.5 18t-173.5 60.5t-133.5 112.5t-74.5 154.5t-19 163.5q0 49 10 147.5t71 285.5q6 18 16.5 48.5t23.5 65t26 68.5t24 58l90 -48q-12 -37 -29 -88.5t-33 -109.5q-18 -64 -35 -140t-20 -122.5t-3 -63.5q0 -57 13.5 -119.5
t60 -117t131.5 -87t220 -32.5q26 0 53.5 1.5t56.5 3.5q139 12 237 33t167.5 49.5t116 63t82.5 74.5q-37 19 -93.5 35t-119.5 33.5t-126 37.5t-113 47t-78.5 60.5t-28.5 75.5v8q9 151 60 276.5t133 216t189.5 140.5t230.5 50zM991 -1049l-160 160l160 160l160 -160z
M631 -1049l-160 160l160 160l160 -160z" />
    <glyph glyph-name="uniFEF2" unicode="&#x64a;" horiz-adv-x="1596" arabic-form="final" 
d="M388 525q-12 -37 -27.5 -84.5t-31.5 -105.5q-14 -49 -25.5 -104t-16.5 -102.5t-5 -85.5q0 -19 2 -56.5t18.5 -89t48.5 -96t84.5 -77t127.5 -51t177 -18.5q41 0 88 3q96 7 170.5 17t131 22.5t97.5 25.5t69 26q66 30 86 64q-17 15 -65.5 45.5t-116 68t-148.5 77t-162 72.5
q6 15 15 33l18.5 37t25.5 47q11 20 22 37.5t19 30.5l18 27q83 -14 155 -22t138 -11.5t129.5 -4.5t131.5 -1h54v-249h-56q-58 0 -127.5 5t-145.5 28q84 -42 127 -75t57 -52l-12 -168q-15 -43 -66.5 -98.5t-133 -106t-191 -88t-240.5 -44.5q-20 -1 -39 -1.5t-38 -0.5
q-104 0 -201.5 18t-178 60.5t-138.5 112.5t-79 157t-21 174q0 43 8.5 138t70.5 282q6 18 16 47.5t22 62.5t24.5 66t23.5 57zM991 -1049l-160 160l160 160l160 -160zM631 -1049l-160 160l160 160l160 -160z" />
    <glyph glyph-name="uni06CC" unicode="&#x6cc;" horiz-adv-x="1729" arabic-form="isolated" 
d="M1472 842q71 0 146 -18l-78 -238q-42 6 -81 6q-85 0 -155 -25.5t-128 -70t-105 -103.5t-87 -125q36 -23 89 -41.5t111.5 -34.5t118 -31.5t108.5 -33t83 -39.5t42 -50q12 -42 13.5 -70t1.5 -42q0 -27 -3.5 -60t-12.5 -69t-21 -64q-38 -64 -102 -122t-152.5 -104.5
t-200 -78.5t-244.5 -42q-39 -3 -77 -3q-103 0 -198.5 18t-173.5 60.5t-133.5 112.5t-74.5 154.5t-19 163.5q0 49 10 147.5t71 285.5q6 18 16.5 48.5t23.5 65t26 68.5t24 58l90 -48q-12 -37 -29 -88.5t-33 -109.5q-18 -64 -35 -140t-20 -122.5t-3 -63.5q0 -57 13.5 -119.5
t60 -117t131.5 -87t220 -32.5q26 0 53.5 1.5t56.5 3.5q139 12 237 33t167.5 49.5t116 63t82.5 74.5q-37 19 -93.5 35t-119.5 33.5t-126 37.5t-113 47t-78.5 60.5t-28.5 75.5v8q9 151 60 276.5t133 216t189.5 140.5t230.5 50z" />
    <glyph glyph-name="uniFBFE" unicode="&#x6cc;" horiz-adv-x="755" arabic-form="initial" 
d="M528 879q5 0 21 -30t35 -83.5t36 -126.5t22 -137t5 -107q0 -47 -5.5 -119.5t-36.5 -170.5q-20 -18 -57 -33t-85 -26.5t-103.5 -20t-111.5 -14t-109.5 -8.5t-97.5 -3h-61v249h57q51 0 107.5 2.5t111 6.5t105 9t89 10.5t62.5 11t27 10.5q-6 31 -26 78t-45.5 96.5t-51 94.5
t-41.5 72zM510 -519l-160 160l160 160l160 -160zM150 -519l-160 160l160 160l160 -160z" />
    <glyph glyph-name="uniFBFF" unicode="&#x6cc;" horiz-adv-x="897" arabic-form="medial" 
d="M539 698l4 -17q3 -18 8 -47t10.5 -67.5t10 -80.5t6.5 -79.5t2 -65.5v-23q16 -19 52.5 -32t82.5 -21.5t94.5 -12t87.5 -3.5h20v-249h-20q-49 0 -106.5 13t-112 35t-99 52t-66.5 63q-18 -22 -49.5 -42.5t-71 -38.5t-85.5 -33.5t-92.5 -26t-92 -16.5t-84.5 -6h-58v249h25
q35 0 79.5 1.5t91 5t91.5 9.5t82 15.5t62 23t31 31.5q-14 61 -28.5 109t-31.5 104zM540 -519l-160 160l160 160l160 -160zM180 -519l-160 160l160 160l160 -160z" />
    <glyph glyph-name="uniFBFD" unicode="&#x6cc;" horiz-adv-x="1596" arabic-form="final" 
d="M388 525q-12 -37 -27.5 -84.5t-31.5 -105.5q-14 -49 -25.5 -104t-16.5 -102.5t-5 -85.5q0 -19 2 -56.5t18.5 -89t48.5 -96t84.5 -77t127.5 -51t177 -18.5q41 0 88 3q96 7 170.5 17t131 22.5t97.5 25.5t69 26q66 30 86 64q-17 15 -65.5 45.5t-116 68t-148.5 77t-162 72.5
q6 15 15 33l18.5 37t25.5 47q11 20 22 37.5t19 30.5l18 27q83 -14 155 -22t138 -11.5t129.5 -4.5t131.5 -1h54v-249h-56q-58 0 -127.5 5t-145.5 28q84 -42 127 -75t57 -52l-12 -168q-15 -43 -66.5 -98.5t-133 -106t-191 -88t-240.5 -44.5q-20 -1 -39 -1.5t-38 -0.5
q-104 0 -201.5 18t-178 60.5t-138.5 112.5t-79 157t-21 174q0 43 8.5 138t70.5 282q6 18 16 47.5t22 62.5t24.5 66t23.5 57z" />
    <glyph glyph-name="uni06D3" unicode="&#x6d3;" horiz-adv-x="2205" arabic-form="isolated" 
d="M925 734q-59 -100 -102 -173t-77 -98q-32 -18 -76.5 -38.5t-93.5 -41t-99 -40t-93.5 -35.5t-75.5 -28.5t-46 -18.5q22 -9 50.5 -17.5t71 -16t103.5 -13t148.5 -10t206 -6.5t276.5 -2q99 0 203.5 4.5t205.5 12.5t195 18.5t171.5 22t134.5 24t85 24.5q-7 -23 -14 -50
t-14 -47q-6 -17 -14 -40t-17 -45t-17.5 -38.5t-14.5 -19.5q-12 -5 -56.5 -14.5t-113.5 -20.5t-158 -22t-189 -20t-207 -15t-211 -6q-159 0 -285 5.5t-224.5 15t-172 21.5t-128.5 24.5t-94 24.5t-68 22q0 4 3.5 25.5t9.5 51t13.5 63t14.5 63t13 50t10 24.5q13 13 45 29t76 34
t96 38t105.5 41t104.5 42t94 43q20 18 35.5 35.5t29.5 35.5t28.5 38t32.5 43zM493 1120q50 0 93.5 -24.5t81.5 -90.5l-41 -28q-8 5 -33 14.5t-69 9.5h-16q-29 -2 -54.5 -12t-44.5 -23.5t-29.5 -26t-10.5 -18.5q0 -8 10.5 -20.5t31.5 -25.5t52.5 -24.5t72.5 -17.5q27 4 49 8
t40.5 8t35 8t34.5 9l-23 -122q-5 -2 -11 -2.5t-12 -2.5q-57 -11 -105.5 -22t-95.5 -26.5t-97 -37.5t-110 -56l39 121l84 49q-9 8 -21.5 20t-24 28.5t-20.5 36.5t-11 44v8q0 16 7 37.5t22 46.5t35.5 48.5t44 42t48 30t48.5 11.5z" />
    <glyph glyph-name="uniFBB1" unicode="&#x6d3;" horiz-adv-x="1652" arabic-form="final" 
d="M1672 0q-39 0 -100 -1t-132.5 -2.5t-147.5 -4t-146 -5t-127.5 -5t-91.5 -5.5q-119 -9 -210 -23.5t-160.5 -32t-120 -36.5t-87.5 -38t-63.5 -37t-48.5 -32q60 -18 133 -28.5t152.5 -16t162 -7t160.5 -1.5q81 0 177.5 2t195 7.5t192 14.5t169.5 23q-5 -11 -19.5 -32
t-34 -47t-42 -53t-45 -51t-42.5 -41.5t-34 -23.5q-26 -4 -77.5 -9.5t-115 -10t-132 -8t-128.5 -3.5q-201 0 -355 12.5t-258.5 28.5t-158 31.5t-53.5 22.5q0 5 5 29t13 57.5t18 71.5t18.5 71t15 56.5t8.5 27.5q91 87 196.5 155.5t236.5 110.5q43 14 120.5 25.5t174 20.5
t204.5 16t213.5 11.5t200 6.5t164.5 2v-249zM474 698q50 0 93.5 -24.5t81.5 -90.5l-41 -28q-8 5 -33 14.5t-69 9.5h-16q-29 -2 -54.5 -12t-44.5 -23.5t-29.5 -26t-10.5 -18.5q0 -8 10.5 -20.5t31.5 -25.5t52.5 -24.5t72.5 -17.5q27 4 49 8t40.5 8t35 8t34.5 9l-23 -122
q-5 -2 -11 -2.5t-12 -2.5q-57 -11 -105.5 -22t-95.5 -26.5t-97 -37.5t-110 -56l39 121l84 49q-9 8 -21.5 20t-24 28.5t-20.5 36.5t-11 44v8q0 16 7 37.5t22 46.5t35.5 48.5t44 42t48 30t48.5 11.5z" />
    <glyph glyph-name="uni0626" unicode="&#x626;" horiz-adv-x="1729" arabic-form="isolated" 
d="M1472 842q71 0 146 -18l-78 -238q-42 6 -81 6q-85 0 -155 -25.5t-128 -70t-105 -103.5t-87 -125q36 -23 89 -41.5t111.5 -34.5t118 -31.5t108.5 -33t83 -39.5t42 -50q12 -42 13.5 -70t1.5 -42q0 -27 -3.5 -60t-12.5 -69t-21 -64q-38 -64 -102 -122t-152.5 -104.5
t-200 -78.5t-244.5 -42q-39 -3 -77 -3q-103 0 -198.5 18t-173.5 60.5t-133.5 112.5t-74.5 154.5t-19 163.5q0 49 10 147.5t71 285.5q6 18 16.5 48.5t23.5 65t26 68.5t24 58l90 -48q-12 -37 -29 -88.5t-33 -109.5q-18 -64 -35 -140t-20 -122.5t-3 -63.5q0 -57 13.5 -119.5
t60 -117t131.5 -87t220 -32.5q26 0 53.5 1.5t56.5 3.5q139 12 237 33t167.5 49.5t116 63t82.5 74.5q-37 19 -93.5 35t-119.5 33.5t-126 37.5t-113 47t-78.5 60.5t-28.5 75.5v8q9 151 60 276.5t133 216t189.5 140.5t230.5 50zM713 1158q50 0 93.5 -24.5t81.5 -90.5l-41 -28
q-8 5 -33 14.5t-69 9.5h-16q-29 -2 -54.5 -12t-44.5 -23.5t-29.5 -26t-10.5 -18.5q0 -8 10.5 -20.5t31.5 -25.5t52.5 -24.5t72.5 -17.5q27 4 49 8t40.5 8t35 8t34.5 9l-23 -122q-5 -2 -11 -2.5t-12 -2.5q-57 -11 -105.5 -22t-95.5 -26.5t-97 -37.5t-110 -56l39 121l84 49
q-9 8 -21.5 20t-24 28.5t-20.5 36.5t-11 44v8q0 16 7 37.5t22 46.5t35.5 48.5t44 42t48 30t48.5 11.5z" />
    <glyph glyph-name="uniFE8B" unicode="&#x626;" horiz-adv-x="755" arabic-form="initial" 
d="M528 879q5 0 21 -30t35 -83.5t36 -126.5t22 -137t5 -107q0 -47 -5.5 -119.5t-36.5 -170.5q-20 -18 -57 -33t-85 -26.5t-103.5 -20t-111.5 -14t-109.5 -8.5t-97.5 -3h-61v249h57q51 0 107.5 2.5t111 6.5t105 9t89 10.5t62.5 11t27 10.5q-6 31 -26 78t-45.5 96.5t-51 94.5
t-41.5 72zM312 1388q50 0 93.5 -24.5t81.5 -90.5l-41 -28q-8 5 -33 14.5t-69 9.5h-16q-29 -2 -54.5 -12t-44.5 -23.5t-29.5 -26t-10.5 -18.5q0 -8 10.5 -20.5t31.5 -25.5t52.5 -24.5t72.5 -17.5q27 4 49 8t40.5 8t35 8t34.5 9l-23 -122q-5 -2 -11 -2.5t-12 -2.5
q-57 -11 -105.5 -22t-95.5 -26.5t-97 -37.5t-110 -56l39 121l84 49q-9 8 -21.5 20t-24 28.5t-20.5 36.5t-11 44v8q0 16 7 37.5t22 46.5t35.5 48.5t44 42t48 30t48.5 11.5z" />
    <glyph glyph-name="uniFE8C" unicode="&#x626;" horiz-adv-x="897" arabic-form="medial" 
d="M539 698l4 -17q3 -18 8 -47t10.5 -67.5t10 -80.5t6.5 -79.5t2 -65.5v-23q16 -19 52.5 -32t82.5 -21.5t94.5 -12t87.5 -3.5h20v-249h-20q-49 0 -106.5 13t-112 35t-99 52t-66.5 63q-18 -22 -49.5 -42.5t-71 -38.5t-85.5 -33.5t-92.5 -26t-92 -16.5t-84.5 -6h-58v249h25
q35 0 79.5 1.5t91 5t91.5 9.5t82 15.5t62 23t31 31.5q-14 61 -28.5 109t-31.5 104zM336 1298q50 0 93.5 -24.5t81.5 -90.5l-41 -28q-8 5 -33 14.5t-69 9.5h-16q-29 -2 -54.5 -12t-44.5 -23.5t-29.5 -26t-10.5 -18.5q0 -8 10.5 -20.5t31.5 -25.5t52.5 -24.5t72.5 -17.5
q27 4 49 8t40.5 8t35 8t34.5 9l-23 -122q-5 -2 -11 -2.5t-12 -2.5q-57 -11 -105.5 -22t-95.5 -26.5t-97 -37.5t-110 -56l39 121l84 49q-9 8 -21.5 20t-24 28.5t-20.5 36.5t-11 44v8q0 16 7 37.5t22 46.5t35.5 48.5t44 42t48 30t48.5 11.5z" />
    <glyph glyph-name="uniFE8A" unicode="&#x626;" horiz-adv-x="1596" arabic-form="final" 
d="M388 525q-12 -37 -27.5 -84.5t-31.5 -105.5q-14 -49 -25.5 -104t-16.5 -102.5t-5 -85.5q0 -19 2 -56.5t18.5 -89t48.5 -96t84.5 -77t127.5 -51t177 -18.5q41 0 88 3q96 7 170.5 17t131 22.5t97.5 25.5t69 26q66 30 86 64q-17 15 -65.5 45.5t-116 68t-148.5 77t-162 72.5
q6 15 15 33l18.5 37t25.5 47q11 20 22 37.5t19 30.5l18 27q83 -14 155 -22t138 -11.5t129.5 -4.5t131.5 -1h54v-249h-56q-58 0 -127.5 5t-145.5 28q84 -42 127 -75t57 -52l-12 -168q-15 -43 -66.5 -98.5t-133 -106t-191 -88t-240.5 -44.5q-20 -1 -39 -1.5t-38 -0.5
q-104 0 -201.5 18t-178 60.5t-138.5 112.5t-79 157t-21 174q0 43 8.5 138t70.5 282q6 18 16 47.5t22 62.5t24.5 66t23.5 57zM713 1158q50 0 93.5 -24.5t81.5 -90.5l-41 -28q-8 5 -33 14.5t-69 9.5h-16q-29 -2 -54.5 -12t-44.5 -23.5t-29.5 -26t-10.5 -18.5q0 -8 10.5 -20.5
t31.5 -25.5t52.5 -24.5t72.5 -17.5q27 4 49 8t40.5 8t35 8t34.5 9l-23 -122q-5 -2 -11 -2.5t-12 -2.5q-57 -11 -105.5 -22t-95.5 -26.5t-97 -37.5t-110 -56l39 121l84 49q-9 8 -21.5 20t-24 28.5t-20.5 36.5t-11 44v8q0 16 7 37.5t22 46.5t35.5 48.5t44 42t48 30t48.5 11.5z
" />
    <glyph glyph-name="uni06C2.fina" unicode="&#x6c2;" horiz-adv-x="913" 
d="M439 454q28 0 61 -14.5t69.5 -36.5t76.5 -47.5t82.5 -48.5t87 -39t90.5 -19h27v-249h-20q-55 0 -110.5 17.5t-107.5 43.5t-98.5 56.5t-85.5 57.5t-68.5 45t-45.5 20q-2 0 -5.5 0.5t-7.5 0.5q-15 0 -38 -6.5t-54 -30t-71.5 -69t-90.5 -122.5l-76 45q122 202 214.5 299
t170.5 97zM456 1065q50 0 93.5 -24.5t81.5 -90.5l-41 -28q-8 5 -33 14.5t-69 9.5h-16q-29 -2 -54.5 -12t-44.5 -23.5t-29.5 -26t-10.5 -18.5q0 -8 10.5 -20.5t31.5 -25.5t52.5 -24.5t72.5 -17.5q27 4 49 8t40.5 8t35 8t34.5 9l-23 -122q-5 -2 -11 -2.5t-12 -2.5
q-57 -11 -105.5 -22t-95.5 -26.5t-97 -37.5t-110 -56l39 121l84 49q-9 8 -21.5 20t-24 28.5t-20.5 36.5t-11 44v8q0 16 7 37.5t22 46.5t35.5 48.5t44 42t48 30t48.5 11.5z" />
    <glyph glyph-name="uni06C1" unicode="&#x6c1;" horiz-adv-x="878" arabic-form="isolated" 
d="M447 207q37 0 84 2t91 11.5t80 28t52 51.5q-1 37 -26 72t-64 66.5t-87 58.5t-95 48.5t-88.5 36.5t-67.5 22q-51 -98 -63.5 -154t-12.5 -87t12.5 -68.5t60 -62.5t124.5 -25zM388 871q6 0 40.5 -16t81.5 -47t100.5 -75.5t98.5 -102.5t74.5 -127.5t29.5 -149.5
q-21 -184 -115 -276t-258 -92q-70 0 -129.5 23.5t-100 69t-54.5 98.5t-14 99q0 33 5 70q7 45 23.5 98t38 107.5t47 107t50 96t46 74.5t36.5 43z" />
    <glyph glyph-name="uni06C3.fina" unicode="&#x6c3;" horiz-adv-x="913" 
d="M439 454q28 0 61 -14.5t69.5 -36.5t76.5 -47.5t82.5 -48.5t87 -39t90.5 -19h27v-249h-20q-55 0 -110.5 17.5t-107.5 43.5t-98.5 56.5t-85.5 57.5t-68.5 45t-45.5 20q-2 0 -5.5 0.5t-7.5 0.5q-15 0 -38 -6.5t-54 -30t-71.5 -69t-90.5 -122.5l-76 45q122 202 214.5 299
t170.5 97zM623 564l-160 160l160 160l160 -160zM263 564l-160 160l160 160l160 -160z" />
    <glyph glyph-name="uniFBAB" unicode="&#x6be;" horiz-adv-x="1018" arabic-form="final" 
d="M414 261q38 3 85 6t91 13.5t78 33t45 63.5q-12 46 -30 89q-16 37 -40 77.5t-59 69.5q-16 -8 -40.5 -33.5t-49 -69.5t-46.5 -106t-34 -143zM589 897q24 -8 50 -34.5t50 -65t45.5 -86.5t36.5 -99t20.5 -93t5.5 -73q0 -17 -1 -34q-29 -88 -61 -156.5t-75 -117.5t-101 -78.5
t-140 -39.5q17 -56 46.5 -106.5t64.5 -93t72.5 -76.5t72.5 -56q-15 64 -15 126q0 7 1 45.5t19.5 101t51 115.5t76 91.5t96.5 60t112 21.5h22v-249h-22q-62 0 -105 -20.5t-73.5 -52t-51 -69.5t-38.5 -72q4 -34 14 -63t29.5 -55t51 -50.5t79.5 -48.5l-107 -200
q-107 41 -194 106.5t-152 149.5t-106.5 182.5t-57.5 204.5q-23 -3 -40 -5.5t-34.5 -9.5t-38 -19.5t-48.5 -35.5l-90 130q60 73 122.5 121t137.5 66q11 120 44 225.5t74.5 189.5t84 142t72.5 81z" />
    <glyph glyph-name="uniFBAC" unicode="&#x6be;" horiz-adv-x="1335" arabic-form="initial" 
d="M1082 221q41 0 64 10q5 15 5 31q0 19 -11 46t-40.5 60t-69.5 63t-80 55t-75 44.5t-56 31.5q8 -39 8 -74q0 -9 -1.5 -34.5t-12 -60t-26.5 -60.5t-31 -41q27 -10 67 -22t85 -23t90.5 -18.5t83.5 -7.5zM570 351q5 1 24 7.5t40 20t39 35t20 51.5v5q0 21 -8.5 48t-25 56
t-38 56.5t-44.5 48.5q-5 0 -11 0.5t-11 0.5q-42 0 -81 -10t-71 -29.5t-55.5 -47.5t-34.5 -64q8 -36 31.5 -62.5t57.5 -47t77 -37t91 -31.5zM400 1019q4 -1 40.5 -15.5t93.5 -40.5t129 -62t148 -80.5t149 -95.5t133 -107t100 -116t49 -121q-8 -42 -17 -86.5t-20 -87.5
t-25.5 -83.5t-33.5 -75.5q-39 -23 -85.5 -32t-96.5 -9q-65 0 -130 12t-119.5 27.5t-93.5 29.5t-52 19q-20 -15 -53.5 -28t-74.5 -23.5t-86 -18.5t-88.5 -13.5t-81.5 -8.5t-65 -3h-140v249h82q48 0 89 3.5t70 8.5q34 5 62 12q-22 33 -35.5 75.5t-17.5 77t-4 57.5q0 21 3.5 54
t17.5 71q18 48 47.5 84.5t54.5 59.5l-67 29z" />
    <glyph glyph-name="uniFBAD" unicode="&#x6be;" horiz-adv-x="985" arabic-form="medial" 
d="M293 261q38 3 85 6t91 13.5t78 33t45 63.5q-12 46 -30 89q-16 37 -40 77.5t-59 69.5q-16 -8 -40.5 -33.5t-49 -69.5t-46.5 -106t-34 -143zM468 897q24 -8 50 -34.5t50 -65t45.5 -86.5t36.5 -99t20.5 -93t5.5 -73q0 -17 -1 -34q-29 -88 -61 -156.5t-75 -117.5t-101 -78.5
t-140 -39.5q17 -56 46.5 -106.5t64.5 -93t72.5 -76.5t72.5 -56q-13 54 -13 106q0 18 3.5 61t26.5 105.5t62 115.5t87.5 91.5t104.5 60t115 21.5h65v-249h-65q-62 0 -112 -20.5t-89 -52t-66.5 -69.5t-45.5 -72q4 -34 14 -63t29.5 -55t51 -50.5t79.5 -48.5l-107 -200
q-107 41 -194 106.5t-152 149.5t-106.5 182.5t-57.5 204.5q-31 -3 -64 -6q-28 -2 -60 -4t-58 -2h-22v249h22q16 0 39.5 1t49.5 2.5t53 3t49 3.5q11 120 44 225.5t74.5 189.5t84 142t72.5 81z" />
    <glyph glyph-name="uniFE70" unicode="&#xfe70;" arabic-form="isolated" 
d="M348 1151l-392 -161v122l392 156v-117zM348 1372l-392 -161v122l392 154v-115z" />
    <glyph glyph-name="uniFE72" unicode="&#xfe72;" arabic-form="isolated" 
d="M358 1129l-19 3l-14 1q-26 -37 -62.5 -66t-79.5 -49.5t-89.5 -31t-92.5 -10.5h-17h-8.5t-8.5 1l-3 6q13 29 19.5 59.5t8 48t1.5 26.5q0 12 -2 24t-8 12q-7 0 -23 -4.5t-36.5 -12t-44 -17.5t-44.5 -22l-4 4l21 113q15 9 34 18t37 16.5t33 12.5t23 5h3q19 0 32 -11
t20.5 -29.5t10 -39t2.5 -38.5q0 -3 -0.5 -15t-2.5 -28.5t-3 -22.5h11q16 0 40.5 2.5t54.5 10t59.5 20.5t52.5 32q-51 12 -83.5 26.5t-51.5 31.5t-26 37t-7 43q0 30 14 60.5t38 55t54.5 39.5t62.5 15h4q33 -1 55 -14.5t35 -35.5t18.5 -48.5t6 -41t0.5 -16.5q0 -23 -4.5 -44
t-10.5 -33q11 -2 24 -3l26 -2zM154 1337q-1 -3 -1 -6q0 -6 4.5 -16.5t22.5 -25t50.5 -29.5t84.5 -27q1 3 1 21t-8 39.5t-27.5 41.5t-55.5 28q-10 2 -19 2q-13 0 -30 -5.5t-22 -22.5z" />
    <glyph glyph-name="uniFE74" unicode="&#xfe74;" arabic-form="isolated" 
d="M352 -523l-392 -161v122l392 156v-117zM352 -302l-392 -161v122l392 154v-115z" />
    <glyph glyph-name="uniFE76" unicode="&#xfe76;" arabic-form="isolated" 
d="M394 1188l-392 -161v122l392 156v-117z" />
    <glyph glyph-name="uniFE78" unicode="&#xfe78;" arabic-form="isolated" 
d="M8 976q-7 0 -26 4t-40.5 9.5t-42 11.5t-30.5 10l-3 8q45 14 95 31.5t96.5 36t85.5 37t62 36.5q-83 14 -121 47.5t-38 82.5v3q1 37 17 69.5t41 56.5t56 38t61 14q41 0 69 -32.5t37 -70t9 -67.5q0 -20 -5 -56t-33 -76q-33 -47 -73 -79.5t-80 -55t-76 -36t-61 -22.5z
M116 1360q-3 -8 -3 -16q0 -11 8.5 -25.5t30.5 -29t53 -24t64 -13.5q2 3 2 9q0 5 -2 16.5t-9.5 30.5t-20 37t-27.5 26q-16 9 -25.5 9.5t-12.5 0.5q-11 0 -22.5 -2.5t-21 -8t-14.5 -10.5z" />
    <glyph glyph-name="uniFE7A" unicode="&#xfe7a;" arabic-form="isolated" 
d="M392 -359l-392 -161v122l392 156v-117z" />
    <glyph glyph-name="uniFE7C" unicode="&#xfe7c;" arabic-form="isolated" 
d="M351 1414q3 0 12 -24t18.5 -58.5t15 -69.5t5.5 -59v-15q-14 -63 -49.5 -101t-70.5 -40h-11q-24 0 -41.5 8t-29.5 19q-14 12 -22 29q-22 -38 -51 -54.5t-70 -16.5h-14q-39 2 -61 18.5t-32 41.5t-10.5 41.5t-0.5 18.5q0 28 5 54.5t13 50t15 36.5l30 -13q-9 -38 -9 -64
q0 -1 0.5 -15t8 -30.5t21.5 -23.5t32 -7q24 0 42 12t31.5 32t22 47.5t12.5 59.5l47 4q1 -10 1 -20q0 -15 -2.5 -32.5t-7.5 -45.5q12 -20 29 -28.5t43 -8.5q29 0 52.5 5t37.5 23q0 16 -8 37t-19 41.5t-22 38.5t-16 28z" />
    <glyph glyph-name="uniFE7E" unicode="&#xfe7e;" arabic-form="isolated" 
d="M188 1414q22 0 48.5 -13t50.5 -38.5t41.5 -63.5t19.5 -89v-5q0 -35 -15 -65t-40 -52.5t-54 -34.5t-53 -12q-36 0 -64.5 16t-47.5 41t-29 55.5t-10 59.5q0 47 16.5 84.5t40 63.5t50 39.5t46.5 13.5zM183 1158q51 2 83.5 17t46.5 35q1 1 1 2q0 5 -8.5 17.5t-27.5 27.5
t-46.5 26.5t-61.5 11.5q-13 0 -29.5 -4t-31.5 -12t-25.5 -19.5t-10.5 -27.5q10 -42 37 -58t64 -16h9z" />
    <glyph glyph-name="uniFC5E" unicode="&#xfc5e;" arabic-form="isolated" 
d="M351 1414q3 0 12 -24t18.5 -58.5t15 -69.5t5.5 -59v-15q-14 -63 -49.5 -101t-70.5 -40h-11q-24 0 -41.5 8t-29.5 19q-14 12 -22 29q-22 -38 -51 -54.5t-70 -16.5h-14q-39 2 -61 18.5t-32 41.5t-10.5 41.5t-0.5 18.5q0 28 5 54.5t13 50t15 36.5l30 -13q-9 -38 -9 -64
q0 -1 0.5 -15t8 -30.5t21.5 -23.5t32 -7q24 0 42 12t31.5 32t22 47.5t12.5 59.5l47 4q1 -10 1 -20q0 -15 -2.5 -32.5t-7.5 -45.5q12 -20 29 -28.5t43 -8.5q29 0 52.5 5t37.5 23q0 16 -8 37t-19 41.5t-22 38.5t-16 28zM358 1575l-19 3l-14 1q-26 -37 -62.5 -66t-79.5 -49.5
t-89.5 -31t-92.5 -10.5h-17h-8.5t-8.5 1l-3 6q13 29 19.5 59.5t8 48t1.5 26.5q0 12 -2 24t-8 12q-7 0 -23 -4.5t-36.5 -12t-44 -17.5t-44.5 -22l-4 4l21 113q15 9 34 18t37 16.5t33 12.5t23 5h3q19 0 32 -11t20.5 -29.5t10 -39t2.5 -38.5q0 -3 -0.5 -15t-2.5 -28.5t-3 -22.5
h11q16 0 40.5 2.5t54.5 10t59.5 20.5t52.5 32q-51 12 -83.5 26.5t-51.5 31.5t-26 37t-7 43q0 30 14 60.5t38 55t54.5 39.5t62.5 15h4q33 -1 55 -14.5t35 -35.5t18.5 -48.5t6 -41t0.5 -16.5q0 -23 -4.5 -44t-10.5 -33q11 -2 24 -3l26 -2zM154 1783q-1 -3 -1 -6
q0 -6 4.5 -16.5t22.5 -25t50.5 -29.5t84.5 -27q1 3 1 21t-8 39.5t-27.5 41.5t-55.5 28q-10 2 -19 2q-13 0 -30 -5.5t-22 -22.5z" />
    <glyph glyph-name="uniFC5F" unicode="&#xfc5f;" arabic-form="isolated" 
d="M351 1414q3 0 12 -24t18.5 -58.5t15 -69.5t5.5 -59v-15q-14 -63 -49.5 -101t-70.5 -40h-11q-24 0 -41.5 8t-29.5 19q-14 12 -22 29q-22 -38 -51 -54.5t-70 -16.5h-14q-39 2 -61 18.5t-32 41.5t-10.5 41.5t-0.5 18.5q0 28 5 54.5t13 50t15 36.5l30 -13q-9 -38 -9 -64
q0 -1 0.5 -15t8 -30.5t21.5 -23.5t32 -7q24 0 42 12t31.5 32t22 47.5t12.5 59.5l47 4q1 -10 1 -20q0 -15 -2.5 -32.5t-7.5 -45.5q12 -20 29 -28.5t43 -8.5q29 0 52.5 5t37.5 23q0 16 -8 37t-19 41.5t-22 38.5t-16 28zM374 650l-392 -161v122l392 156v-117zM374 871
l-392 -161v122l392 154v-115z" />
    <glyph glyph-name="uniFC60" unicode="&#xfc60;" arabic-form="isolated" 
d="M351 1414q3 0 12 -24t18.5 -58.5t15 -69.5t5.5 -59v-15q-14 -63 -49.5 -101t-70.5 -40h-11q-24 0 -41.5 8t-29.5 19q-14 12 -22 29q-22 -38 -51 -54.5t-70 -16.5h-14q-39 2 -61 18.5t-32 41.5t-10.5 41.5t-0.5 18.5q0 28 5 54.5t13 50t15 36.5l30 -13q-9 -38 -9 -64
q0 -1 0.5 -15t8 -30.5t21.5 -23.5t32 -7q24 0 42 12t31.5 32t22 47.5t12.5 59.5l47 4q1 -10 1 -20q0 -15 -2.5 -32.5t-7.5 -45.5q12 -20 29 -28.5t43 -8.5q29 0 52.5 5t37.5 23q0 16 -8 37t-19 41.5t-22 38.5t-16 28zM359 1564l-392 -161v122l392 156v-117z" />
    <glyph glyph-name="uniFC61" unicode="&#xfc61;" arabic-form="isolated" 
d="M351 1414q3 0 12 -24t18.5 -58.5t15 -69.5t5.5 -59v-15q-14 -63 -49.5 -101t-70.5 -40h-11q-24 0 -41.5 8t-29.5 19q-14 12 -22 29q-22 -38 -51 -54.5t-70 -16.5h-14q-39 2 -61 18.5t-32 41.5t-10.5 41.5t-0.5 18.5q0 28 5 54.5t13 50t15 36.5l30 -13q-9 -38 -9 -64
q0 -1 0.5 -15t8 -30.5t21.5 -23.5t32 -7q24 0 42 12t31.5 32t22 47.5t12.5 59.5l47 4q1 -10 1 -20q0 -15 -2.5 -32.5t-7.5 -45.5q12 -20 29 -28.5t43 -8.5q29 0 52.5 5t37.5 23q0 16 -8 37t-19 41.5t-22 38.5t-16 28zM32 1375q-7 0 -26 4t-40.5 9.5t-42 11.5t-30.5 10l-3 8
q45 14 95 31.5t96.5 36t85.5 37t62 36.5q-83 14 -121 47.5t-38 82.5v3q1 37 17 69.5t41 56.5t56 38t61 14q41 0 69 -32.5t37 -70t9 -67.5q0 -20 -5 -56t-33 -76q-33 -47 -73 -79.5t-80 -55t-76 -36t-61 -22.5zM140 1759q-3 -8 -3 -16q0 -11 8.5 -25.5t30.5 -29t53 -24
t64 -13.5q2 3 2 9q0 5 -2 16.5t-9.5 30.5t-20 37t-27.5 26q-16 9 -25.5 9.5t-12.5 0.5q-11 0 -22.5 -2.5t-21 -8t-14.5 -10.5z" />
    <glyph glyph-name="uniFC62" unicode="&#xfc62;" arabic-form="isolated" 
d="M351 1414q3 0 12 -24t18.5 -58.5t15 -69.5t5.5 -59v-15q-14 -63 -49.5 -101t-70.5 -40h-11q-24 0 -41.5 8t-29.5 19q-14 12 -22 29q-22 -38 -51 -54.5t-70 -16.5h-14q-39 2 -61 18.5t-32 41.5t-10.5 41.5t-0.5 18.5q0 28 5 54.5t13 50t15 36.5l30 -13q-9 -38 -9 -64
q0 -1 0.5 -15t8 -30.5t21.5 -23.5t32 -7q24 0 42 12t31.5 32t22 47.5t12.5 59.5l47 4q1 -10 1 -20q0 -15 -2.5 -32.5t-7.5 -45.5q12 -20 29 -28.5t43 -8.5q29 0 52.5 5t37.5 23q0 16 -8 37t-19 41.5t-22 38.5t-16 28zM372 883l-392 -161v122l392 156v-117z" />
    <glyph glyph-name="uniFC63" unicode="&#xfc63;" arabic-form="isolated" 
d="M351 1414q3 0 12 -24t18.5 -58.5t15 -69.5t5.5 -59v-15q-14 -63 -49.5 -101t-70.5 -40h-11q-24 0 -41.5 8t-29.5 19q-14 12 -22 29q-22 -38 -51 -54.5t-70 -16.5h-14q-39 2 -61 18.5t-32 41.5t-10.5 41.5t-0.5 18.5q0 28 5 54.5t13 50t15 36.5l30 -13q-9 -38 -9 -64
q0 -1 0.5 -15t8 -30.5t21.5 -23.5t32 -7q24 0 42 12t31.5 32t22 47.5t12.5 59.5l47 4q1 -10 1 -20q0 -15 -2.5 -32.5t-7.5 -45.5q12 -20 29 -28.5t43 -8.5q29 0 52.5 5t37.5 23q0 16 -8 37t-19 41.5t-22 38.5t-16 28zM141 1397q-4 36 -7.5 79.5t-7.5 88.5t-8 89t-7 80
t-5.5 62.5t-3.5 36.5q7 4 26 15t39 22.5t37 20.5t21 9t4 -14q0 -12 -0.5 -39.5t-1.5 -64t-2.5 -78t-3.5 -81.5t-4.5 -76t-5.5 -60q-3 -13 -14.5 -29t-23.5 -29.5t-32 -31.5z" />
    <glyph glyph-name=".notdef" horiz-adv-x="1229" 
d="M102 -362v1806h1024v-1806h-1024zM217 -248h795v1577h-795v-1577z" />
    <glyph glyph-name=".null" unicode="&#xfeff;" 
 />
    <glyph glyph-name=".null" 
 />
    <glyph glyph-name="nonmarkingreturn" horiz-adv-x="602" 
 />
    <glyph glyph-name="space" unicode=" " horiz-adv-x="696" 
 />
    <glyph glyph-name="space" unicode="&#xa0;" horiz-adv-x="696" 
 />
    <glyph glyph-name="uni0640" unicode="&#x640;" horiz-adv-x="671" 
d="M691 249v-249h-711v249h711z" />
    <glyph glyph-name="uni066E" unicode="&#x66e;" horiz-adv-x="1949" 
d="M1758 878q5 0 20.5 -26t34 -73t35 -113t21 -123t4.5 -94q0 -48 -6.5 -120t-37.5 -170q-42 -31 -107.5 -57t-142.5 -47t-161.5 -36.5t-164.5 -26t-151 -15.5t-122 -5q-69 0 -150.5 3t-166 14.5t-166.5 34t-151 61.5t-119 97.5t-67 126t-17 128.5q0 40 9.5 117t67.5 222
l91 -46q-33 -91 -34 -128t-1 -42q0 -64 21.5 -115t63 -87.5t95 -60.5t115 -38t123 -20.5t119 -8t102.5 -1.5h41q43 0 108.5 2t142 7t158 14t156 22t136 31.5t99.5 43.5q-6 18 -17 43.5t-25 54t-30 58t-30.5 56t-27.5 47t-21 31.5l85 138q12 19 23.5 36.5t20.5 31.5t15.5 23
t8.5 10z" />
    <glyph glyph-name="feh_dotless.isol" horiz-adv-x="1982" 
d="M1642 580q32 0 56.5 1.5t41.5 3.5q19 3 33 6q-4 12 -12 34t-21 48.5t-31.5 54t-44 50t-58 36.5t-73.5 14q-65 0 -105.5 -23.5t-63 -54.5t-30.5 -60t-8 -40q9 -15 37 -28q24 -11 70 -22t127 -17q46 -3 82 -3zM1557 1040q54 0 98.5 -23.5t80 -63.5t62.5 -91.5t46.5 -107.5
t31.5 -113t18 -106q5 -43 5 -82q0 -67 -21 -138.5t-79.5 -134t-145.5 -103t-193.5 -64t-229 -32.5t-252.5 -9q-12 -1 -24 -1h-25q-70 0 -150 4t-161 17.5t-157.5 38t-139.5 65t-107.5 100t-58.5 123.5t-14 118q0 43 10.5 121t66.5 216l91 -46q-33 -92 -34 -129.5t-1 -42.5
q0 -65 22.5 -116t65 -87.5t97.5 -61t117 -38t124 -20t119 -8t102 -1.5h33q63 0 147.5 3t176 10t181 18t161.5 28t118.5 40t52.5 53q-18 -5 -42 -9q-20 -3 -48.5 -5.5t-64.5 -2.5q-20 0 -42.5 1.5t-46.5 3.5q-159 17 -228.5 86t-69.5 161q0 20 3 42q1 13 7 46.5t19 76t35 89
t55.5 85t80 64t108.5 26.5z" />
    <glyph glyph-name="uni06A1.fina" horiz-adv-x="2048" 
d="M1636 303q16 6 44.5 17.5t57.5 30t52.5 44.5t30.5 61q-12 30 -33 61.5t-49.5 56.5t-63.5 41t-75 16q-39 0 -72 -13.5t-58 -38t-41 -60t-22 -78.5q11 -23 35.5 -45t56.5 -40.5t68 -32.5t69 -20zM1641 874q47 0 85.5 -20.5t68 -54.5t51 -78t36 -91t22.5 -94t10 -87
q-5 -36 -9.5 -60.5t-11.5 -45t-17.5 -40.5t-26.5 -47q3 -1 14.5 -1.5t28 -1.5t35.5 -1.5t39 -0.5q46 -1 102 -2v-249q-111 0 -193 9.5t-138 20.5q-65 13 -111 31q-41 -24 -125 -43q-72 -17 -199 -31.5t-326 -16.5q-12 -1 -24 -1h-25q-70 0 -150 4t-161 17.5t-157.5 38
t-139.5 65t-107.5 100t-58.5 123.5t-14 118q0 43 10.5 121t66.5 216l91 -46q-33 -92 -34 -129.5t-1 -42.5q0 -65 22.5 -116t65 -87.5t97 -61t117 -38t124 -20t119 -8t101.5 -1.5h34q91 0 171 3t141 8q70 4 131 11q-16 23 -29 51q-11 24 -22 56.5t-15 72.5q0 39 9 88t26.5 99
t43.5 97.5t61 84t78 59t94 22.5z" />
    <glyph glyph-name="uni066F" unicode="&#x66f;" horiz-adv-x="1457" 
d="M1084 236q34 0 68 3t68 10q-3 13 -10 37.5t-19.5 54t-31 61t-43.5 58.5t-58 45t-74 22q-5 0 -9.5 0.5t-9.5 0.5q-57 0 -94 -25.5t-58 -57.5t-29 -62t-8 -39q9 -24 37.5 -43.5t70 -34t93 -22.5t107.5 -8zM1019 756q87 -6 148.5 -58t103 -137t64 -198t30.5 -240
q3 -42 3 -81q0 -134 -36.5 -257t-124 -215.5t-217.5 -139t-295 -46.5q-120 0 -219.5 29.5t-172 89.5t-115 151t-45.5 160.5t-3 85.5q0 112 33 258.5t115 337.5l90 -49q-28 -83 -55 -174.5t-37 -162t-10 -119.5q0 -35 6.5 -92t50 -118t128 -97t224.5 -36h8q260 0 398.5 89.5
t159.5 266.5q-24 -5 -52 -9q-24 -3 -55.5 -5.5t-65.5 -2.5h-18.5t-19.5 1q-83 5 -147.5 27.5t-108.5 64.5t-65.5 104t-21.5 144v8q0 39 9 85t27 92.5t44.5 90t62 77.5t79.5 54.5t98 20.5h2z" />
    <glyph glyph-name="onedot.above" 
d="M0 765l-172 172l172 172l172 -172z" />
    <glyph glyph-name="twodots.above" 
d="M180 772l-160 160l160 160l160 -160zM-180 772l-160 160l160 160l160 -160z" />
    <glyph glyph-name="threedots.above" 
d="M0 1401l-152 152l152 152l152 -152zM175 1118l-152 152l152 152l152 -152zM-175 1118l-152 152l152 152l152 -152z" />
    <glyph glyph-name="threedots.below" 
d="M152 -591l-152 -152l-152 152l152 152zM327 -308l-152 -152l-152 152l152 152zM-23 -308l-152 -152l-152 152l152 152z" />
    <glyph glyph-name="uni0660" unicode="&#x660;" horiz-adv-x="861" 
d="M429 398q27 0 50 10t40.5 27.5t27.5 41t10 49.5t-10 49.5t-27.5 41t-40.5 27.5t-50 10q-26 0 -49.5 -10t-41 -27.5t-27.5 -41t-10 -49.5t10 -49.5t27.5 -41t41 -27.5t49.5 -10zM429 816q60 0 113 -23t92 -62t62 -92t23 -113t-23 -113t-62 -92t-92 -62t-113 -23t-113 23
t-92 62t-62 92t-23 113t23 113t62 92t92 62t113 23z" />
    <glyph glyph-name="uni0661" unicode="&#x661;" horiz-adv-x="762" 
d="M347 1467q1 -1 16 -35t37 -95.5t48 -147t50 -189.5t42.5 -223.5t23.5 -213.5t5 -155q0 -70 -6 -173t-35 -237l-102 -23q1 38 1 75q0 143 -14 288t-41 281.5t-61.5 247.5t-67.5 195.5t-61.5 142t-42.5 86.5z" />
    <glyph glyph-name="uni0662" unicode="&#x662;" horiz-adv-x="1149" 
d="M340 1466q2 -1 20.5 -45t45.5 -123q25 -69 51.5 -113.5t61 -71t80.5 -37t110 -10.5q68 0 114.5 25t75 70t40.5 107t12 136l96 33q4 -41 4 -84q0 -29 -3 -80t-19 -119.5t-43.5 -129.5t-68.5 -107t-96 -72.5t-125 -26.5q-46 0 -78 2.5t-52 5.5t-30 6t-13 4
q16 -94 26.5 -195.5t11.5 -162t1 -75.5q0 -92 -9 -194.5t-33 -211.5l-102 -23q1 38 1 75q0 143 -14 288t-41 281.5t-61.5 247.5t-67.5 195.5t-61.5 142t-42.5 86.5z" />
    <glyph glyph-name="uni0663" unicode="&#x663;" horiz-adv-x="1439" 
d="M328 1461q2 -1 21 -45t46 -123q25 -69 44.5 -113.5t44 -71t58 -37t87.5 -10.5q68 0 110.5 25.5t66.5 71t32.5 108t8.5 136.5l93 32q4 -53 4 -108q0 -22 -1.5 -73t-17.5 -124q18 -35 51.5 -51.5t87.5 -16.5q55 0 89.5 25.5t54 70.5t27 107.5t7.5 136.5l93 34q6 -64 6 -131
q0 -5 -0.5 -44.5t-9.5 -108.5t-28.5 -130.5t-51.5 -107.5t-78 -73t-109 -27q-52 0 -88 20t-59.5 46t-35 50.5t-14.5 33.5q-38 -68 -98.5 -109t-148.5 -41q-42 0 -72.5 8t-35.5 10q16 -94 26.5 -195.5t11.5 -162t1 -75.5q0 -92 -9 -194.5t-33 -211.5l-102 -23q1 38 1 75
q0 143 -14 288t-41 281.5t-61.5 247.5t-67.5 195.5t-61.5 142t-42.5 86.5z" />
    <glyph glyph-name="uni0664" unicode="&#x664;" horiz-adv-x="1346" 
d="M863 1490q41 0 81.5 -10.5t78.5 -34.5t73 -62.5t66 -95.5l-50 -61q-29 12 -62 22q-29 8 -65.5 15.5t-77.5 7.5h-18.5t-19.5 -2q-27 -3 -69 -15.5t-86.5 -40.5t-86 -75t-68.5 -119q24 -29 60.5 -48t82 -30.5t97 -16.5t104.5 -5q99 1 164 15.5t103 31.5q45 20 69 45
l-41 -245q-22 -11 -50.5 -24t-64.5 -25t-80.5 -21t-99.5 -12q-109 0 -205 31.5t-182 90.5l-1 3q17 -89 28.5 -186.5t12.5 -156.5t1 -74q0 -88 -8.5 -188.5t-31.5 -210.5l-105 -27q2 50 2 99q0 121 -15 256.5t-47 272.5t-73 251.5t-80 203t-71 149.5t-46 90l209 178
q22 -41 47 -95q21 -46 47 -111.5t52 -147.5q18 40 45 83t60 84t70.5 78.5t76.5 66t78 46t76 19.5q5 0 10 0.5t10 0.5z" />
    <glyph glyph-name="uni0665" unicode="&#x665;" horiz-adv-x="1320" 
d="M388 226q46 0 89 16.5t78.5 46t62 70.5t40.5 91l93 -8q0 -20 -4 -44.5t-9 -45.5q-6 -25 -14 -49q13 -23 39 -41q22 -15 58.5 -27.5t93.5 -12.5q66 0 109 22t68 48q29 31 44 70q-8 84 -42 170t-84 168.5t-109.5 158.5t-119 141t-112 116.5t-88.5 84.5q-59 -90 -122 -179.5
t-118 -181t-96.5 -188t-56.5 -200.5q0 -34 4.5 -73.5t24 -73.5t60 -56.5t111.5 -22.5zM540 1574q2 -2 30 -27t72.5 -68t101.5 -103.5t116.5 -133.5t118 -158t106 -177t80.5 -190.5t42 -198.5q-5 -125 -15.5 -225t-41 -171t-89.5 -109t-160 -38q-20 0 -51.5 7.5t-64.5 29.5
t-62.5 61.5t-46.5 104.5q-26 -65 -60 -105t-71.5 -62t-76 -29t-74.5 -7q-99 0 -159.5 46t-90.5 122t-31.5 130t-1.5 66q0 85 16 174q28 126 63 230.5t75.5 197.5t87 180t99.5 179l-35 26z" />
    <glyph glyph-name="uni0666" unicode="&#x666;" horiz-adv-x="1069" 
d="M574 1513q33 0 65 -6.5t64.5 -23.5t65.5 -45.5t68 -73.5l-37 -82q-13 5 -30 9q-15 3 -36 6t-50 3q-26 0 -57.5 -3t-68.5 -11q-59 -13 -102.5 -33.5t-76 -48.5t-55.5 -62.5t-40 -74.5q3 -19 29 -41t69 -40.5t100 -31t123 -12.5q38 0 77 5t81 16q9 3 25 10t36.5 15.5
t43.5 18.5l46 20q54 23 116 49l-53 -292q-158 -52 -319 -160q-67 -47 -139 -105.5t-142.5 -137.5t-137 -183.5t-121.5 -243.5l-81 66q9 70 31.5 137t52.5 129.5t65 119t70 104.5q83 113 181 210q-33 13 -72.5 32.5t-77.5 49.5t-71.5 72.5t-54.5 101.5q0 45 11.5 100.5
t33 112t52 111t68.5 98t82 73t93 36.5q37 6 73 6z" />
    <glyph glyph-name="uni0667" unicode="&#x667;" horiz-adv-x="1313" 
d="M1252 1304q-21 -25 -66 -81.5t-101.5 -141.5t-118 -197t-114.5 -248.5t-91 -296t-49 -338.5h-109q-11 179 -49.5 338.5t-91.5 296t-114 248.5t-117.5 197t-102 141.5t-66.5 81.5l158 225q89 -103 171 -246q35 -61 72 -137.5t72 -168t66.5 -197.5t55.5 -226
q24 120 55.5 226t66.5 197.5t72.5 168t72.5 137.5q82 143 171 246z" />
    <glyph glyph-name="uni0668" unicode="&#x668;" horiz-adv-x="1313" 
d="M710 1492q11 -179 49.5 -338.5t91.5 -296t114 -249t117.5 -197.5t101.5 -141.5t66 -81.5l-157 -224q-89 103 -171 246q-35 61 -72.5 137.5t-72.5 167.5t-66.5 197t-55.5 227q-24 -121 -55.5 -227t-66.5 -197t-72 -167.5t-72 -137.5q-82 -143 -171 -246l-158 224
q21 25 66.5 81.5t102 141.5t117.5 197.5t114 249t91.5 296t49.5 338.5h109z" />
    <glyph glyph-name="uni0669" unicode="&#x669;" horiz-adv-x="1089" 
d="M453 962q44 0 80.5 2.5t64.5 6.5q32 4 59 10q-3 17 -10 45t-20 60t-32 64.5t-46.5 59t-64 43t-83.5 16.5q-38 0 -69.5 -13.5t-55.5 -34.5t-41.5 -46.5t-29 -50.5t-17.5 -45.5t-7 -31.5q7 -23 30.5 -39t59.5 -26.5t82.5 -15t99.5 -4.5zM440 1514q71 -5 122.5 -43.5t87 -98
t58 -133.5t35.5 -149.5t19 -146t9 -123.5q10 -121 32 -217.5t51.5 -170t63.5 -126t68 -85.5l-101 -251q-65 63 -108.5 155t-69.5 195.5t-37.5 208.5t-12.5 195q-21 -8 -52 -14q-26 -5 -66 -9.5t-95 -4.5q-64 0 -124 22.5t-105 68t-67.5 108.5t-22.5 135q0 18 1 36q0 32 8 78
t24.5 95.5t42 98.5t60.5 88.5t79.5 63.5t99.5 24z" />
    <glyph glyph-name="uni06F4" unicode="&#x6f4;" horiz-adv-x="1346" 
d="M863 1490q41 0 81.5 -10.5t78.5 -34.5t73 -62.5t66 -95.5l-50 -61q-29 12 -62 22q-29 8 -65.5 15.5t-77.5 7.5h-18.5t-19.5 -2q-27 -3 -69 -15.5t-86.5 -40.5t-86 -75t-68.5 -119q24 -29 60.5 -48t82 -30.5t97 -16.5t104.5 -5q99 1 164 15.5t103 31.5q45 20 69 45
l-41 -245q-22 -11 -50.5 -24t-64.5 -25t-80.5 -21t-99.5 -12q-109 0 -205 31.5t-182 90.5l-1 3q17 -89 28.5 -186.5t12.5 -156.5t1 -74q0 -88 -8.5 -188.5t-31.5 -210.5l-105 -27q2 50 2 99q0 121 -15 256.5t-47 272.5t-73 251.5t-80 203t-71 149.5t-46 90l209 178
q22 -41 47 -95q21 -46 47 -111.5t52 -147.5q18 40 45 83t60 84t70.5 78.5t76.5 66t78 46t76 19.5q5 0 10 0.5t10 0.5z" />
    <glyph glyph-name="uni06F5" unicode="&#x6f5;" horiz-adv-x="1320" 
d="M388 226q46 0 89 16.5t78.5 46t62 70.5t40.5 91l93 -8q0 -20 -4 -44.5t-9 -45.5q-6 -25 -14 -49q13 -23 39 -41q22 -15 58.5 -27.5t93.5 -12.5q66 0 109 22t68 48q29 31 44 70q-8 84 -42 170t-84 168.5t-109.5 158.5t-119 141t-112 116.5t-88.5 84.5q-59 -90 -122 -179.5
t-118 -181t-96.5 -188t-56.5 -200.5q0 -34 4.5 -73.5t24 -73.5t60 -56.5t111.5 -22.5zM540 1574q2 -2 30 -27t72.5 -68t101.5 -103.5t116.5 -133.5t118 -158t106 -177t80.5 -190.5t42 -198.5q-5 -125 -15.5 -225t-41 -171t-89.5 -109t-160 -38q-20 0 -51.5 7.5t-64.5 29.5
t-62.5 61.5t-46.5 104.5q-26 -65 -60 -105t-71.5 -62t-76 -29t-74.5 -7q-99 0 -159.5 46t-90.5 122t-31.5 130t-1.5 66q0 85 16 174q28 126 63 230.5t75.5 197.5t87 180t99.5 179l-35 26z" />
    <glyph glyph-name="uni06F6" unicode="&#x6f6;" horiz-adv-x="1069" 
d="M574 1513q33 0 65 -6.5t64.5 -23.5t65.5 -45.5t68 -73.5l-37 -82q-13 5 -30 9q-15 3 -36 6t-50 3q-26 0 -57.5 -3t-68.5 -11q-59 -13 -102.5 -33.5t-76 -48.5t-55.5 -62.5t-40 -74.5q3 -19 29 -41t69 -40.5t100 -31t123 -12.5q38 0 77 5t81 16q9 3 25 10t36.5 15.5
t43.5 18.5l46 20q54 23 116 49l-53 -292q-158 -52 -319 -160q-67 -47 -139 -105.5t-142.5 -137.5t-137 -183.5t-121.5 -243.5l-81 66q9 70 31.5 137t52.5 129.5t65 119t70 104.5q83 113 181 210q-33 13 -72.5 32.5t-77.5 49.5t-71.5 72.5t-54.5 101.5q0 45 11.5 100.5
t33 112t52 111t68.5 98t82 73t93 36.5q37 6 73 6z" />
    <glyph glyph-name="uni066A" unicode="&#x66a;" horiz-adv-x="1042" 
d="M972 198l-201 -201l-204 202l202 203zM498 1111l-201 -201l-204 202l202 203zM887 1176l-613 -1220l-114 139l628 1245z" />
    <glyph glyph-name="uni061F" unicode="&#x61f;" horiz-adv-x="944" 
d="M773 145l-162 -161l-163 162l162 163zM530 1566q72 0 129.5 -20.5t98.5 -54t65.5 -76t31.5 -87.5l-79 -42q-12 54 -43 96q-13 18 -31.5 35.5t-43 31t-55.5 22t-70 8.5q-48 0 -80.5 -15.5t-53 -40.5t-31 -57.5t-15 -66.5t-5 -67t-0.5 -59q0 -17 13 -38t35.5 -47t54 -57
t68.5 -68q39 -39 63.5 -66t39 -53.5t20 -59t6.5 -70t1 -68.5q0 -30 -1 -85t-1 -163h-71q0 76 -15 127t-44 93t-73 81.5t-101 92.5q-48 44 -84.5 77.5t-63.5 62.5t-45.5 55.5t-29.5 56t-16 64t-5 79.5q0 81 34.5 150t94 120t137.5 80t165 29z" />
    <glyph glyph-name="uni060C" unicode="&#x60c;" horiz-adv-x="580" 
d="M427 519q-28 -21 -52.5 -47.5t-43 -56.5t-31.5 -62.5t-18 -63.5q6 4 21 7.5t35 3.5q25 0 54.5 -9.5t55.5 -35.5q15 -15 24.5 -32t15 -34t8 -32.5t2.5 -26.5q0 -35 -14 -65t-40 -53q-21 -18 -47.5 -28.5t-55.5 -12.5v-1h-13q-43 0 -85 21t-68 55q-24 30 -34.5 69.5
t-10.5 84.5q0 29 10 71.5t36 91.5t71 99.5t116 94.5z" />
    <glyph glyph-name="uni061B" unicode="&#x61b;" horiz-adv-x="574" 
d="M311 300q34 0 64.5 -13t53 -35.5t35.5 -53t13 -64.5t-13 -64.5t-35.5 -53t-53 -35.5t-64.5 -13q-35 0 -65 13t-52.5 35.5t-35.5 53t-13 64.5t13 64.5t35.5 53t52.5 35.5t65 13zM424 1073q-28 -21 -52 -47.5t-43 -57t-32 -63t-18 -63.5q7 4 22 7.5t35 3.5q25 0 54 -9
t55 -35q15 -15 25 -32.5t15.5 -34.5t8 -32t2.5 -26q0 -32 -12.5 -60.5t-34 -50t-50 -35t-60.5 -14.5h-13q-43 0 -85.5 20.5t-68.5 55.5q-23 29 -33.5 68.5t-10.5 84.5q0 29 10 72t36 92t71 99.5t116 94.5z" />
    <glyph glyph-name="uni066B" unicode="&#x66b;" horiz-adv-x="777" 
d="M234 -87h-167l491 1084h167z" />
    <glyph glyph-name="uni066C" unicode="&#x66c;" horiz-adv-x="519" 
d="M235 -284h-131l103 480h203z" />
    <glyph glyph-name="uni066D" unicode="&#x66d;" horiz-adv-x="965" 
d="M588 783l324 8l12 -24l-272 -185l107 -307l-22 -15l-257 198l-256 -199l-20 15l106 308l-268 182l9 27l325 -8l92 314h27z" />
    <glyph glyph-name="uni064B" unicode="&#x64b;" 
d="M348 1151l-392 -161v122l392 156v-117zM348 1372l-392 -161v122l392 154v-115z" />
    <glyph glyph-name="uni064D" unicode="&#x64d;" 
d="M352 -523l-392 -161v122l392 156v-117zM352 -302l-392 -161v122l392 154v-115z" />
    <glyph glyph-name="uni064E" unicode="&#x64e;" 
d="M394 1188l-392 -161v122l392 156v-117z" />
    <glyph glyph-name="uni064F" unicode="&#x64f;" 
d="M8 976q-7 0 -26 4t-40.5 9.5t-42 11.5t-30.5 10l-3 8q45 14 95 31.5t96.5 36t85.5 37t62 36.5q-83 14 -121 47.5t-38 82.5v3q1 37 17 69.5t41 56.5t56 38t61 14q41 0 69 -32.5t37 -70t9 -67.5q0 -20 -5 -56t-33 -76q-33 -47 -73 -79.5t-80 -55t-76 -36t-61 -22.5z
M116 1360q-3 -8 -3 -16q0 -11 8.5 -25.5t30.5 -29t53 -24t64 -13.5q2 3 2 9q0 5 -2 16.5t-9.5 30.5t-20 37t-27.5 26q-16 9 -25.5 9.5t-12.5 0.5q-11 0 -22.5 -2.5t-21 -8t-14.5 -10.5z" />
    <glyph glyph-name="uni064C" unicode="&#x64c;" 
d="M358 1129l-19 3l-14 1q-26 -37 -62.5 -66t-79.5 -49.5t-89.5 -31t-92.5 -10.5h-17h-8.5t-8.5 1l-3 6q13 29 19.5 59.5t8 48t1.5 26.5q0 12 -2 24t-8 12q-7 0 -23 -4.5t-36.5 -12t-44 -17.5t-44.5 -22l-4 4l21 113q15 9 34 18t37 16.5t33 12.5t23 5h3q19 0 32 -11
t20.5 -29.5t10 -39t2.5 -38.5q0 -3 -0.5 -15t-2.5 -28.5t-3 -22.5h11q16 0 40.5 2.5t54.5 10t59.5 20.5t52.5 32q-51 12 -83.5 26.5t-51.5 31.5t-26 37t-7 43q0 30 14 60.5t38 55t54.5 39.5t62.5 15h4q33 -1 55 -14.5t35 -35.5t18.5 -48.5t6 -41t0.5 -16.5q0 -23 -4.5 -44
t-10.5 -33q11 -2 24 -3l26 -2zM154 1337q-1 -3 -1 -6q0 -6 4.5 -16.5t22.5 -25t50.5 -29.5t84.5 -27q1 3 1 21t-8 39.5t-27.5 41.5t-55.5 28q-10 2 -19 2q-13 0 -30 -5.5t-22 -22.5z" />
    <glyph glyph-name="uni0650" unicode="&#x650;" 
d="M392 -359l-392 -161v122l392 156v-117z" />
    <glyph glyph-name="uni0651" unicode="&#x651;" 
d="M351 1414q3 0 12 -24t18.5 -58.5t15 -69.5t5.5 -59v-15q-14 -63 -49.5 -101t-70.5 -40h-11q-24 0 -41.5 8t-29.5 19q-14 12 -22 29q-22 -38 -51 -54.5t-70 -16.5h-14q-39 2 -61 18.5t-32 41.5t-10.5 41.5t-0.5 18.5q0 28 5 54.5t13 50t15 36.5l30 -13q-9 -38 -9 -64
q0 -1 0.5 -15t8 -30.5t21.5 -23.5t32 -7q24 0 42 12t31.5 32t22 47.5t12.5 59.5l47 4q1 -10 1 -20q0 -15 -2.5 -32.5t-7.5 -45.5q12 -20 29 -28.5t43 -8.5q29 0 52.5 5t37.5 23q0 16 -8 37t-19 41.5t-22 38.5t-16 28z" />
    <glyph glyph-name="uni0652" unicode="&#x652;" 
d="M188 1414q22 0 48.5 -13t50.5 -38.5t41.5 -63.5t19.5 -89v-5q0 -35 -15 -65t-40 -52.5t-54 -34.5t-53 -12q-36 0 -64.5 16t-47.5 41t-29 55.5t-10 59.5q0 47 16.5 84.5t40 63.5t50 39.5t46.5 13.5zM183 1158q51 2 83.5 17t46.5 35q1 1 1 2q0 5 -8.5 17.5t-27.5 27.5
t-46.5 26.5t-61.5 11.5q-13 0 -29.5 -4t-31.5 -12t-25.5 -19.5t-10.5 -27.5q10 -42 37 -58t64 -16h9z" />
    <glyph glyph-name="uni0653" unicode="&#x653;" 
d="M500 1499q-12 -20 -34 -50.5t-52.5 -60t-69 -52t-83.5 -27.5q-18 -2 -36 -3t-36 -1q-72 0 -137 9.5t-111 17.5q-32 -9 -58 -31t-49 -49l-24 16q6 29 18 66t29.5 72.5t40.5 64t51 40.5q38 -6 72.5 -12.5t74 -12t87 -9t112.5 -3.5q34 0 62.5 5t51.5 11.5t41.5 14.5t32.5 14
z" />
    <glyph glyph-name="uni0654" unicode="&#x654;" 
d="M178 1652q50 0 93.5 -24.5t81.5 -90.5l-41 -28q-8 5 -33 14.5t-69 9.5h-16q-29 -2 -54.5 -12t-44.5 -23.5t-29.5 -26t-10.5 -18.5q0 -8 10.5 -20.5t31.5 -25.5t52.5 -24.5t72.5 -17.5q27 4 49 8t40.5 8t35 8t34.5 9l-23 -122q-5 -2 -11 -2.5t-12 -2.5q-57 -11 -105.5 -22
t-95.5 -26.5t-97 -37.5t-110 -56l39 121l84 49q-9 8 -21.5 20t-24 28.5t-20.5 36.5t-11 44v8q0 16 7 37.5t22 46.5t35.5 48.5t44 42t48 30t48.5 11.5z" />
    <glyph glyph-name="uni0655" unicode="&#x655;" 
d="M260 -125q50 0 93.5 -24.5t81.5 -90.5l-41 -28q-8 5 -33 14.5t-69 9.5h-16q-29 -2 -54.5 -12t-44.5 -23.5t-29.5 -26t-10.5 -18.5q0 -8 10.5 -20.5t31.5 -25.5t52.5 -24.5t72.5 -17.5q27 4 49 8t40.5 8t35 8t34.5 9l-23 -122q-5 -2 -11 -2.5t-12 -2.5q-57 -11 -105.5 -22
t-95.5 -26.5t-97 -37.5t-110 -56l39 121l84 49q-9 8 -21.5 20t-24 28.5t-20.5 36.5t-11 44v8q0 16 7 37.5t22 46.5t35.5 48.5t44 42t48 30t48.5 11.5z" />
    <glyph glyph-name="uni0670" unicode="&#x670;" 
d="M21 1003q-4 36 -7.5 79.5t-7.5 88.5t-8 89t-7 80t-5.5 62.5t-3.5 36.5q7 4 26 15t39 22.5t37 20.5t21 9t4 -14q0 -12 -0.5 -39.5t-1.5 -64t-2.5 -78t-3.5 -81.5t-4.5 -76t-5.5 -60q-3 -13 -14.5 -29t-23.5 -29.5t-32 -31.5z" />
    <glyph glyph-name="uni0656" unicode="&#x656;" 
d="M7 -708q-4 36 -7.5 79.5t-7.5 88.5t-8 89t-7 80t-5.5 62.5t-3.5 36.5q7 4 26 15t39 22.5t37 20.5t21 9t4 -14q0 -12 -0.5 -39.5t-1.5 -64t-2.5 -78t-3.5 -81.5t-4.5 -76t-5.5 -60q-3 -13 -14.5 -29t-23.5 -29.5t-32 -31.5z" />
    <glyph glyph-name="uni0615" unicode="&#x615;" 
d="M-259 861q1 4 6 4q2 0 5 -1q17 -3 37.5 -6.5t41.5 -6t40.5 -4.5t33.5 -2l27 29q11 25 16.5 59.5t5.5 63.5q-2 55 -6 112.5t-9 109t-9.5 93.5t-6.5 65q5 5 20.5 18.5t32.5 27t31 24t16 10.5t2.5 -3t1.5 -14q1 -12 1.5 -52.5t0.5 -91.5q0 -52 -0.5 -105.5t-1.5 -90.5
q0 -9 -1 -26t-4 -38t-9 -44t-16 -42q29 37 66.5 77t77.5 73t80.5 54t76.5 21q41 0 68.5 -14t44.5 -36t25 -49t9.5 -47t1.5 -32t-1.5 -28.5t-4.5 -29.5l-21 -51q-9 -21 -18 -39t-17 -35q-12 -14 -37 -29t-60.5 -27t-81 -20t-99.5 -9q-26 0 -62.5 0.5t-74.5 2t-73.5 4
t-59.5 6.5q-15 8 -32 28t-31 40q-17 24 -33 51zM388 929q4 15 5 27t1 15q0 19 -9 37.5t-31 31.5t-61 13h-6q-57 -2 -108 -28t-93 -60t-73.5 -69t-48.5 -54q26 -1 49.5 -2t41.5 -1q23 0 52 1q44 0 87 5t80.5 15.5t67 27.5t46.5 41z" />
    <glyph glyph-name="wasla" 
d="M354 1399q-5 -28 -25.5 -54t-45.5 -53q-21 -14 -40.5 -20.5t-36 -9t-29.5 -2.5q-2 0 -11 0.5t-21 0.5q-33 3 -65.5 13t-61.5 21t-52 19.5t-36 8.5q-8 0 -19.5 -6t-24 -15.5t-25.5 -21t-23 -21.5l-37 30q54 66 93.5 101t59.5 36l53 -17q61 74 117 114.5t93 40.5h2
q14 0 37 -14.5t44.5 -38t37.5 -53t16 -59.5zM301 1396q-9 16 -22 30.5t-27 25t-27 15.5t-23 5h-3q-31 -3 -65 -26.5t-79 -55.5q10 -5 39.5 -12.5t54 -9.5t37.5 -2q24 0 55.5 4.5t59.5 25.5z" />
    <glyph glyph-name="beh_dotless_alt.init" horiz-adv-x="755" 
d="M528 879q5 0 21 -30t35 -83.5t36 -126.5t22 -137t5 -107q0 -47 -5.5 -119.5t-36.5 -170.5q-20 -18 -57 -33t-85 -26.5t-103.5 -20t-111.5 -14t-109.5 -8.5t-97.5 -3h-61v249h57q51 0 107.5 2.5t111 6.5t105 9t89 10.5t62.5 11t27 10.5q-6 31 -26 78t-45.5 96.5t-51 94.5
t-41.5 72z" />
    <glyph glyph-name="beh_dotless_alt.medi" horiz-adv-x="897" 
d="M539 698l4 -17q3 -18 8 -47t10.5 -67.5t10 -80.5t6.5 -79.5t2 -65.5v-23q16 -19 52.5 -32t82.5 -21.5t94.5 -12t87.5 -3.5h20v-249h-20q-49 0 -106.5 13t-112 35t-99 52t-66.5 63q-18 -22 -49.5 -42.5t-71 -38.5t-85.5 -33.5t-92.5 -26t-92 -16.5t-84.5 -6h-58v249h25
q35 0 79.5 1.5t91 5t91.5 9.5t82 15.5t62 23t31 31.5q-14 61 -28.5 109t-31.5 104z" />
    <glyph glyph-name="onedot.below" 
d="M0 -532l-172 172l172 172l172 -172z" />
    <glyph glyph-name="twodots.below" 
d="M180 -487l-160 160l160 160l160 -160zM-180 -487l-160 160l160 160l160 -160z" />
    <glyph glyph-name="alef_alt.isol" horiz-adv-x="571" 
d="M381 1542q7 0 8 -11.5t1 -19.5q4 -169 4 -333t-3 -328.5t-10 -332t-18 -342.5l-8 -11q-8 -12 -22 -32l-31.5 -45t-33.5 -47.5t-29.5 -39.5t-18.5 -22h-1q-1 0 -2.5 1.5t-1.5 6.5q-2 127 -4 230t-4.5 189.5t-5.5 161.5t-6.5 146t-7.5 142t-8.5 150.5t-10 171.5t-11.5 205
q7 8 25.5 22.5t42 32.5t49 36.5t48 34t38.5 25t21 9.5z" />
    <glyph glyph-name="alef_alt.fina" horiz-adv-x="596" 
d="M359 1551q6 -1 7 -12.5t2 -18.5q9 -163 13 -289t5.5 -228.5t1.5 -187.5t0.5 -167t2.5 -167.5t8 -187.5q37 -22 75 -33t83 -11h59v-249h-54q-90 0 -154.5 22t-107 63.5t-63.5 101t-23 134.5q-2 78 -6 151.5t-9 149t-11.5 156.5t-13.5 173q-9 109 -18.5 220.5t-20.5 223.5
q7 8 25.5 22.5t42 32t49 35.5t48 32.5t38.5 24t21 9.5z" />
    <glyph glyph-name="uni06D5" unicode="&#x6d5;" horiz-adv-x="878" 
d="M447 207q37 0 84 2t91 11.5t80 28t52 51.5q-1 37 -26 72t-64 66.5t-87 58.5t-95 48.5t-88.5 36.5t-67.5 22q-51 -98 -63.5 -154t-12.5 -87t12.5 -68.5t60 -62.5t124.5 -25zM388 871q6 0 40.5 -16t81.5 -47t100.5 -75.5t98.5 -102.5t74.5 -127.5t29.5 -149.5
q-21 -184 -115 -276t-258 -92q-70 0 -129.5 23.5t-100 69t-54.5 98.5t-14 99q0 33 5 70q7 45 23.5 98t38 107.5t47 107t50 96t46 74.5t36.5 43z" />
    <glyph glyph-name="heh_ae.fina" horiz-adv-x="1045" 
d="M612 720l-124 -62t-115.5 -60t-94 -55.5t-60.5 -49.5q1 -29 34.5 -48t94 -31t145 -19t186.5 -12zM807 737q8 -74 16 -140t15.5 -118t13.5 -86.5t9 -46.5q4 -18 16 -35.5t33.5 -31t54 -22t78.5 -8.5h22v-249h-44q-82 0 -137 26.5t-91 67t-57 89t-35 93.5l-121 -125
q-2 0 -5 -0.5t-8 -0.5q-19 0 -60.5 3.5t-93 11.5t-108 20t-105.5 30q-12 15 -22.5 44t-18.5 64.5t-13 73.5t-5.5 58.5t-0.5 26.5q0 27 4 51.5t15 37.5q27 31 80 71.5t115 82t123.5 80.5t106.5 69l-15 79l195 173z" />
    <glyph glyph-name="uni06C2" unicode="&#x6c2;" horiz-adv-x="878" 
d="M447 207q37 0 84 2t91 11.5t80 28t52 51.5q-1 37 -26 72t-64 66.5t-87 58.5t-95 48.5t-88.5 36.5t-67.5 22q-51 -98 -63.5 -154t-12.5 -87t12.5 -68.5t60 -62.5t124.5 -25zM388 871q6 0 40.5 -16t81.5 -47t100.5 -75.5t98.5 -102.5t74.5 -127.5t29.5 -149.5
q-21 -184 -115 -276t-258 -92q-70 0 -129.5 23.5t-100 69t-54.5 98.5t-14 99q0 33 5 70q7 45 23.5 98t38 107.5t47 107t50 96t46 74.5t36.5 43zM437 1446q50 0 93.5 -24.5t81.5 -90.5l-41 -28q-8 5 -33 14.5t-69 9.5h-16q-29 -2 -54.5 -12t-44.5 -23.5t-29.5 -26
t-10.5 -18.5q0 -8 10.5 -20.5t31.5 -25.5t52.5 -24.5t72.5 -17.5q27 4 49 8t40.5 8t35 8t34.5 9l-23 -122q-5 -2 -11 -2.5t-12 -2.5q-57 -11 -105.5 -22t-95.5 -26.5t-97 -37.5t-110 -56l39 121l84 49q-9 8 -21.5 20t-24 28.5t-20.5 36.5t-11 44v8q0 16 7 37.5t22 46.5
t35.5 48.5t44 42t48 30t48.5 11.5z" />
    <glyph glyph-name="uni06C3" unicode="&#x6c3;" horiz-adv-x="878" 
d="M447 207q37 0 84 2t91 11.5t80 28t52 51.5q-1 37 -26 72t-64 66.5t-87 58.5t-95 48.5t-88.5 36.5t-67.5 22q-51 -98 -63.5 -154t-12.5 -87t12.5 -68.5t60 -62.5t124.5 -25zM388 871q6 0 40.5 -16t81.5 -47t100.5 -75.5t98.5 -102.5t74.5 -127.5t29.5 -149.5
q-21 -184 -115 -276t-258 -92q-70 0 -129.5 23.5t-100 69t-54.5 98.5t-14 99q0 33 5 70q7 45 23.5 98t38 107.5t47 107t50 96t46 74.5t36.5 43zM623 951l-160 160l160 160l160 -160zM263 951l-160 160l160 160l160 -160z" />
    <glyph glyph-name="uni06F0" unicode="&#x6f0;" horiz-adv-x="861" 
d="M429 398q27 0 50 10t40.5 27.5t27.5 41t10 49.5t-10 49.5t-27.5 41t-40.5 27.5t-50 10q-26 0 -49.5 -10t-41 -27.5t-27.5 -41t-10 -49.5t10 -49.5t27.5 -41t41 -27.5t49.5 -10zM429 816q60 0 113 -23t92 -62t62 -92t23 -113t-23 -113t-62 -92t-92 -62t-113 -23t-113 23
t-92 62t-62 92t-23 113t23 113t62 92t92 62t113 23z" />
    <glyph glyph-name="uni06F1" unicode="&#x6f1;" horiz-adv-x="762" 
d="M347 1467q1 -1 16 -35t37 -95.5t48 -147t50 -189.5t42.5 -223.5t23.5 -213.5t5 -155q0 -70 -6 -173t-35 -237l-102 -23q1 38 1 75q0 143 -14 288t-41 281.5t-61.5 247.5t-67.5 195.5t-61.5 142t-42.5 86.5z" />
    <glyph glyph-name="uni06F2" unicode="&#x6f2;" horiz-adv-x="1149" 
d="M340 1466q2 -1 20.5 -45t45.5 -123q25 -69 51.5 -113.5t61 -71t80.5 -37t110 -10.5q68 0 114.5 25t75 70t40.5 107t12 136l96 33q4 -41 4 -84q0 -29 -3 -80t-19 -119.5t-43.5 -129.5t-68.5 -107t-96 -72.5t-125 -26.5q-46 0 -78 2.5t-52 5.5t-30 6t-13 4
q16 -94 26.5 -195.5t11.5 -162t1 -75.5q0 -92 -9 -194.5t-33 -211.5l-102 -23q1 38 1 75q0 143 -14 288t-41 281.5t-61.5 247.5t-67.5 195.5t-61.5 142t-42.5 86.5z" />
    <glyph glyph-name="uni06F3" unicode="&#x6f3;" horiz-adv-x="1439" 
d="M328 1461q2 -1 21 -45t46 -123q25 -69 44.5 -113.5t44 -71t58 -37t87.5 -10.5q68 0 110.5 25.5t66.5 71t32.5 108t8.5 136.5l93 32q4 -53 4 -108q0 -22 -1.5 -73t-17.5 -124q18 -35 51.5 -51.5t87.5 -16.5q55 0 89.5 25.5t54 70.5t27 107.5t7.5 136.5l93 34q6 -64 6 -131
q0 -5 -0.5 -44.5t-9.5 -108.5t-28.5 -130.5t-51.5 -107.5t-78 -73t-109 -27q-52 0 -88 20t-59.5 46t-35 50.5t-14.5 33.5q-38 -68 -98.5 -109t-148.5 -41q-42 0 -72.5 8t-35.5 10q16 -94 26.5 -195.5t11.5 -162t1 -75.5q0 -92 -9 -194.5t-33 -211.5l-102 -23q1 38 1 75
q0 143 -14 288t-41 281.5t-61.5 247.5t-67.5 195.5t-61.5 142t-42.5 86.5z" />
    <glyph glyph-name="uni06F9" unicode="&#x6f9;" horiz-adv-x="1089" 
d="M453 962q44 0 80.5 2.5t64.5 6.5q32 4 59 10q-3 17 -10 45t-20 60t-32 64.5t-46.5 59t-64 43t-83.5 16.5q-38 0 -69.5 -13.5t-55.5 -34.5t-41.5 -46.5t-29 -50.5t-17.5 -45.5t-7 -31.5q7 -23 30.5 -39t59.5 -26.5t82.5 -15t99.5 -4.5zM440 1514q71 -5 122.5 -43.5t87 -98
t58 -133.5t35.5 -149.5t19 -146t9 -123.5q10 -121 32 -217.5t51.5 -170t63.5 -126t68 -85.5l-101 -251q-65 63 -108.5 155t-69.5 195.5t-37.5 208.5t-12.5 195q-21 -8 -52 -14q-26 -5 -66 -9.5t-95 -4.5q-64 0 -124 22.5t-105 68t-67.5 108.5t-22.5 135q0 18 1 36q0 32 8 78
t24.5 95.5t42 98.5t60.5 88.5t79.5 63.5t99.5 24z" />
    <glyph glyph-name="uni06F7" unicode="&#x6f7;" horiz-adv-x="1313" 
d="M1252 1304q-21 -25 -66 -81.5t-101.5 -141.5t-118 -197t-114.5 -248.5t-91 -296t-49 -338.5h-109q-11 179 -49.5 338.5t-91.5 296t-114 248.5t-117.5 197t-102 141.5t-66.5 81.5l158 225q89 -103 171 -246q35 -61 72 -137.5t72 -168t66.5 -197.5t55.5 -226
q24 120 55.5 226t66.5 197.5t72.5 168t72.5 137.5q82 143 171 246z" />
    <glyph glyph-name="uni06F8" unicode="&#x6f8;" horiz-adv-x="1313" 
d="M710 1492q11 -179 49.5 -338.5t91.5 -296t114 -249t117.5 -197.5t101.5 -141.5t66 -81.5l-157 -224q-89 103 -171 246q-35 61 -72.5 137.5t-72.5 167.5t-66.5 197t-55.5 227q-24 -121 -55.5 -227t-66.5 -197t-72 -167.5t-72 -137.5q-82 -143 -171 -246l-158 224
q21 25 66.5 81.5t102 141.5t117.5 197.5t114 249t91.5 296t49.5 338.5h109z" />
    <glyph glyph-name="uni06F4.urdu" horiz-adv-x="1171" 
d="M986 1098q-17 -18 -45 -47t-61 -67.5t-67 -86.5t-62 -105l-109 -49q-17 47 -36 101t-44.5 109t-59 107.5t-79.5 97.5l-77 -216q48 -71 87 -153t69 -168t51.5 -172.5t35 -167t20 -152.5t6.5 -129l-87 -20q-7 53 -26.5 128.5t-48 162t-64 179.5t-74 182.5t-78 169
t-76.5 140.5q0 1 6 17.5t16 42.5l22.5 58.5t25.5 66.5q31 79 69 180q22 9 49 15.5t55 12.5t55 11t50 10q69 -61 117 -134t88 -156q25 37 64.5 84.5t82.5 95t85.5 89t74.5 65.5z" />
    <glyph glyph-name="uni06F7.urdu" horiz-adv-x="1018" 
d="M813 1334q5 0 7.5 -13t2.5 -33t-1 -45t-3 -49q-1 -15 -3 -35t-4.5 -41.5t-5 -43.5t-5.5 -40l-249 -304q-101 -116 -165.5 -201t-101.5 -140.5t-49.5 -81t-12.5 -28.5v-1q30 -9 65.5 -17.5t79.5 -14.5t97 -10t118 -4q75 0 165.5 6t203.5 20q-5 -12 -12.5 -30.5t-15.5 -37
t-15.5 -36t-13.5 -27.5q-19 -36 -41 -70t-41 -47q-6 -4 -23.5 -6.5t-43 -4t-59 -2.5t-70.5 -1q-72 0 -152 2.5t-150 6.5t-119.5 9t-59.5 10q-17 81 -17 157q0 70 21.5 172.5t95.5 237.5q14 26 46 72t75 103t93 121t100.5 127t97.5 121t83.5 102t58.5 70t23 26v1z" />
    <glyph glyph-name="Ghunna_above" 
d="M294.873 1392.06q1.39648 0 2.79199 -3.25977q11.168 -27.0107 19.7764 -55.8838q8.60938 -28.873 14.6582 -57.0479t10.0049 -54.2539q3.95508 -26.0791 6.28223 -47.502q2.32617 -21.4219 3.25684 -36.79t0.930664 -22.3535q0 -69.8545 -20.0098 -125.738
q-20.0088 -55.8838 -59.5625 -95.002q-39.5527 -39.1191 -98.1846 -60.0752q-58.6318 -20.957 -135.877 -20.957q-57.7012 0 -105.165 14.6699q-47.4639 14.6689 -81.2002 44.4736q-33.7373 29.8047 -52.3506 75.2109q-18.6133 45.4053 -18.6133 106.877
q0 56.3496 16.2871 124.808t52.582 152.283l41.8809 -22.8193q-8.37695 -25.1475 -16.9854 -52.1582q-8.6084 -27.0098 -15.5889 -54.4863q-6.97949 -27.4766 -11.168 -54.7197q-4.1875 -27.2432 -4.1875 -52.3906q0 -33.5303 9.07422 -62.4043
q9.07422 -28.873 30.9443 -50.2949t58.3994 -33.7637q36.5283 -12.3408 91.9023 -12.3408q57.2363 0 100.978 9.08105t75.3838 27.9424q31.6426 18.8604 52.3496 47.7344q20.707 28.873 31.875 68.9229q-7.91016 26.0791 -17.2168 52.3906
q-9.30664 26.3125 -19.0781 52.1582q-9.77246 25.8467 -19.3115 50.5283q-9.54004 24.6826 -17.4502 47.9668q8.37598 13.9717 18.6133 29.1064q10.2373 15.1357 19.7764 28.4082q9.54004 13.2725 17.4502 23.5176t11.6328 14.4365q3.72266 3.72559 5.11914 3.72559z
M40 1150q-4 36 -7.5 79.5t-7.5 88.5t-8 89t-7 80t-5.5 62.5t-3.5 36.5q7 4 26 15t39 22.5t37 20.5t21 9t4 -14q0 -12 -0.5 -39.5t-1.5 -64t-2.5 -78t-3.5 -81.5t-4.5 -76t-5.5 -60q-3 -13 -14.5 -29t-23.5 -29.5t-32 -31.5z" />
    <glyph glyph-name="uni0651064B" 
d="M351 1414q3 0 12 -24t18.5 -58.5t15 -69.5t5.5 -59v-15q-14 -63 -49.5 -101t-70.5 -40h-11q-24 0 -41.5 8t-29.5 19q-14 12 -22 29q-22 -38 -51 -54.5t-70 -16.5h-14q-39 2 -61 18.5t-32 41.5t-10.5 41.5t-0.5 18.5q0 28 5 54.5t13 50t15 36.5l30 -13q-9 -38 -9 -64
q0 -1 0.5 -15t8 -30.5t21.5 -23.5t32 -7q24 0 42 12t31.5 32t22 47.5t12.5 59.5l47 4q1 -10 1 -20q0 -15 -2.5 -32.5t-7.5 -45.5q12 -20 29 -28.5t43 -8.5q29 0 52.5 5t37.5 23q0 16 -8 37t-19 41.5t-22 38.5t-16 28zM360 1564l-392 -161v122l392 156v-117zM360 1785
l-392 -161v122l392 154v-115z" />
    <glyph glyph-name="uni0654064B" 
d="M311 1824l-392 -161v122l392 156v-117zM311 2045l-392 -161v122l392 154v-115zM178 1652q50 0 93.5 -24.5t81.5 -90.5l-41 -28q-8 5 -33 14.5t-69 9.5h-16q-29 -2 -54.5 -12t-44.5 -23.5t-29.5 -26t-10.5 -18.5q0 -8 10.5 -20.5t31.5 -25.5t52.5 -24.5t72.5 -17.5
q27 4 49 8t40.5 8t35 8t34.5 9l-23 -122q-5 -2 -11 -2.5t-12 -2.5q-57 -11 -105.5 -22t-95.5 -26.5t-97 -37.5t-110 -56l39 121l84 49q-9 8 -21.5 20t-24 28.5t-20.5 36.5t-11 44v8q0 16 7 37.5t22 46.5t35.5 48.5t44 42t48 30t48.5 11.5z" />
    <glyph glyph-name="uni0654064E" 
d="M322 1824l-392 -161v122l392 156v-117zM178 1652q50 0 93.5 -24.5t81.5 -90.5l-41 -28q-8 5 -33 14.5t-69 9.5h-16q-29 -2 -54.5 -12t-44.5 -23.5t-29.5 -26t-10.5 -18.5q0 -8 10.5 -20.5t31.5 -25.5t52.5 -24.5t72.5 -17.5q27 4 49 8t40.5 8t35 8t34.5 9l-23 -122
q-5 -2 -11 -2.5t-12 -2.5q-57 -11 -105.5 -22t-95.5 -26.5t-97 -37.5t-110 -56l39 121l84 49q-9 8 -21.5 20t-24 28.5t-20.5 36.5t-11 44v8q0 16 7 37.5t22 46.5t35.5 48.5t44 42t48 30t48.5 11.5z" />
    <glyph glyph-name="uni0654064C" 
d="M356 1879l-19 3l-14 1q-26 -37 -62.5 -66t-79.5 -49.5t-89.5 -31t-92.5 -10.5h-17h-8.5t-8.5 1l-3 6q13 29 19.5 59.5t8 48t1.5 26.5q0 12 -2 24t-8 12q-7 0 -23 -4.5t-36.5 -12t-44 -17.5t-44.5 -22l-4 4l21 113q15 9 34 18t37 16.5t33 12.5t23 5h3q19 0 32 -11
t20.5 -29.5t10 -39t2.5 -38.5q0 -3 -0.5 -15t-2.5 -28.5t-3 -22.5h11q16 0 40.5 2.5t54.5 10t59.5 20.5t52.5 32q-51 12 -83.5 26.5t-51.5 31.5t-26 37t-7 43q0 30 14 60.5t38 55t54.5 39.5t62.5 15h4q33 -1 55 -14.5t35 -35.5t18.5 -48.5t6 -41t0.5 -16.5q0 -23 -4.5 -44
t-10.5 -33q11 -2 24 -3l26 -2zM152 2087q-1 -3 -1 -6q0 -6 4.5 -16.5t22.5 -25t50.5 -29.5t84.5 -27q1 3 1 21t-8 39.5t-27.5 41.5t-55.5 28q-10 2 -19 2q-13 0 -30 -5.5t-22 -22.5zM178 1652q50 0 93.5 -24.5t81.5 -90.5l-41 -28q-8 5 -33 14.5t-69 9.5h-16
q-29 -2 -54.5 -12t-44.5 -23.5t-29.5 -26t-10.5 -18.5q0 -8 10.5 -20.5t31.5 -25.5t52.5 -24.5t72.5 -17.5q27 4 49 8t40.5 8t35 8t34.5 9l-23 -122q-5 -2 -11 -2.5t-12 -2.5q-57 -11 -105.5 -22t-95.5 -26.5t-97 -37.5t-110 -56l39 121l84 49q-9 8 -21.5 20t-24 28.5
t-20.5 36.5t-11 44v8q0 16 7 37.5t22 46.5t35.5 48.5t44 42t48 30t48.5 11.5z" />
    <glyph glyph-name="uni0654064F" 
d="M13 1717q-7 0 -26 4t-40.5 9.5t-42 11.5t-30.5 10l-3 8q45 14 95 31.5t96.5 36t85.5 37t62 36.5q-83 14 -121 47.5t-38 82.5v3q1 37 17 69.5t41 56.5t56 38t61 14q41 0 69 -32.5t37 -70t9 -67.5q0 -20 -5 -56t-33 -76q-33 -47 -73 -79.5t-80 -55t-76 -36t-61 -22.5z
M121 2101q-3 -8 -3 -16q0 -11 8.5 -25.5t30.5 -29t53 -24t64 -13.5q2 3 2 9q0 5 -2 16.5t-9.5 30.5t-20 37t-27.5 26q-16 9 -25.5 9.5t-12.5 0.5q-11 0 -22.5 -2.5t-21 -8t-14.5 -10.5zM178 1652q50 0 93.5 -24.5t81.5 -90.5l-41 -28q-8 5 -33 14.5t-69 9.5h-16
q-29 -2 -54.5 -12t-44.5 -23.5t-29.5 -26t-10.5 -18.5q0 -8 10.5 -20.5t31.5 -25.5t52.5 -24.5t72.5 -17.5q27 4 49 8t40.5 8t35 8t34.5 9l-23 -122q-5 -2 -11 -2.5t-12 -2.5q-57 -11 -105.5 -22t-95.5 -26.5t-97 -37.5t-110 -56l39 121l84 49q-9 8 -21.5 20t-24 28.5
t-20.5 36.5t-11 44v8q0 16 7 37.5t22 46.5t35.5 48.5t44 42t48 30t48.5 11.5z" />
    <glyph glyph-name="uni06540652" 
d="M159 2114q22 0 48.5 -13t50.5 -38.5t41.5 -63.5t19.5 -89v-5q0 -35 -15 -65t-40 -52.5t-54 -34.5t-53 -12q-36 0 -64.5 16t-47.5 41t-29 55.5t-10 59.5q0 47 16.5 84.5t40 63.5t50 39.5t46.5 13.5zM154 1858q51 2 83.5 17t46.5 35q1 1 1 2q0 5 -8.5 17.5t-27.5 27.5
t-46.5 26.5t-61.5 11.5q-13 0 -29.5 -4t-31.5 -12t-25.5 -19.5t-10.5 -27.5q10 -42 37 -58t64 -16h9zM178 1652q50 0 93.5 -24.5t81.5 -90.5l-41 -28q-8 5 -33 14.5t-69 9.5h-16q-29 -2 -54.5 -12t-44.5 -23.5t-29.5 -26t-10.5 -18.5q0 -8 10.5 -20.5t31.5 -25.5t52.5 -24.5
t72.5 -17.5q27 4 49 8t40.5 8t35 8t34.5 9l-23 -122q-5 -2 -11 -2.5t-12 -2.5q-57 -11 -105.5 -22t-95.5 -26.5t-97 -37.5t-110 -56l39 121l84 49q-9 8 -21.5 20t-24 28.5t-20.5 36.5t-11 44v8q0 16 7 37.5t22 46.5t35.5 48.5t44 42t48 30t48.5 11.5z" />
    <glyph glyph-name="uni0655064D" 
d="M415 -945l-392 -161v122l392 156v-117zM415 -724l-392 -161v122l392 154v-115zM260 -125q50 0 93.5 -24.5t81.5 -90.5l-41 -28q-8 5 -33 14.5t-69 9.5h-16q-29 -2 -54.5 -12t-44.5 -23.5t-29.5 -26t-10.5 -18.5q0 -8 10.5 -20.5t31.5 -25.5t52.5 -24.5t72.5 -17.5
q27 4 49 8t40.5 8t35 8t34.5 9l-23 -122q-5 -2 -11 -2.5t-12 -2.5q-57 -11 -105.5 -22t-95.5 -26.5t-97 -37.5t-110 -56l39 121l84 49q-9 8 -21.5 20t-24 28.5t-20.5 36.5t-11 44v8q0 16 7 37.5t22 46.5t35.5 48.5t44 42t48 30t48.5 11.5z" />
    <glyph glyph-name="uni06550650" 
d="M421 -739l-392 -161v122l392 156v-117zM260 -125q50 0 93.5 -24.5t81.5 -90.5l-41 -28q-8 5 -33 14.5t-69 9.5h-16q-29 -2 -54.5 -12t-44.5 -23.5t-29.5 -26t-10.5 -18.5q0 -8 10.5 -20.5t31.5 -25.5t52.5 -24.5t72.5 -17.5q27 4 49 8t40.5 8t35 8t34.5 9l-23 -122
q-5 -2 -11 -2.5t-12 -2.5q-57 -11 -105.5 -22t-95.5 -26.5t-97 -37.5t-110 -56l39 121l84 49q-9 8 -21.5 20t-24 28.5t-20.5 36.5t-11 44v8q0 16 7 37.5t22 46.5t35.5 48.5t44 42t48 30t48.5 11.5z" />
    <glyph glyph-name="uni060D" unicode="&#x60d;" horiz-adv-x="662" 
d="M546 209q-143 -142 -241.5 -286.5t-142.5 -307.5q-21 22 -33 40q-13 17 -23 33.5t-11 27.5q12 53 44 125.5t83 156t121.5 175t159.5 181.5z" />
    <glyph glyph-name="uniFD3E" unicode="&#xfd3e;" horiz-adv-x="616" 
d="M68 561q0 266 77 496t224 405h194q-141 -194 -213 -424t-72 -475q0 -237 72 -468q74 -232 211 -419h-192q-148 171 -224.5 396.5t-76.5 488.5z" />
    <glyph glyph-name="uniFD3F" unicode="&#xfd3f;" horiz-adv-x="616" 
d="M563 561q0 -263 -76.5 -488.5t-224.5 -396.5h-192q137 187 211 419q72 231 72 468q0 245 -72 475t-213 424h194q147 -175 224 -405t77 -496z" />
    <glyph glyph-name="hah_alt.isol" horiz-adv-x="1506" 
d="M475 918q43 0 97 -15.5t120 -40.5t144 -56t169.5 -62t196.5 -59t225 -46l-91 -229q-92 -16 -198 -40t-213.5 -56t-212 -72.5t-193.5 -90.5t-157.5 -110t-103.5 -131q45 -103 118 -173.5t162 -114t187.5 -63t194.5 -19.5q78 0 150.5 6t137 16.5t118.5 23t94 26.5v-2
l-82 -225q-22 -16 -67.5 -32.5t-104.5 -30t-127 -22t-135 -8.5q-92 0 -184 16t-176.5 48.5t-158 82.5t-127.5 117.5t-85 154t-31 192.5q0 47 14.5 102.5t51 114.5t98.5 118t158 113.5t229.5 101.5t311.5 82q-58 16 -123.5 34.5t-129.5 36.5t-123.5 34.5t-105.5 29.5
t-75.5 20.5t-33.5 7.5q-12 0 -29.5 -14t-37 -35.5t-39 -48.5t-35.5 -54l-94 61q35 61 66.5 116.5t65 98.5t71.5 69t86 27h7z" />
    <glyph glyph-name="hah_alt.fina" horiz-adv-x="1494" 
d="M475 918q43 0 97 -15.5t120 -40.5t144 -56t169.5 -62t196.5 -59t225 -46l-91 -229l-147 -30q10 -30 40 -54t67 -41.5t75 -26.5t65 -9h68v-249h-68q-75 0 -144.5 18t-123 58.5t-87.5 106.5t-38 162q-171 -44 -301 -92t-225.5 -102t-158.5 -114t-100 -127
q45 -103 118 -173.5t162 -114t187.5 -63t194.5 -19.5q78 0 150.5 6t137 16.5t118.5 23t94 26.5v-2l-82 -225q-22 -16 -67.5 -32.5t-104.5 -30t-127 -22t-135 -8.5q-92 0 -184 16t-176.5 48.5t-158 82.5t-127.5 117.5t-85 154t-31 192.5q0 47 14.5 102.5t51 114.5t98.5 118
t158 113.5t229.5 101.5t311.5 82q-58 16 -123.5 34.5t-129.5 36.5t-123.5 34.5t-105.5 29.5t-75.5 20.5t-33.5 7.5q-12 0 -29.5 -14t-37 -35.5t-39 -48.5t-35.5 -54l-94 61q35 61 66.5 116.5t65 98.5t71.5 69t86 27h7z" />
    <glyph glyph-name="diagonal" horiz-adv-x="1013" 
d="M927 1587l-852 -369l45 168l838 362z" />
    <glyph glyph-name="uni200B" unicode="&#x200b;" 
 />
    <glyph glyph-name="exclam" unicode="!" horiz-adv-x="549" 
d="M449 146l-163 -162l-165 163l164 165zM411 1028q-11 -68 -24 -148q-16 -103 -29 -189q-36 -236 -39 -290h-69q-3 45 -37 276q-11 79 -29 191q-5 33 -13 87l-3 20l-3 19q-3 20 -5 34v536h251v-536z" />
    <glyph glyph-name="quotedbl" unicode="&#x22;" horiz-adv-x="664" 
d="M275 1399l-35 -387h-139v524h174v-137zM576 1399l-35 -387h-139v524h174v-137z" />
    <glyph glyph-name="numbersign" unicode="#" horiz-adv-x="1250" 
d="M719 410h-224l-76 -410h-168l76 410h-231v158h261l58 313h-243v159h273l78 416h167l-78 -416h225l78 416h167l-78 -416h208v-159h-238l-58 -313h221v-158h-251l-76 -410h-167zM525 568h224l58 313h-224z" />
    <glyph glyph-name="dollar" unicode="$" horiz-adv-x="1164" 
d="M819 380q0 85 -54 140.5t-180 100t-196 82.5q-233 125 -233 370q0 166 101 273t274 127v218h160v-220q174 -25 269 -147.5t95 -318.5h-242q0 126 -56.5 198.5t-153.5 72.5q-96 0 -150 -52t-54 -149q0 -87 53.5 -139.5t181.5 -99.5t201 -87t123 -91.5t77 -118.5t27 -157
q0 -169 -103.5 -274t-288.5 -124v-195h-159v194q-198 22 -304.5 142t-106.5 318h243q0 -126 63.5 -195t179.5 -69q114 0 173.5 55t59.5 146z" />
    <glyph glyph-name="percent" unicode="%" horiz-adv-x="1504" 
d="M99 1176q0 132 85 216.5t223 84.5q140 0 224.5 -84.5t84.5 -221.5v-72q0 -131 -84.5 -215t-222.5 -84q-135 0 -222.5 82.5t-87.5 222.5v71zM269 1099q0 -69 38.5 -111.5t101.5 -42.5q62 0 100 42.5t38 115.5v73q0 69 -38.5 112t-101.5 43t-100.5 -43.5t-37.5 -114.5v-74z
M799 357q0 134 87 217t222 83q136 0 222.5 -83t86.5 -224v-71q0 -130 -83.5 -214.5t-223.5 -84.5t-225.5 83.5t-85.5 220.5v73zM969 279q0 -68 39.5 -111.5t101.5 -43.5q64 0 100.5 41.5t36.5 116.5v75q0 70 -39 112t-100 42q-62 0 -100.5 -42t-38.5 -116v-74zM459 109
l-125 72l711 1138l125 -72z" />
    <glyph glyph-name="ampersand" unicode="&#x26;" horiz-adv-x="1309" 
d="M86 393q0 101 55 185.5t217 200.5q-85 107 -118.5 182t-33.5 145q0 171 104 270.5t280 99.5q159 0 260.5 -93.5t101.5 -231.5q0 -91 -46 -167.5t-151 -152.5l-99 -72l281 -332q61 120 61 267h211q0 -269 -126 -441l214 -253h-282l-82 97q-156 -117 -372 -117
t-345.5 114.5t-129.5 298.5zM568 174q123 0 230 82l-318 375l-31 -22q-120 -91 -120 -208q0 -101 65 -164t174 -63zM434 1112q0 -84 103 -211l111 76l31 25q62 55 62 141q0 57 -43 97.5t-109 40.5q-71 0 -113 -48t-42 -121z" />
    <glyph glyph-name="quotesingle" unicode="'" horiz-adv-x="346" 
d="M267 1411l-26 -391h-159v516h185v-125z" />
    <glyph glyph-name="parenleft" unicode="(" horiz-adv-x="722" 
d="M128 592q0 231 62 438.5t182 371t254 229.5l48 -142q-141 -107 -228.5 -326.5t-95.5 -502.5l-1 -86q0 -303 85.5 -540.5t239.5 -361.5l-48 -135q-134 66 -254.5 230.5t-182 371t-61.5 453.5z" />
    <glyph glyph-name="parenright" unicode=")" horiz-adv-x="722" 
d="M633 576q0 -222 -61 -428.5t-185 -376t-259 -234.5l-48 135q150 116 237.5 354.5t87.5 544.5v23q0 278 -76 506.5t-218 366.5l-31 28l48 136q128 -62 248 -220t184 -353.5t72 -403.5z" />
    <glyph glyph-name="asterisk" unicode="*" horiz-adv-x="905" 
d="M332 972l-305 88l55 169l302 -117l-15 344h179l-15 -350l297 115l54 -172l-310 -88l200 -266l-145 -106l-180 288l-178 -279l-146 102z" />
    <glyph glyph-name="plus" unicode="+" horiz-adv-x="1141" 
d="M686 801h380v-222h-380v-433h-236v433h-382v222h382v405h236v-405z" />
    <glyph glyph-name="comma" unicode="," horiz-adv-x="450" 
d="M159 -328l-131 78q58 91 79.5 158.5t22.5 137.5v189h219l-1 -175q-1 -106 -53.5 -212.5t-135.5 -175.5z" />
    <glyph glyph-name="hyphen" unicode="-" horiz-adv-x="672" 
d="M596 521h-525v196h525v-196z" />
    <glyph glyph-name="period" unicode="." horiz-adv-x="583" 
d="M276 256q68 0 105 -38.5t37 -96.5q0 -57 -37 -94.5t-105 -37.5q-65 0 -103 37t-38 95t37 96.5t104 38.5z" />
    <glyph glyph-name="slash" unicode="/" horiz-adv-x="810" 
d="M193 -125h-191l573 1581h191z" />
    <glyph glyph-name="zero" unicode="0" horiz-adv-x="861" 
d="M429 398q27 0 50 10t40.5 27.5t27.5 41t10 49.5t-10 49.5t-27.5 41t-40.5 27.5t-50 10q-26 0 -49.5 -10t-41 -27.5t-27.5 -41t-10 -49.5t10 -49.5t27.5 -41t41 -27.5t49.5 -10zM429 816q60 0 113 -23t92 -62t62 -92t23 -113t-23 -113t-62 -92t-92 -62t-113 -23t-113 23
t-92 62t-62 92t-23 113t23 113t62 92t92 62t113 23z" />
    <glyph glyph-name="one" unicode="1" horiz-adv-x="762" 
d="M347 1467q1 -1 16 -35t37 -95.5t48 -147t50 -189.5t42.5 -223.5t23.5 -213.5t5 -155q0 -70 -6 -173t-35 -237l-102 -23q1 38 1 75q0 143 -14 288t-41 281.5t-61.5 247.5t-67.5 195.5t-61.5 142t-42.5 86.5z" />
    <glyph glyph-name="two" unicode="2" horiz-adv-x="1149" 
d="M340 1466q2 -1 20.5 -45t45.5 -123q25 -69 51.5 -113.5t61 -71t80.5 -37t110 -10.5q68 0 114.5 25t75 70t40.5 107t12 136l96 33q4 -41 4 -84q0 -29 -3 -80t-19 -119.5t-43.5 -129.5t-68.5 -107t-96 -72.5t-125 -26.5q-46 0 -78 2.5t-52 5.5t-30 6t-13 4
q16 -94 26.5 -195.5t11.5 -162t1 -75.5q0 -92 -9 -194.5t-33 -211.5l-102 -23q1 38 1 75q0 143 -14 288t-41 281.5t-61.5 247.5t-67.5 195.5t-61.5 142t-42.5 86.5z" />
    <glyph glyph-name="three" unicode="3" horiz-adv-x="1439" 
d="M328 1461q2 -1 21 -45t46 -123q25 -69 44.5 -113.5t44 -71t58 -37t87.5 -10.5q68 0 110.5 25.5t66.5 71t32.5 108t8.5 136.5l93 32q4 -53 4 -108q0 -22 -1.5 -73t-17.5 -124q18 -35 51.5 -51.5t87.5 -16.5q55 0 89.5 25.5t54 70.5t27 107.5t7.5 136.5l93 34q6 -64 6 -131
q0 -5 -0.5 -44.5t-9.5 -108.5t-28.5 -130.5t-51.5 -107.5t-78 -73t-109 -27q-52 0 -88 20t-59.5 46t-35 50.5t-14.5 33.5q-38 -68 -98.5 -109t-148.5 -41q-42 0 -72.5 8t-35.5 10q16 -94 26.5 -195.5t11.5 -162t1 -75.5q0 -92 -9 -194.5t-33 -211.5l-102 -23q1 38 1 75
q0 143 -14 288t-41 281.5t-61.5 247.5t-67.5 195.5t-61.5 142t-42.5 86.5z" />
    <glyph glyph-name="four" unicode="4" horiz-adv-x="1346" 
d="M863 1490q41 0 81.5 -10.5t78.5 -34.5t73 -62.5t66 -95.5l-50 -61q-29 12 -62 22q-29 8 -65.5 15.5t-77.5 7.5h-18.5t-19.5 -2q-27 -3 -69 -15.5t-86.5 -40.5t-86 -75t-68.5 -119q24 -29 60.5 -48t82 -30.5t97 -16.5t104.5 -5q99 1 164 15.5t103 31.5q45 20 69 45
l-41 -245q-22 -11 -50.5 -24t-64.5 -25t-80.5 -21t-99.5 -12q-109 0 -205 31.5t-182 90.5l-1 3q17 -89 28.5 -186.5t12.5 -156.5t1 -74q0 -88 -8.5 -188.5t-31.5 -210.5l-105 -27q2 50 2 99q0 121 -15 256.5t-47 272.5t-73 251.5t-80 203t-71 149.5t-46 90l209 178
q22 -41 47 -95q21 -46 47 -111.5t52 -147.5q18 40 45 83t60 84t70.5 78.5t76.5 66t78 46t76 19.5q5 0 10 0.5t10 0.5z" />
    <glyph glyph-name="five" unicode="5" horiz-adv-x="1320" 
d="M388 226q46 0 89 16.5t78.5 46t62 70.5t40.5 91l93 -8q0 -20 -4 -44.5t-9 -45.5q-6 -25 -14 -49q13 -23 39 -41q22 -15 58.5 -27.5t93.5 -12.5q66 0 109 22t68 48q29 31 44 70q-8 84 -42 170t-84 168.5t-109.5 158.5t-119 141t-112 116.5t-88.5 84.5q-59 -90 -122 -179.5
t-118 -181t-96.5 -188t-56.5 -200.5q0 -34 4.5 -73.5t24 -73.5t60 -56.5t111.5 -22.5zM540 1574q2 -2 30 -27t72.5 -68t101.5 -103.5t116.5 -133.5t118 -158t106 -177t80.5 -190.5t42 -198.5q-5 -125 -15.5 -225t-41 -171t-89.5 -109t-160 -38q-20 0 -51.5 7.5t-64.5 29.5
t-62.5 61.5t-46.5 104.5q-26 -65 -60 -105t-71.5 -62t-76 -29t-74.5 -7q-99 0 -159.5 46t-90.5 122t-31.5 130t-1.5 66q0 85 16 174q28 126 63 230.5t75.5 197.5t87 180t99.5 179l-35 26z" />
    <glyph glyph-name="six" unicode="6" horiz-adv-x="1069" 
d="M574 1513q33 0 65 -6.5t64.5 -23.5t65.5 -45.5t68 -73.5l-37 -82q-13 5 -30 9q-15 3 -36 6t-50 3q-26 0 -57.5 -3t-68.5 -11q-59 -13 -102.5 -33.5t-76 -48.5t-55.5 -62.5t-40 -74.5q3 -19 29 -41t69 -40.5t100 -31t123 -12.5q38 0 77 5t81 16q9 3 25 10t36.5 15.5
t43.5 18.5l46 20q54 23 116 49l-53 -292q-158 -52 -319 -160q-67 -47 -139 -105.5t-142.5 -137.5t-137 -183.5t-121.5 -243.5l-81 66q9 70 31.5 137t52.5 129.5t65 119t70 104.5q83 113 181 210q-33 13 -72.5 32.5t-77.5 49.5t-71.5 72.5t-54.5 101.5q0 45 11.5 100.5
t33 112t52 111t68.5 98t82 73t93 36.5q37 6 73 6z" />
    <glyph glyph-name="seven" unicode="7" horiz-adv-x="1313" 
d="M1252 1304q-21 -25 -66 -81.5t-101.5 -141.5t-118 -197t-114.5 -248.5t-91 -296t-49 -338.5h-109q-11 179 -49.5 338.5t-91.5 296t-114 248.5t-117.5 197t-102 141.5t-66.5 81.5l158 225q89 -103 171 -246q35 -61 72 -137.5t72 -168t66.5 -197.5t55.5 -226
q24 120 55.5 226t66.5 197.5t72.5 168t72.5 137.5q82 143 171 246z" />
    <glyph glyph-name="eight" unicode="8" horiz-adv-x="1313" 
d="M710 1492q11 -179 49.5 -338.5t91.5 -296t114 -249t117.5 -197.5t101.5 -141.5t66 -81.5l-157 -224q-89 103 -171 246q-35 61 -72.5 137.5t-72.5 167.5t-66.5 197t-55.5 227q-24 -121 -55.5 -227t-66.5 -197t-72 -167.5t-72 -137.5q-82 -143 -171 -246l-158 224
q21 25 66.5 81.5t102 141.5t117.5 197.5t114 249t91.5 296t49.5 338.5h109z" />
    <glyph glyph-name="nine" unicode="9" horiz-adv-x="1089" 
d="M453 962q44 0 80.5 2.5t64.5 6.5q32 4 59 10q-3 17 -10 45t-20 60t-32 64.5t-46.5 59t-64 43t-83.5 16.5q-38 0 -69.5 -13.5t-55.5 -34.5t-41.5 -46.5t-29 -50.5t-17.5 -45.5t-7 -31.5q7 -23 30.5 -39t59.5 -26.5t82.5 -15t99.5 -4.5zM440 1514q71 -5 122.5 -43.5t87 -98
t58 -133.5t35.5 -149.5t19 -146t9 -123.5q10 -121 32 -217.5t51.5 -170t63.5 -126t68 -85.5l-101 -251q-65 63 -108.5 155t-69.5 195.5t-37.5 208.5t-12.5 195q-21 -8 -52 -14q-26 -5 -66 -9.5t-95 -4.5q-64 0 -124 22.5t-105 68t-67.5 108.5t-22.5 135q0 18 1 36q0 32 8 78
t24.5 95.5t42 98.5t60.5 88.5t79.5 63.5t99.5 24z" />
    </font>
</defs>
</svg>
